G75*
G70*
%OFA0B0*%
%FSLAX24Y24*%
%IPPOS*%
%LPD*%
%AMOC8*
5,1,8,0,0,1.08239X$1,22.5*
%
%ADD10C,0.0050*%
%ADD11C,0.0060*%
D10*
X005085Y005708D02*
X005221Y005708D01*
X005266Y005753D01*
X005266Y005843D01*
X005221Y005889D01*
X005085Y005889D01*
X005085Y005979D02*
X005085Y005708D01*
X005380Y005708D02*
X005380Y005843D01*
X005425Y005889D01*
X005560Y005889D01*
X005560Y005708D01*
X005675Y005753D02*
X005675Y005843D01*
X005765Y005843D01*
X005855Y005753D02*
X005810Y005708D01*
X005720Y005708D01*
X005675Y005753D01*
X005855Y005753D02*
X005855Y005934D01*
X005810Y005979D01*
X005720Y005979D01*
X005675Y005934D01*
X006264Y005934D02*
X006264Y005889D01*
X006309Y005843D01*
X006444Y005843D01*
X006559Y005798D02*
X006559Y005753D01*
X006604Y005708D01*
X006694Y005708D01*
X006739Y005753D01*
X006694Y005843D02*
X006604Y005843D01*
X006559Y005798D01*
X006559Y005934D02*
X006604Y005979D01*
X006694Y005979D01*
X006739Y005934D01*
X006739Y005889D01*
X006694Y005843D01*
X006853Y005753D02*
X006853Y005979D01*
X007033Y005979D02*
X007033Y005753D01*
X006988Y005708D01*
X006898Y005708D01*
X006853Y005753D01*
X006444Y005708D02*
X006444Y005979D01*
X006309Y005979D01*
X006264Y005934D01*
X006309Y005843D02*
X006264Y005798D01*
X006264Y005753D01*
X006309Y005708D01*
X006444Y005708D01*
X006479Y009958D02*
X006524Y010003D01*
X006524Y010093D01*
X006479Y010139D01*
X006389Y010139D01*
X006344Y010093D01*
X006344Y010048D01*
X006524Y010048D01*
X006479Y009958D02*
X006389Y009958D01*
X006185Y010003D02*
X006140Y009958D01*
X006185Y010003D02*
X006185Y010184D01*
X006230Y010139D02*
X006140Y010139D01*
X006639Y010139D02*
X006774Y010139D01*
X006819Y010093D01*
X006774Y010048D01*
X006684Y010048D01*
X006639Y010003D01*
X006684Y009958D01*
X006819Y009958D01*
X006934Y010048D02*
X007114Y010048D01*
X007114Y010003D02*
X007114Y010093D01*
X007069Y010139D01*
X006979Y010139D01*
X006934Y010093D01*
X006934Y010048D01*
X006979Y009958D02*
X007069Y009958D01*
X007114Y010003D01*
X007228Y009958D02*
X007318Y010048D01*
X007273Y010048D02*
X007408Y010048D01*
X007408Y009958D02*
X007408Y010229D01*
X007273Y010229D01*
X007228Y010184D01*
X007228Y010093D01*
X007273Y010048D01*
X007818Y010003D02*
X007818Y010093D01*
X007863Y010139D01*
X007953Y010139D01*
X007998Y010093D01*
X007998Y010003D01*
X007953Y009958D01*
X007863Y009958D01*
X007818Y010003D01*
X008104Y009958D02*
X008149Y010003D01*
X008149Y010184D01*
X008194Y010139D02*
X008104Y010139D01*
X008309Y010139D02*
X008309Y009958D01*
X008444Y009958D01*
X008489Y010003D01*
X008489Y010139D01*
X008603Y010139D02*
X008603Y009958D01*
X008603Y010093D02*
X008783Y010093D01*
X008783Y010139D02*
X008783Y009958D01*
X008783Y010139D02*
X008693Y010229D01*
X008603Y010139D01*
D11*
X006608Y004533D02*
X005508Y004533D01*
X005491Y004535D01*
X005474Y004539D01*
X005458Y004546D01*
X005444Y004556D01*
X005431Y004569D01*
X005421Y004583D01*
X005414Y004599D01*
X005410Y004616D01*
X005408Y004633D01*
X005408Y005233D01*
X005410Y005250D01*
X005414Y005267D01*
X005421Y005283D01*
X005431Y005297D01*
X005444Y005310D01*
X005458Y005320D01*
X005474Y005327D01*
X005491Y005331D01*
X005508Y005333D01*
X006608Y005333D01*
X006625Y005331D01*
X006642Y005327D01*
X006658Y005320D01*
X006672Y005310D01*
X006685Y005297D01*
X006695Y005283D01*
X006702Y005267D01*
X006706Y005250D01*
X006708Y005233D01*
X006708Y004633D01*
X006706Y004616D01*
X006702Y004599D01*
X006695Y004583D01*
X006685Y004569D01*
X006672Y004556D01*
X006658Y004546D01*
X006642Y004539D01*
X006625Y004535D01*
X006608Y004533D01*
X005858Y009033D02*
X005258Y009033D01*
X005241Y009035D01*
X005224Y009039D01*
X005208Y009046D01*
X005194Y009056D01*
X005181Y009069D01*
X005171Y009083D01*
X005164Y009099D01*
X005160Y009116D01*
X005158Y009133D01*
X005158Y010233D01*
X005160Y010250D01*
X005164Y010267D01*
X005171Y010283D01*
X005181Y010297D01*
X005194Y010310D01*
X005208Y010320D01*
X005224Y010327D01*
X005241Y010331D01*
X005258Y010333D01*
X005858Y010333D01*
X005875Y010331D01*
X005892Y010327D01*
X005908Y010320D01*
X005922Y010310D01*
X005935Y010297D01*
X005945Y010283D01*
X005952Y010267D01*
X005956Y010250D01*
X005958Y010233D01*
X005958Y009133D01*
X005956Y009116D01*
X005952Y009099D01*
X005945Y009083D01*
X005935Y009069D01*
X005922Y009056D01*
X005908Y009046D01*
X005892Y009039D01*
X005875Y009035D01*
X005858Y009033D01*
M02*
