G75*
G70*
%OFA0B0*%
%FSLAX24Y24*%
%IPPOS*%
%LPD*%
%AMOC8*
5,1,8,0,0,1.08239X$1,22.5*
%
%ADD10C,0.1162*%
%ADD11C,0.0197*%
%ADD12C,0.0040*%
%ADD13R,0.0560X0.0560*%
%ADD14R,0.0257X0.1044*%
%ADD15R,0.0847X0.1044*%
%ADD16C,0.0414*%
%ADD17R,0.0360X0.0360*%
%ADD18R,0.1399X0.0808*%
%ADD19R,0.0532X0.0375*%
%ADD20R,0.0651X0.0572*%
%ADD21R,0.0572X0.0651*%
%ADD22C,0.0920*%
%ADD23R,0.0690X0.0572*%
%ADD24R,0.0808X0.0808*%
%ADD25R,0.0769X0.0729*%
%ADD26R,0.1635X0.0532*%
%ADD27R,0.0860X0.0860*%
%ADD28C,0.0651*%
%ADD29C,0.0454*%
%ADD30R,0.0650X0.0850*%
%ADD31R,0.1560X0.0850*%
%ADD32R,0.0572X0.0690*%
%ADD33C,0.0620*%
%ADD34R,0.0651X0.0198*%
%ADD35R,0.0198X0.0651*%
%ADD36R,0.0450X0.0332*%
%ADD37R,0.0532X0.0296*%
%ADD38R,0.0926X0.0296*%
%ADD39R,0.0360X0.0660*%
%ADD40R,0.0296X0.0926*%
%ADD41R,0.0808X0.0493*%
%ADD42C,0.1560*%
%ADD43C,0.0690*%
%ADD44R,0.0320X0.0860*%
%ADD45R,0.0300X0.0930*%
%ADD46R,0.0690X0.1123*%
%ADD47OC8,0.0690*%
%ADD48R,0.0749X0.1910*%
%ADD49R,0.1005X0.1005*%
%ADD50R,0.0375X0.0414*%
%ADD51OC8,0.0620*%
%ADD52C,0.0920*%
D10*
X001430Y001430D03*
X001430Y031180D03*
X042055Y031180D03*
X042055Y001430D03*
D11*
X006827Y005908D02*
X005783Y005908D01*
X005783Y006952D01*
X006768Y006952D01*
X006827Y006893D01*
X006827Y005908D01*
X006827Y006095D02*
X005783Y006095D01*
X005783Y006291D02*
X006827Y006291D01*
X006827Y006486D02*
X005783Y006486D01*
X005783Y006681D02*
X006827Y006681D01*
X006827Y006877D02*
X005783Y006877D01*
D12*
X005498Y006883D02*
X005301Y006883D01*
X005301Y006961D01*
X005498Y006961D01*
X005498Y006883D01*
X005498Y006898D02*
X005301Y006898D01*
X005301Y006937D02*
X005498Y006937D01*
X005498Y007080D02*
X005301Y007080D01*
X005301Y007158D01*
X005478Y007158D01*
X005498Y007139D01*
X005498Y007080D01*
X005498Y007091D02*
X005301Y007091D01*
X005301Y007129D02*
X005498Y007129D01*
X005596Y007237D02*
X005655Y007237D01*
X005655Y007434D01*
X005577Y007434D01*
X005577Y007257D01*
X005596Y007237D01*
X005589Y007245D02*
X005655Y007245D01*
X005655Y007283D02*
X005577Y007283D01*
X005577Y007322D02*
X005655Y007322D01*
X005655Y007360D02*
X005577Y007360D01*
X005577Y007399D02*
X005655Y007399D01*
X005774Y007399D02*
X005852Y007399D01*
X005852Y007434D02*
X005774Y007434D01*
X005774Y007237D01*
X005852Y007237D01*
X005852Y007434D01*
X005852Y007360D02*
X005774Y007360D01*
X005774Y007322D02*
X005852Y007322D01*
X005852Y007283D02*
X005774Y007283D01*
X005774Y007245D02*
X005852Y007245D01*
X005970Y007245D02*
X006049Y007245D01*
X006049Y007237D02*
X005970Y007237D01*
X005970Y007434D01*
X006049Y007434D01*
X006049Y007237D01*
X006049Y007283D02*
X005970Y007283D01*
X005970Y007322D02*
X006049Y007322D01*
X006049Y007360D02*
X005970Y007360D01*
X005970Y007399D02*
X006049Y007399D01*
X006167Y007399D02*
X006246Y007399D01*
X006246Y007434D02*
X006167Y007434D01*
X006167Y007237D01*
X006246Y007237D01*
X006246Y007434D01*
X006246Y007360D02*
X006167Y007360D01*
X006167Y007322D02*
X006246Y007322D01*
X006246Y007283D02*
X006167Y007283D01*
X006167Y007245D02*
X006246Y007245D01*
X006364Y007245D02*
X006443Y007245D01*
X006443Y007237D02*
X006364Y007237D01*
X006364Y007434D01*
X006443Y007434D01*
X006443Y007237D01*
X006443Y007283D02*
X006364Y007283D01*
X006364Y007322D02*
X006443Y007322D01*
X006443Y007360D02*
X006364Y007360D01*
X006364Y007399D02*
X006443Y007399D01*
X006561Y007399D02*
X006640Y007399D01*
X006640Y007434D02*
X006561Y007434D01*
X006561Y007237D01*
X006640Y007237D01*
X006640Y007434D01*
X006640Y007360D02*
X006561Y007360D01*
X006561Y007322D02*
X006640Y007322D01*
X006640Y007283D02*
X006561Y007283D01*
X006561Y007245D02*
X006640Y007245D01*
X006758Y007245D02*
X006836Y007245D01*
X006836Y007237D02*
X006758Y007237D01*
X006758Y007434D01*
X006836Y007434D01*
X006836Y007237D01*
X006836Y007283D02*
X006758Y007283D01*
X006758Y007322D02*
X006836Y007322D01*
X006836Y007360D02*
X006758Y007360D01*
X006758Y007399D02*
X006836Y007399D01*
X006955Y007399D02*
X007033Y007399D01*
X007033Y007434D02*
X006955Y007434D01*
X006955Y007237D01*
X007014Y007237D01*
X007033Y007257D01*
X007033Y007434D01*
X007033Y007360D02*
X006955Y007360D01*
X006955Y007322D02*
X007033Y007322D01*
X007033Y007283D02*
X006955Y007283D01*
X006955Y007245D02*
X007021Y007245D01*
X007112Y007139D02*
X007112Y007080D01*
X007309Y007080D01*
X007309Y007158D01*
X007132Y007158D01*
X007112Y007139D01*
X007112Y007129D02*
X007309Y007129D01*
X007309Y007091D02*
X007112Y007091D01*
X007112Y006961D02*
X007309Y006961D01*
X007309Y006883D01*
X007112Y006883D01*
X007112Y006961D01*
X007112Y006937D02*
X007309Y006937D01*
X007309Y006898D02*
X007112Y006898D01*
X007112Y006765D02*
X007309Y006765D01*
X007309Y006686D01*
X007112Y006686D01*
X007112Y006765D01*
X007112Y006744D02*
X007309Y006744D01*
X007309Y006706D02*
X007112Y006706D01*
X007112Y006568D02*
X007309Y006568D01*
X007309Y006489D01*
X007112Y006489D01*
X007112Y006568D01*
X007112Y006552D02*
X007309Y006552D01*
X007309Y006513D02*
X007112Y006513D01*
X007112Y006371D02*
X007309Y006371D01*
X007309Y006292D01*
X007112Y006292D01*
X007112Y006371D01*
X007112Y006359D02*
X007309Y006359D01*
X007309Y006321D02*
X007112Y006321D01*
X007112Y006174D02*
X007309Y006174D01*
X007309Y006095D01*
X007112Y006095D01*
X007112Y006174D01*
X007112Y006167D02*
X007309Y006167D01*
X007309Y006128D02*
X007112Y006128D01*
X007112Y005977D02*
X007309Y005977D01*
X007309Y005899D01*
X007112Y005899D01*
X007112Y005977D01*
X007112Y005974D02*
X007309Y005974D01*
X007309Y005936D02*
X007112Y005936D01*
X007112Y005780D02*
X007309Y005780D01*
X007309Y005702D01*
X007132Y005702D01*
X007112Y005721D01*
X007112Y005780D01*
X007112Y005743D02*
X007309Y005743D01*
X007309Y005705D02*
X007129Y005705D01*
X007033Y005603D02*
X007014Y005623D01*
X006955Y005623D01*
X006955Y005426D01*
X007033Y005426D01*
X007033Y005603D01*
X007033Y005589D02*
X006955Y005589D01*
X006955Y005551D02*
X007033Y005551D01*
X007033Y005512D02*
X006955Y005512D01*
X006955Y005474D02*
X007033Y005474D01*
X007033Y005435D02*
X006955Y005435D01*
X006836Y005435D02*
X006758Y005435D01*
X006758Y005426D02*
X006836Y005426D01*
X006836Y005623D01*
X006758Y005623D01*
X006758Y005426D01*
X006758Y005474D02*
X006836Y005474D01*
X006836Y005512D02*
X006758Y005512D01*
X006758Y005551D02*
X006836Y005551D01*
X006836Y005589D02*
X006758Y005589D01*
X006640Y005589D02*
X006561Y005589D01*
X006561Y005623D02*
X006640Y005623D01*
X006640Y005426D01*
X006561Y005426D01*
X006561Y005623D01*
X006561Y005551D02*
X006640Y005551D01*
X006640Y005512D02*
X006561Y005512D01*
X006561Y005474D02*
X006640Y005474D01*
X006640Y005435D02*
X006561Y005435D01*
X006443Y005435D02*
X006364Y005435D01*
X006364Y005426D02*
X006443Y005426D01*
X006443Y005623D01*
X006364Y005623D01*
X006364Y005426D01*
X006364Y005474D02*
X006443Y005474D01*
X006443Y005512D02*
X006364Y005512D01*
X006364Y005551D02*
X006443Y005551D01*
X006443Y005589D02*
X006364Y005589D01*
X006246Y005589D02*
X006167Y005589D01*
X006167Y005623D02*
X006246Y005623D01*
X006246Y005426D01*
X006167Y005426D01*
X006167Y005623D01*
X006167Y005551D02*
X006246Y005551D01*
X006246Y005512D02*
X006167Y005512D01*
X006167Y005474D02*
X006246Y005474D01*
X006246Y005435D02*
X006167Y005435D01*
X006049Y005435D02*
X005970Y005435D01*
X005970Y005426D02*
X006049Y005426D01*
X006049Y005623D01*
X005970Y005623D01*
X005970Y005426D01*
X005970Y005474D02*
X006049Y005474D01*
X006049Y005512D02*
X005970Y005512D01*
X005970Y005551D02*
X006049Y005551D01*
X006049Y005589D02*
X005970Y005589D01*
X005852Y005589D02*
X005774Y005589D01*
X005774Y005623D02*
X005852Y005623D01*
X005852Y005426D01*
X005774Y005426D01*
X005774Y005623D01*
X005774Y005551D02*
X005852Y005551D01*
X005852Y005512D02*
X005774Y005512D01*
X005774Y005474D02*
X005852Y005474D01*
X005852Y005435D02*
X005774Y005435D01*
X005655Y005435D02*
X005577Y005435D01*
X005577Y005426D02*
X005655Y005426D01*
X005655Y005623D01*
X005596Y005623D01*
X005577Y005603D01*
X005577Y005426D01*
X005577Y005474D02*
X005655Y005474D01*
X005655Y005512D02*
X005577Y005512D01*
X005577Y005551D02*
X005655Y005551D01*
X005655Y005589D02*
X005577Y005589D01*
X005478Y005702D02*
X005498Y005721D01*
X005498Y005780D01*
X005301Y005780D01*
X005301Y005702D01*
X005478Y005702D01*
X005481Y005705D02*
X005301Y005705D01*
X005301Y005743D02*
X005498Y005743D01*
X005498Y005899D02*
X005301Y005899D01*
X005301Y005977D01*
X005498Y005977D01*
X005498Y005899D01*
X005498Y005936D02*
X005301Y005936D01*
X005301Y005974D02*
X005498Y005974D01*
X005498Y006095D02*
X005301Y006095D01*
X005301Y006174D01*
X005498Y006174D01*
X005498Y006095D01*
X005498Y006128D02*
X005301Y006128D01*
X005301Y006167D02*
X005498Y006167D01*
X005498Y006292D02*
X005301Y006292D01*
X005301Y006371D01*
X005498Y006371D01*
X005498Y006292D01*
X005498Y006321D02*
X005301Y006321D01*
X005301Y006359D02*
X005498Y006359D01*
X005498Y006489D02*
X005301Y006489D01*
X005301Y006568D01*
X005498Y006568D01*
X005498Y006489D01*
X005498Y006513D02*
X005301Y006513D01*
X005301Y006552D02*
X005498Y006552D01*
X005498Y006686D02*
X005301Y006686D01*
X005301Y006765D01*
X005498Y006765D01*
X005498Y006686D01*
X005498Y006706D02*
X005301Y006706D01*
X005301Y006744D02*
X005498Y006744D01*
D13*
X005055Y008843D03*
X005055Y009643D03*
X006780Y011180D03*
X007580Y011180D03*
X008651Y011183D03*
X009451Y011183D03*
X014180Y008580D03*
X014180Y007780D03*
X007680Y003330D03*
X007680Y002530D03*
X002555Y013030D03*
X002555Y013830D03*
X002555Y015155D03*
X002555Y015955D03*
X002555Y017905D03*
X002555Y018705D03*
X002555Y020030D03*
X002555Y020830D03*
X002555Y021780D03*
X002555Y022580D03*
X002555Y023530D03*
X002555Y024330D03*
X022030Y004180D03*
X022830Y004180D03*
X028905Y001305D03*
X029705Y001305D03*
D14*
X010935Y003789D03*
X010620Y003789D03*
X010305Y003789D03*
X009990Y003789D03*
X009675Y003789D03*
D15*
X008533Y003789D03*
X008533Y001624D03*
X012077Y001624D03*
X012077Y003789D03*
D16*
X011171Y002805D03*
X009439Y002805D03*
D17*
X007711Y004130D03*
X007711Y004730D03*
D18*
X011930Y006287D03*
X011930Y007823D03*
D19*
X006055Y003034D03*
X006055Y002326D03*
X005055Y002326D03*
X005055Y003034D03*
D20*
X005055Y003806D03*
X005055Y004554D03*
X006055Y004554D03*
X006055Y003806D03*
X010306Y010182D03*
X010306Y010930D03*
X023305Y005929D03*
X023305Y005181D03*
D21*
X023181Y007305D03*
X023929Y007305D03*
X027181Y001305D03*
X027929Y001305D03*
X010773Y006930D03*
X010025Y006930D03*
X009179Y006930D03*
X008431Y006930D03*
X008775Y008180D03*
X009523Y008180D03*
X007929Y008180D03*
X007181Y008180D03*
X004429Y013055D03*
X003681Y013055D03*
X012220Y020805D03*
X012890Y020805D03*
X021931Y014930D03*
X022679Y014930D03*
D22*
X038649Y019180D03*
X038649Y020180D03*
X038649Y021180D03*
X038649Y022180D03*
X038649Y023180D03*
X038649Y024180D03*
X038649Y025180D03*
X038649Y026180D03*
X036055Y028680D03*
X035055Y028680D03*
X034055Y028680D03*
X033055Y028680D03*
X032055Y028680D03*
X031055Y028680D03*
X029055Y028680D03*
X028055Y028680D03*
X027055Y028680D03*
X026055Y028680D03*
X025055Y028680D03*
X024055Y028680D03*
X022055Y028680D03*
X021055Y028680D03*
X020055Y028680D03*
X019055Y028680D03*
X018055Y028680D03*
X017055Y028680D03*
X015055Y028680D03*
X014055Y028680D03*
X013055Y028680D03*
X011055Y028680D03*
X010055Y028680D03*
X009055Y028680D03*
X007055Y028680D03*
X006055Y028680D03*
X005055Y028680D03*
X004055Y028680D03*
X003055Y028680D03*
X002805Y011430D03*
X002805Y010430D03*
X002805Y009430D03*
X002805Y008430D03*
X002805Y006680D03*
X002805Y005680D03*
X002805Y003930D03*
X002805Y002930D03*
D23*
X016680Y013306D03*
X017805Y013304D03*
X017805Y012556D03*
X017805Y014286D03*
X016680Y014054D03*
X017805Y015074D03*
X020805Y014949D03*
X020805Y014161D03*
X021305Y016068D03*
X021305Y016855D03*
X026305Y018786D03*
X026305Y019574D03*
X028305Y024306D03*
X028305Y025054D03*
X031805Y025054D03*
X031805Y024306D03*
X033055Y024306D03*
X033055Y025054D03*
X035055Y025054D03*
X035055Y024306D03*
X036055Y024306D03*
X036055Y025054D03*
X033930Y019324D03*
X033930Y018536D03*
X021805Y025962D03*
X021805Y026710D03*
X020805Y026679D03*
X020805Y025931D03*
X012930Y024304D03*
X012930Y023556D03*
X011180Y025306D03*
X011180Y026054D03*
X010055Y026054D03*
X010055Y025306D03*
X007055Y025306D03*
X007055Y026054D03*
X005055Y026054D03*
X005055Y025306D03*
X004055Y025306D03*
X004055Y026054D03*
D24*
X031844Y013592D03*
X037789Y013553D03*
D25*
X031844Y002096D03*
D26*
X029955Y002884D03*
X029955Y003947D03*
X029955Y004616D03*
X029955Y005561D03*
X029955Y006585D03*
X029955Y007529D03*
X029955Y008514D03*
X029955Y009498D03*
X029955Y010482D03*
X029955Y011466D03*
D27*
X033966Y002214D03*
X037785Y002214D03*
D28*
X039482Y003081D03*
D29*
X039482Y012529D03*
D30*
X029340Y018065D03*
X028440Y018065D03*
X027540Y018065D03*
D31*
X028430Y020545D03*
D32*
X032681Y022180D03*
X033429Y022180D03*
X029324Y016930D03*
X028536Y016930D03*
X025523Y016680D03*
X024775Y016680D03*
X022074Y012743D03*
X021286Y012743D03*
X012949Y013680D03*
X012161Y013680D03*
X010699Y014680D03*
X009911Y014680D03*
X012181Y016680D03*
X012929Y016680D03*
X012949Y017930D03*
X012161Y017930D03*
X010699Y017180D03*
X009911Y017180D03*
X008449Y018055D03*
X007661Y018055D03*
X006554Y018055D03*
X005806Y018055D03*
X005786Y019180D03*
X006574Y019180D03*
X007931Y019930D03*
X008679Y019930D03*
X008699Y021055D03*
X007911Y021055D03*
X007911Y022180D03*
X008699Y022180D03*
X010286Y021930D03*
X011074Y021930D03*
X012181Y021930D03*
X012929Y021930D03*
X010679Y019930D03*
X009931Y019930D03*
X004429Y020180D03*
X003681Y020180D03*
X003681Y021930D03*
X004429Y021930D03*
X004429Y023680D03*
X003681Y023680D03*
X003681Y016680D03*
X004429Y016680D03*
X004429Y014930D03*
X003681Y014930D03*
X016911Y024961D03*
X017699Y024961D03*
X015949Y026430D03*
X015161Y026430D03*
X025181Y001305D03*
X025929Y001305D03*
D33*
X027636Y007887D03*
X027636Y008674D03*
X027636Y009461D03*
X027636Y010249D03*
X027636Y011036D03*
X027636Y011824D03*
X027636Y012611D03*
X027636Y013399D03*
X027636Y014186D03*
X027636Y014973D03*
X018974Y014973D03*
X018974Y014186D03*
X018974Y013399D03*
X018974Y012611D03*
X018974Y011824D03*
X018974Y011036D03*
X018974Y010249D03*
X018974Y009461D03*
X018974Y008674D03*
X018974Y007887D03*
X006555Y024305D03*
X005555Y024305D03*
X014930Y025430D03*
X015930Y025430D03*
D34*
X014655Y023292D03*
X014655Y023095D03*
X014655Y022899D03*
X014655Y022702D03*
X014655Y022505D03*
X014655Y022308D03*
X014655Y022111D03*
X014655Y021914D03*
X014655Y021717D03*
X014655Y021521D03*
X014655Y021324D03*
X014655Y021127D03*
X014655Y020930D03*
X014655Y020733D03*
X014655Y020536D03*
X014655Y020339D03*
X014655Y020143D03*
X014655Y019946D03*
X014655Y019749D03*
X014655Y019552D03*
X014655Y019355D03*
X014655Y019158D03*
X014655Y018961D03*
X014655Y018765D03*
X014655Y018568D03*
X020955Y018568D03*
X020955Y018765D03*
X020955Y018961D03*
X020955Y019158D03*
X020955Y019355D03*
X020955Y019552D03*
X020955Y019749D03*
X020955Y019946D03*
X020955Y020143D03*
X020955Y020339D03*
X020955Y020536D03*
X020955Y020733D03*
X020955Y020930D03*
X020955Y021127D03*
X020955Y021324D03*
X020955Y021521D03*
X020955Y021717D03*
X020955Y021914D03*
X020955Y022111D03*
X020955Y022308D03*
X020955Y022505D03*
X020955Y022702D03*
X020955Y022899D03*
X020955Y023095D03*
X020955Y023292D03*
D35*
X020167Y024080D03*
X019970Y024080D03*
X019774Y024080D03*
X019577Y024080D03*
X019380Y024080D03*
X019183Y024080D03*
X018986Y024080D03*
X018789Y024080D03*
X018592Y024080D03*
X018396Y024080D03*
X018199Y024080D03*
X018002Y024080D03*
X017805Y024080D03*
X017608Y024080D03*
X017411Y024080D03*
X017214Y024080D03*
X017018Y024080D03*
X016821Y024080D03*
X016624Y024080D03*
X016427Y024080D03*
X016230Y024080D03*
X016033Y024080D03*
X015836Y024080D03*
X015640Y024080D03*
X015443Y024080D03*
X015443Y017780D03*
X015640Y017780D03*
X015836Y017780D03*
X016033Y017780D03*
X016230Y017780D03*
X016427Y017780D03*
X016624Y017780D03*
X016821Y017780D03*
X017018Y017780D03*
X017214Y017780D03*
X017411Y017780D03*
X017608Y017780D03*
X017805Y017780D03*
X018002Y017780D03*
X018199Y017780D03*
X018396Y017780D03*
X018592Y017780D03*
X018789Y017780D03*
X018986Y017780D03*
X019183Y017780D03*
X019380Y017780D03*
X019577Y017780D03*
X019774Y017780D03*
X019970Y017780D03*
X020167Y017780D03*
D36*
X013063Y019056D03*
X013063Y019430D03*
X013063Y019804D03*
X012043Y019804D03*
X012043Y019056D03*
X010813Y018804D03*
X010813Y018430D03*
X010813Y018056D03*
X009793Y018056D03*
X009793Y018804D03*
X009793Y016304D03*
X009793Y015556D03*
X010813Y015556D03*
X010813Y015930D03*
X010813Y016304D03*
X012043Y015554D03*
X012043Y014806D03*
X013063Y014806D03*
X013063Y015180D03*
X013063Y015554D03*
X008563Y023306D03*
X008563Y023680D03*
X008563Y024054D03*
X007543Y024054D03*
X007543Y023306D03*
D37*
X006694Y021054D03*
X006694Y020680D03*
X006694Y020306D03*
X005666Y020306D03*
X005666Y021054D03*
D38*
X009656Y022930D03*
X009656Y023430D03*
X009656Y023930D03*
X009656Y024430D03*
X011704Y024430D03*
X011704Y023930D03*
X011704Y023430D03*
X011704Y022930D03*
D39*
X013680Y006305D03*
X015180Y006305D03*
X015180Y004305D03*
X015180Y003305D03*
X013680Y003305D03*
X013680Y004305D03*
X013680Y001305D03*
X015180Y001305D03*
D40*
X031555Y018406D03*
X032055Y018406D03*
X032555Y018406D03*
X033055Y018406D03*
X033055Y020454D03*
X032555Y020454D03*
X032055Y020454D03*
X031555Y020454D03*
D41*
X018783Y025727D03*
X018783Y026633D03*
X017327Y026633D03*
X017327Y025727D03*
X009283Y010445D03*
X009283Y009540D03*
X007827Y009540D03*
X007827Y010445D03*
D42*
X038180Y029180D03*
X040180Y029180D03*
D43*
X030180Y024680D03*
X017930Y002305D03*
D44*
X023305Y012845D03*
X023805Y012845D03*
X024305Y012845D03*
X024805Y012845D03*
X025305Y012845D03*
X025805Y012845D03*
X026305Y012845D03*
X026805Y012845D03*
X026805Y015265D03*
X026305Y015265D03*
X025805Y015265D03*
X025305Y015265D03*
X024805Y015265D03*
X024305Y015265D03*
X023805Y015265D03*
X023305Y015265D03*
D45*
X022555Y007335D03*
X022055Y007335D03*
X021555Y007335D03*
X021055Y007335D03*
X021055Y005275D03*
X021555Y005275D03*
X022055Y005275D03*
X022555Y005275D03*
D46*
X022106Y008680D03*
X021004Y008680D03*
X023379Y009055D03*
X024481Y009055D03*
D47*
X017930Y001305D03*
D48*
X021555Y002305D03*
X023937Y002305D03*
D49*
X020055Y002064D03*
X020055Y003796D03*
D50*
X010554Y005286D03*
X009806Y005286D03*
X010180Y006113D03*
D51*
X011305Y009180D03*
X011305Y010180D03*
X011305Y011180D03*
X012305Y011180D03*
X012305Y010180D03*
X012305Y009180D03*
X023805Y024430D03*
X023805Y025430D03*
X024805Y025430D03*
X025805Y025430D03*
X025805Y024430D03*
X024805Y024430D03*
D52*
X031055Y017360D02*
X031055Y016500D01*
X033555Y016500D02*
X033555Y017360D01*
X037695Y017550D02*
X038555Y017550D01*
X038555Y014850D02*
X037695Y014850D01*
M02*
