G75*
G70*
%OFA0B0*%
%FSLAX24Y24*%
%IPPOS*%
%LPD*%
%AMOC8*
5,1,8,0,0,1.08239X$1,22.5*
%
%ADD10C,0.0040*%
%ADD11C,0.0080*%
%ADD12C,0.0050*%
%ADD13C,0.0110*%
%ADD14C,0.0150*%
%ADD15C,0.0020*%
%ADD16C,0.0060*%
%ADD17C,0.0118*%
%ADD18C,0.0100*%
%ADD19C,0.0030*%
D10*
X000751Y003064D02*
X000751Y003131D01*
X000785Y003164D01*
X000851Y003164D01*
X000885Y003131D01*
X000885Y003064D01*
X000851Y003031D01*
X000818Y003031D01*
X000818Y003164D01*
X000885Y003248D02*
X000885Y003282D01*
X000818Y003348D01*
X000751Y003348D02*
X000885Y003348D01*
X000851Y003436D02*
X000751Y003436D01*
X000751Y003536D01*
X000785Y003569D01*
X000818Y003536D01*
X000818Y003436D01*
X000851Y003436D02*
X000885Y003469D01*
X000885Y003536D01*
X000851Y003657D02*
X000785Y003657D01*
X000751Y003690D01*
X000751Y003790D01*
X000685Y003790D02*
X000885Y003790D01*
X000885Y003690D01*
X000851Y003657D01*
X000818Y003878D02*
X000785Y003878D01*
X000751Y003911D01*
X000751Y003978D01*
X000785Y004011D01*
X000851Y003978D02*
X000851Y003911D01*
X000818Y003878D01*
X000918Y003878D02*
X000952Y003911D01*
X000952Y003978D01*
X000918Y004011D01*
X000885Y004011D01*
X000851Y003978D01*
X000885Y005434D02*
X000885Y005534D01*
X000851Y005567D01*
X000818Y005534D01*
X000818Y005467D01*
X000785Y005434D01*
X000751Y005467D01*
X000751Y005567D01*
X000751Y005651D02*
X000818Y005751D01*
X000885Y005651D01*
X000952Y005751D02*
X000751Y005751D01*
X000751Y005839D02*
X000751Y005939D01*
X000785Y005972D01*
X000851Y005972D01*
X000885Y005939D01*
X000885Y005839D01*
X000851Y006060D02*
X000785Y006060D01*
X000751Y006093D01*
X000751Y006160D01*
X000785Y006193D01*
X000851Y006193D01*
X000885Y006160D01*
X000885Y006093D01*
X000851Y006060D01*
X000751Y006274D02*
X000751Y006341D01*
X000751Y006307D02*
X000952Y006307D01*
X000952Y006341D01*
X000885Y006425D02*
X000885Y006458D01*
X000818Y006525D01*
X000751Y006525D02*
X000885Y006525D01*
X000851Y006612D02*
X000818Y006612D01*
X000818Y006746D01*
X000785Y006746D02*
X000851Y006746D01*
X000885Y006712D01*
X000885Y006646D01*
X000851Y006612D01*
X000751Y006646D02*
X000751Y006712D01*
X000785Y006746D01*
X000751Y006826D02*
X000785Y006860D01*
X000918Y006860D01*
X000885Y006893D02*
X000885Y006826D01*
X000851Y006981D02*
X000751Y006981D01*
X000851Y006981D02*
X000885Y007014D01*
X000885Y007114D01*
X000751Y007114D01*
X000751Y007195D02*
X000751Y007261D01*
X000751Y007228D02*
X000952Y007228D01*
X000952Y007261D02*
X000952Y007195D01*
X000902Y008347D02*
X000701Y008347D01*
X000902Y008480D01*
X000701Y008480D01*
X000701Y008561D02*
X000701Y008628D01*
X000701Y008594D02*
X000902Y008594D01*
X000902Y008561D02*
X000902Y008628D01*
X000902Y008715D02*
X000768Y008715D01*
X000701Y008782D01*
X000768Y008849D01*
X000902Y008849D01*
X000868Y009273D02*
X000735Y009273D01*
X000701Y009307D01*
X000701Y009407D01*
X000902Y009407D01*
X000902Y009307D01*
X000868Y009273D01*
X000902Y009494D02*
X000701Y009494D01*
X000902Y009628D01*
X000701Y009628D01*
X000735Y009715D02*
X000802Y009715D01*
X000802Y009782D01*
X000868Y009849D02*
X000735Y009849D01*
X000701Y009815D01*
X000701Y009749D01*
X000735Y009715D01*
X000868Y009715D02*
X000902Y009749D01*
X000902Y009815D01*
X000868Y009849D01*
X000868Y010369D02*
X000802Y010369D01*
X000768Y010403D01*
X000768Y010503D01*
X000701Y010503D02*
X000902Y010503D01*
X000902Y010403D01*
X000868Y010369D01*
X000902Y010590D02*
X000701Y010590D01*
X000768Y010657D01*
X000701Y010724D01*
X000902Y010724D01*
X000701Y011081D02*
X000701Y011215D01*
X000902Y011215D01*
X000802Y011302D02*
X000802Y011436D01*
X000701Y011523D02*
X000701Y011657D01*
X000902Y011657D01*
X000902Y011744D02*
X000902Y011878D01*
X000902Y011811D02*
X000701Y011811D01*
X000701Y012032D02*
X000902Y012032D01*
X000902Y012099D02*
X000902Y011965D01*
X001093Y013038D02*
X001093Y013071D01*
X001026Y013138D01*
X000959Y013138D02*
X001093Y013138D01*
X001060Y013226D02*
X001026Y013226D01*
X001026Y013359D01*
X000993Y013359D02*
X001060Y013359D01*
X001093Y013326D01*
X001093Y013259D01*
X001060Y013226D01*
X000959Y013259D02*
X000959Y013326D01*
X000993Y013359D01*
X000993Y013447D02*
X001093Y013447D01*
X000993Y013447D02*
X000959Y013480D01*
X000993Y013513D01*
X000959Y013547D01*
X000993Y013580D01*
X001093Y013580D01*
X001060Y013668D02*
X001093Y013701D01*
X001093Y013768D01*
X001060Y013801D01*
X000993Y013801D01*
X000959Y013768D01*
X000959Y013701D01*
X000993Y013668D01*
X001060Y013668D01*
X001060Y013889D02*
X001026Y013922D01*
X001026Y014022D01*
X000959Y014022D02*
X001160Y014022D01*
X001160Y013922D01*
X001126Y013889D01*
X001060Y013889D01*
X001093Y014319D02*
X001093Y014419D01*
X001060Y014453D01*
X001026Y014419D01*
X001026Y014353D01*
X000993Y014319D01*
X000959Y014353D01*
X000959Y014453D01*
X000959Y014537D02*
X001026Y014637D01*
X001093Y014537D01*
X001160Y014637D02*
X000959Y014637D01*
X000959Y014724D02*
X000959Y014825D01*
X000993Y014858D01*
X001060Y014858D01*
X001093Y014825D01*
X001093Y014724D01*
X001060Y014945D02*
X001093Y014979D01*
X001093Y015046D01*
X001060Y015079D01*
X000993Y015079D01*
X000959Y015046D01*
X000959Y014979D01*
X000993Y014945D01*
X001060Y014945D01*
X000959Y015159D02*
X000959Y015226D01*
X000959Y015193D02*
X001160Y015193D01*
X001160Y015226D01*
X001093Y015310D02*
X001093Y015344D01*
X001026Y015410D01*
X000959Y015410D02*
X001093Y015410D01*
X001060Y015498D02*
X001026Y015498D01*
X001026Y015631D01*
X000993Y015631D02*
X001060Y015631D01*
X001093Y015598D01*
X001093Y015531D01*
X001060Y015498D01*
X000959Y015531D02*
X000959Y015598D01*
X000993Y015631D01*
X000959Y015712D02*
X000993Y015745D01*
X001126Y015745D01*
X001093Y015712D02*
X001093Y015779D01*
X001060Y015866D02*
X000959Y015866D01*
X001060Y015866D02*
X001093Y015900D01*
X001093Y016000D01*
X000959Y016000D01*
X000959Y016080D02*
X000959Y016147D01*
X000959Y016114D02*
X001160Y016114D01*
X001160Y016147D02*
X001160Y016080D01*
X001093Y016538D02*
X001093Y016571D01*
X001026Y016638D01*
X000959Y016638D02*
X001093Y016638D01*
X001060Y016726D02*
X001026Y016726D01*
X001026Y016859D01*
X000993Y016859D02*
X001060Y016859D01*
X001093Y016826D01*
X001093Y016759D01*
X001060Y016726D01*
X000959Y016759D02*
X000959Y016826D01*
X000993Y016859D01*
X000993Y016947D02*
X001026Y016980D01*
X001026Y017047D01*
X001060Y017080D01*
X001093Y017047D01*
X001093Y016947D01*
X000993Y016947D02*
X000959Y016980D01*
X000959Y017080D01*
X000959Y017168D02*
X000959Y017268D01*
X000993Y017301D01*
X001026Y017268D01*
X001026Y017168D01*
X001060Y017168D02*
X000959Y017168D01*
X001060Y017168D02*
X001093Y017201D01*
X001093Y017268D01*
X000959Y017389D02*
X000959Y017522D01*
X001160Y017522D01*
X001093Y018063D02*
X000926Y018063D01*
X000893Y018096D01*
X000893Y018129D01*
X000959Y018163D02*
X000959Y018063D01*
X000959Y018163D02*
X000993Y018196D01*
X001093Y018196D01*
X001093Y018284D02*
X001093Y018384D01*
X001060Y018417D01*
X001026Y018384D01*
X001026Y018317D01*
X000993Y018284D01*
X000959Y018317D01*
X000959Y018417D01*
X000959Y018505D02*
X001093Y018505D01*
X001093Y018638D02*
X000993Y018638D01*
X000959Y018605D01*
X000959Y018505D01*
X000993Y018726D02*
X000959Y018759D01*
X000959Y018859D01*
X001160Y018859D01*
X001160Y018759D01*
X001126Y018726D01*
X001093Y018726D01*
X001060Y018759D01*
X001060Y018859D01*
X001060Y018759D02*
X001026Y018726D01*
X000993Y018726D01*
X000993Y019168D02*
X001126Y019168D01*
X001160Y019201D01*
X001160Y019301D01*
X000959Y019301D01*
X000959Y019201D01*
X000993Y019168D01*
X000993Y019389D02*
X000959Y019422D01*
X000959Y019489D01*
X000993Y019522D01*
X001060Y019489D02*
X001060Y019422D01*
X001026Y019389D01*
X000993Y019389D01*
X001060Y019489D02*
X001093Y019522D01*
X001126Y019522D01*
X001160Y019489D01*
X001160Y019422D01*
X001126Y019389D01*
X001060Y019909D02*
X001026Y019909D01*
X001026Y020042D01*
X000993Y020042D02*
X001060Y020042D01*
X001093Y020009D01*
X001093Y019942D01*
X001060Y019909D01*
X000959Y019942D02*
X000959Y020009D01*
X000993Y020042D01*
X000959Y020130D02*
X001060Y020130D01*
X001093Y020163D01*
X001060Y020196D01*
X000959Y020196D01*
X000959Y020263D02*
X001093Y020263D01*
X001093Y020230D01*
X001060Y020196D01*
X001060Y020351D02*
X001093Y020384D01*
X001093Y020451D01*
X001060Y020484D01*
X000993Y020484D01*
X000959Y020451D01*
X000959Y020384D01*
X000993Y020351D01*
X001060Y020351D01*
X001060Y020572D02*
X001060Y020705D01*
X001160Y020705D02*
X000959Y020705D01*
X000959Y020572D02*
X001160Y020572D01*
X001160Y021014D02*
X000959Y021147D01*
X000959Y021014D02*
X001160Y021147D01*
X001060Y021659D02*
X001026Y021659D01*
X001026Y021792D01*
X000993Y021792D02*
X001060Y021792D01*
X001093Y021759D01*
X001093Y021692D01*
X001060Y021659D01*
X000959Y021692D02*
X000959Y021759D01*
X000993Y021792D01*
X000959Y021880D02*
X001060Y021880D01*
X001093Y021913D01*
X001060Y021946D01*
X000959Y021946D01*
X000959Y022013D02*
X001093Y022013D01*
X001093Y021980D01*
X001060Y021946D01*
X001060Y022101D02*
X001093Y022134D01*
X001093Y022201D01*
X001060Y022234D01*
X000993Y022234D01*
X000959Y022201D01*
X000959Y022134D01*
X000993Y022101D01*
X001060Y022101D01*
X001060Y022322D02*
X001060Y022455D01*
X001160Y022455D02*
X000959Y022455D01*
X000959Y022322D02*
X001160Y022322D01*
X001160Y022764D02*
X001126Y022764D01*
X001060Y022830D01*
X000959Y022830D01*
X001060Y022830D02*
X001126Y022897D01*
X001160Y022897D01*
X001060Y023409D02*
X001026Y023409D01*
X001026Y023542D01*
X000993Y023542D02*
X001060Y023542D01*
X001093Y023509D01*
X001093Y023442D01*
X001060Y023409D01*
X000959Y023442D02*
X000959Y023509D01*
X000993Y023542D01*
X000959Y023630D02*
X001060Y023630D01*
X001093Y023663D01*
X001060Y023696D01*
X000959Y023696D01*
X000959Y023763D02*
X001093Y023763D01*
X001093Y023730D01*
X001060Y023696D01*
X001060Y023851D02*
X001093Y023884D01*
X001093Y023951D01*
X001060Y023984D01*
X000993Y023984D01*
X000959Y023951D01*
X000959Y023884D01*
X000993Y023851D01*
X001060Y023851D01*
X001060Y024072D02*
X001060Y024205D01*
X001160Y024205D02*
X000959Y024205D01*
X000959Y024072D02*
X001160Y024072D01*
X001160Y024514D02*
X001126Y024514D01*
X000993Y024647D01*
X000959Y024647D01*
X000959Y024514D01*
X001160Y024514D02*
X001160Y024647D01*
X002926Y024435D02*
X002993Y024501D01*
X002993Y024301D01*
X002926Y024301D02*
X003060Y024301D01*
X003368Y024301D02*
X003368Y024501D01*
X003468Y024435D02*
X003368Y024368D01*
X003468Y024301D01*
X004739Y025294D02*
X004806Y025361D01*
X004806Y025327D02*
X004806Y025427D01*
X004739Y025427D02*
X004939Y025427D01*
X004939Y025327D01*
X004906Y025294D01*
X004839Y025294D01*
X004806Y025327D01*
X004772Y025736D02*
X004739Y025769D01*
X004739Y025836D01*
X004772Y025869D01*
X004906Y025736D01*
X004772Y025736D01*
X004772Y025869D02*
X004906Y025869D01*
X004939Y025836D01*
X004939Y025769D01*
X004906Y025736D01*
X004906Y025957D02*
X004939Y025990D01*
X004939Y026057D01*
X004906Y026090D01*
X004906Y026178D02*
X004939Y026211D01*
X004939Y026278D01*
X004906Y026311D01*
X004906Y026178D02*
X004872Y026178D01*
X004739Y026311D01*
X004739Y026178D01*
X004739Y026090D02*
X004872Y025957D01*
X004906Y025957D01*
X004739Y025957D02*
X004739Y026090D01*
X005801Y026551D02*
X005935Y026551D01*
X005868Y026551D02*
X005868Y026751D01*
X005801Y026685D01*
X006022Y026718D02*
X006022Y026585D01*
X006156Y026718D01*
X006156Y026585D01*
X006122Y026551D01*
X006056Y026551D01*
X006022Y026585D01*
X006022Y026718D02*
X006056Y026751D01*
X006122Y026751D01*
X006156Y026718D01*
X006464Y026751D02*
X006464Y026551D01*
X006464Y026618D02*
X006564Y026685D01*
X006464Y026618D02*
X006564Y026551D01*
X008489Y025749D02*
X008489Y025615D01*
X008489Y025682D02*
X008689Y025682D01*
X008622Y025749D01*
X008656Y025528D02*
X008689Y025494D01*
X008689Y025428D01*
X008656Y025394D01*
X008522Y025528D01*
X008489Y025494D01*
X008489Y025428D01*
X008522Y025394D01*
X008656Y025394D01*
X008656Y025528D02*
X008522Y025528D01*
X008489Y025086D02*
X008689Y025086D01*
X008622Y024986D02*
X008556Y025086D01*
X008489Y024986D01*
X010801Y025048D02*
X010868Y025148D01*
X010935Y025048D01*
X011002Y025148D02*
X010801Y025148D01*
X010835Y025457D02*
X010801Y025490D01*
X010801Y025557D01*
X010835Y025590D01*
X010968Y025457D01*
X010835Y025457D01*
X010968Y025457D02*
X011002Y025490D01*
X011002Y025557D01*
X010968Y025590D01*
X010835Y025590D01*
X010801Y025678D02*
X010801Y025811D01*
X010801Y025745D02*
X011002Y025745D01*
X010935Y025811D01*
X012808Y025433D02*
X012841Y025466D01*
X012908Y025466D01*
X012941Y025433D01*
X012941Y025399D01*
X012808Y025266D01*
X012941Y025266D01*
X013029Y025266D02*
X013162Y025399D01*
X013162Y025433D01*
X013129Y025466D01*
X013062Y025466D01*
X013029Y025433D01*
X013029Y025266D02*
X013162Y025266D01*
X013471Y025266D02*
X013571Y025266D01*
X013604Y025299D01*
X013604Y025366D01*
X013571Y025399D01*
X013471Y025399D01*
X013471Y025199D01*
X013692Y025266D02*
X013692Y025466D01*
X013825Y025466D01*
X013758Y025366D02*
X013692Y025366D01*
X014183Y027141D02*
X014316Y027274D01*
X014316Y027308D01*
X014283Y027341D01*
X014216Y027341D01*
X014183Y027308D01*
X014183Y027141D02*
X014316Y027141D01*
X014404Y027141D02*
X014537Y027274D01*
X014537Y027308D01*
X014504Y027341D01*
X014437Y027341D01*
X014404Y027308D01*
X014404Y027141D02*
X014537Y027141D01*
X014846Y027141D02*
X014946Y027141D01*
X014979Y027174D01*
X014979Y027241D01*
X014946Y027274D01*
X014846Y027274D01*
X014846Y027074D01*
X015067Y027141D02*
X015067Y027341D01*
X015200Y027341D01*
X015133Y027241D02*
X015067Y027241D01*
X016581Y025401D02*
X016581Y025201D01*
X016647Y025201D02*
X016514Y025201D01*
X016514Y025335D02*
X016581Y025401D01*
X016735Y025301D02*
X016835Y025301D01*
X016868Y025268D01*
X016868Y025235D01*
X016835Y025201D01*
X016768Y025201D01*
X016735Y025235D01*
X016735Y025301D01*
X016802Y025368D01*
X016868Y025401D01*
X017177Y025401D02*
X017244Y025335D01*
X017310Y025401D01*
X017310Y025201D01*
X017398Y025201D02*
X017398Y025401D01*
X017398Y025301D02*
X017531Y025301D01*
X017619Y025335D02*
X017752Y025335D01*
X017619Y025201D01*
X017752Y025201D01*
X017531Y025201D02*
X017531Y025401D01*
X017177Y025401D02*
X017177Y025201D01*
X019301Y025426D02*
X019435Y025426D01*
X019368Y025426D02*
X019368Y025626D01*
X019301Y025560D01*
X019522Y025593D02*
X019556Y025626D01*
X019622Y025626D01*
X019656Y025593D01*
X019522Y025460D01*
X019556Y025426D01*
X019622Y025426D01*
X019656Y025460D01*
X019656Y025593D01*
X019522Y025593D02*
X019522Y025460D01*
X019964Y025493D02*
X020064Y025560D01*
X019964Y025626D02*
X019964Y025426D01*
X019964Y025493D02*
X020064Y025426D01*
X020895Y025426D02*
X021029Y025426D01*
X020962Y025426D02*
X020962Y025626D01*
X020895Y025560D01*
X021116Y025593D02*
X021149Y025626D01*
X021216Y025626D01*
X021250Y025593D01*
X021116Y025460D01*
X021149Y025426D01*
X021216Y025426D01*
X021250Y025460D01*
X021250Y025593D01*
X021116Y025593D02*
X021116Y025460D01*
X021558Y025493D02*
X021658Y025560D01*
X021558Y025626D02*
X021558Y025426D01*
X021558Y025493D02*
X021658Y025426D01*
X023826Y022401D02*
X023826Y022201D01*
X023960Y022201D01*
X024047Y022235D02*
X024081Y022201D01*
X024181Y022201D01*
X024181Y022335D01*
X024268Y022401D02*
X024268Y022201D01*
X024268Y022268D02*
X024368Y022201D01*
X024453Y022235D02*
X024486Y022201D01*
X024553Y022201D01*
X024586Y022268D02*
X024453Y022268D01*
X024453Y022235D02*
X024453Y022301D01*
X024486Y022335D01*
X024553Y022335D01*
X024586Y022301D01*
X024586Y022268D01*
X024368Y022335D02*
X024268Y022268D01*
X024047Y022235D02*
X024047Y022335D01*
X024894Y022401D02*
X024894Y022201D01*
X024961Y022268D01*
X025028Y022201D01*
X025028Y022401D01*
X025115Y022301D02*
X025149Y022335D01*
X025216Y022335D01*
X025249Y022301D01*
X025249Y022268D01*
X025115Y022268D01*
X025115Y022235D02*
X025115Y022301D01*
X025115Y022235D02*
X025149Y022201D01*
X025216Y022201D01*
X025336Y022201D02*
X025437Y022201D01*
X025470Y022235D01*
X025437Y022268D01*
X025370Y022268D01*
X025336Y022301D01*
X025370Y022335D01*
X025470Y022335D01*
X025557Y022335D02*
X025624Y022335D01*
X025591Y022368D02*
X025591Y022235D01*
X025624Y022201D01*
X025705Y022235D02*
X025738Y022201D01*
X025805Y022201D01*
X025838Y022235D01*
X025838Y022301D01*
X025805Y022335D01*
X025738Y022335D01*
X025705Y022301D01*
X025705Y022235D01*
X025926Y022201D02*
X025926Y022335D01*
X026026Y022335D01*
X026059Y022301D01*
X026059Y022201D01*
X026147Y022135D02*
X026213Y022201D01*
X026180Y022201D01*
X026180Y022235D01*
X026213Y022235D01*
X026213Y022201D01*
X026515Y022201D02*
X026648Y022335D01*
X026648Y022368D01*
X026615Y022401D01*
X026548Y022401D01*
X026515Y022368D01*
X026515Y022201D02*
X026648Y022201D01*
X026736Y022235D02*
X026769Y022201D01*
X026836Y022201D01*
X026869Y022235D01*
X026869Y022368D01*
X026736Y022235D01*
X026736Y022368D01*
X026769Y022401D01*
X026836Y022401D01*
X026869Y022368D01*
X026957Y022335D02*
X027024Y022401D01*
X027024Y022201D01*
X027090Y022201D02*
X026957Y022201D01*
X027178Y022201D02*
X027311Y022201D01*
X027245Y022201D02*
X027245Y022401D01*
X027178Y022335D01*
X027110Y021476D02*
X027043Y021410D01*
X026956Y021443D02*
X026922Y021476D01*
X026822Y021476D01*
X026822Y021276D01*
X026922Y021276D01*
X026956Y021310D01*
X026956Y021443D01*
X027110Y021476D02*
X027110Y021276D01*
X027043Y021276D02*
X027177Y021276D01*
X027264Y021276D02*
X027398Y021276D01*
X027331Y021276D02*
X027331Y021476D01*
X027264Y021410D01*
X027485Y021410D02*
X027552Y021476D01*
X027552Y021276D01*
X027485Y021276D02*
X027619Y021276D01*
X027706Y021276D02*
X027706Y021310D01*
X027840Y021443D01*
X027840Y021476D01*
X027706Y021476D01*
X027927Y021443D02*
X027927Y021410D01*
X027961Y021376D01*
X028027Y021376D01*
X028061Y021343D01*
X028061Y021310D01*
X028027Y021276D01*
X027961Y021276D01*
X027927Y021310D01*
X027927Y021443D02*
X027961Y021476D01*
X028027Y021476D01*
X028061Y021443D01*
X028148Y021443D02*
X028182Y021476D01*
X028248Y021476D01*
X028282Y021443D01*
X028282Y021410D01*
X028248Y021376D01*
X028282Y021343D01*
X028282Y021310D01*
X028248Y021276D01*
X028182Y021276D01*
X028148Y021310D01*
X028215Y021376D02*
X028248Y021376D01*
X028369Y021310D02*
X028403Y021276D01*
X028469Y021276D01*
X028503Y021310D01*
X028503Y021343D01*
X028469Y021376D01*
X028436Y021376D01*
X028469Y021376D02*
X028503Y021410D01*
X028503Y021443D01*
X028469Y021476D01*
X028403Y021476D01*
X028369Y021443D01*
X028893Y021421D02*
X029027Y021421D01*
X028960Y021421D02*
X028960Y021621D01*
X028893Y021554D01*
X029114Y021621D02*
X029114Y021421D01*
X029248Y021421D02*
X029114Y021621D01*
X029248Y021621D02*
X029248Y021421D01*
X029335Y021454D02*
X029369Y021421D01*
X029435Y021421D01*
X029469Y021454D01*
X029469Y021588D01*
X029435Y021621D01*
X029369Y021621D01*
X029335Y021588D01*
X029335Y021554D01*
X029369Y021521D01*
X029469Y021521D01*
X029556Y021554D02*
X029623Y021621D01*
X029623Y021421D01*
X029556Y021421D02*
X029690Y021421D01*
X029777Y021521D02*
X029911Y021521D01*
X029877Y021621D02*
X029777Y021521D01*
X029877Y021421D02*
X029877Y021621D01*
X031801Y022801D02*
X031935Y022801D01*
X031868Y022801D02*
X031868Y023001D01*
X031801Y022935D01*
X032022Y022968D02*
X032056Y023001D01*
X032122Y023001D01*
X032156Y022968D01*
X032022Y022835D01*
X032056Y022801D01*
X032122Y022801D01*
X032156Y022835D01*
X032156Y022968D01*
X032022Y022968D02*
X032022Y022835D01*
X032464Y022868D02*
X032564Y022935D01*
X032464Y023001D02*
X032464Y022801D01*
X032464Y022868D02*
X032564Y022801D01*
X032564Y023801D02*
X032464Y023868D01*
X032564Y023935D01*
X032464Y024001D02*
X032464Y023801D01*
X032156Y023835D02*
X032122Y023801D01*
X032056Y023801D01*
X032022Y023835D01*
X032156Y023968D01*
X032156Y023835D01*
X032156Y023968D02*
X032122Y024001D01*
X032056Y024001D01*
X032022Y023968D01*
X032022Y023835D01*
X031935Y023801D02*
X031801Y023801D01*
X031868Y023801D02*
X031868Y024001D01*
X031801Y023935D01*
X031314Y023935D02*
X031214Y023868D01*
X031314Y023801D01*
X031214Y023801D02*
X031214Y024001D01*
X030906Y023968D02*
X030772Y023835D01*
X030806Y023801D01*
X030872Y023801D01*
X030906Y023835D01*
X030906Y023968D01*
X030872Y024001D01*
X030806Y024001D01*
X030772Y023968D01*
X030772Y023835D01*
X030685Y023801D02*
X030551Y023801D01*
X030618Y023801D02*
X030618Y024001D01*
X030551Y023935D01*
X030571Y025676D02*
X030537Y025710D01*
X030537Y025776D01*
X030571Y025810D01*
X030637Y025810D01*
X030671Y025776D01*
X030671Y025743D01*
X030537Y025743D01*
X030571Y025676D02*
X030637Y025676D01*
X030457Y025676D02*
X030390Y025676D01*
X030423Y025676D02*
X030423Y025876D01*
X030390Y025876D01*
X030302Y025776D02*
X030269Y025810D01*
X030169Y025810D01*
X030169Y025876D02*
X030169Y025676D01*
X030269Y025676D01*
X030302Y025710D01*
X030302Y025776D01*
X030081Y025776D02*
X030081Y025676D01*
X029981Y025676D01*
X029948Y025710D01*
X029981Y025743D01*
X030081Y025743D01*
X030081Y025776D02*
X030048Y025810D01*
X029981Y025810D01*
X029861Y025810D02*
X029760Y025810D01*
X029727Y025776D01*
X029760Y025743D01*
X029827Y025743D01*
X029861Y025710D01*
X029827Y025676D01*
X029727Y025676D01*
X029646Y025676D02*
X029580Y025676D01*
X029613Y025676D02*
X029613Y025810D01*
X029580Y025810D01*
X029613Y025876D02*
X029613Y025910D01*
X029492Y025843D02*
X029459Y025876D01*
X029359Y025876D01*
X029359Y025676D01*
X029459Y025676D01*
X029492Y025710D01*
X029492Y025843D01*
X029054Y025810D02*
X029020Y025810D01*
X028954Y025743D01*
X028954Y025676D02*
X028954Y025810D01*
X028866Y025776D02*
X028866Y025743D01*
X028733Y025743D01*
X028733Y025710D02*
X028733Y025776D01*
X028766Y025810D01*
X028833Y025810D01*
X028866Y025776D01*
X028833Y025676D02*
X028766Y025676D01*
X028733Y025710D01*
X028645Y025710D02*
X028612Y025676D01*
X028512Y025676D01*
X028512Y025610D02*
X028512Y025810D01*
X028612Y025810D01*
X028645Y025776D01*
X028645Y025710D01*
X028424Y025710D02*
X028391Y025676D01*
X028291Y025676D01*
X028291Y025610D02*
X028291Y025810D01*
X028391Y025810D01*
X028424Y025776D01*
X028424Y025710D01*
X028203Y025743D02*
X028070Y025743D01*
X028070Y025710D02*
X028070Y025776D01*
X028103Y025810D01*
X028170Y025810D01*
X028203Y025776D01*
X028203Y025743D01*
X028170Y025676D02*
X028103Y025676D01*
X028070Y025710D01*
X027989Y025676D02*
X027956Y025710D01*
X027956Y025843D01*
X027989Y025810D02*
X027922Y025810D01*
X027835Y025843D02*
X027801Y025876D01*
X027735Y025876D01*
X027701Y025843D01*
X027701Y025810D01*
X027735Y025776D01*
X027801Y025776D01*
X027835Y025743D01*
X027835Y025710D01*
X027801Y025676D01*
X027735Y025676D01*
X027701Y025710D01*
X027714Y024001D02*
X027714Y023801D01*
X027714Y023868D02*
X027814Y023801D01*
X027714Y023868D02*
X027814Y023935D01*
X027406Y023968D02*
X027272Y023835D01*
X027306Y023801D01*
X027372Y023801D01*
X027406Y023835D01*
X027406Y023968D01*
X027372Y024001D01*
X027306Y024001D01*
X027272Y023968D01*
X027272Y023835D01*
X027185Y023801D02*
X027051Y023801D01*
X027118Y023801D02*
X027118Y024001D01*
X027051Y023935D01*
X026601Y021476D02*
X026601Y021276D01*
X026735Y021276D01*
X025172Y019541D02*
X025239Y019475D01*
X025039Y019475D01*
X025039Y019541D02*
X025039Y019408D01*
X025072Y019320D02*
X025206Y019187D01*
X025072Y019187D01*
X025039Y019220D01*
X025039Y019287D01*
X025072Y019320D01*
X025206Y019320D01*
X025239Y019287D01*
X025239Y019220D01*
X025206Y019187D01*
X025172Y018878D02*
X025072Y018878D01*
X025039Y018845D01*
X025039Y018745D01*
X025172Y018745D01*
X025139Y018657D02*
X025139Y018591D01*
X025039Y018657D02*
X025239Y018657D01*
X025239Y018524D01*
X025999Y017028D02*
X025999Y016828D01*
X025933Y016828D02*
X026066Y016828D01*
X026154Y016862D02*
X026287Y016995D01*
X026287Y016862D01*
X026254Y016828D01*
X026187Y016828D01*
X026154Y016862D01*
X026154Y016995D01*
X026187Y017028D01*
X026254Y017028D01*
X026287Y016995D01*
X026375Y016995D02*
X026408Y017028D01*
X026475Y017028D01*
X026508Y016995D01*
X026375Y016862D01*
X026408Y016828D01*
X026475Y016828D01*
X026508Y016862D01*
X026508Y016995D01*
X026375Y016995D02*
X026375Y016862D01*
X025999Y017028D02*
X025933Y016962D01*
X026817Y016962D02*
X026917Y016962D01*
X026950Y016928D01*
X026950Y016828D01*
X027038Y016828D02*
X027038Y017028D01*
X027171Y017028D01*
X027104Y016928D02*
X027038Y016928D01*
X026817Y016962D02*
X026817Y016828D01*
X025377Y014621D02*
X025277Y014521D01*
X025411Y014521D01*
X025377Y014421D02*
X025377Y014621D01*
X025123Y014621D02*
X025123Y014421D01*
X025056Y014421D02*
X025190Y014421D01*
X025056Y014554D02*
X025123Y014621D01*
X024969Y014588D02*
X024935Y014621D01*
X024869Y014621D01*
X024835Y014588D01*
X024835Y014554D01*
X024869Y014521D01*
X024969Y014521D01*
X024969Y014454D02*
X024969Y014588D01*
X024969Y014454D02*
X024935Y014421D01*
X024869Y014421D01*
X024835Y014454D01*
X024748Y014421D02*
X024748Y014621D01*
X024614Y014621D02*
X024748Y014421D01*
X024614Y014421D02*
X024614Y014621D01*
X024460Y014621D02*
X024460Y014421D01*
X024393Y014421D02*
X024527Y014421D01*
X024393Y014554D02*
X024460Y014621D01*
X021839Y015576D02*
X021739Y015643D01*
X021839Y015710D01*
X021739Y015776D02*
X021739Y015576D01*
X021431Y015610D02*
X021397Y015576D01*
X021331Y015576D01*
X021297Y015610D01*
X021431Y015743D01*
X021431Y015610D01*
X021431Y015743D02*
X021397Y015776D01*
X021331Y015776D01*
X021297Y015743D01*
X021297Y015610D01*
X021210Y015576D02*
X021076Y015576D01*
X021143Y015576D02*
X021143Y015776D01*
X021076Y015710D01*
X021035Y017078D02*
X020901Y017078D01*
X020968Y017078D02*
X020968Y017278D01*
X020901Y017212D01*
X021122Y017245D02*
X021156Y017278D01*
X021222Y017278D01*
X021256Y017245D01*
X021122Y017112D01*
X021156Y017078D01*
X021222Y017078D01*
X021256Y017112D01*
X021256Y017245D01*
X021343Y017245D02*
X021377Y017278D01*
X021443Y017278D01*
X021477Y017245D01*
X021343Y017112D01*
X021377Y017078D01*
X021443Y017078D01*
X021477Y017112D01*
X021477Y017245D01*
X021343Y017245D02*
X021343Y017112D01*
X021122Y017112D02*
X021122Y017245D01*
X021785Y017212D02*
X021785Y017078D01*
X021919Y017078D02*
X021919Y017178D01*
X021885Y017212D01*
X021785Y017212D01*
X022006Y017178D02*
X022073Y017178D01*
X022006Y017078D02*
X022006Y017278D01*
X022140Y017278D01*
X018677Y017212D02*
X018677Y017379D01*
X018543Y017379D02*
X018543Y017212D01*
X018577Y017179D01*
X018643Y017179D01*
X018677Y017212D01*
X018456Y017179D02*
X018456Y017312D01*
X018389Y017379D01*
X018322Y017312D01*
X018322Y017179D01*
X018235Y017212D02*
X018235Y017245D01*
X018201Y017279D01*
X018101Y017279D01*
X018101Y017212D01*
X018135Y017179D01*
X018201Y017179D01*
X018235Y017212D01*
X018322Y017279D02*
X018456Y017279D01*
X018235Y017379D02*
X018168Y017345D01*
X018101Y017279D01*
X018014Y017179D02*
X017880Y017179D01*
X017947Y017179D02*
X017947Y017379D01*
X017880Y017312D01*
X017793Y017279D02*
X017659Y017279D01*
X017572Y017345D02*
X017438Y017212D01*
X017472Y017179D01*
X017538Y017179D01*
X017572Y017212D01*
X017572Y017345D01*
X017538Y017379D01*
X017472Y017379D01*
X017438Y017345D01*
X017438Y017212D01*
X017351Y017212D02*
X017351Y017245D01*
X017317Y017279D01*
X017217Y017279D01*
X017217Y017212D01*
X017251Y017179D01*
X017317Y017179D01*
X017351Y017212D01*
X017284Y017345D02*
X017351Y017379D01*
X017284Y017345D02*
X017217Y017279D01*
X017130Y017279D02*
X017130Y017212D01*
X017096Y017179D01*
X017030Y017179D01*
X016996Y017212D01*
X016996Y017279D02*
X017063Y017312D01*
X017096Y017312D01*
X017130Y017279D01*
X017130Y017379D02*
X016996Y017379D01*
X016996Y017279D01*
X016909Y017312D02*
X016909Y017345D01*
X016875Y017379D01*
X016809Y017379D01*
X016775Y017345D01*
X016688Y017312D02*
X016688Y017179D01*
X016775Y017179D02*
X016909Y017312D01*
X016909Y017179D02*
X016775Y017179D01*
X016688Y017279D02*
X016554Y017279D01*
X016554Y017312D02*
X016621Y017379D01*
X016688Y017312D01*
X016554Y017312D02*
X016554Y017179D01*
X016467Y017212D02*
X016467Y017279D01*
X016400Y017279D01*
X016333Y017345D02*
X016333Y017212D01*
X016367Y017179D01*
X016433Y017179D01*
X016467Y017212D01*
X016467Y017345D02*
X016433Y017379D01*
X016367Y017379D01*
X016333Y017345D01*
X016246Y017379D02*
X016112Y017379D01*
X016112Y017179D01*
X016246Y017179D01*
X016179Y017279D02*
X016112Y017279D01*
X016025Y017379D02*
X016025Y017179D01*
X015891Y017179D02*
X015891Y017379D01*
X015958Y017312D01*
X016025Y017379D01*
X015804Y017379D02*
X015670Y017379D01*
X015737Y017379D02*
X015737Y017179D01*
X015583Y017179D02*
X015583Y017312D01*
X015516Y017379D01*
X015449Y017312D01*
X015449Y017179D01*
X015449Y017279D02*
X015583Y017279D01*
X015618Y015876D02*
X015618Y015676D01*
X015551Y015676D02*
X015685Y015676D01*
X015772Y015710D02*
X015906Y015843D01*
X015906Y015710D01*
X015872Y015676D01*
X015806Y015676D01*
X015772Y015710D01*
X015772Y015843D01*
X015806Y015876D01*
X015872Y015876D01*
X015906Y015843D01*
X015618Y015876D02*
X015551Y015810D01*
X015189Y015810D02*
X015089Y015743D01*
X015189Y015676D01*
X015089Y015676D02*
X015089Y015876D01*
X014781Y015843D02*
X014647Y015710D01*
X014681Y015676D01*
X014747Y015676D01*
X014781Y015710D01*
X014781Y015843D01*
X014747Y015876D01*
X014681Y015876D01*
X014647Y015843D01*
X014647Y015710D01*
X014560Y015676D02*
X014426Y015676D01*
X014493Y015676D02*
X014493Y015876D01*
X014426Y015810D01*
X013232Y015401D02*
X013232Y015201D01*
X013166Y015201D02*
X013299Y015201D01*
X013166Y015335D02*
X013232Y015401D01*
X013011Y015401D02*
X013011Y015201D01*
X012945Y015201D02*
X013078Y015201D01*
X012945Y015335D02*
X013011Y015401D01*
X012857Y015368D02*
X012824Y015401D01*
X012757Y015401D01*
X012724Y015368D01*
X012724Y015235D01*
X012757Y015201D01*
X012824Y015201D01*
X012857Y015235D01*
X012643Y015201D02*
X012576Y015201D01*
X012610Y015201D02*
X012610Y015401D01*
X012643Y015401D02*
X012576Y015401D01*
X012064Y016176D02*
X011964Y016243D01*
X012064Y016310D01*
X011964Y016376D02*
X011964Y016176D01*
X011656Y016210D02*
X011622Y016176D01*
X011556Y016176D01*
X011522Y016210D01*
X011656Y016343D01*
X011656Y016210D01*
X011656Y016343D02*
X011622Y016376D01*
X011556Y016376D01*
X011522Y016343D01*
X011522Y016210D01*
X011435Y016176D02*
X011301Y016176D01*
X011368Y016176D02*
X011368Y016376D01*
X011301Y016310D01*
X011312Y017328D02*
X011279Y017362D01*
X011412Y017495D01*
X011412Y017362D01*
X011379Y017328D01*
X011312Y017328D01*
X011279Y017362D02*
X011279Y017495D01*
X011312Y017528D01*
X011379Y017528D01*
X011412Y017495D01*
X011500Y017495D02*
X011500Y017362D01*
X011633Y017495D01*
X011633Y017362D01*
X011600Y017328D01*
X011533Y017328D01*
X011500Y017362D01*
X011500Y017495D02*
X011533Y017528D01*
X011600Y017528D01*
X011633Y017495D01*
X011942Y017462D02*
X011942Y017328D01*
X012075Y017328D02*
X012075Y017428D01*
X012042Y017462D01*
X011942Y017462D01*
X012163Y017428D02*
X012229Y017428D01*
X012163Y017328D02*
X012163Y017528D01*
X012296Y017528D01*
X011191Y017328D02*
X011058Y017328D01*
X011124Y017328D02*
X011124Y017528D01*
X011058Y017462D01*
X012201Y018701D02*
X012268Y018701D01*
X012235Y018701D02*
X012235Y018901D01*
X012268Y018901D02*
X012201Y018901D01*
X012349Y018868D02*
X012349Y018735D01*
X012382Y018701D01*
X012449Y018701D01*
X012482Y018735D01*
X012570Y018701D02*
X012703Y018701D01*
X012636Y018701D02*
X012636Y018901D01*
X012570Y018835D01*
X012482Y018868D02*
X012449Y018901D01*
X012382Y018901D01*
X012349Y018868D01*
X012791Y018868D02*
X012824Y018901D01*
X012891Y018901D01*
X012924Y018868D01*
X012924Y018835D01*
X012791Y018701D01*
X012924Y018701D01*
X012164Y020301D02*
X012064Y020368D01*
X012164Y020435D01*
X012064Y020501D02*
X012064Y020301D01*
X011756Y020335D02*
X011722Y020301D01*
X011656Y020301D01*
X011622Y020335D01*
X011756Y020468D01*
X011756Y020335D01*
X011756Y020468D02*
X011722Y020501D01*
X011656Y020501D01*
X011622Y020468D01*
X011622Y020335D01*
X011535Y020301D02*
X011401Y020301D01*
X011468Y020301D02*
X011468Y020501D01*
X011401Y020435D01*
X011368Y021426D02*
X011368Y021626D01*
X011301Y021560D01*
X011301Y021426D02*
X011435Y021426D01*
X011522Y021460D02*
X011656Y021593D01*
X011656Y021460D01*
X011622Y021426D01*
X011556Y021426D01*
X011522Y021460D01*
X011522Y021593D01*
X011556Y021626D01*
X011622Y021626D01*
X011656Y021593D01*
X011964Y021626D02*
X011964Y021426D01*
X011964Y021493D02*
X012064Y021560D01*
X011964Y021493D02*
X012064Y021426D01*
X010296Y021528D02*
X010163Y021528D01*
X010163Y021328D01*
X010075Y021328D02*
X010075Y021428D01*
X010042Y021462D01*
X009942Y021462D01*
X009942Y021328D01*
X010163Y021428D02*
X010229Y021428D01*
X009633Y021362D02*
X009600Y021328D01*
X009533Y021328D01*
X009500Y021362D01*
X009633Y021495D01*
X009633Y021362D01*
X009633Y021495D02*
X009600Y021528D01*
X009533Y021528D01*
X009500Y021495D01*
X009500Y021362D01*
X009412Y021362D02*
X009379Y021328D01*
X009312Y021328D01*
X009279Y021362D01*
X009412Y021495D01*
X009412Y021362D01*
X009412Y021495D02*
X009379Y021528D01*
X009312Y021528D01*
X009279Y021495D01*
X009279Y021362D01*
X009191Y021328D02*
X009058Y021328D01*
X009124Y021328D02*
X009124Y021528D01*
X009058Y021462D01*
X009118Y020751D02*
X009118Y020551D01*
X009051Y020551D02*
X009185Y020551D01*
X009272Y020585D02*
X009406Y020718D01*
X009406Y020585D01*
X009372Y020551D01*
X009306Y020551D01*
X009272Y020585D01*
X009272Y020718D01*
X009306Y020751D01*
X009372Y020751D01*
X009406Y020718D01*
X009118Y020751D02*
X009051Y020685D01*
X009714Y020751D02*
X009714Y020551D01*
X009714Y020618D02*
X009814Y020685D01*
X009714Y020618D02*
X009814Y020551D01*
X009766Y019401D02*
X009699Y019401D01*
X009666Y019368D01*
X009732Y019301D02*
X009766Y019301D01*
X009799Y019268D01*
X009799Y019235D01*
X009766Y019201D01*
X009699Y019201D01*
X009666Y019235D01*
X009578Y019201D02*
X009445Y019201D01*
X009511Y019201D02*
X009511Y019401D01*
X009445Y019335D01*
X009357Y019368D02*
X009324Y019401D01*
X009257Y019401D01*
X009224Y019368D01*
X009224Y019235D01*
X009257Y019201D01*
X009324Y019201D01*
X009357Y019235D01*
X009143Y019201D02*
X009076Y019201D01*
X009110Y019201D02*
X009110Y019401D01*
X009143Y019401D02*
X009076Y019401D01*
X009766Y019401D02*
X009799Y019368D01*
X009799Y019335D01*
X009766Y019301D01*
X007718Y019426D02*
X007618Y019493D01*
X007718Y019560D01*
X007618Y019626D02*
X007618Y019426D01*
X007310Y019426D02*
X007176Y019426D01*
X007243Y019426D02*
X007243Y019626D01*
X007176Y019560D01*
X005961Y019751D02*
X005961Y019951D01*
X005827Y019951D02*
X005961Y019751D01*
X005827Y019751D02*
X005827Y019951D01*
X005740Y019918D02*
X005606Y019785D01*
X005640Y019751D01*
X005706Y019751D01*
X005740Y019785D01*
X005740Y019918D01*
X005706Y019951D01*
X005640Y019951D01*
X005606Y019918D01*
X005606Y019785D01*
X005519Y019851D02*
X005385Y019851D01*
X005485Y019951D01*
X005485Y019751D01*
X005298Y019785D02*
X005264Y019751D01*
X005198Y019751D01*
X005164Y019785D01*
X005077Y019751D02*
X005077Y019885D01*
X005010Y019951D01*
X004943Y019885D01*
X004943Y019751D01*
X004943Y019851D02*
X005077Y019851D01*
X005164Y019918D02*
X005198Y019951D01*
X005264Y019951D01*
X005298Y019918D01*
X005298Y019885D01*
X005264Y019851D01*
X005298Y019818D01*
X005298Y019785D01*
X005264Y019851D02*
X005231Y019851D01*
X004856Y019851D02*
X004822Y019818D01*
X004722Y019818D01*
X004722Y019751D02*
X004722Y019951D01*
X004822Y019951D01*
X004856Y019918D01*
X004856Y019851D01*
X004635Y019785D02*
X004635Y019918D01*
X004601Y019951D01*
X004535Y019951D01*
X004501Y019918D01*
X004501Y019785D01*
X004535Y019751D01*
X004601Y019751D01*
X004635Y019785D01*
X003493Y019085D02*
X003393Y019018D01*
X003493Y018951D01*
X003393Y018951D02*
X003393Y019151D01*
X003085Y018951D02*
X002951Y018951D01*
X003018Y018951D02*
X003018Y019151D01*
X002951Y019085D01*
X002993Y017501D02*
X002993Y017301D01*
X002926Y017301D02*
X003060Y017301D01*
X002926Y017435D02*
X002993Y017501D01*
X003368Y017501D02*
X003368Y017301D01*
X003368Y017368D02*
X003468Y017435D01*
X003368Y017368D02*
X003468Y017301D01*
X005051Y017426D02*
X005185Y017426D01*
X005118Y017426D02*
X005118Y017626D01*
X005051Y017560D01*
X005493Y017626D02*
X005493Y017426D01*
X005493Y017493D02*
X005593Y017560D01*
X005493Y017493D02*
X005593Y017426D01*
X006558Y017578D02*
X006691Y017578D01*
X006624Y017578D02*
X006624Y017778D01*
X006558Y017712D01*
X006779Y017745D02*
X006812Y017778D01*
X006879Y017778D01*
X006912Y017745D01*
X006779Y017612D01*
X006812Y017578D01*
X006879Y017578D01*
X006912Y017612D01*
X006912Y017745D01*
X007000Y017745D02*
X007033Y017778D01*
X007100Y017778D01*
X007133Y017745D01*
X007000Y017612D01*
X007033Y017578D01*
X007100Y017578D01*
X007133Y017612D01*
X007133Y017745D01*
X007000Y017745D02*
X007000Y017612D01*
X006779Y017612D02*
X006779Y017745D01*
X007442Y017712D02*
X007542Y017712D01*
X007575Y017678D01*
X007575Y017578D01*
X007663Y017578D02*
X007663Y017778D01*
X007796Y017778D01*
X007729Y017678D02*
X007663Y017678D01*
X007442Y017712D02*
X007442Y017578D01*
X007499Y017278D02*
X007499Y017078D01*
X007433Y017078D02*
X007566Y017078D01*
X007654Y017112D02*
X007787Y017245D01*
X007787Y017112D01*
X007754Y017078D01*
X007687Y017078D01*
X007654Y017112D01*
X007654Y017245D01*
X007687Y017278D01*
X007754Y017278D01*
X007787Y017245D01*
X007875Y017245D02*
X007908Y017278D01*
X007975Y017278D01*
X008008Y017245D01*
X007875Y017112D01*
X007908Y017078D01*
X007975Y017078D01*
X008008Y017112D01*
X008008Y017245D01*
X007875Y017245D02*
X007875Y017112D01*
X007499Y017278D02*
X007433Y017212D01*
X008317Y017212D02*
X008317Y017078D01*
X008450Y017078D02*
X008450Y017178D01*
X008417Y017212D01*
X008317Y017212D01*
X008538Y017178D02*
X008604Y017178D01*
X008538Y017078D02*
X008538Y017278D01*
X008671Y017278D01*
X008516Y016151D02*
X008449Y016151D01*
X008416Y016118D01*
X008416Y015985D01*
X008549Y016118D01*
X008549Y015985D01*
X008516Y015951D01*
X008449Y015951D01*
X008416Y015985D01*
X008328Y015951D02*
X008195Y015951D01*
X008261Y015951D02*
X008261Y016151D01*
X008195Y016085D01*
X008107Y016118D02*
X008074Y016151D01*
X008007Y016151D01*
X007974Y016118D01*
X007974Y015985D01*
X008007Y015951D01*
X008074Y015951D01*
X008107Y015985D01*
X007893Y015951D02*
X007826Y015951D01*
X007860Y015951D02*
X007860Y016151D01*
X007893Y016151D02*
X007826Y016151D01*
X008516Y016151D02*
X008549Y016118D01*
X008874Y014278D02*
X008874Y014078D01*
X008808Y014078D02*
X008941Y014078D01*
X009029Y014112D02*
X009162Y014245D01*
X009162Y014112D01*
X009129Y014078D01*
X009062Y014078D01*
X009029Y014112D01*
X009029Y014245D01*
X009062Y014278D01*
X009129Y014278D01*
X009162Y014245D01*
X009250Y014245D02*
X009283Y014278D01*
X009350Y014278D01*
X009383Y014245D01*
X009250Y014112D01*
X009283Y014078D01*
X009350Y014078D01*
X009383Y014112D01*
X009383Y014245D01*
X009250Y014245D02*
X009250Y014112D01*
X008874Y014278D02*
X008808Y014212D01*
X008832Y013651D02*
X008865Y013618D01*
X008865Y013585D01*
X008832Y013551D01*
X008732Y013551D01*
X008832Y013551D02*
X008865Y013518D01*
X008865Y013485D01*
X008832Y013451D01*
X008732Y013451D01*
X008732Y013651D01*
X008832Y013651D01*
X008953Y013651D02*
X008953Y013518D01*
X009019Y013451D01*
X009086Y013518D01*
X009086Y013651D01*
X008644Y013618D02*
X008611Y013651D01*
X008511Y013651D01*
X008511Y013451D01*
X008611Y013451D01*
X008644Y013485D01*
X008644Y013618D01*
X008423Y013618D02*
X008390Y013651D01*
X008323Y013651D01*
X008290Y013618D01*
X008202Y013618D02*
X008069Y013485D01*
X008102Y013451D01*
X008169Y013451D01*
X008202Y013485D01*
X008202Y013618D01*
X008169Y013651D01*
X008102Y013651D01*
X008069Y013618D01*
X008069Y013485D01*
X007981Y013485D02*
X007981Y013551D01*
X007914Y013551D01*
X007848Y013485D02*
X007881Y013451D01*
X007948Y013451D01*
X007981Y013485D01*
X007981Y013618D02*
X007948Y013651D01*
X007881Y013651D01*
X007848Y013618D01*
X007848Y013485D01*
X007760Y013451D02*
X007627Y013451D01*
X007693Y013451D02*
X007693Y013651D01*
X007627Y013585D01*
X007539Y013618D02*
X007506Y013651D01*
X007439Y013651D01*
X007406Y013618D01*
X007406Y013485D01*
X007439Y013451D01*
X007506Y013451D01*
X007539Y013485D01*
X007318Y013451D02*
X007318Y013651D01*
X007318Y013551D02*
X007185Y013551D01*
X007097Y013551D02*
X006964Y013551D01*
X006964Y013585D02*
X007030Y013651D01*
X007097Y013585D01*
X007097Y013451D01*
X007185Y013451D02*
X007185Y013651D01*
X006964Y013585D02*
X006964Y013451D01*
X006843Y013451D02*
X006843Y013651D01*
X006743Y013551D01*
X006876Y013551D01*
X006655Y013618D02*
X006655Y013651D01*
X006522Y013651D01*
X006655Y013618D02*
X006522Y013485D01*
X006522Y013451D01*
X006224Y013451D02*
X006190Y013451D01*
X006190Y013485D01*
X006224Y013485D01*
X006224Y013451D01*
X006224Y013551D02*
X006190Y013551D01*
X006190Y013585D01*
X006224Y013585D01*
X006224Y013551D01*
X006103Y013585D02*
X006103Y013618D01*
X006069Y013651D01*
X006003Y013651D01*
X005969Y013618D01*
X006103Y013585D02*
X005969Y013451D01*
X006103Y013451D01*
X005882Y013451D02*
X005748Y013451D01*
X005815Y013451D02*
X005815Y013651D01*
X005748Y013585D01*
X005661Y013618D02*
X005627Y013651D01*
X005561Y013651D01*
X005527Y013618D01*
X005527Y013485D01*
X005561Y013451D01*
X005627Y013451D01*
X005661Y013485D01*
X005447Y013451D02*
X005380Y013451D01*
X005413Y013451D02*
X005413Y013651D01*
X005380Y013651D02*
X005447Y013651D01*
X005078Y013485D02*
X005045Y013485D01*
X005045Y013451D01*
X005078Y013451D01*
X005078Y013485D01*
X005078Y013451D02*
X005012Y013385D01*
X004924Y013485D02*
X004891Y013451D01*
X004824Y013451D01*
X004791Y013485D01*
X004924Y013618D01*
X004924Y013485D01*
X004924Y013618D02*
X004891Y013651D01*
X004824Y013651D01*
X004791Y013618D01*
X004791Y013485D01*
X004703Y013451D02*
X004570Y013451D01*
X004636Y013451D02*
X004636Y013651D01*
X004570Y013585D01*
X004482Y013618D02*
X004449Y013651D01*
X004382Y013651D01*
X004349Y013618D01*
X004349Y013485D01*
X004382Y013451D01*
X004449Y013451D01*
X004482Y013485D01*
X004268Y013451D02*
X004201Y013451D01*
X004235Y013451D02*
X004235Y013651D01*
X004268Y013651D02*
X004201Y013651D01*
X004201Y013151D02*
X004268Y013151D01*
X004235Y013151D02*
X004235Y012951D01*
X004268Y012951D02*
X004201Y012951D01*
X004349Y012985D02*
X004349Y013118D01*
X004382Y013151D01*
X004449Y013151D01*
X004482Y013118D01*
X004570Y013085D02*
X004636Y013151D01*
X004636Y012951D01*
X004570Y012951D02*
X004703Y012951D01*
X004791Y012951D02*
X004924Y012951D01*
X004857Y012951D02*
X004857Y013151D01*
X004791Y013085D01*
X005045Y012985D02*
X005045Y012951D01*
X005078Y012951D01*
X005078Y012985D01*
X005045Y012985D01*
X005078Y012951D02*
X005012Y012885D01*
X005380Y012951D02*
X005447Y012951D01*
X005413Y012951D02*
X005413Y013151D01*
X005380Y013151D02*
X005447Y013151D01*
X005527Y013118D02*
X005527Y012985D01*
X005561Y012951D01*
X005627Y012951D01*
X005661Y012985D01*
X005748Y012951D02*
X005882Y012951D01*
X005815Y012951D02*
X005815Y013151D01*
X005748Y013085D01*
X005661Y013118D02*
X005627Y013151D01*
X005561Y013151D01*
X005527Y013118D01*
X005969Y013118D02*
X006003Y013151D01*
X006069Y013151D01*
X006103Y013118D01*
X006103Y013085D01*
X006069Y013051D01*
X006103Y013018D01*
X006103Y012985D01*
X006069Y012951D01*
X006003Y012951D01*
X005969Y012985D01*
X006036Y013051D02*
X006069Y013051D01*
X006190Y013051D02*
X006190Y013085D01*
X006224Y013085D01*
X006224Y013051D01*
X006190Y013051D01*
X006190Y012985D02*
X006190Y012951D01*
X006224Y012951D01*
X006224Y012985D01*
X006190Y012985D01*
X006522Y012985D02*
X006655Y013118D01*
X006655Y013151D01*
X006522Y013151D01*
X006522Y012985D02*
X006522Y012951D01*
X006743Y013051D02*
X006876Y013051D01*
X006964Y013051D02*
X007097Y013051D01*
X007097Y013085D02*
X007097Y012951D01*
X007185Y012951D02*
X007185Y013151D01*
X007185Y013051D02*
X007318Y013051D01*
X007318Y013151D02*
X007318Y012951D01*
X007406Y012985D02*
X007439Y012951D01*
X007506Y012951D01*
X007539Y012985D01*
X007627Y012951D02*
X007760Y012951D01*
X007693Y012951D02*
X007693Y013151D01*
X007627Y013085D01*
X007539Y013118D02*
X007506Y013151D01*
X007439Y013151D01*
X007406Y013118D01*
X007406Y012985D01*
X007097Y013085D02*
X007030Y013151D01*
X006964Y013085D01*
X006964Y012951D01*
X006843Y012951D02*
X006843Y013151D01*
X006743Y013051D01*
X007848Y012985D02*
X007881Y012951D01*
X007948Y012951D01*
X007981Y012985D01*
X007981Y013051D01*
X007914Y013051D01*
X007848Y012985D02*
X007848Y013118D01*
X007881Y013151D01*
X007948Y013151D01*
X007981Y013118D01*
X008069Y013118D02*
X008069Y012985D01*
X008202Y013118D01*
X008202Y012985D01*
X008169Y012951D01*
X008102Y012951D01*
X008069Y012985D01*
X008069Y013118D02*
X008102Y013151D01*
X008169Y013151D01*
X008202Y013118D01*
X008290Y013118D02*
X008290Y013085D01*
X008323Y013051D01*
X008390Y013051D01*
X008423Y013018D01*
X008423Y012985D01*
X008390Y012951D01*
X008323Y012951D01*
X008290Y012985D01*
X008290Y013018D01*
X008323Y013051D01*
X008390Y013051D02*
X008423Y013085D01*
X008423Y013118D01*
X008390Y013151D01*
X008323Y013151D01*
X008290Y013118D01*
X008511Y013151D02*
X008511Y012951D01*
X008611Y012951D01*
X008644Y012985D01*
X008644Y013118D01*
X008611Y013151D01*
X008511Y013151D01*
X008732Y013151D02*
X008832Y013151D01*
X008865Y013118D01*
X008865Y013085D01*
X008832Y013051D01*
X008732Y013051D01*
X008832Y013051D02*
X008865Y013018D01*
X008865Y012985D01*
X008832Y012951D01*
X008732Y012951D01*
X008732Y013151D01*
X008953Y013151D02*
X008953Y013018D01*
X009019Y012951D01*
X009086Y013018D01*
X009086Y013151D01*
X008423Y013451D02*
X008290Y013451D01*
X008423Y013585D01*
X008423Y013618D01*
X009692Y014078D02*
X009692Y014212D01*
X009792Y014212D01*
X009825Y014178D01*
X009825Y014078D01*
X009913Y014078D02*
X009913Y014278D01*
X010046Y014278D01*
X009979Y014178D02*
X009913Y014178D01*
X011058Y013212D02*
X011124Y013278D01*
X011124Y013078D01*
X011058Y013078D02*
X011191Y013078D01*
X011279Y013112D02*
X011412Y013245D01*
X011412Y013112D01*
X011379Y013078D01*
X011312Y013078D01*
X011279Y013112D01*
X011279Y013245D01*
X011312Y013278D01*
X011379Y013278D01*
X011412Y013245D01*
X011500Y013245D02*
X011533Y013278D01*
X011600Y013278D01*
X011633Y013245D01*
X011500Y013112D01*
X011533Y013078D01*
X011600Y013078D01*
X011633Y013112D01*
X011633Y013245D01*
X011500Y013245D02*
X011500Y013112D01*
X011942Y013078D02*
X011942Y013212D01*
X012042Y013212D01*
X012075Y013178D01*
X012075Y013078D01*
X012163Y013078D02*
X012163Y013278D01*
X012296Y013278D01*
X012229Y013178D02*
X012163Y013178D01*
X011554Y012151D02*
X011587Y012118D01*
X011587Y012051D01*
X011554Y012018D01*
X011454Y012018D01*
X011454Y011951D02*
X011454Y012151D01*
X011554Y012151D01*
X011366Y012118D02*
X011333Y012151D01*
X011266Y012151D01*
X011233Y012118D01*
X011233Y012085D01*
X011266Y012051D01*
X011333Y012051D01*
X011366Y012018D01*
X011366Y011985D01*
X011333Y011951D01*
X011266Y011951D01*
X011233Y011985D01*
X011152Y011951D02*
X011085Y011951D01*
X011119Y011951D02*
X011119Y012151D01*
X011152Y012151D02*
X011085Y012151D01*
X010777Y012118D02*
X010743Y012151D01*
X010677Y012151D01*
X010643Y012118D01*
X010556Y012151D02*
X010556Y011985D01*
X010522Y011951D01*
X010456Y011951D01*
X010422Y011985D01*
X010422Y012151D01*
X010335Y012118D02*
X010335Y012085D01*
X010301Y012051D01*
X010235Y012051D01*
X010201Y012085D01*
X010201Y012118D01*
X010235Y012151D01*
X010301Y012151D01*
X010335Y012118D01*
X010301Y012051D02*
X010335Y012018D01*
X010335Y011985D01*
X010301Y011951D01*
X010235Y011951D01*
X010201Y011985D01*
X010201Y012018D01*
X010235Y012051D01*
X010643Y011951D02*
X010777Y012085D01*
X010777Y012118D01*
X010777Y011951D02*
X010643Y011951D01*
X008690Y011979D02*
X008557Y011979D01*
X008557Y011779D01*
X008469Y011812D02*
X008436Y011779D01*
X008336Y011779D01*
X008336Y011712D02*
X008336Y011912D01*
X008436Y011912D01*
X008469Y011879D01*
X008469Y011812D01*
X008557Y011879D02*
X008623Y011879D01*
X008027Y011912D02*
X008027Y011946D01*
X007994Y011979D01*
X007927Y011979D01*
X007894Y011946D01*
X007806Y011946D02*
X007773Y011979D01*
X007706Y011979D01*
X007673Y011946D01*
X007806Y011946D02*
X007806Y011912D01*
X007673Y011779D01*
X007806Y011779D01*
X007894Y011779D02*
X008027Y011912D01*
X008027Y011779D02*
X007894Y011779D01*
X007319Y011976D02*
X007185Y011976D01*
X007185Y011776D01*
X007098Y011810D02*
X007064Y011776D01*
X006964Y011776D01*
X006964Y011710D02*
X006964Y011910D01*
X007064Y011910D01*
X007098Y011876D01*
X007098Y011810D01*
X007185Y011876D02*
X007252Y011876D01*
X006656Y011910D02*
X006656Y011943D01*
X006622Y011976D01*
X006556Y011976D01*
X006522Y011943D01*
X006435Y011943D02*
X006401Y011976D01*
X006335Y011976D01*
X006301Y011943D01*
X006435Y011943D02*
X006435Y011910D01*
X006301Y011776D01*
X006435Y011776D01*
X006522Y011776D02*
X006656Y011910D01*
X006656Y011776D02*
X006522Y011776D01*
X006219Y010214D02*
X006219Y010014D01*
X006306Y010014D02*
X006440Y010014D01*
X006440Y010147D02*
X006306Y010014D01*
X006219Y010114D02*
X006085Y010114D01*
X006085Y010014D02*
X006085Y010214D01*
X005998Y010214D02*
X005998Y010014D01*
X005864Y010014D02*
X005864Y010214D01*
X005931Y010147D01*
X005998Y010214D01*
X006306Y010147D02*
X006440Y010147D01*
X005556Y010080D02*
X005522Y010114D01*
X005422Y010114D01*
X005422Y010047D01*
X005456Y010014D01*
X005522Y010014D01*
X005556Y010047D01*
X005556Y010080D01*
X005489Y010181D02*
X005422Y010114D01*
X005489Y010181D02*
X005556Y010214D01*
X005268Y010214D02*
X005268Y010014D01*
X005201Y010014D02*
X005335Y010014D01*
X005201Y010147D02*
X005268Y010214D01*
X003727Y009807D02*
X003526Y009807D01*
X003526Y009874D02*
X003526Y009740D01*
X003560Y009653D02*
X003693Y009519D01*
X003560Y009519D01*
X003526Y009553D01*
X003526Y009619D01*
X003560Y009653D01*
X003693Y009653D01*
X003727Y009619D01*
X003727Y009553D01*
X003693Y009519D01*
X003693Y009432D02*
X003727Y009398D01*
X003727Y009332D01*
X003693Y009298D01*
X003560Y009432D01*
X003526Y009398D01*
X003526Y009332D01*
X003560Y009298D01*
X003693Y009298D01*
X003693Y009432D02*
X003560Y009432D01*
X003727Y009807D02*
X003660Y009874D01*
X003077Y009597D02*
X003077Y009497D01*
X003043Y009464D01*
X002976Y009464D01*
X002943Y009497D01*
X002943Y009597D01*
X002876Y009597D02*
X003077Y009597D01*
X003043Y009376D02*
X003010Y009376D01*
X002976Y009343D01*
X002976Y009276D01*
X002943Y009243D01*
X002910Y009243D01*
X002876Y009276D01*
X002876Y009343D01*
X002910Y009376D01*
X003043Y009376D02*
X003077Y009343D01*
X003077Y009276D01*
X003043Y009243D01*
X003077Y009155D02*
X002910Y009155D01*
X002876Y009122D01*
X002876Y009055D01*
X002910Y009022D01*
X003077Y009022D01*
X003526Y008990D02*
X003660Y008990D01*
X003660Y008890D01*
X003626Y008856D01*
X003526Y008856D01*
X003526Y008769D02*
X003727Y008769D01*
X003727Y008635D01*
X003626Y008702D02*
X003626Y008769D01*
X003010Y009902D02*
X003010Y009936D01*
X002943Y010002D01*
X002876Y010002D02*
X003010Y010002D01*
X002976Y010090D02*
X002943Y010090D01*
X002943Y010223D01*
X002910Y010223D02*
X002976Y010223D01*
X003010Y010190D01*
X003010Y010123D01*
X002976Y010090D01*
X002876Y010123D02*
X002876Y010190D01*
X002910Y010223D01*
X002910Y010311D02*
X002943Y010344D01*
X002943Y010411D01*
X002976Y010444D01*
X003010Y010411D01*
X003010Y010311D01*
X002910Y010311D02*
X002876Y010344D01*
X002876Y010444D01*
X002876Y010532D02*
X002876Y010632D01*
X002910Y010665D01*
X002943Y010632D01*
X002943Y010532D01*
X002976Y010532D02*
X002876Y010532D01*
X002976Y010532D02*
X003010Y010565D01*
X003010Y010632D01*
X002876Y010753D02*
X002876Y010886D01*
X003077Y010886D01*
X004382Y012951D02*
X004449Y012951D01*
X004482Y012985D01*
X004382Y012951D02*
X004349Y012985D01*
X003243Y013701D02*
X003143Y013768D01*
X003243Y013835D01*
X003143Y013901D02*
X003143Y013701D01*
X002835Y013701D02*
X002701Y013701D01*
X002768Y013701D02*
X002768Y013901D01*
X002701Y013835D01*
X002926Y015551D02*
X003060Y015551D01*
X002993Y015551D02*
X002993Y015751D01*
X002926Y015685D01*
X003368Y015751D02*
X003368Y015551D01*
X003368Y015618D02*
X003468Y015685D01*
X003368Y015618D02*
X003468Y015551D01*
X004683Y018703D02*
X004816Y018703D01*
X004749Y018703D02*
X004749Y018903D01*
X004683Y018837D01*
X004904Y018870D02*
X004937Y018903D01*
X005004Y018903D01*
X005037Y018870D01*
X004904Y018737D01*
X004937Y018703D01*
X005004Y018703D01*
X005037Y018737D01*
X005037Y018870D01*
X005125Y018870D02*
X005158Y018903D01*
X005225Y018903D01*
X005258Y018870D01*
X005125Y018737D01*
X005158Y018703D01*
X005225Y018703D01*
X005258Y018737D01*
X005258Y018870D01*
X005125Y018870D02*
X005125Y018737D01*
X004904Y018737D02*
X004904Y018870D01*
X005567Y018837D02*
X005567Y018703D01*
X005700Y018703D02*
X005700Y018803D01*
X005667Y018837D01*
X005567Y018837D01*
X005788Y018803D02*
X005854Y018803D01*
X005788Y018703D02*
X005788Y018903D01*
X005921Y018903D01*
X006808Y020578D02*
X006941Y020578D01*
X006874Y020578D02*
X006874Y020778D01*
X006808Y020712D01*
X007029Y020745D02*
X007062Y020778D01*
X007129Y020778D01*
X007162Y020745D01*
X007029Y020612D01*
X007062Y020578D01*
X007129Y020578D01*
X007162Y020612D01*
X007162Y020745D01*
X007250Y020745D02*
X007250Y020612D01*
X007383Y020745D01*
X007383Y020612D01*
X007350Y020578D01*
X007283Y020578D01*
X007250Y020612D01*
X007250Y020745D02*
X007283Y020778D01*
X007350Y020778D01*
X007383Y020745D01*
X007692Y020712D02*
X007692Y020578D01*
X007825Y020578D02*
X007825Y020678D01*
X007792Y020712D01*
X007692Y020712D01*
X007913Y020678D02*
X007979Y020678D01*
X007913Y020578D02*
X007913Y020778D01*
X008046Y020778D01*
X007913Y021703D02*
X007913Y021903D01*
X008046Y021903D01*
X007979Y021803D02*
X007913Y021803D01*
X007825Y021803D02*
X007825Y021703D01*
X007825Y021803D02*
X007792Y021837D01*
X007692Y021837D01*
X007692Y021703D01*
X007383Y021737D02*
X007350Y021703D01*
X007283Y021703D01*
X007250Y021737D01*
X007383Y021870D01*
X007383Y021737D01*
X007383Y021870D02*
X007350Y021903D01*
X007283Y021903D01*
X007250Y021870D01*
X007250Y021737D01*
X007162Y021737D02*
X007129Y021703D01*
X007062Y021703D01*
X007029Y021737D01*
X007162Y021870D01*
X007162Y021737D01*
X007162Y021870D02*
X007129Y021903D01*
X007062Y021903D01*
X007029Y021870D01*
X007029Y021737D01*
X006941Y021703D02*
X006808Y021703D01*
X006874Y021703D02*
X006874Y021903D01*
X006808Y021837D01*
X006811Y022826D02*
X006877Y022826D01*
X006911Y022860D01*
X006911Y022926D01*
X006844Y022926D01*
X006777Y022860D02*
X006811Y022826D01*
X006777Y022860D02*
X006777Y022993D01*
X006811Y023026D01*
X006877Y023026D01*
X006911Y022993D01*
X006998Y022993D02*
X007032Y023026D01*
X007098Y023026D01*
X007132Y022993D01*
X006998Y022860D01*
X007032Y022826D01*
X007098Y022826D01*
X007132Y022860D01*
X007132Y022993D01*
X007219Y022993D02*
X007253Y023026D01*
X007319Y023026D01*
X007353Y022993D01*
X007353Y022960D01*
X007219Y022826D01*
X007353Y022826D01*
X007440Y022826D02*
X007540Y022826D01*
X007574Y022860D01*
X007574Y022993D01*
X007540Y023026D01*
X007440Y023026D01*
X007440Y022826D01*
X007661Y022826D02*
X007661Y023026D01*
X007761Y023026D01*
X007795Y022993D01*
X007795Y022960D01*
X007761Y022926D01*
X007661Y022926D01*
X007661Y022826D02*
X007761Y022826D01*
X007795Y022860D01*
X007795Y022893D01*
X007761Y022926D01*
X007882Y022893D02*
X007949Y022826D01*
X008016Y022893D01*
X008016Y023026D01*
X007882Y023026D02*
X007882Y022893D01*
X006998Y022860D02*
X006998Y022993D01*
X006690Y022826D02*
X006556Y022826D01*
X006623Y022826D02*
X006623Y023026D01*
X006556Y022960D01*
X006469Y022993D02*
X006435Y023026D01*
X006369Y023026D01*
X006335Y022993D01*
X006335Y022860D01*
X006369Y022826D01*
X006435Y022826D01*
X006469Y022860D01*
X006248Y022826D02*
X006248Y023026D01*
X006248Y022926D02*
X006114Y022926D01*
X006027Y022926D02*
X005893Y022926D01*
X005893Y022960D02*
X005960Y023026D01*
X006027Y022960D01*
X006027Y022826D01*
X006114Y022826D02*
X006114Y023026D01*
X005893Y022960D02*
X005893Y022826D01*
X005772Y022826D02*
X005772Y023026D01*
X005672Y022926D01*
X005806Y022926D01*
X005585Y022993D02*
X005451Y022860D01*
X005451Y022826D01*
X005451Y023026D02*
X005585Y023026D01*
X005585Y022993D01*
X003468Y022685D02*
X003368Y022618D01*
X003468Y022551D01*
X003368Y022551D02*
X003368Y022751D01*
X003060Y022551D02*
X002926Y022551D01*
X002993Y022551D02*
X002993Y022751D01*
X002926Y022685D01*
X002993Y021001D02*
X002993Y020801D01*
X002926Y020801D02*
X003060Y020801D01*
X002926Y020935D02*
X002993Y021001D01*
X003368Y021001D02*
X003368Y020801D01*
X003368Y020868D02*
X003468Y020935D01*
X003368Y020868D02*
X003468Y020801D01*
X007029Y020745D02*
X007029Y020612D01*
X009201Y022526D02*
X009335Y022526D01*
X009422Y022526D02*
X009422Y022726D01*
X009489Y022660D01*
X009556Y022726D01*
X009556Y022526D01*
X009643Y022560D02*
X009677Y022526D01*
X009743Y022526D01*
X009777Y022560D01*
X009777Y022593D01*
X009743Y022626D01*
X009710Y022626D01*
X009743Y022626D02*
X009777Y022660D01*
X009777Y022693D01*
X009743Y022726D01*
X009677Y022726D01*
X009643Y022693D01*
X009864Y022693D02*
X009864Y022660D01*
X009898Y022626D01*
X009998Y022626D01*
X009998Y022560D02*
X009998Y022693D01*
X009964Y022726D01*
X009898Y022726D01*
X009864Y022693D01*
X009864Y022560D02*
X009898Y022526D01*
X009964Y022526D01*
X009998Y022560D01*
X010085Y022560D02*
X010119Y022526D01*
X010185Y022526D01*
X010219Y022560D01*
X010219Y022593D01*
X010185Y022626D01*
X010152Y022626D01*
X010185Y022626D02*
X010219Y022660D01*
X010219Y022693D01*
X010185Y022726D01*
X010119Y022726D01*
X010085Y022693D01*
X010306Y022726D02*
X010306Y022526D01*
X010406Y022526D01*
X010440Y022560D01*
X010440Y022693D01*
X010406Y022726D01*
X010306Y022726D01*
X009201Y022726D02*
X009201Y022526D01*
X011926Y023051D02*
X012060Y023051D01*
X011993Y023051D02*
X011993Y023251D01*
X011926Y023185D01*
X012368Y023251D02*
X012368Y023051D01*
X012368Y023118D02*
X012468Y023185D01*
X012368Y023118D02*
X012468Y023051D01*
X012431Y029264D02*
X012464Y029297D01*
X012464Y029431D01*
X012431Y029464D01*
X012331Y029464D01*
X012331Y029264D01*
X012431Y029264D01*
X012243Y029264D02*
X012243Y029464D01*
X012110Y029464D02*
X012243Y029264D01*
X012110Y029264D02*
X012110Y029464D01*
X012022Y029431D02*
X011989Y029464D01*
X011922Y029464D01*
X011889Y029431D01*
X011889Y029297D01*
X011922Y029264D01*
X011989Y029264D01*
X012022Y029297D01*
X012022Y029364D01*
X011956Y029364D01*
X013076Y029464D02*
X013143Y029464D01*
X013110Y029464D02*
X013110Y029264D01*
X013143Y029264D02*
X013076Y029264D01*
X013224Y029264D02*
X013224Y029464D01*
X013357Y029264D01*
X013357Y029464D01*
X013764Y029364D02*
X013897Y029364D01*
X013831Y029431D02*
X013831Y029297D01*
X013985Y029264D02*
X014118Y029397D01*
X014118Y029431D01*
X014085Y029464D01*
X014018Y029464D01*
X013985Y029431D01*
X013985Y029264D02*
X014118Y029264D01*
X014206Y029364D02*
X014339Y029364D01*
X014427Y029331D02*
X014494Y029264D01*
X014560Y029331D01*
X014560Y029464D01*
X014427Y029464D02*
X014427Y029331D01*
X014306Y029264D02*
X014306Y029464D01*
X014206Y029364D01*
X014249Y030451D02*
X014349Y030451D01*
X014383Y030485D01*
X014349Y030518D01*
X014283Y030518D01*
X014249Y030551D01*
X014283Y030585D01*
X014383Y030585D01*
X014165Y030585D02*
X014132Y030585D01*
X014065Y030518D01*
X014065Y030451D02*
X014065Y030585D01*
X013978Y030551D02*
X013944Y030585D01*
X013878Y030585D01*
X013844Y030551D01*
X013844Y030485D01*
X013878Y030451D01*
X013944Y030451D01*
X013978Y030485D01*
X013978Y030551D01*
X013757Y030585D02*
X013657Y030585D01*
X013623Y030551D01*
X013657Y030518D01*
X013723Y030518D01*
X013757Y030485D01*
X013723Y030451D01*
X013623Y030451D01*
X013536Y030451D02*
X013536Y030551D01*
X013502Y030585D01*
X013402Y030585D01*
X013402Y030451D01*
X013315Y030518D02*
X013181Y030518D01*
X013181Y030485D02*
X013181Y030551D01*
X013215Y030585D01*
X013281Y030585D01*
X013315Y030551D01*
X013315Y030518D01*
X013281Y030451D02*
X013215Y030451D01*
X013181Y030485D01*
X013094Y030485D02*
X013060Y030451D01*
X012960Y030451D01*
X012994Y030518D02*
X012960Y030551D01*
X012994Y030585D01*
X013094Y030585D01*
X013060Y030518D02*
X012994Y030518D01*
X013060Y030518D02*
X013094Y030485D01*
X012652Y030451D02*
X012552Y030451D01*
X012518Y030485D01*
X012518Y030585D01*
X012438Y030585D02*
X012371Y030585D01*
X012404Y030618D02*
X012404Y030485D01*
X012438Y030451D01*
X012290Y030451D02*
X012224Y030451D01*
X012257Y030451D02*
X012257Y030585D01*
X012224Y030585D01*
X012257Y030651D02*
X012257Y030685D01*
X012136Y030551D02*
X012136Y030451D01*
X012069Y030451D02*
X012069Y030551D01*
X012103Y030585D01*
X012136Y030551D01*
X012069Y030551D02*
X012036Y030585D01*
X012003Y030585D01*
X012003Y030451D01*
X011922Y030451D02*
X011855Y030451D01*
X011889Y030451D02*
X011889Y030585D01*
X011855Y030585D01*
X011889Y030651D02*
X011889Y030685D01*
X011768Y030585D02*
X011634Y030451D01*
X011547Y030485D02*
X011514Y030451D01*
X011447Y030451D01*
X011413Y030485D01*
X011413Y030551D01*
X011447Y030585D01*
X011514Y030585D01*
X011547Y030551D01*
X011547Y030485D01*
X011634Y030585D02*
X011768Y030451D01*
X011329Y030585D02*
X011296Y030585D01*
X011229Y030518D01*
X011229Y030451D02*
X011229Y030585D01*
X011142Y030551D02*
X011142Y030485D01*
X011108Y030451D01*
X011008Y030451D01*
X011008Y030385D02*
X011008Y030585D01*
X011108Y030585D01*
X011142Y030551D01*
X010700Y030485D02*
X010666Y030451D01*
X010600Y030451D01*
X010566Y030485D01*
X010566Y030618D01*
X010600Y030651D01*
X010666Y030651D01*
X010700Y030618D01*
X010479Y030651D02*
X010479Y030451D01*
X010345Y030451D02*
X010345Y030651D01*
X010412Y030585D01*
X010479Y030651D01*
X010258Y030651D02*
X010124Y030651D01*
X010124Y030551D01*
X010191Y030585D01*
X010224Y030585D01*
X010258Y030551D01*
X010258Y030485D01*
X010224Y030451D01*
X010158Y030451D01*
X010124Y030485D01*
X010037Y030485D02*
X010004Y030451D01*
X009937Y030451D01*
X009903Y030485D01*
X009903Y030618D01*
X009937Y030651D01*
X010004Y030651D01*
X010037Y030618D01*
X010037Y030485D01*
X010037Y030451D02*
X009970Y030518D01*
X009816Y030551D02*
X009682Y030551D01*
X009595Y030451D02*
X009461Y030451D01*
X009461Y030651D01*
X009374Y030651D02*
X009240Y030651D01*
X009307Y030651D02*
X009307Y030451D01*
X008932Y030451D02*
X008932Y030551D01*
X008899Y030585D01*
X008799Y030585D01*
X008799Y030451D01*
X008711Y030485D02*
X008678Y030451D01*
X008611Y030451D01*
X008578Y030485D01*
X008578Y030551D01*
X008611Y030585D01*
X008678Y030585D01*
X008711Y030551D01*
X008711Y030485D01*
X008493Y030585D02*
X008460Y030585D01*
X008393Y030518D01*
X008393Y030451D02*
X008393Y030585D01*
X008306Y030551D02*
X008306Y030451D01*
X008239Y030451D02*
X008239Y030551D01*
X008272Y030585D01*
X008306Y030551D01*
X008239Y030551D02*
X008206Y030585D01*
X008172Y030585D01*
X008172Y030451D01*
X008085Y030485D02*
X008051Y030451D01*
X007985Y030451D01*
X007951Y030485D01*
X007951Y030618D01*
X007985Y030651D01*
X008051Y030651D01*
X008085Y030618D01*
X008085Y030485D01*
X008110Y029464D02*
X008243Y029264D01*
X008243Y029464D01*
X008331Y029464D02*
X008431Y029464D01*
X008464Y029431D01*
X008464Y029297D01*
X008431Y029264D01*
X008331Y029264D01*
X008331Y029464D01*
X008110Y029464D02*
X008110Y029264D01*
X008022Y029297D02*
X008022Y029364D01*
X007956Y029364D01*
X008022Y029431D02*
X007989Y029464D01*
X007922Y029464D01*
X007889Y029431D01*
X007889Y029297D01*
X007922Y029264D01*
X007989Y029264D01*
X008022Y029297D01*
X009076Y029264D02*
X009143Y029264D01*
X009110Y029264D02*
X009110Y029464D01*
X009143Y029464D02*
X009076Y029464D01*
X009224Y029464D02*
X009357Y029264D01*
X009357Y029464D01*
X009224Y029464D02*
X009224Y029264D01*
X009764Y029364D02*
X009897Y029364D01*
X009831Y029431D02*
X009831Y029297D01*
X009985Y029264D02*
X010118Y029397D01*
X010118Y029431D01*
X010085Y029464D01*
X010018Y029464D01*
X009985Y029431D01*
X009985Y029264D02*
X010118Y029264D01*
X010206Y029364D02*
X010339Y029364D01*
X010427Y029331D02*
X010494Y029264D01*
X010560Y029331D01*
X010560Y029464D01*
X010427Y029464D02*
X010427Y029331D01*
X010306Y029264D02*
X010306Y029464D01*
X010206Y029364D01*
X012585Y030385D02*
X012618Y030385D01*
X012652Y030418D01*
X012652Y030585D01*
X015764Y029364D02*
X015897Y029364D01*
X015831Y029431D02*
X015831Y029297D01*
X015985Y029264D02*
X016118Y029397D01*
X016118Y029431D01*
X016085Y029464D01*
X016018Y029464D01*
X015985Y029431D01*
X015985Y029264D02*
X016118Y029264D01*
X016206Y029364D02*
X016339Y029364D01*
X016427Y029331D02*
X016494Y029264D01*
X016560Y029331D01*
X016560Y029464D01*
X016427Y029464D02*
X016427Y029331D01*
X016306Y029264D02*
X016306Y029464D01*
X016206Y029364D01*
X016889Y029297D02*
X016922Y029264D01*
X016989Y029264D01*
X017022Y029297D01*
X017022Y029364D01*
X016956Y029364D01*
X017022Y029431D02*
X016989Y029464D01*
X016922Y029464D01*
X016889Y029431D01*
X016889Y029297D01*
X017110Y029264D02*
X017110Y029464D01*
X017243Y029264D01*
X017243Y029464D01*
X017331Y029464D02*
X017431Y029464D01*
X017464Y029431D01*
X017464Y029297D01*
X017431Y029264D01*
X017331Y029264D01*
X017331Y029464D01*
X018014Y029464D02*
X018014Y029264D01*
X018147Y029264D01*
X018235Y029264D02*
X018235Y029464D01*
X018368Y029264D01*
X018368Y029464D01*
X018147Y029464D02*
X018014Y029464D01*
X018014Y029364D02*
X018081Y029364D01*
X018889Y029364D02*
X019022Y029364D01*
X019110Y029364D02*
X019177Y029397D01*
X019210Y029397D01*
X019243Y029364D01*
X019243Y029297D01*
X019210Y029264D01*
X019143Y029264D01*
X019110Y029297D01*
X019110Y029364D02*
X019110Y029464D01*
X019243Y029464D01*
X019331Y029464D02*
X019331Y029331D01*
X019398Y029264D01*
X019464Y029331D01*
X019464Y029464D01*
X019889Y029464D02*
X019989Y029464D01*
X020022Y029431D01*
X020022Y029297D01*
X019989Y029264D01*
X019889Y029264D01*
X019889Y029464D01*
X020110Y029464D02*
X020177Y029464D01*
X020143Y029464D02*
X020143Y029264D01*
X020110Y029264D02*
X020177Y029264D01*
X020257Y029264D02*
X020257Y029464D01*
X020357Y029464D01*
X020391Y029431D01*
X020391Y029364D01*
X020357Y029331D01*
X020257Y029331D01*
X020324Y029331D02*
X020391Y029264D01*
X020826Y029297D02*
X020860Y029264D01*
X020926Y029264D01*
X020960Y029297D01*
X020960Y029331D01*
X020926Y029364D01*
X020860Y029364D01*
X020826Y029397D01*
X020826Y029431D01*
X020860Y029464D01*
X020926Y029464D01*
X020960Y029431D01*
X021047Y029464D02*
X021181Y029464D01*
X021114Y029464D02*
X021114Y029264D01*
X021268Y029264D02*
X021402Y029264D01*
X021489Y029264D02*
X021489Y029464D01*
X021589Y029464D01*
X021623Y029431D01*
X021623Y029364D01*
X021589Y029331D01*
X021489Y029331D01*
X021335Y029364D02*
X021268Y029364D01*
X021268Y029464D02*
X021268Y029264D01*
X021268Y029464D02*
X021402Y029464D01*
X021296Y030451D02*
X021329Y030485D01*
X021329Y030551D01*
X021296Y030585D01*
X021229Y030585D01*
X021196Y030551D01*
X021196Y030485D01*
X021229Y030451D01*
X021296Y030451D01*
X021112Y030585D02*
X021078Y030585D01*
X021012Y030518D01*
X021012Y030451D02*
X021012Y030585D01*
X020931Y030585D02*
X020864Y030585D01*
X020898Y030618D02*
X020898Y030485D01*
X020931Y030451D01*
X020777Y030518D02*
X020643Y030518D01*
X020643Y030485D02*
X020643Y030551D01*
X020677Y030585D01*
X020743Y030585D01*
X020777Y030551D01*
X020777Y030518D01*
X020743Y030451D02*
X020677Y030451D01*
X020643Y030485D01*
X020556Y030518D02*
X020422Y030518D01*
X020422Y030485D02*
X020422Y030551D01*
X020456Y030585D01*
X020522Y030585D01*
X020556Y030551D01*
X020556Y030518D01*
X020522Y030451D02*
X020456Y030451D01*
X020422Y030485D01*
X020335Y030451D02*
X020201Y030451D01*
X020201Y030651D01*
X021638Y030651D02*
X021638Y030451D01*
X021738Y030451D01*
X021771Y030485D01*
X021771Y030618D01*
X021738Y030651D01*
X021638Y030651D01*
X021859Y030651D02*
X021925Y030585D01*
X021992Y030651D01*
X021992Y030451D01*
X022080Y030451D02*
X022180Y030451D01*
X022213Y030485D01*
X022213Y030618D01*
X022180Y030651D01*
X022080Y030651D01*
X022080Y030451D01*
X021859Y030451D02*
X021859Y030651D01*
X022301Y030551D02*
X022434Y030551D01*
X022401Y030451D02*
X022401Y030651D01*
X022301Y030551D01*
X022522Y030485D02*
X022555Y030451D01*
X022622Y030451D01*
X022655Y030485D01*
X022655Y030618D01*
X022522Y030485D01*
X022522Y030618D01*
X022555Y030651D01*
X022622Y030651D01*
X022655Y030618D01*
X022743Y030618D02*
X022776Y030651D01*
X022843Y030651D01*
X022876Y030618D01*
X022876Y030585D01*
X022743Y030451D01*
X022876Y030451D01*
X022964Y030451D02*
X023064Y030451D01*
X023097Y030485D01*
X023097Y030518D01*
X023064Y030551D01*
X022964Y030551D01*
X022964Y030451D02*
X022964Y030651D01*
X023064Y030651D01*
X023097Y030618D01*
X023097Y030585D01*
X023064Y030551D01*
X023406Y030551D02*
X023406Y030485D01*
X023439Y030451D01*
X023506Y030451D01*
X023539Y030485D01*
X023539Y030551D01*
X023506Y030585D01*
X023439Y030585D01*
X023406Y030551D01*
X023627Y030585D02*
X023727Y030585D01*
X023760Y030551D01*
X023760Y030485D01*
X023727Y030451D01*
X023627Y030451D01*
X023627Y030385D02*
X023627Y030585D01*
X023848Y030585D02*
X023914Y030585D01*
X023881Y030618D02*
X023881Y030485D01*
X023914Y030451D01*
X023995Y030451D02*
X024062Y030451D01*
X024028Y030451D02*
X024028Y030585D01*
X023995Y030585D01*
X024028Y030651D02*
X024028Y030685D01*
X024142Y030551D02*
X024142Y030485D01*
X024176Y030451D01*
X024276Y030451D01*
X024363Y030485D02*
X024397Y030451D01*
X024497Y030451D01*
X024497Y030551D01*
X024463Y030585D01*
X024397Y030585D01*
X024397Y030518D02*
X024497Y030518D01*
X024397Y030518D02*
X024363Y030485D01*
X024276Y030585D02*
X024176Y030585D01*
X024142Y030551D01*
X024584Y030451D02*
X024651Y030451D01*
X024618Y030451D02*
X024618Y030651D01*
X024584Y030651D01*
X024732Y030651D02*
X024765Y030651D01*
X024765Y030451D01*
X024732Y030451D02*
X024798Y030451D01*
X024879Y030485D02*
X024912Y030451D01*
X025012Y030451D01*
X025012Y030418D02*
X024979Y030385D01*
X024946Y030385D01*
X025012Y030418D02*
X025012Y030585D01*
X025100Y030551D02*
X025233Y030551D01*
X025321Y030585D02*
X025354Y030585D01*
X025354Y030451D01*
X025321Y030451D02*
X025388Y030451D01*
X025468Y030451D02*
X025568Y030451D01*
X025602Y030485D01*
X025568Y030518D01*
X025502Y030518D01*
X025468Y030551D01*
X025502Y030585D01*
X025602Y030585D01*
X025689Y030551D02*
X025689Y030485D01*
X025723Y030451D01*
X025789Y030451D01*
X025823Y030485D01*
X025823Y030551D01*
X025789Y030585D01*
X025723Y030585D01*
X025689Y030551D01*
X025910Y030451D02*
X025977Y030451D01*
X025944Y030451D02*
X025944Y030651D01*
X025910Y030651D01*
X026091Y030585D02*
X026158Y030585D01*
X026191Y030551D01*
X026191Y030451D01*
X026091Y030451D01*
X026057Y030485D01*
X026091Y030518D01*
X026191Y030518D01*
X026278Y030585D02*
X026345Y030585D01*
X026312Y030618D02*
X026312Y030485D01*
X026345Y030451D01*
X026426Y030485D02*
X026459Y030451D01*
X026526Y030451D01*
X026559Y030518D02*
X026426Y030518D01*
X026426Y030485D02*
X026426Y030551D01*
X026459Y030585D01*
X026526Y030585D01*
X026559Y030551D01*
X026559Y030518D01*
X026647Y030485D02*
X026680Y030451D01*
X026780Y030451D01*
X026780Y030651D01*
X026780Y030585D02*
X026680Y030585D01*
X026647Y030551D01*
X026647Y030485D01*
X027089Y030451D02*
X027189Y030451D01*
X027222Y030485D01*
X027189Y030518D01*
X027122Y030518D01*
X027089Y030551D01*
X027122Y030585D01*
X027222Y030585D01*
X027310Y030585D02*
X027376Y030585D01*
X027343Y030618D02*
X027343Y030485D01*
X027376Y030451D01*
X027457Y030485D02*
X027457Y030551D01*
X027490Y030585D01*
X027557Y030585D01*
X027590Y030551D01*
X027590Y030518D01*
X027457Y030518D01*
X027457Y030485D02*
X027490Y030451D01*
X027557Y030451D01*
X027678Y030451D02*
X027778Y030451D01*
X027811Y030485D01*
X027811Y030551D01*
X027778Y030585D01*
X027678Y030585D01*
X027678Y030385D01*
X027899Y030385D02*
X027899Y030585D01*
X027999Y030585D01*
X028032Y030551D01*
X028032Y030485D01*
X027999Y030451D01*
X027899Y030451D01*
X028120Y030485D02*
X028120Y030551D01*
X028153Y030585D01*
X028220Y030585D01*
X028253Y030551D01*
X028253Y030518D01*
X028120Y030518D01*
X028120Y030485D02*
X028153Y030451D01*
X028220Y030451D01*
X028341Y030451D02*
X028341Y030585D01*
X028408Y030585D02*
X028441Y030585D01*
X028408Y030585D02*
X028341Y030518D01*
X028746Y030585D02*
X028779Y030585D01*
X028813Y030551D01*
X028846Y030585D01*
X028880Y030551D01*
X028880Y030451D01*
X028813Y030451D02*
X028813Y030551D01*
X028746Y030585D02*
X028746Y030451D01*
X028967Y030485D02*
X029000Y030451D01*
X029067Y030451D01*
X029101Y030485D01*
X029101Y030551D01*
X029067Y030585D01*
X029000Y030585D01*
X028967Y030551D01*
X028967Y030485D01*
X029188Y030585D02*
X029255Y030585D01*
X029221Y030618D02*
X029221Y030485D01*
X029255Y030451D01*
X029335Y030485D02*
X029369Y030451D01*
X029435Y030451D01*
X029469Y030485D01*
X029469Y030551D01*
X029435Y030585D01*
X029369Y030585D01*
X029335Y030551D01*
X029335Y030485D01*
X029556Y030518D02*
X029623Y030585D01*
X029656Y030585D01*
X029556Y030585D02*
X029556Y030451D01*
X029961Y030485D02*
X029961Y030551D01*
X029995Y030585D01*
X030095Y030585D01*
X030095Y030651D02*
X030095Y030451D01*
X029995Y030451D01*
X029961Y030485D01*
X030182Y030518D02*
X030249Y030585D01*
X030283Y030585D01*
X030367Y030585D02*
X030400Y030585D01*
X030400Y030451D01*
X030367Y030451D02*
X030433Y030451D01*
X030581Y030451D02*
X030647Y030585D01*
X030735Y030551D02*
X030768Y030585D01*
X030835Y030585D01*
X030868Y030551D01*
X030868Y030518D01*
X030735Y030518D01*
X030735Y030485D02*
X030735Y030551D01*
X030735Y030485D02*
X030768Y030451D01*
X030835Y030451D01*
X030956Y030451D02*
X030956Y030585D01*
X031023Y030585D02*
X031056Y030585D01*
X031023Y030585D02*
X030956Y030518D01*
X031140Y030551D02*
X031173Y030585D01*
X031273Y030585D01*
X031240Y030518D02*
X031173Y030518D01*
X031140Y030551D01*
X031140Y030451D02*
X031240Y030451D01*
X031273Y030485D01*
X031240Y030518D01*
X030581Y030451D02*
X030514Y030585D01*
X030400Y030651D02*
X030400Y030685D01*
X030182Y030585D02*
X030182Y030451D01*
X030085Y029464D02*
X030018Y029464D01*
X029985Y029431D01*
X030085Y029464D02*
X030118Y029431D01*
X030118Y029397D01*
X029985Y029264D01*
X030118Y029264D01*
X030206Y029364D02*
X030339Y029364D01*
X030427Y029331D02*
X030494Y029264D01*
X030560Y029331D01*
X030560Y029464D01*
X030427Y029464D02*
X030427Y029331D01*
X030306Y029264D02*
X030306Y029464D01*
X030206Y029364D01*
X029897Y029364D02*
X029764Y029364D01*
X029831Y029431D02*
X029831Y029297D01*
X030889Y029297D02*
X030922Y029264D01*
X030989Y029264D01*
X031022Y029297D01*
X031022Y029364D01*
X030956Y029364D01*
X031022Y029431D02*
X030989Y029464D01*
X030922Y029464D01*
X030889Y029431D01*
X030889Y029297D01*
X031110Y029264D02*
X031110Y029464D01*
X031243Y029264D01*
X031243Y029464D01*
X031331Y029464D02*
X031431Y029464D01*
X031464Y029431D01*
X031464Y029297D01*
X031431Y029264D01*
X031331Y029264D01*
X031331Y029464D01*
X032014Y029464D02*
X032014Y029264D01*
X032147Y029264D01*
X032235Y029264D02*
X032235Y029464D01*
X032368Y029264D01*
X032368Y029464D01*
X032147Y029464D02*
X032014Y029464D01*
X032014Y029364D02*
X032081Y029364D01*
X032889Y029364D02*
X033022Y029364D01*
X033110Y029364D02*
X033177Y029397D01*
X033210Y029397D01*
X033243Y029364D01*
X033243Y029297D01*
X033210Y029264D01*
X033143Y029264D01*
X033110Y029297D01*
X033110Y029364D02*
X033110Y029464D01*
X033243Y029464D01*
X033331Y029464D02*
X033331Y029331D01*
X033398Y029264D01*
X033464Y029331D01*
X033464Y029464D01*
X033951Y029464D02*
X034052Y029464D01*
X034085Y029431D01*
X034085Y029297D01*
X034052Y029264D01*
X033951Y029264D01*
X033951Y029464D01*
X034172Y029464D02*
X034239Y029464D01*
X034206Y029464D02*
X034206Y029264D01*
X034239Y029264D02*
X034172Y029264D01*
X034320Y029264D02*
X034320Y029464D01*
X034420Y029464D01*
X034453Y029431D01*
X034453Y029364D01*
X034420Y029331D01*
X034320Y029331D01*
X034386Y029331D02*
X034453Y029264D01*
X034764Y029297D02*
X034797Y029264D01*
X034864Y029264D01*
X034897Y029297D01*
X034897Y029331D01*
X034864Y029364D01*
X034797Y029364D01*
X034764Y029397D01*
X034764Y029431D01*
X034797Y029464D01*
X034864Y029464D01*
X034897Y029431D01*
X034985Y029464D02*
X035118Y029464D01*
X035052Y029464D02*
X035052Y029264D01*
X035206Y029264D02*
X035339Y029264D01*
X035427Y029264D02*
X035427Y029464D01*
X035527Y029464D01*
X035560Y029431D01*
X035560Y029364D01*
X035527Y029331D01*
X035427Y029331D01*
X035273Y029364D02*
X035206Y029364D01*
X035206Y029464D02*
X035206Y029264D01*
X035206Y029464D02*
X035339Y029464D01*
X032956Y029431D02*
X032956Y029297D01*
X028623Y029364D02*
X028589Y029331D01*
X028489Y029331D01*
X028489Y029264D02*
X028489Y029464D01*
X028589Y029464D01*
X028623Y029431D01*
X028623Y029364D01*
X028402Y029464D02*
X028268Y029464D01*
X028268Y029264D01*
X028402Y029264D01*
X028335Y029364D02*
X028268Y029364D01*
X028181Y029464D02*
X028047Y029464D01*
X028114Y029464D02*
X028114Y029264D01*
X027960Y029297D02*
X027926Y029264D01*
X027860Y029264D01*
X027826Y029297D01*
X027860Y029364D02*
X027926Y029364D01*
X027960Y029331D01*
X027960Y029297D01*
X027860Y029364D02*
X027826Y029397D01*
X027826Y029431D01*
X027860Y029464D01*
X027926Y029464D01*
X027960Y029431D01*
X027453Y029431D02*
X027453Y029364D01*
X027420Y029331D01*
X027320Y029331D01*
X027386Y029331D02*
X027453Y029264D01*
X027320Y029264D02*
X027320Y029464D01*
X027420Y029464D01*
X027453Y029431D01*
X027239Y029464D02*
X027172Y029464D01*
X027206Y029464D02*
X027206Y029264D01*
X027239Y029264D02*
X027172Y029264D01*
X027085Y029297D02*
X027085Y029431D01*
X027052Y029464D01*
X026951Y029464D01*
X026951Y029264D01*
X027052Y029264D01*
X027085Y029297D01*
X026464Y029331D02*
X026464Y029464D01*
X026331Y029464D02*
X026331Y029331D01*
X026398Y029264D01*
X026464Y029331D01*
X026243Y029364D02*
X026243Y029297D01*
X026210Y029264D01*
X026143Y029264D01*
X026110Y029297D01*
X026110Y029364D02*
X026177Y029397D01*
X026210Y029397D01*
X026243Y029364D01*
X026243Y029464D02*
X026110Y029464D01*
X026110Y029364D01*
X026022Y029364D02*
X025889Y029364D01*
X025956Y029431D02*
X025956Y029297D01*
X025368Y029264D02*
X025368Y029464D01*
X025235Y029464D02*
X025368Y029264D01*
X025235Y029264D02*
X025235Y029464D01*
X025147Y029464D02*
X025014Y029464D01*
X025014Y029264D01*
X025147Y029264D01*
X025081Y029364D02*
X025014Y029364D01*
X024464Y029431D02*
X024431Y029464D01*
X024331Y029464D01*
X024331Y029264D01*
X024431Y029264D01*
X024464Y029297D01*
X024464Y029431D01*
X024243Y029464D02*
X024243Y029264D01*
X024110Y029464D01*
X024110Y029264D01*
X024022Y029297D02*
X024022Y029364D01*
X023956Y029364D01*
X024022Y029431D02*
X023989Y029464D01*
X023922Y029464D01*
X023889Y029431D01*
X023889Y029297D01*
X023922Y029264D01*
X023989Y029264D01*
X024022Y029297D01*
X023560Y029331D02*
X023560Y029464D01*
X023427Y029464D02*
X023427Y029331D01*
X023494Y029264D01*
X023560Y029331D01*
X023339Y029364D02*
X023206Y029364D01*
X023306Y029464D01*
X023306Y029264D01*
X023118Y029264D02*
X022985Y029264D01*
X023118Y029397D01*
X023118Y029431D01*
X023085Y029464D01*
X023018Y029464D01*
X022985Y029431D01*
X022897Y029364D02*
X022764Y029364D01*
X022831Y029431D02*
X022831Y029297D01*
X024879Y030485D02*
X024879Y030585D01*
X025354Y030651D02*
X025354Y030685D01*
X018956Y029431D02*
X018956Y029297D01*
X006560Y029331D02*
X006560Y029464D01*
X006427Y029464D02*
X006427Y029331D01*
X006494Y029264D01*
X006560Y029331D01*
X006339Y029364D02*
X006206Y029364D01*
X006306Y029464D01*
X006306Y029264D01*
X006118Y029264D02*
X005985Y029264D01*
X006118Y029397D01*
X006118Y029431D01*
X006085Y029464D01*
X006018Y029464D01*
X005985Y029431D01*
X005897Y029364D02*
X005764Y029364D01*
X005831Y029431D02*
X005831Y029297D01*
X005464Y029331D02*
X005464Y029464D01*
X005331Y029464D02*
X005331Y029331D01*
X005398Y029264D01*
X005464Y029331D01*
X005243Y029364D02*
X005243Y029297D01*
X005210Y029264D01*
X005143Y029264D01*
X005110Y029297D01*
X005110Y029364D02*
X005177Y029397D01*
X005210Y029397D01*
X005243Y029364D01*
X005243Y029464D02*
X005110Y029464D01*
X005110Y029364D01*
X005022Y029364D02*
X004889Y029364D01*
X004956Y029431D02*
X004956Y029297D01*
X004656Y029264D02*
X004656Y029397D01*
X004590Y029464D01*
X004523Y029397D01*
X004523Y029264D01*
X004523Y029364D02*
X004656Y029364D01*
X004214Y029431D02*
X004181Y029464D01*
X004081Y029464D01*
X004081Y029264D01*
X004181Y029264D01*
X004214Y029297D01*
X004214Y029431D01*
X003993Y029464D02*
X003860Y029464D01*
X003860Y029264D01*
X003993Y029264D01*
X003927Y029364D02*
X003860Y029364D01*
X003772Y029264D02*
X003639Y029264D01*
X003639Y029464D01*
X003295Y029464D02*
X003295Y029264D01*
X003161Y029464D01*
X003161Y029264D01*
X003081Y029264D02*
X003014Y029264D01*
X003047Y029264D02*
X003047Y029464D01*
X003014Y029464D02*
X003081Y029464D01*
X002464Y029431D02*
X002431Y029464D01*
X002331Y029464D01*
X002331Y029264D01*
X002431Y029264D01*
X002464Y029297D01*
X002464Y029431D01*
X002243Y029464D02*
X002243Y029264D01*
X002110Y029464D01*
X002110Y029264D01*
X002022Y029297D02*
X002022Y029364D01*
X001956Y029364D01*
X002022Y029431D02*
X001989Y029464D01*
X001922Y029464D01*
X001889Y029431D01*
X001889Y029297D01*
X001922Y029264D01*
X001989Y029264D01*
X002022Y029297D01*
X002114Y026314D02*
X002214Y026314D01*
X002247Y026281D01*
X002247Y026147D01*
X002214Y026114D01*
X002114Y026114D01*
X002114Y026314D01*
X002335Y026314D02*
X002468Y026114D01*
X002468Y026314D01*
X002556Y026314D02*
X002656Y026314D01*
X002689Y026281D01*
X002689Y026214D01*
X002656Y026180D01*
X002556Y026180D01*
X002556Y026114D02*
X002556Y026314D01*
X002335Y026314D02*
X002335Y026114D01*
X016214Y015876D02*
X016214Y015676D01*
X016214Y015743D02*
X016314Y015810D01*
X016214Y015743D02*
X016314Y015676D01*
X016683Y015703D02*
X016816Y015703D01*
X016749Y015703D02*
X016749Y015903D01*
X016683Y015837D01*
X016904Y015870D02*
X016904Y015737D01*
X017037Y015870D01*
X017037Y015737D01*
X017004Y015703D01*
X016937Y015703D01*
X016904Y015737D01*
X016904Y015870D02*
X016937Y015903D01*
X017004Y015903D01*
X017037Y015870D01*
X017125Y015870D02*
X017158Y015903D01*
X017225Y015903D01*
X017258Y015870D01*
X017125Y015737D01*
X017158Y015703D01*
X017225Y015703D01*
X017258Y015737D01*
X017258Y015870D01*
X017125Y015870D02*
X017125Y015737D01*
X017567Y015703D02*
X017567Y015837D01*
X017667Y015837D01*
X017700Y015803D01*
X017700Y015703D01*
X017788Y015703D02*
X017788Y015903D01*
X017921Y015903D01*
X017854Y015803D02*
X017788Y015803D01*
X018874Y013903D02*
X018874Y013703D01*
X018808Y013703D02*
X018941Y013703D01*
X019029Y013737D02*
X019162Y013870D01*
X019162Y013737D01*
X019129Y013703D01*
X019062Y013703D01*
X019029Y013737D01*
X019029Y013870D01*
X019062Y013903D01*
X019129Y013903D01*
X019162Y013870D01*
X019250Y013870D02*
X019283Y013903D01*
X019350Y013903D01*
X019383Y013870D01*
X019250Y013737D01*
X019283Y013703D01*
X019350Y013703D01*
X019383Y013737D01*
X019383Y013870D01*
X019250Y013870D02*
X019250Y013737D01*
X018874Y013903D02*
X018808Y013837D01*
X019692Y013837D02*
X019792Y013837D01*
X019825Y013803D01*
X019825Y013703D01*
X019913Y013703D02*
X019913Y013903D01*
X020046Y013903D01*
X019979Y013803D02*
X019913Y013803D01*
X019692Y013837D02*
X019692Y013703D01*
X019515Y012412D02*
X019575Y012351D01*
X019888Y011589D01*
X019252Y010992D01*
X019115Y010893D01*
X019438Y010893D01*
X019487Y010981D01*
X019942Y011425D01*
X020118Y010992D01*
X020118Y010953D01*
X020085Y010893D01*
X021987Y010893D01*
X022091Y010926D01*
X022157Y010959D01*
X022239Y011052D01*
X022250Y011118D01*
X022289Y011178D01*
X022349Y011419D01*
X022349Y011567D01*
X022344Y011578D01*
X022229Y011633D01*
X022070Y011655D01*
X022179Y011655D01*
X022267Y011677D01*
X022333Y011704D01*
X022415Y011787D01*
X022437Y011841D01*
X022503Y012115D01*
X022519Y012159D01*
X022519Y012253D01*
X022497Y012307D01*
X022464Y012368D01*
X022420Y012395D01*
X022355Y012412D01*
X021110Y012412D01*
X021110Y012302D01*
X021088Y012203D01*
X020946Y011622D01*
X020869Y011310D01*
X020803Y011063D01*
X020759Y010931D01*
X020726Y010898D01*
X020710Y010898D01*
X020622Y011019D01*
X020315Y011776D01*
X020831Y012258D01*
X020907Y012324D01*
X020962Y012362D01*
X021033Y012412D01*
X020688Y012412D01*
X020683Y012390D01*
X020666Y012357D01*
X020644Y012329D01*
X020255Y011946D01*
X020118Y012291D01*
X020118Y012318D01*
X020101Y012346D01*
X020118Y012379D01*
X020118Y012412D01*
X019515Y012412D01*
X021412Y011759D02*
X021527Y012225D01*
X022031Y012225D01*
X022081Y012198D01*
X022086Y012110D01*
X022009Y011819D01*
X021993Y011781D01*
X021960Y011759D01*
X021412Y011759D01*
X021373Y011562D02*
X021247Y011079D01*
X021779Y011079D01*
X021801Y011090D01*
X021839Y011134D01*
X021861Y011167D01*
X021943Y011491D01*
X021943Y011507D01*
X021916Y011545D01*
X021872Y011562D01*
X021373Y011562D01*
X022470Y011178D02*
X022459Y011090D01*
X022459Y011035D01*
X022475Y010975D01*
X022503Y010937D01*
X022546Y010904D01*
X022590Y010893D01*
X023676Y010893D01*
X023753Y011079D01*
X023681Y011068D01*
X022892Y011068D01*
X022870Y011085D01*
X022864Y011123D01*
X022875Y011156D01*
X022919Y011342D01*
X023818Y011342D01*
X023912Y011721D01*
X023912Y011913D01*
X023890Y011935D01*
X023818Y011989D01*
X023758Y012011D01*
X022897Y012011D01*
X022864Y012006D01*
X022799Y011984D01*
X022711Y011929D01*
X022662Y011858D01*
X022596Y011726D01*
X022579Y011666D01*
X022470Y011178D01*
X022969Y011518D02*
X022974Y011512D01*
X023446Y011512D01*
X023506Y011748D01*
X023506Y011819D01*
X023489Y011836D01*
X023468Y011841D01*
X023078Y011841D01*
X023045Y011825D01*
X023023Y011787D01*
X023007Y011743D01*
X022969Y011518D01*
X023928Y011178D02*
X023917Y011090D01*
X023917Y011035D01*
X023934Y010975D01*
X023961Y010937D01*
X024005Y010904D01*
X024049Y010893D01*
X025134Y010893D01*
X025211Y011079D01*
X025140Y011068D01*
X024350Y011068D01*
X024328Y011085D01*
X024323Y011123D01*
X024334Y011156D01*
X024378Y011342D01*
X025277Y011342D01*
X025370Y011721D01*
X025370Y011913D01*
X025348Y011935D01*
X025277Y011989D01*
X025216Y012011D01*
X024356Y012011D01*
X024323Y012006D01*
X024257Y011984D01*
X024169Y011929D01*
X024120Y011858D01*
X024054Y011726D01*
X024038Y011666D01*
X023928Y011178D01*
X024427Y011518D02*
X024432Y011512D01*
X024904Y011512D01*
X024964Y011748D01*
X024964Y011819D01*
X024948Y011836D01*
X024926Y011841D01*
X024537Y011841D01*
X024504Y011825D01*
X024482Y011787D01*
X024465Y011743D01*
X024427Y011518D01*
X023582Y010326D02*
X023582Y010193D01*
X023515Y010126D01*
X023448Y010193D01*
X023448Y010326D01*
X023361Y010326D02*
X023361Y010126D01*
X023361Y010226D02*
X023227Y010226D01*
X023140Y010226D02*
X023140Y010160D01*
X023106Y010126D01*
X023040Y010126D01*
X023006Y010160D01*
X023006Y010226D02*
X023073Y010260D01*
X023106Y010260D01*
X023140Y010226D01*
X023140Y010326D02*
X023006Y010326D01*
X023006Y010226D01*
X022919Y010293D02*
X022785Y010160D01*
X022785Y010126D01*
X022698Y010160D02*
X022664Y010126D01*
X022598Y010126D01*
X022564Y010160D01*
X022477Y010126D02*
X022343Y010126D01*
X022410Y010126D02*
X022410Y010326D01*
X022343Y010260D01*
X022256Y010326D02*
X022122Y010326D01*
X022189Y010326D02*
X022189Y010126D01*
X022035Y010126D02*
X021901Y010126D01*
X021901Y010326D01*
X022564Y010293D02*
X022598Y010326D01*
X022664Y010326D01*
X022698Y010293D01*
X022698Y010260D01*
X022664Y010226D01*
X022698Y010193D01*
X022698Y010160D01*
X022664Y010226D02*
X022631Y010226D01*
X022785Y010326D02*
X022919Y010326D01*
X022919Y010293D01*
X023227Y010326D02*
X023227Y010126D01*
X020554Y009476D02*
X020421Y009476D01*
X020421Y009276D01*
X020333Y009276D02*
X020333Y009376D01*
X020300Y009410D01*
X020200Y009410D01*
X020200Y009276D01*
X020421Y009376D02*
X020488Y009376D01*
X019891Y009343D02*
X019891Y009310D01*
X019858Y009276D01*
X019791Y009276D01*
X019758Y009310D01*
X019681Y009310D02*
X019681Y009276D01*
X019647Y009276D01*
X019647Y009310D01*
X019681Y009310D01*
X019560Y009310D02*
X019526Y009276D01*
X019460Y009276D01*
X019426Y009310D01*
X019493Y009376D02*
X019526Y009376D01*
X019560Y009343D01*
X019560Y009310D01*
X019526Y009376D02*
X019560Y009410D01*
X019560Y009443D01*
X019526Y009476D01*
X019460Y009476D01*
X019426Y009443D01*
X019758Y009443D02*
X019791Y009476D01*
X019858Y009476D01*
X019891Y009443D01*
X019891Y009410D01*
X019858Y009376D01*
X019891Y009343D01*
X019858Y009376D02*
X019825Y009376D01*
X019779Y008476D02*
X019812Y008443D01*
X019679Y008310D01*
X019712Y008276D01*
X019779Y008276D01*
X019812Y008310D01*
X019812Y008443D01*
X019779Y008476D02*
X019712Y008476D01*
X019679Y008443D01*
X019679Y008310D01*
X019591Y008276D02*
X019458Y008276D01*
X019524Y008276D02*
X019524Y008476D01*
X019458Y008410D01*
X019900Y008443D02*
X019933Y008476D01*
X020000Y008476D01*
X020033Y008443D01*
X019900Y008310D01*
X019933Y008276D01*
X020000Y008276D01*
X020033Y008310D01*
X020033Y008443D01*
X019900Y008443D02*
X019900Y008310D01*
X020342Y008276D02*
X020342Y008410D01*
X020442Y008410D01*
X020475Y008376D01*
X020475Y008276D01*
X020563Y008276D02*
X020563Y008476D01*
X020696Y008476D01*
X020629Y008376D02*
X020563Y008376D01*
X020623Y007192D02*
X020757Y006992D01*
X020757Y007192D01*
X020844Y007192D02*
X020844Y007092D01*
X020911Y007125D01*
X020944Y007125D01*
X020978Y007092D01*
X020978Y007025D01*
X020944Y006992D01*
X020878Y006992D01*
X020844Y007025D01*
X020844Y007192D02*
X020978Y007192D01*
X021065Y007159D02*
X021065Y007125D01*
X021099Y007092D01*
X021165Y007092D01*
X021199Y007059D01*
X021199Y007025D01*
X021165Y006992D01*
X021099Y006992D01*
X021065Y007025D01*
X021065Y007059D01*
X021099Y007092D01*
X021165Y007092D02*
X021199Y007125D01*
X021199Y007159D01*
X021165Y007192D01*
X021099Y007192D01*
X021065Y007159D01*
X021286Y007125D02*
X021353Y007192D01*
X021353Y006992D01*
X021286Y006992D02*
X021420Y006992D01*
X021507Y007025D02*
X021541Y006992D01*
X021607Y006992D01*
X021641Y007025D01*
X021641Y007159D01*
X021607Y007192D01*
X021541Y007192D01*
X021507Y007159D01*
X021507Y007125D01*
X021541Y007092D01*
X021641Y007092D01*
X021643Y006526D02*
X021643Y006326D01*
X021576Y006326D02*
X021710Y006326D01*
X021797Y006360D02*
X021831Y006326D01*
X021897Y006326D01*
X021931Y006360D01*
X021931Y006493D01*
X021797Y006360D01*
X021797Y006493D01*
X021831Y006526D01*
X021897Y006526D01*
X021931Y006493D01*
X022018Y006493D02*
X022052Y006526D01*
X022118Y006526D01*
X022152Y006493D01*
X022018Y006360D01*
X022052Y006326D01*
X022118Y006326D01*
X022152Y006360D01*
X022152Y006493D01*
X022018Y006493D02*
X022018Y006360D01*
X021643Y006526D02*
X021576Y006460D01*
X022460Y006460D02*
X022460Y006360D01*
X022494Y006326D01*
X022594Y006326D01*
X022594Y006460D01*
X022681Y006426D02*
X022748Y006426D01*
X022681Y006326D02*
X022681Y006526D01*
X022815Y006526D01*
X020623Y006992D02*
X020623Y007192D01*
X020469Y007192D02*
X020469Y006992D01*
X020402Y006992D02*
X020536Y006992D01*
X020402Y007125D02*
X020469Y007192D01*
X019309Y007028D02*
X019108Y007028D01*
X019108Y007094D02*
X019108Y006961D01*
X019108Y006873D02*
X019309Y006873D01*
X019108Y006740D01*
X019309Y006740D01*
X019275Y006652D02*
X019242Y006652D01*
X019209Y006619D01*
X019209Y006519D01*
X019275Y006519D02*
X019309Y006552D01*
X019309Y006619D01*
X019275Y006652D01*
X019275Y006519D02*
X019142Y006519D01*
X019108Y006552D01*
X019108Y006619D01*
X019142Y006652D01*
X019108Y006431D02*
X019108Y006298D01*
X019108Y006365D02*
X019309Y006365D01*
X019242Y006431D01*
X019209Y006210D02*
X019209Y006077D01*
X019309Y006110D02*
X019209Y006210D01*
X019309Y006110D02*
X019108Y006110D01*
X019309Y007028D02*
X019242Y007094D01*
X014290Y006601D02*
X014156Y006601D01*
X014156Y006401D01*
X014069Y006401D02*
X014069Y006501D01*
X014035Y006535D01*
X013935Y006535D01*
X013935Y006401D01*
X014156Y006501D02*
X014223Y006501D01*
X013627Y006435D02*
X013593Y006401D01*
X013527Y006401D01*
X013493Y006435D01*
X013627Y006568D01*
X013627Y006435D01*
X013627Y006568D02*
X013593Y006601D01*
X013527Y006601D01*
X013493Y006568D01*
X013493Y006435D01*
X013406Y006435D02*
X013372Y006401D01*
X013306Y006401D01*
X013272Y006435D01*
X013406Y006568D01*
X013406Y006435D01*
X013406Y006568D02*
X013372Y006601D01*
X013306Y006601D01*
X013272Y006568D01*
X013272Y006435D01*
X013185Y006401D02*
X013051Y006401D01*
X013118Y006401D02*
X013118Y006601D01*
X013051Y006535D01*
X012152Y006740D02*
X012085Y006673D01*
X011951Y006673D01*
X012051Y006673D02*
X012051Y006806D01*
X012085Y006806D02*
X012152Y006740D01*
X012085Y006806D02*
X011951Y006806D01*
X011951Y006894D02*
X012051Y006894D01*
X012085Y006927D01*
X012051Y006961D01*
X011951Y006961D01*
X011951Y007027D02*
X012085Y007027D01*
X012085Y006994D01*
X012051Y006961D01*
X011985Y007336D02*
X011951Y007369D01*
X011951Y007436D01*
X011985Y007469D01*
X012118Y007336D01*
X011985Y007336D01*
X012118Y007336D02*
X012152Y007369D01*
X012152Y007436D01*
X012118Y007469D01*
X011985Y007469D01*
X011985Y007557D02*
X011951Y007590D01*
X011951Y007657D01*
X011985Y007690D01*
X012118Y007557D01*
X011985Y007557D01*
X012118Y007557D02*
X012152Y007590D01*
X012152Y007657D01*
X012118Y007690D01*
X011985Y007690D01*
X011985Y007778D02*
X011951Y007811D01*
X011951Y007878D01*
X011985Y007911D01*
X012051Y007911D02*
X012085Y007845D01*
X012085Y007811D01*
X012051Y007778D01*
X011985Y007778D01*
X012051Y007911D02*
X012152Y007911D01*
X012152Y007778D01*
X009404Y007681D02*
X009404Y007614D01*
X009371Y007580D01*
X009271Y007580D01*
X009271Y007514D02*
X009271Y007714D01*
X009371Y007714D01*
X009404Y007681D01*
X009337Y007580D02*
X009404Y007514D01*
X008962Y007514D02*
X008829Y007514D01*
X008962Y007647D01*
X008962Y007681D01*
X008929Y007714D01*
X008862Y007714D01*
X008829Y007681D01*
X008741Y007681D02*
X008708Y007714D01*
X008641Y007714D01*
X008608Y007681D01*
X008741Y007681D02*
X008741Y007647D01*
X008608Y007514D01*
X008741Y007514D01*
X008373Y007551D02*
X008373Y007618D01*
X008339Y007651D01*
X008239Y007651D01*
X008239Y007451D01*
X008239Y007518D02*
X008339Y007518D01*
X008373Y007551D01*
X008306Y007518D02*
X008373Y007451D01*
X007931Y007451D02*
X007797Y007451D01*
X007931Y007585D01*
X007931Y007618D01*
X007897Y007651D01*
X007831Y007651D01*
X007797Y007618D01*
X007710Y007618D02*
X007676Y007651D01*
X007610Y007651D01*
X007576Y007618D01*
X007710Y007618D02*
X007710Y007585D01*
X007576Y007451D01*
X007710Y007451D01*
X006396Y007521D02*
X006396Y007363D01*
X006396Y007521D02*
X006239Y007521D01*
X006451Y008701D02*
X006585Y008701D01*
X006518Y008701D02*
X006518Y008901D01*
X006451Y008835D01*
X006893Y008901D02*
X006960Y008835D01*
X007027Y008901D01*
X007027Y008701D01*
X006893Y008701D02*
X006893Y008901D01*
X007920Y008868D02*
X007954Y008901D01*
X008020Y008901D01*
X008054Y008868D01*
X008054Y008835D01*
X007920Y008701D01*
X008054Y008701D01*
X008141Y008701D02*
X008141Y008735D01*
X008275Y008868D01*
X008275Y008901D01*
X008141Y008901D01*
X008583Y008901D02*
X008583Y008701D01*
X008583Y008768D02*
X008683Y008768D01*
X008717Y008801D01*
X008717Y008868D01*
X008683Y008901D01*
X008583Y008901D01*
X008650Y008768D02*
X008717Y008701D01*
X009076Y009577D02*
X009209Y009577D01*
X009143Y009577D02*
X009143Y009777D01*
X009076Y009710D01*
X009297Y009744D02*
X009330Y009777D01*
X009397Y009777D01*
X009430Y009744D01*
X009297Y009610D01*
X009330Y009577D01*
X009397Y009577D01*
X009430Y009610D01*
X009430Y009744D01*
X009297Y009744D02*
X009297Y009610D01*
X009739Y009577D02*
X009739Y009777D01*
X009839Y009710D02*
X009739Y009644D01*
X009839Y009577D01*
X010039Y005924D02*
X010005Y005891D01*
X010039Y005924D02*
X010105Y005924D01*
X010139Y005891D01*
X010139Y005857D01*
X010005Y005724D01*
X010139Y005724D01*
X009697Y005724D02*
X009563Y005857D01*
X009563Y005724D02*
X009697Y005857D01*
X009255Y005857D02*
X009222Y005824D01*
X009255Y005790D01*
X009255Y005757D01*
X009222Y005724D01*
X009155Y005724D01*
X009121Y005757D01*
X009034Y005757D02*
X009001Y005724D01*
X008934Y005724D01*
X008900Y005757D01*
X009034Y005891D01*
X009034Y005757D01*
X009034Y005891D02*
X009001Y005924D01*
X008934Y005924D01*
X008900Y005891D01*
X008900Y005757D01*
X008813Y005757D02*
X008813Y005790D01*
X008780Y005824D01*
X008679Y005824D01*
X008679Y005757D01*
X008713Y005724D01*
X008780Y005724D01*
X008813Y005757D01*
X008746Y005891D02*
X008679Y005824D01*
X008746Y005891D02*
X008813Y005924D01*
X008592Y005891D02*
X008459Y005757D01*
X008492Y005724D01*
X008559Y005724D01*
X008592Y005757D01*
X008592Y005891D01*
X008559Y005924D01*
X008492Y005924D01*
X008459Y005891D01*
X008459Y005757D01*
X008371Y005724D02*
X008238Y005724D01*
X008304Y005724D02*
X008304Y005924D01*
X008238Y005857D01*
X008150Y005891D02*
X008017Y005757D01*
X008050Y005724D01*
X008117Y005724D01*
X008150Y005757D01*
X008150Y005891D01*
X008117Y005924D01*
X008050Y005924D01*
X008017Y005891D01*
X008017Y005757D01*
X007929Y005724D02*
X007796Y005724D01*
X007862Y005724D02*
X007862Y005924D01*
X007796Y005857D01*
X007708Y005857D02*
X007675Y005824D01*
X007575Y005824D01*
X007487Y005824D02*
X007420Y005824D01*
X007487Y005824D02*
X007487Y005757D01*
X007454Y005724D01*
X007387Y005724D01*
X007354Y005757D01*
X007354Y005891D01*
X007387Y005924D01*
X007454Y005924D01*
X007487Y005891D01*
X007575Y005924D02*
X007675Y005924D01*
X007708Y005891D01*
X007708Y005857D01*
X007675Y005824D02*
X007708Y005790D01*
X007708Y005757D01*
X007675Y005724D01*
X007575Y005724D01*
X007575Y005924D01*
X007266Y005891D02*
X007266Y005824D01*
X007233Y005790D01*
X007133Y005790D01*
X007133Y005724D02*
X007133Y005924D01*
X007233Y005924D01*
X007266Y005891D01*
X006396Y005749D02*
X006396Y005592D01*
X006239Y005592D01*
X006254Y005376D02*
X006221Y005343D01*
X006254Y005376D02*
X006321Y005376D01*
X006354Y005343D01*
X006354Y005310D01*
X006221Y005176D01*
X006354Y005176D01*
X006133Y005210D02*
X006133Y005376D01*
X006000Y005376D02*
X006000Y005210D01*
X006033Y005176D01*
X006100Y005176D01*
X006133Y005210D01*
X005912Y005210D02*
X005912Y005243D01*
X005879Y005276D01*
X005779Y005276D01*
X005779Y005210D01*
X005812Y005176D01*
X005879Y005176D01*
X005912Y005210D01*
X005846Y005343D02*
X005779Y005276D01*
X005846Y005343D02*
X005912Y005376D01*
X005625Y005376D02*
X005625Y005176D01*
X005691Y005176D02*
X005558Y005176D01*
X005470Y005176D02*
X005470Y005310D01*
X005404Y005376D01*
X005337Y005310D01*
X005337Y005176D01*
X005249Y005210D02*
X005249Y005276D01*
X005183Y005276D01*
X005249Y005210D02*
X005216Y005176D01*
X005149Y005176D01*
X005116Y005210D01*
X005116Y005343D01*
X005149Y005376D01*
X005216Y005376D01*
X005249Y005343D01*
X005337Y005276D02*
X005470Y005276D01*
X005558Y005310D02*
X005625Y005376D01*
X005028Y005376D02*
X004895Y005376D01*
X004895Y005176D01*
X005028Y005176D01*
X004962Y005276D02*
X004895Y005276D01*
X004807Y005376D02*
X004807Y005176D01*
X004674Y005176D02*
X004674Y005376D01*
X004741Y005310D01*
X004807Y005376D01*
X004586Y005376D02*
X004453Y005376D01*
X004520Y005376D02*
X004520Y005176D01*
X004365Y005176D02*
X004365Y005310D01*
X004299Y005376D01*
X004232Y005310D01*
X004232Y005176D01*
X004232Y005276D02*
X004365Y005276D01*
X004467Y005592D02*
X004467Y005749D01*
X004467Y005592D02*
X004624Y005592D01*
X003743Y004335D02*
X003643Y004268D01*
X003743Y004201D01*
X003643Y004201D02*
X003643Y004401D01*
X003335Y004201D02*
X003201Y004201D01*
X003268Y004201D02*
X003268Y004401D01*
X003201Y004335D01*
X005701Y004335D02*
X005768Y004401D01*
X005768Y004201D01*
X005701Y004201D02*
X005835Y004201D01*
X006143Y004201D02*
X006143Y004401D01*
X006243Y004335D02*
X006143Y004268D01*
X006243Y004201D01*
X006489Y004290D02*
X006489Y004490D01*
X006489Y004290D02*
X006622Y004290D01*
X006839Y002476D02*
X006973Y002476D01*
X006906Y002376D02*
X006839Y002376D01*
X006752Y002410D02*
X006752Y002276D01*
X006652Y002276D01*
X006618Y002310D01*
X006618Y002410D01*
X006839Y002476D02*
X006839Y002276D01*
X006310Y002276D02*
X006176Y002276D01*
X006243Y002276D02*
X006243Y002476D01*
X006176Y002410D01*
X005541Y002002D02*
X005508Y002035D01*
X005408Y002035D01*
X005408Y001835D01*
X005508Y001835D01*
X005541Y001868D01*
X005541Y002002D01*
X005320Y002035D02*
X005187Y001835D01*
X005320Y001835D02*
X005187Y002035D01*
X005099Y002035D02*
X004966Y002035D01*
X005032Y002035D02*
X005032Y001835D01*
X004541Y001867D02*
X004541Y002001D01*
X004508Y002034D01*
X004408Y002034D01*
X004408Y001834D01*
X004508Y001834D01*
X004541Y001867D01*
X004320Y001834D02*
X004187Y002034D01*
X004099Y002001D02*
X004099Y001934D01*
X004066Y001901D01*
X003966Y001901D01*
X004033Y001901D02*
X004099Y001834D01*
X004187Y001834D02*
X004320Y002034D01*
X004099Y002001D02*
X004066Y002034D01*
X003966Y002034D01*
X003966Y001834D01*
X009326Y001985D02*
X009360Y001951D01*
X009426Y001951D01*
X009460Y001985D01*
X009460Y002151D01*
X009547Y002118D02*
X009547Y002085D01*
X009581Y002051D01*
X009647Y002051D01*
X009681Y002018D01*
X009681Y001985D01*
X009647Y001951D01*
X009581Y001951D01*
X009547Y001985D01*
X009547Y002118D02*
X009581Y002151D01*
X009647Y002151D01*
X009681Y002118D01*
X009768Y002151D02*
X009868Y002151D01*
X009902Y002118D01*
X009902Y002085D01*
X009868Y002051D01*
X009768Y002051D01*
X009768Y001951D02*
X009868Y001951D01*
X009902Y001985D01*
X009902Y002018D01*
X009868Y002051D01*
X009768Y001951D02*
X009768Y002151D01*
X009326Y002151D02*
X009326Y001985D01*
X012201Y001951D02*
X012335Y001951D01*
X012422Y001985D02*
X012456Y002018D01*
X012556Y002018D01*
X012556Y002051D02*
X012556Y001951D01*
X012456Y001951D01*
X012422Y001985D01*
X012456Y002085D02*
X012522Y002085D01*
X012556Y002051D01*
X012643Y002051D02*
X012677Y002085D01*
X012777Y002085D01*
X012743Y002018D02*
X012677Y002018D01*
X012643Y002051D01*
X012643Y001951D02*
X012743Y001951D01*
X012777Y001985D01*
X012743Y002018D01*
X012864Y002018D02*
X012998Y002018D01*
X012998Y002051D01*
X012964Y002085D01*
X012898Y002085D01*
X012864Y002051D01*
X012864Y001985D01*
X012898Y001951D01*
X012964Y001951D01*
X013085Y001951D02*
X013085Y002085D01*
X013085Y002018D02*
X013152Y002085D01*
X013185Y002085D01*
X013490Y002151D02*
X013624Y002151D01*
X013557Y002151D02*
X013557Y001951D01*
X013711Y001985D02*
X013711Y002051D01*
X013745Y002085D01*
X013812Y002085D01*
X013845Y002051D01*
X013845Y002018D01*
X013711Y002018D01*
X013711Y001985D02*
X013745Y001951D01*
X013812Y001951D01*
X013932Y001951D02*
X014033Y001951D01*
X014066Y001985D01*
X014033Y002018D01*
X013966Y002018D01*
X013932Y002051D01*
X013966Y002085D01*
X014066Y002085D01*
X014153Y002085D02*
X014220Y002085D01*
X014187Y002118D02*
X014187Y001985D01*
X014220Y001951D01*
X015492Y001061D02*
X015625Y001061D01*
X015592Y000961D02*
X015592Y001161D01*
X015492Y001061D01*
X015713Y000995D02*
X015713Y000961D01*
X015713Y000995D02*
X015846Y001128D01*
X015846Y001161D01*
X015713Y001161D01*
X016154Y001095D02*
X016154Y000995D01*
X016188Y000961D01*
X016288Y000961D01*
X016288Y001095D01*
X016375Y001061D02*
X016442Y001061D01*
X016375Y000961D02*
X016375Y001161D01*
X016509Y001161D01*
X016817Y001128D02*
X016851Y001161D01*
X016918Y001161D01*
X016951Y001128D01*
X016951Y001095D01*
X016918Y001061D01*
X016951Y001028D01*
X016951Y000995D01*
X016918Y000961D01*
X016851Y000961D01*
X016817Y000995D01*
X016884Y001061D02*
X016918Y001061D01*
X017038Y001061D02*
X017105Y001095D01*
X017139Y001095D01*
X017172Y001061D01*
X017172Y000995D01*
X017139Y000961D01*
X017072Y000961D01*
X017038Y000995D01*
X017038Y001061D02*
X017038Y001161D01*
X017172Y001161D01*
X017480Y001161D02*
X017480Y001028D01*
X017547Y000961D01*
X017614Y001028D01*
X017614Y001161D01*
X016652Y001951D02*
X016619Y001985D01*
X016619Y002118D01*
X016652Y002085D02*
X016585Y002085D01*
X016498Y002051D02*
X016498Y002018D01*
X016364Y002018D01*
X016364Y001985D02*
X016364Y002051D01*
X016398Y002085D01*
X016464Y002085D01*
X016498Y002051D01*
X016464Y001951D02*
X016398Y001951D01*
X016364Y001985D01*
X016277Y001985D02*
X016243Y002018D01*
X016177Y002018D01*
X016143Y002051D01*
X016177Y002085D01*
X016277Y002085D01*
X016277Y001985D02*
X016243Y001951D01*
X016143Y001951D01*
X016056Y002018D02*
X015922Y002018D01*
X015922Y001985D02*
X015922Y002051D01*
X015956Y002085D01*
X016022Y002085D01*
X016056Y002051D01*
X016056Y002018D01*
X016022Y001951D02*
X015956Y001951D01*
X015922Y001985D01*
X015835Y001951D02*
X015768Y002018D01*
X015801Y002018D02*
X015701Y002018D01*
X015701Y001951D02*
X015701Y002151D01*
X015801Y002151D01*
X015835Y002118D01*
X015835Y002051D01*
X015801Y002018D01*
X012201Y001951D02*
X012201Y002151D01*
X009222Y005824D02*
X009188Y005824D01*
X009255Y005857D02*
X009255Y005891D01*
X009222Y005924D01*
X009155Y005924D01*
X009121Y005891D01*
X004624Y007521D02*
X004467Y007521D01*
X004467Y007363D01*
X016051Y011426D02*
X016185Y011426D01*
X016118Y011426D02*
X016118Y011626D01*
X016051Y011560D01*
X016272Y011593D02*
X016306Y011626D01*
X016372Y011626D01*
X016406Y011593D01*
X016272Y011460D01*
X016306Y011426D01*
X016372Y011426D01*
X016406Y011460D01*
X016406Y011593D01*
X016272Y011593D02*
X016272Y011460D01*
X016714Y011493D02*
X016814Y011560D01*
X016714Y011626D02*
X016714Y011426D01*
X016714Y011493D02*
X016814Y011426D01*
X016814Y012676D02*
X016714Y012743D01*
X016814Y012810D01*
X016714Y012876D02*
X016714Y012676D01*
X016406Y012710D02*
X016372Y012676D01*
X016306Y012676D01*
X016272Y012710D01*
X016406Y012843D01*
X016406Y012710D01*
X016406Y012843D02*
X016372Y012876D01*
X016306Y012876D01*
X016272Y012843D01*
X016272Y012710D01*
X016185Y012676D02*
X016051Y012676D01*
X016118Y012676D02*
X016118Y012876D01*
X016051Y012810D01*
X027926Y014301D02*
X028060Y014301D01*
X027993Y014301D02*
X027993Y014501D01*
X027926Y014435D01*
X028147Y014468D02*
X028181Y014501D01*
X028247Y014501D01*
X028281Y014468D01*
X028147Y014335D01*
X028181Y014301D01*
X028247Y014301D01*
X028281Y014335D01*
X028281Y014468D01*
X028147Y014468D02*
X028147Y014335D01*
X028589Y014368D02*
X028689Y014435D01*
X028589Y014501D02*
X028589Y014301D01*
X028589Y014368D02*
X028689Y014301D01*
X029301Y014551D02*
X029435Y014551D01*
X029368Y014551D02*
X029368Y014751D01*
X029301Y014685D01*
X029522Y014718D02*
X029556Y014751D01*
X029622Y014751D01*
X029656Y014718D01*
X029522Y014585D01*
X029556Y014551D01*
X029622Y014551D01*
X029656Y014585D01*
X029656Y014718D01*
X029522Y014718D02*
X029522Y014585D01*
X029964Y014618D02*
X030064Y014685D01*
X029964Y014751D02*
X029964Y014551D01*
X029964Y014618D02*
X030064Y014551D01*
X029918Y015076D02*
X029918Y015383D01*
X029918Y015230D02*
X030378Y015230D01*
X030148Y015537D02*
X030148Y015844D01*
X032477Y015383D02*
X032477Y015076D01*
X032477Y015230D02*
X032937Y015230D01*
X032707Y015537D02*
X032707Y015844D01*
X032553Y015690D02*
X032860Y015690D01*
X033276Y014501D02*
X033176Y014401D01*
X033310Y014401D01*
X033276Y014301D02*
X033276Y014501D01*
X033397Y014335D02*
X033431Y014335D01*
X033431Y014301D01*
X033397Y014301D01*
X033397Y014335D01*
X033508Y014335D02*
X033508Y014301D01*
X033508Y014335D02*
X033641Y014468D01*
X033641Y014501D01*
X033508Y014501D01*
X033950Y014501D02*
X033950Y014301D01*
X033950Y014368D02*
X034050Y014435D01*
X033950Y014368D02*
X034050Y014301D01*
X034801Y014714D02*
X034935Y014714D01*
X034901Y014814D02*
X034801Y014714D01*
X034901Y014614D02*
X034901Y014814D01*
X035022Y014647D02*
X035056Y014647D01*
X035056Y014614D01*
X035022Y014614D01*
X035022Y014647D01*
X035133Y014647D02*
X035133Y014614D01*
X035133Y014647D02*
X035266Y014781D01*
X035266Y014814D01*
X035133Y014814D01*
X035575Y014814D02*
X035575Y014614D01*
X035575Y014680D02*
X035675Y014747D01*
X035575Y014680D02*
X035675Y014614D01*
X038768Y019235D02*
X038768Y019368D01*
X038701Y019301D02*
X038835Y019301D01*
X038922Y019301D02*
X038922Y019401D01*
X039056Y019401D01*
X039022Y019335D02*
X039056Y019301D01*
X039056Y019235D01*
X039022Y019201D01*
X038956Y019201D01*
X038922Y019235D01*
X038922Y019301D02*
X038989Y019335D01*
X039022Y019335D01*
X039143Y019401D02*
X039143Y019268D01*
X039210Y019201D01*
X039277Y019268D01*
X039277Y019401D01*
X039243Y020264D02*
X039277Y020297D01*
X039277Y020431D01*
X039243Y020464D01*
X039143Y020464D01*
X039143Y020264D01*
X039243Y020264D01*
X039056Y020264D02*
X039056Y020464D01*
X038922Y020464D02*
X039056Y020264D01*
X038922Y020264D02*
X038922Y020464D01*
X038835Y020431D02*
X038801Y020464D01*
X038735Y020464D01*
X038701Y020431D01*
X038701Y020297D01*
X038735Y020264D01*
X038801Y020264D01*
X038835Y020297D01*
X038835Y020364D01*
X038768Y020364D01*
X038835Y021201D02*
X038768Y021268D01*
X038801Y021268D02*
X038701Y021268D01*
X038701Y021201D02*
X038701Y021401D01*
X038801Y021401D01*
X038835Y021368D01*
X038835Y021301D01*
X038801Y021268D01*
X038922Y021201D02*
X039056Y021401D01*
X039143Y021401D02*
X039243Y021401D01*
X039277Y021368D01*
X039277Y021235D01*
X039243Y021201D01*
X039143Y021201D01*
X039143Y021401D01*
X039056Y021201D02*
X038922Y021401D01*
X038922Y022201D02*
X039056Y022401D01*
X039143Y022401D02*
X039243Y022401D01*
X039277Y022368D01*
X039277Y022235D01*
X039243Y022201D01*
X039143Y022201D01*
X039143Y022401D01*
X039056Y022201D02*
X038922Y022401D01*
X038835Y022401D02*
X038701Y022401D01*
X038768Y022401D02*
X038768Y022201D01*
X038835Y023201D02*
X038835Y023401D01*
X038768Y023335D01*
X038701Y023401D01*
X038701Y023201D01*
X038922Y023201D02*
X038989Y023201D01*
X038956Y023201D02*
X038956Y023401D01*
X038989Y023401D02*
X038922Y023401D01*
X039070Y023368D02*
X039070Y023335D01*
X039103Y023301D01*
X039170Y023301D01*
X039203Y023268D01*
X039203Y023235D01*
X039170Y023201D01*
X039103Y023201D01*
X039070Y023235D01*
X039070Y023368D02*
X039103Y023401D01*
X039170Y023401D01*
X039203Y023368D01*
X039291Y023368D02*
X039291Y023235D01*
X039324Y023201D01*
X039391Y023201D01*
X039424Y023235D01*
X039424Y023368D01*
X039391Y023401D01*
X039324Y023401D01*
X039291Y023368D01*
X039243Y024201D02*
X039177Y024201D01*
X039143Y024235D01*
X039177Y024301D02*
X039243Y024301D01*
X039277Y024268D01*
X039277Y024235D01*
X039243Y024201D01*
X039177Y024301D02*
X039143Y024335D01*
X039143Y024368D01*
X039177Y024401D01*
X039243Y024401D01*
X039277Y024368D01*
X039364Y024401D02*
X039431Y024401D01*
X039398Y024401D02*
X039398Y024201D01*
X039431Y024201D02*
X039364Y024201D01*
X039056Y024235D02*
X039056Y024368D01*
X039022Y024401D01*
X038956Y024401D01*
X038922Y024368D01*
X038922Y024235D01*
X038956Y024201D01*
X039022Y024201D01*
X039056Y024235D01*
X038835Y024201D02*
X038835Y024401D01*
X038768Y024335D01*
X038701Y024401D01*
X038701Y024201D01*
X038735Y025264D02*
X038701Y025297D01*
X038735Y025264D02*
X038801Y025264D01*
X038835Y025297D01*
X038835Y025330D01*
X038801Y025364D01*
X038735Y025364D01*
X038701Y025397D01*
X038701Y025431D01*
X038735Y025464D01*
X038801Y025464D01*
X038835Y025431D01*
X038922Y025431D02*
X038922Y025297D01*
X038956Y025264D01*
X039022Y025264D01*
X039056Y025297D01*
X039143Y025264D02*
X039143Y025464D01*
X039056Y025431D02*
X039022Y025464D01*
X038956Y025464D01*
X038922Y025431D01*
X039143Y025330D02*
X039277Y025464D01*
X039177Y025364D02*
X039277Y025264D01*
X039022Y026201D02*
X038956Y026201D01*
X038922Y026235D01*
X038956Y026301D02*
X039022Y026301D01*
X039056Y026268D01*
X039056Y026235D01*
X039022Y026201D01*
X038956Y026301D02*
X038922Y026335D01*
X038922Y026368D01*
X038956Y026401D01*
X039022Y026401D01*
X039056Y026368D01*
X038835Y026368D02*
X038801Y026401D01*
X038735Y026401D01*
X038701Y026368D01*
X038701Y026235D01*
X038735Y026201D01*
X038801Y026201D01*
X038835Y026235D01*
X035564Y025810D02*
X035464Y025743D01*
X035564Y025676D01*
X035464Y025676D02*
X035464Y025876D01*
X035156Y025843D02*
X035022Y025710D01*
X035056Y025676D01*
X035122Y025676D01*
X035156Y025710D01*
X035156Y025843D01*
X035122Y025876D01*
X035056Y025876D01*
X035022Y025843D01*
X035022Y025710D01*
X034935Y025676D02*
X034801Y025676D01*
X034868Y025676D02*
X034868Y025876D01*
X034801Y025810D01*
X034089Y024001D02*
X034089Y023801D01*
X034089Y023868D02*
X034189Y023801D01*
X034089Y023868D02*
X034189Y023935D01*
X033781Y023968D02*
X033647Y023835D01*
X033681Y023801D01*
X033747Y023801D01*
X033781Y023835D01*
X033781Y023968D01*
X033747Y024001D01*
X033681Y024001D01*
X033647Y023968D01*
X033647Y023835D01*
X033560Y023801D02*
X033426Y023801D01*
X033493Y023801D02*
X033493Y024001D01*
X033426Y023935D01*
X033339Y021226D02*
X033373Y021193D01*
X033373Y021160D01*
X033339Y021126D01*
X033373Y021093D01*
X033373Y021060D01*
X033339Y021026D01*
X033273Y021026D01*
X033239Y021060D01*
X033152Y021026D02*
X033018Y021226D01*
X032931Y021160D02*
X032931Y021026D01*
X033018Y021026D02*
X033152Y021226D01*
X033239Y021193D02*
X033273Y021226D01*
X033339Y021226D01*
X033339Y021126D02*
X033306Y021126D01*
X033460Y021160D02*
X033527Y021226D01*
X033527Y021026D01*
X033460Y021026D02*
X033594Y021026D01*
X033681Y021060D02*
X033681Y021093D01*
X033715Y021126D01*
X033781Y021126D01*
X033815Y021093D01*
X033815Y021060D01*
X033781Y021026D01*
X033715Y021026D01*
X033681Y021060D01*
X033715Y021126D02*
X033681Y021160D01*
X033681Y021193D01*
X033715Y021226D01*
X033781Y021226D01*
X033815Y021193D01*
X033815Y021160D01*
X033781Y021126D01*
X033902Y021126D02*
X033969Y021160D01*
X034002Y021160D01*
X034036Y021126D01*
X034036Y021060D01*
X034002Y021026D01*
X033936Y021026D01*
X033902Y021060D01*
X033902Y021126D02*
X033902Y021226D01*
X034036Y021226D01*
X034123Y021226D02*
X034123Y021126D01*
X034190Y021160D01*
X034223Y021160D01*
X034257Y021126D01*
X034257Y021060D01*
X034223Y021026D01*
X034157Y021026D01*
X034123Y021060D01*
X034123Y021226D02*
X034257Y021226D01*
X034344Y021226D02*
X034344Y021026D01*
X034344Y021093D02*
X034478Y021226D01*
X034378Y021126D02*
X034478Y021026D01*
X034225Y019778D02*
X034258Y019745D01*
X034125Y019612D01*
X034158Y019578D01*
X034225Y019578D01*
X034258Y019612D01*
X034258Y019745D01*
X034225Y019778D02*
X034158Y019778D01*
X034125Y019745D01*
X034125Y019612D01*
X034037Y019612D02*
X034004Y019578D01*
X033937Y019578D01*
X033904Y019612D01*
X034037Y019745D01*
X034037Y019612D01*
X034037Y019745D02*
X034004Y019778D01*
X033937Y019778D01*
X033904Y019745D01*
X033904Y019612D01*
X033816Y019578D02*
X033683Y019578D01*
X033749Y019578D02*
X033749Y019778D01*
X033683Y019712D01*
X034567Y019712D02*
X034567Y019578D01*
X034700Y019578D02*
X034700Y019678D01*
X034667Y019712D01*
X034567Y019712D01*
X034788Y019678D02*
X034854Y019678D01*
X034788Y019578D02*
X034788Y019778D01*
X034921Y019778D01*
X032931Y021126D02*
X032797Y021126D01*
X032797Y021160D02*
X032864Y021226D01*
X032931Y021160D01*
X032797Y021160D02*
X032797Y021026D01*
X032710Y021026D02*
X032710Y021226D01*
X032643Y021160D01*
X032576Y021226D01*
X032576Y021026D01*
X029464Y001283D02*
X029464Y001083D01*
X029464Y001149D02*
X029564Y001216D01*
X029464Y001149D02*
X029564Y001083D01*
X029156Y001116D02*
X029122Y001083D01*
X029056Y001083D01*
X029022Y001116D01*
X029156Y001249D01*
X029156Y001116D01*
X029156Y001249D02*
X029122Y001283D01*
X029056Y001283D01*
X029022Y001249D01*
X029022Y001116D01*
X028935Y001083D02*
X028801Y001083D01*
X028868Y001083D02*
X028868Y001283D01*
X028801Y001216D01*
X027633Y001185D02*
X027533Y001118D01*
X027633Y001051D01*
X027533Y001051D02*
X027533Y001251D01*
X027225Y001218D02*
X027091Y001085D01*
X027124Y001051D01*
X027191Y001051D01*
X027225Y001085D01*
X027225Y001218D01*
X027191Y001251D01*
X027124Y001251D01*
X027091Y001218D01*
X027091Y001085D01*
X027004Y001051D02*
X026870Y001051D01*
X026937Y001051D02*
X026937Y001251D01*
X026870Y001185D01*
X026046Y001278D02*
X025913Y001278D01*
X025913Y001078D01*
X025825Y001078D02*
X025825Y001178D01*
X025792Y001212D01*
X025692Y001212D01*
X025692Y001078D01*
X025913Y001178D02*
X025979Y001178D01*
X025383Y001112D02*
X025350Y001078D01*
X025283Y001078D01*
X025250Y001112D01*
X025383Y001245D01*
X025383Y001112D01*
X025383Y001245D02*
X025350Y001278D01*
X025283Y001278D01*
X025250Y001245D01*
X025250Y001112D01*
X025162Y001112D02*
X025129Y001078D01*
X025062Y001078D01*
X025029Y001112D01*
X025162Y001245D01*
X025162Y001112D01*
X025162Y001245D02*
X025129Y001278D01*
X025062Y001278D01*
X025029Y001245D01*
X025029Y001112D01*
X024941Y001078D02*
X024808Y001078D01*
X024874Y001078D02*
X024874Y001278D01*
X024808Y001212D01*
X022219Y001239D02*
X022085Y001239D01*
X021998Y001272D02*
X021998Y001139D01*
X021898Y001139D01*
X021864Y001172D01*
X021864Y001272D01*
X022085Y001339D02*
X022085Y001139D01*
X022219Y001139D02*
X022219Y001339D01*
X021556Y001306D02*
X021422Y001172D01*
X021456Y001139D01*
X021522Y001139D01*
X021556Y001172D01*
X021556Y001306D01*
X021522Y001339D01*
X021456Y001339D01*
X021422Y001306D01*
X021422Y001172D01*
X021335Y001139D02*
X021201Y001139D01*
X021268Y001139D02*
X021268Y001339D01*
X021201Y001272D01*
D11*
X017381Y003206D02*
X017381Y004906D01*
X017668Y004743D02*
X027195Y004743D01*
X027195Y015201D01*
X024705Y017692D01*
X020158Y017692D01*
X017668Y015201D01*
X017668Y004743D01*
X016586Y005256D02*
X015781Y005256D01*
X014981Y004906D02*
X014981Y003206D01*
X014381Y003206D02*
X014381Y004906D01*
X013586Y005256D02*
X012781Y005256D01*
X011981Y004906D02*
X011981Y003206D01*
X012781Y002856D02*
X013574Y002856D01*
X012481Y004056D02*
X012483Y004108D01*
X012489Y004160D01*
X012499Y004212D01*
X012512Y004262D01*
X012529Y004312D01*
X012550Y004360D01*
X012575Y004406D01*
X012603Y004450D01*
X012634Y004492D01*
X012668Y004532D01*
X012705Y004569D01*
X012745Y004603D01*
X012787Y004634D01*
X012831Y004662D01*
X012877Y004687D01*
X012925Y004708D01*
X012975Y004725D01*
X013025Y004738D01*
X013077Y004748D01*
X013129Y004754D01*
X013181Y004756D01*
X013233Y004754D01*
X013285Y004748D01*
X013337Y004738D01*
X013387Y004725D01*
X013437Y004708D01*
X013485Y004687D01*
X013531Y004662D01*
X013575Y004634D01*
X013617Y004603D01*
X013657Y004569D01*
X013694Y004532D01*
X013728Y004492D01*
X013759Y004450D01*
X013787Y004406D01*
X013812Y004360D01*
X013833Y004312D01*
X013850Y004262D01*
X013863Y004212D01*
X013873Y004160D01*
X013879Y004108D01*
X013881Y004056D01*
X013879Y004004D01*
X013873Y003952D01*
X013863Y003900D01*
X013850Y003850D01*
X013833Y003800D01*
X013812Y003752D01*
X013787Y003706D01*
X013759Y003662D01*
X013728Y003620D01*
X013694Y003580D01*
X013657Y003543D01*
X013617Y003509D01*
X013575Y003478D01*
X013531Y003450D01*
X013485Y003425D01*
X013437Y003404D01*
X013387Y003387D01*
X013337Y003374D01*
X013285Y003364D01*
X013233Y003358D01*
X013181Y003356D01*
X013129Y003358D01*
X013077Y003364D01*
X013025Y003374D01*
X012975Y003387D01*
X012925Y003404D01*
X012877Y003425D01*
X012831Y003450D01*
X012787Y003478D01*
X012745Y003509D01*
X012705Y003543D01*
X012668Y003580D01*
X012634Y003620D01*
X012603Y003662D01*
X012575Y003706D01*
X012550Y003752D01*
X012529Y003800D01*
X012512Y003850D01*
X012499Y003900D01*
X012489Y003952D01*
X012483Y004004D01*
X012481Y004056D01*
X010927Y004371D02*
X010927Y003544D01*
X010652Y005356D02*
X010298Y005356D01*
X008565Y005356D02*
X008211Y005356D01*
X007935Y004371D02*
X007935Y003544D01*
X005535Y003436D02*
X005535Y003003D01*
X005457Y002924D02*
X005181Y002924D01*
X005417Y002688D01*
X004945Y002688D01*
X005181Y002924D01*
X004905Y002924D01*
X004827Y003003D02*
X004827Y003436D01*
X005535Y003436D01*
X005535Y002609D02*
X005535Y002176D01*
X004827Y002176D01*
X004827Y002594D01*
X004536Y002609D02*
X004536Y002176D01*
X003828Y002176D01*
X003828Y002594D01*
X003946Y002688D02*
X004418Y002688D01*
X004182Y002924D01*
X003946Y002688D01*
X003906Y002924D02*
X004182Y002924D01*
X004457Y002924D01*
X004536Y003003D02*
X004536Y003436D01*
X003828Y003436D01*
X003828Y003003D01*
X007445Y009489D02*
X007918Y009489D01*
X008666Y010001D02*
X008666Y010237D01*
X007918Y010749D02*
X007445Y010749D01*
X006697Y010237D02*
X006697Y010001D01*
X009534Y011596D02*
X009814Y011596D01*
X009674Y011596D02*
X009674Y012017D01*
X009534Y011877D01*
X002036Y012801D02*
X002036Y013334D01*
X001918Y013488D02*
X001681Y013624D01*
X001445Y013488D01*
X001918Y013488D01*
X002032Y013624D02*
X001681Y013624D01*
X001331Y013624D01*
X001327Y013828D02*
X001327Y014311D01*
X002036Y014311D01*
X002036Y013828D01*
X001327Y013344D02*
X001327Y012801D01*
X002036Y012801D01*
X002036Y014551D02*
X001327Y014551D01*
X001327Y015094D01*
X001445Y015238D02*
X001918Y015238D01*
X001681Y015374D01*
X001445Y015238D01*
X001331Y015374D02*
X001681Y015374D01*
X002032Y015374D01*
X002036Y015578D02*
X002036Y016061D01*
X001327Y016061D01*
X001327Y015578D01*
X001327Y016301D02*
X002036Y016301D01*
X002036Y016834D01*
X001918Y016988D02*
X001681Y017124D01*
X001445Y016988D01*
X001918Y016988D01*
X002032Y017124D02*
X001681Y017124D01*
X001331Y017124D01*
X001327Y017328D02*
X001327Y017811D01*
X002036Y017811D01*
X002036Y017328D01*
X001327Y016844D02*
X001327Y016301D01*
X002036Y015084D02*
X002036Y014551D01*
X002036Y018051D02*
X001327Y018051D01*
X001327Y018594D01*
X001445Y018738D02*
X001918Y018738D01*
X001681Y018874D01*
X001445Y018738D01*
X001331Y018874D02*
X001681Y018874D01*
X002032Y018874D01*
X002036Y019078D02*
X002036Y019561D01*
X001327Y019561D01*
X001327Y019078D01*
X001327Y019801D02*
X002036Y019801D01*
X002036Y020334D01*
X001918Y020488D02*
X001681Y020624D01*
X001445Y020488D01*
X001918Y020488D01*
X002032Y020624D02*
X001681Y020624D01*
X001331Y020624D01*
X001327Y020828D02*
X001327Y021311D01*
X002036Y021311D01*
X002036Y020828D01*
X001327Y020344D02*
X001327Y019801D01*
X002036Y018584D02*
X002036Y018051D01*
X002036Y021551D02*
X001327Y021551D01*
X001327Y022094D01*
X001445Y022238D02*
X001918Y022238D01*
X001681Y022374D01*
X001445Y022238D01*
X001331Y022374D02*
X001681Y022374D01*
X002032Y022374D01*
X002036Y022578D02*
X002036Y023061D01*
X001327Y023061D01*
X001327Y022578D01*
X001327Y023301D02*
X002036Y023301D01*
X002036Y023834D01*
X001918Y023988D02*
X001681Y024124D01*
X001445Y023988D01*
X001918Y023988D01*
X002032Y024124D02*
X001681Y024124D01*
X001331Y024124D01*
X001327Y024328D02*
X001327Y024811D01*
X002036Y024811D01*
X002036Y024328D01*
X001327Y023844D02*
X001327Y023301D01*
X002036Y022084D02*
X002036Y021551D01*
X002871Y029709D02*
X003152Y029709D01*
X002871Y029709D02*
X002871Y029779D01*
X003152Y030059D01*
X003152Y030129D01*
X002871Y030129D01*
X003792Y030129D02*
X003792Y029709D01*
X003792Y029919D02*
X004072Y029919D01*
X004252Y029919D02*
X004252Y029779D01*
X004322Y029709D01*
X004463Y029709D01*
X004533Y029779D01*
X004533Y029919D01*
X004463Y029989D01*
X004322Y029989D01*
X004252Y029919D01*
X004072Y030129D02*
X004072Y029709D01*
X004713Y029709D02*
X004713Y029989D01*
X004783Y029989D01*
X004853Y029919D01*
X004923Y029989D01*
X004993Y029919D01*
X004993Y029709D01*
X004853Y029709D02*
X004853Y029919D01*
X005173Y029919D02*
X005173Y029779D01*
X005243Y029709D01*
X005383Y029709D01*
X005453Y029849D02*
X005173Y029849D01*
X005173Y029919D02*
X005243Y029989D01*
X005383Y029989D01*
X005453Y029919D01*
X005453Y029849D01*
X007556Y030306D02*
X007556Y030431D01*
X007681Y030556D01*
X007806Y030556D01*
X007871Y030129D02*
X007871Y030059D01*
X008012Y029919D01*
X008012Y029709D01*
X008012Y029919D02*
X008152Y030059D01*
X008152Y030129D01*
X008792Y030129D02*
X008792Y029709D01*
X008792Y029919D02*
X009072Y029919D01*
X009252Y029919D02*
X009252Y029779D01*
X009323Y029709D01*
X009463Y029709D01*
X009533Y029779D01*
X009533Y029919D01*
X009463Y029989D01*
X009323Y029989D01*
X009252Y029919D01*
X009072Y030129D02*
X009072Y029709D01*
X009713Y029709D02*
X009713Y029989D01*
X009783Y029989D01*
X009853Y029919D01*
X009923Y029989D01*
X009993Y029919D01*
X009993Y029709D01*
X009853Y029709D02*
X009853Y029919D01*
X010173Y029919D02*
X010173Y029779D01*
X010243Y029709D01*
X010383Y029709D01*
X010453Y029849D02*
X010173Y029849D01*
X010173Y029919D02*
X010243Y029989D01*
X010383Y029989D01*
X010453Y029919D01*
X010453Y029849D01*
X011871Y029709D02*
X012152Y030129D01*
X011871Y030129D02*
X012152Y029709D01*
X012792Y029709D02*
X012792Y030129D01*
X012792Y029919D02*
X013072Y029919D01*
X013252Y029919D02*
X013252Y029779D01*
X013323Y029709D01*
X013463Y029709D01*
X013533Y029779D01*
X013533Y029919D01*
X013463Y029989D01*
X013323Y029989D01*
X013252Y029919D01*
X013072Y030129D02*
X013072Y029709D01*
X013713Y029709D02*
X013713Y029989D01*
X013783Y029989D01*
X013853Y029919D01*
X013923Y029989D01*
X013993Y029919D01*
X013993Y029709D01*
X013853Y029709D02*
X013853Y029919D01*
X014173Y029919D02*
X014173Y029779D01*
X014243Y029709D01*
X014383Y029709D01*
X014453Y029849D02*
X014173Y029849D01*
X014173Y029919D02*
X014243Y029989D01*
X014383Y029989D01*
X014453Y029919D01*
X014453Y029849D01*
X014806Y030306D02*
X014806Y030431D01*
X014681Y030556D01*
X014556Y030556D01*
X015556Y030431D02*
X015556Y030306D01*
X015556Y030431D02*
X015681Y030556D01*
X019931Y030556D01*
X019885Y029989D02*
X019815Y029919D01*
X019815Y029779D01*
X019885Y029709D01*
X020026Y029709D01*
X020096Y029849D02*
X019815Y029849D01*
X019885Y029989D02*
X020026Y029989D01*
X020096Y029919D01*
X020096Y029849D01*
X020276Y029849D02*
X020416Y029989D01*
X020486Y029989D01*
X020276Y029989D02*
X020276Y029709D01*
X019635Y029779D02*
X019635Y029919D01*
X019565Y029989D01*
X019355Y029989D01*
X019355Y029569D01*
X019355Y029709D02*
X019565Y029709D01*
X019635Y029779D01*
X019175Y029779D02*
X019175Y029919D01*
X019105Y029989D01*
X018895Y029989D01*
X018895Y029569D01*
X018895Y029709D02*
X019105Y029709D01*
X019175Y029779D01*
X018715Y029849D02*
X018434Y029849D01*
X018434Y029919D02*
X018504Y029989D01*
X018645Y029989D01*
X018715Y029919D01*
X018715Y029849D01*
X018645Y029709D02*
X018504Y029709D01*
X018434Y029779D01*
X018434Y029919D01*
X018268Y029989D02*
X018127Y029989D01*
X018198Y030059D02*
X018198Y029779D01*
X018268Y029709D01*
X017947Y029779D02*
X017947Y029849D01*
X017877Y029919D01*
X017737Y029919D01*
X017667Y029989D01*
X017667Y030059D01*
X017737Y030129D01*
X017877Y030129D01*
X017947Y030059D01*
X017947Y029779D02*
X017877Y029709D01*
X017737Y029709D01*
X017667Y029779D01*
X017027Y029709D02*
X016746Y030129D01*
X017027Y030129D02*
X016746Y029709D01*
X016945Y026936D02*
X017418Y026936D01*
X018166Y026424D02*
X018166Y026188D01*
X017418Y025676D02*
X016945Y025676D01*
X016197Y026188D02*
X016197Y026424D01*
X021426Y022971D02*
X021516Y022841D01*
X021456Y022711D01*
X021306Y022691D01*
X021306Y022561D01*
X021456Y022531D01*
X021506Y022401D01*
X021426Y022271D01*
X021516Y022181D01*
X021636Y022261D01*
X021686Y022231D01*
X021786Y022461D01*
X021946Y022461D02*
X022036Y022231D01*
X022096Y022261D01*
X022216Y022181D01*
X022306Y022271D01*
X022216Y022401D01*
X022276Y022531D01*
X022416Y022561D01*
X022416Y022691D01*
X022266Y022721D01*
X022216Y022841D01*
X022306Y022971D01*
X022216Y023061D01*
X022076Y022971D01*
X021956Y023021D01*
X021926Y023181D01*
X021796Y023181D01*
X021766Y023021D01*
X021646Y022971D01*
X021516Y023061D01*
X021426Y022971D01*
X021786Y022461D02*
X021764Y022474D01*
X021744Y022490D01*
X021726Y022509D01*
X021711Y022531D01*
X021700Y022554D01*
X021692Y022579D01*
X021688Y022604D01*
X021687Y022630D01*
X021690Y022656D01*
X021697Y022681D01*
X021708Y022704D01*
X021721Y022726D01*
X021738Y022746D01*
X021757Y022763D01*
X021779Y022778D01*
X021803Y022788D01*
X021827Y022796D01*
X021853Y022800D01*
X021879Y022800D01*
X021905Y022796D01*
X021929Y022788D01*
X021953Y022778D01*
X021975Y022763D01*
X021994Y022746D01*
X022011Y022726D01*
X022024Y022704D01*
X022035Y022681D01*
X022042Y022656D01*
X022045Y022630D01*
X022044Y022604D01*
X022040Y022579D01*
X022032Y022554D01*
X022021Y022531D01*
X022006Y022509D01*
X021988Y022490D01*
X021968Y022474D01*
X021946Y022461D01*
X021971Y024346D02*
X022252Y024346D01*
X022112Y024346D02*
X022112Y024767D01*
X021971Y024627D01*
X023471Y026221D02*
X023612Y026221D01*
X023541Y026221D02*
X023541Y026642D01*
X023471Y026642D02*
X023612Y026642D01*
X023778Y026572D02*
X023778Y026502D01*
X023848Y026431D01*
X023988Y026431D01*
X024059Y026361D01*
X024059Y026291D01*
X023988Y026221D01*
X023848Y026221D01*
X023778Y026291D01*
X023778Y026572D02*
X023848Y026642D01*
X023988Y026642D01*
X024059Y026572D01*
X024239Y026642D02*
X024239Y026221D01*
X024239Y026361D02*
X024449Y026361D01*
X024519Y026431D01*
X024519Y026572D01*
X024449Y026642D01*
X024239Y026642D01*
X023887Y029709D02*
X023887Y029919D01*
X024027Y030059D01*
X024027Y030129D01*
X023887Y029919D02*
X023746Y030059D01*
X023746Y030129D01*
X024667Y030059D02*
X024667Y029989D01*
X024737Y029919D01*
X024877Y029919D01*
X024947Y029849D01*
X024947Y029779D01*
X024877Y029709D01*
X024737Y029709D01*
X024667Y029779D01*
X024667Y030059D02*
X024737Y030129D01*
X024877Y030129D01*
X024947Y030059D01*
X025127Y029989D02*
X025268Y029989D01*
X025198Y030059D02*
X025198Y029779D01*
X025268Y029709D01*
X025434Y029779D02*
X025434Y029919D01*
X025504Y029989D01*
X025645Y029989D01*
X025715Y029919D01*
X025715Y029849D01*
X025434Y029849D01*
X025434Y029779D02*
X025504Y029709D01*
X025645Y029709D01*
X025895Y029709D02*
X026105Y029709D01*
X026175Y029779D01*
X026175Y029919D01*
X026105Y029989D01*
X025895Y029989D01*
X025895Y029569D01*
X026355Y029569D02*
X026355Y029989D01*
X026565Y029989D01*
X026635Y029919D01*
X026635Y029779D01*
X026565Y029709D01*
X026355Y029709D01*
X026815Y029779D02*
X026815Y029919D01*
X026885Y029989D01*
X027026Y029989D01*
X027096Y029919D01*
X027096Y029849D01*
X026815Y029849D01*
X026815Y029779D02*
X026885Y029709D01*
X027026Y029709D01*
X027276Y029709D02*
X027276Y029989D01*
X027416Y029989D02*
X027486Y029989D01*
X027416Y029989D02*
X027276Y029849D01*
X030746Y029779D02*
X030746Y029709D01*
X031027Y029709D01*
X030746Y029779D02*
X031027Y030059D01*
X031027Y030129D01*
X030746Y030129D01*
X031431Y030556D02*
X033931Y030556D01*
X034056Y030431D01*
X034056Y030306D01*
X034026Y029989D02*
X034096Y029919D01*
X034096Y029849D01*
X033815Y029849D01*
X033815Y029919D02*
X033885Y029989D01*
X034026Y029989D01*
X033815Y029919D02*
X033815Y029779D01*
X033885Y029709D01*
X034026Y029709D01*
X034276Y029709D02*
X034276Y029989D01*
X034416Y029989D02*
X034486Y029989D01*
X034416Y029989D02*
X034276Y029849D01*
X033635Y029919D02*
X033635Y029779D01*
X033565Y029709D01*
X033355Y029709D01*
X033355Y029569D02*
X033355Y029989D01*
X033565Y029989D01*
X033635Y029919D01*
X033175Y029919D02*
X033175Y029779D01*
X033105Y029709D01*
X032895Y029709D01*
X032895Y029569D02*
X032895Y029989D01*
X033105Y029989D01*
X033175Y029919D01*
X032715Y029919D02*
X032715Y029849D01*
X032434Y029849D01*
X032434Y029919D02*
X032504Y029989D01*
X032645Y029989D01*
X032715Y029919D01*
X032645Y029709D02*
X032504Y029709D01*
X032434Y029779D01*
X032434Y029919D01*
X032268Y029989D02*
X032127Y029989D01*
X032198Y030059D02*
X032198Y029779D01*
X032268Y029709D01*
X031947Y029779D02*
X031947Y029849D01*
X031877Y029919D01*
X031737Y029919D01*
X031667Y029989D01*
X031667Y030059D01*
X031737Y030129D01*
X031877Y030129D01*
X031947Y030059D01*
X031947Y029779D02*
X031877Y029709D01*
X031737Y029709D01*
X031667Y029779D01*
X032181Y017681D02*
X030681Y017681D01*
X029681Y017681D02*
X029431Y017681D01*
X029431Y014994D01*
X036181Y014994D01*
X038306Y014931D02*
X039556Y014931D01*
X039556Y017681D01*
X038306Y017681D01*
X036181Y017681D02*
X033181Y017681D01*
X040416Y009514D02*
X040346Y009444D01*
X040346Y009233D01*
X040766Y009233D01*
X040766Y009444D01*
X040696Y009514D01*
X040416Y009514D01*
X040416Y009053D02*
X040556Y009053D01*
X040626Y008983D01*
X040626Y008773D01*
X040626Y008913D02*
X040766Y009053D01*
X040766Y008773D02*
X040346Y008773D01*
X040346Y008983D01*
X040416Y009053D01*
X040486Y008593D02*
X040766Y008593D01*
X040556Y008593D02*
X040556Y008313D01*
X040486Y008313D02*
X040346Y008453D01*
X040486Y008593D01*
X040486Y008313D02*
X040766Y008313D01*
X040696Y008133D02*
X040766Y008063D01*
X040766Y007922D01*
X040696Y007852D01*
X040416Y007852D01*
X040346Y007922D01*
X040346Y008063D01*
X040416Y008133D01*
X040416Y007212D02*
X040346Y007142D01*
X040346Y006932D01*
X040766Y006932D01*
X040766Y007142D01*
X040696Y007212D01*
X040416Y007212D01*
X040416Y006752D02*
X040346Y006681D01*
X040346Y006541D01*
X040416Y006471D01*
X040486Y006471D01*
X040556Y006541D01*
X040556Y006681D01*
X040626Y006752D01*
X040696Y006752D01*
X040766Y006681D01*
X040766Y006541D01*
X040696Y006471D01*
X016574Y002856D02*
X015781Y002856D01*
X015481Y004056D02*
X015483Y004108D01*
X015489Y004160D01*
X015499Y004212D01*
X015512Y004262D01*
X015529Y004312D01*
X015550Y004360D01*
X015575Y004406D01*
X015603Y004450D01*
X015634Y004492D01*
X015668Y004532D01*
X015705Y004569D01*
X015745Y004603D01*
X015787Y004634D01*
X015831Y004662D01*
X015877Y004687D01*
X015925Y004708D01*
X015975Y004725D01*
X016025Y004738D01*
X016077Y004748D01*
X016129Y004754D01*
X016181Y004756D01*
X016233Y004754D01*
X016285Y004748D01*
X016337Y004738D01*
X016387Y004725D01*
X016437Y004708D01*
X016485Y004687D01*
X016531Y004662D01*
X016575Y004634D01*
X016617Y004603D01*
X016657Y004569D01*
X016694Y004532D01*
X016728Y004492D01*
X016759Y004450D01*
X016787Y004406D01*
X016812Y004360D01*
X016833Y004312D01*
X016850Y004262D01*
X016863Y004212D01*
X016873Y004160D01*
X016879Y004108D01*
X016881Y004056D01*
X016879Y004004D01*
X016873Y003952D01*
X016863Y003900D01*
X016850Y003850D01*
X016833Y003800D01*
X016812Y003752D01*
X016787Y003706D01*
X016759Y003662D01*
X016728Y003620D01*
X016694Y003580D01*
X016657Y003543D01*
X016617Y003509D01*
X016575Y003478D01*
X016531Y003450D01*
X016485Y003425D01*
X016437Y003404D01*
X016387Y003387D01*
X016337Y003374D01*
X016285Y003364D01*
X016233Y003358D01*
X016181Y003356D01*
X016129Y003358D01*
X016077Y003364D01*
X016025Y003374D01*
X015975Y003387D01*
X015925Y003404D01*
X015877Y003425D01*
X015831Y003450D01*
X015787Y003478D01*
X015745Y003509D01*
X015705Y003543D01*
X015668Y003580D01*
X015634Y003620D01*
X015603Y003662D01*
X015575Y003706D01*
X015550Y003752D01*
X015529Y003800D01*
X015512Y003850D01*
X015499Y003900D01*
X015489Y003952D01*
X015483Y004004D01*
X015481Y004056D01*
D12*
X019681Y006181D02*
X019806Y006181D01*
X019806Y006119D01*
X019806Y006181D02*
X019931Y006181D01*
X019806Y006431D01*
X019806Y006494D01*
X019806Y006431D02*
X019931Y006431D01*
X019806Y006431D02*
X019681Y006181D01*
X019681Y006431D02*
X019806Y006431D01*
X021181Y008056D02*
X021181Y008244D01*
X021369Y008681D01*
X020994Y008681D01*
X021181Y008244D01*
X021181Y008244D01*
X021369Y008244D01*
X021181Y008244D02*
X020994Y008244D01*
X020994Y008681D02*
X021181Y008681D01*
X021181Y008869D01*
X020301Y004493D02*
X020301Y004060D01*
X020301Y004493D02*
X023450Y004493D01*
X023450Y004060D01*
X022619Y002994D02*
X022619Y002994D01*
X022369Y003244D02*
X022339Y003242D01*
X022309Y003237D01*
X022280Y003228D01*
X022253Y003215D01*
X022227Y003200D01*
X022203Y003181D01*
X022182Y003160D01*
X022163Y003136D01*
X022148Y003110D01*
X022135Y003083D01*
X022126Y003054D01*
X022121Y003024D01*
X022119Y002994D01*
X022369Y003244D02*
X022399Y003242D01*
X022429Y003237D01*
X022458Y003228D01*
X022485Y003215D01*
X022511Y003200D01*
X022535Y003181D01*
X022556Y003160D01*
X022575Y003136D01*
X022590Y003110D01*
X022603Y003083D01*
X022612Y003054D01*
X022617Y003024D01*
X022619Y002994D01*
X022119Y002994D02*
X022117Y003024D01*
X022112Y003054D01*
X022103Y003083D01*
X022090Y003110D01*
X022075Y003136D01*
X022056Y003160D01*
X022035Y003181D01*
X022011Y003200D01*
X021985Y003215D01*
X021958Y003228D01*
X021929Y003237D01*
X021899Y003242D01*
X021869Y003244D01*
X021839Y003242D01*
X021809Y003237D01*
X021780Y003228D01*
X021753Y003215D01*
X021727Y003200D01*
X021703Y003181D01*
X021682Y003160D01*
X021663Y003136D01*
X021648Y003110D01*
X021635Y003083D01*
X021626Y003054D01*
X021621Y003024D01*
X021619Y002994D01*
X021617Y003024D01*
X021612Y003054D01*
X021603Y003083D01*
X021590Y003110D01*
X021575Y003136D01*
X021556Y003160D01*
X021535Y003181D01*
X021511Y003200D01*
X021485Y003215D01*
X021458Y003228D01*
X021429Y003237D01*
X021399Y003242D01*
X021369Y003244D01*
X021339Y003242D01*
X021309Y003237D01*
X021280Y003228D01*
X021253Y003215D01*
X021227Y003200D01*
X021203Y003181D01*
X021182Y003160D01*
X021163Y003136D01*
X021148Y003110D01*
X021135Y003083D01*
X021126Y003054D01*
X021121Y003024D01*
X021119Y002994D01*
X020301Y002052D02*
X020301Y001619D01*
X023450Y001619D01*
X023450Y002052D01*
X031435Y002341D02*
X032586Y002341D01*
X033592Y002341D02*
X036399Y002341D01*
X037435Y002341D02*
X040774Y002341D01*
X040774Y002971D01*
X040459Y002971D01*
X040459Y002970D02*
X040262Y003920D01*
X040110Y004877D01*
X040003Y005841D01*
X039943Y006809D01*
X039928Y007778D01*
X039959Y008747D01*
X040035Y009714D01*
X040157Y010676D01*
X040325Y011630D01*
X040538Y012576D01*
X040538Y012577D02*
X040774Y012577D01*
X040774Y013561D01*
X037435Y013561D01*
X036430Y013560D02*
X031435Y013560D01*
X033181Y014976D02*
X035881Y014976D01*
X035881Y017676D02*
X033481Y017676D01*
X029556Y021931D02*
X029556Y022056D01*
X029619Y022056D01*
X029556Y022056D02*
X029556Y022181D01*
X029306Y022056D01*
X029244Y022056D01*
X029306Y022056D02*
X029556Y021931D01*
X029556Y021931D01*
X029306Y022056D01*
X029306Y022056D01*
X029306Y022181D01*
X029306Y022056D02*
X029306Y021931D01*
X028675Y022831D02*
X028675Y023011D01*
X028675Y022921D02*
X028765Y023011D01*
X028810Y023011D01*
X028561Y022966D02*
X028561Y022921D01*
X028380Y022921D01*
X028380Y022876D02*
X028380Y022966D01*
X028425Y023011D01*
X028516Y023011D01*
X028561Y022966D01*
X028516Y022831D02*
X028425Y022831D01*
X028380Y022876D01*
X028274Y022831D02*
X028184Y022831D01*
X028229Y022831D02*
X028229Y023101D01*
X028184Y023101D01*
X028033Y023101D02*
X028033Y022831D01*
X027988Y022831D02*
X028078Y022831D01*
X027873Y022876D02*
X027873Y022966D01*
X027828Y023011D01*
X027738Y023011D01*
X027693Y022966D01*
X027693Y022876D01*
X027738Y022831D01*
X027828Y022831D01*
X027873Y022876D01*
X027988Y023101D02*
X028033Y023101D01*
X027583Y023011D02*
X027537Y023011D01*
X027447Y022921D01*
X027447Y022831D02*
X027447Y023011D01*
X027341Y023011D02*
X027251Y023011D01*
X027296Y023056D02*
X027296Y022876D01*
X027341Y022831D01*
X027136Y022831D02*
X027136Y022966D01*
X027091Y023011D01*
X026956Y023011D01*
X026956Y022831D01*
X026842Y022876D02*
X026797Y022831D01*
X026707Y022831D01*
X026662Y022876D01*
X026662Y022966D01*
X026707Y023011D01*
X026797Y023011D01*
X026842Y022966D01*
X026842Y022876D01*
X026547Y022876D02*
X026502Y022831D01*
X026412Y022831D01*
X026367Y022876D01*
X026367Y023056D01*
X026412Y023101D01*
X026502Y023101D01*
X026547Y023056D01*
X025962Y023011D02*
X025917Y023011D01*
X025827Y022921D01*
X025827Y022831D02*
X025827Y023011D01*
X025712Y022966D02*
X025712Y022921D01*
X025532Y022921D01*
X025532Y022876D02*
X025532Y022966D01*
X025577Y023011D01*
X025667Y023011D01*
X025712Y022966D01*
X025667Y022831D02*
X025577Y022831D01*
X025532Y022876D01*
X025426Y022831D02*
X025381Y022876D01*
X025381Y023056D01*
X025336Y023011D02*
X025426Y023011D01*
X025229Y023011D02*
X025139Y023011D01*
X025184Y023056D02*
X025184Y022876D01*
X025229Y022831D01*
X025025Y022831D02*
X025025Y023011D01*
X025025Y022831D02*
X024890Y022831D01*
X024845Y022876D01*
X024845Y023011D01*
X024730Y023056D02*
X024685Y023101D01*
X024595Y023101D01*
X024550Y023056D01*
X024550Y022876D01*
X024595Y022831D01*
X024685Y022831D01*
X024730Y022876D01*
X024145Y023011D02*
X024100Y023011D01*
X024010Y022921D01*
X024010Y022831D02*
X024010Y023011D01*
X023895Y022966D02*
X023895Y022921D01*
X023715Y022921D01*
X023715Y022876D02*
X023715Y022966D01*
X023760Y023011D01*
X023850Y023011D01*
X023895Y022966D01*
X023850Y022831D02*
X023760Y022831D01*
X023715Y022876D01*
X023601Y022876D02*
X023556Y022831D01*
X023421Y022831D01*
X023466Y022921D02*
X023421Y022966D01*
X023466Y023011D01*
X023601Y023011D01*
X023556Y022921D02*
X023466Y022921D01*
X023556Y022921D02*
X023601Y022876D01*
X023306Y022831D02*
X023306Y022966D01*
X023261Y023011D01*
X023171Y023011D01*
X023171Y022921D02*
X023306Y022921D01*
X023306Y022831D02*
X023171Y022831D01*
X023126Y022876D01*
X023171Y022921D01*
X023012Y022831D02*
X022831Y022831D01*
X022831Y023101D01*
X025806Y015244D02*
X025806Y015181D01*
X025931Y014931D01*
X025806Y014931D01*
X025806Y014869D01*
X025806Y014931D02*
X025681Y014931D01*
X025681Y014931D01*
X025806Y015181D01*
X025681Y014931D01*
X025681Y015181D02*
X025806Y015181D01*
X025806Y015181D01*
X025931Y015181D01*
X039699Y019144D02*
X039924Y019144D01*
X039969Y019189D01*
X039969Y019279D01*
X039924Y019324D01*
X039699Y019324D01*
X039744Y019438D02*
X039789Y019438D01*
X039834Y019483D01*
X039834Y019574D01*
X039879Y019619D01*
X039924Y019619D01*
X039969Y019574D01*
X039969Y019483D01*
X039924Y019438D01*
X039744Y019438D02*
X039699Y019483D01*
X039699Y019574D01*
X039744Y019619D01*
X039699Y019733D02*
X039969Y019733D01*
X039969Y019913D01*
X039969Y020028D02*
X039699Y020028D01*
X039699Y020163D01*
X039744Y020208D01*
X039834Y020208D01*
X039879Y020163D01*
X039879Y020028D01*
X039879Y020118D02*
X039969Y020208D01*
X039699Y019913D02*
X039699Y019733D01*
X039834Y019733D02*
X039834Y019823D01*
X039969Y020617D02*
X039969Y020707D01*
X039969Y020662D02*
X039699Y020662D01*
X039699Y020617D02*
X039699Y020707D01*
X039699Y020813D02*
X039969Y020994D01*
X039699Y020994D01*
X039699Y021108D02*
X039699Y021288D01*
X039699Y021198D02*
X039969Y021198D01*
X039969Y021403D02*
X039699Y021403D01*
X039699Y021583D01*
X039699Y021697D02*
X039699Y021832D01*
X039744Y021878D01*
X039834Y021878D01*
X039879Y021832D01*
X039879Y021697D01*
X039969Y021697D02*
X039699Y021697D01*
X039879Y021787D02*
X039969Y021878D01*
X039969Y021992D02*
X039699Y021992D01*
X039699Y022172D01*
X039789Y022287D02*
X039699Y022377D01*
X039789Y022467D01*
X039969Y022467D01*
X039924Y022581D02*
X039744Y022581D01*
X039699Y022626D01*
X039699Y022716D01*
X039744Y022761D01*
X039699Y022876D02*
X039969Y022876D01*
X039969Y023056D01*
X039834Y022966D02*
X039834Y022876D01*
X039699Y022876D02*
X039699Y023056D01*
X039924Y022761D02*
X039969Y022716D01*
X039969Y022626D01*
X039924Y022581D01*
X039834Y022467D02*
X039834Y022287D01*
X039789Y022287D02*
X039969Y022287D01*
X039834Y022082D02*
X039834Y021992D01*
X039969Y021583D02*
X039969Y021403D01*
X039834Y021403D02*
X039834Y021493D01*
X039969Y020813D02*
X039699Y020813D01*
X039969Y023465D02*
X039699Y023645D01*
X039699Y024055D02*
X039969Y024055D01*
X039969Y024235D01*
X039969Y024349D02*
X039699Y024529D01*
X039699Y024644D02*
X039699Y024779D01*
X039744Y024824D01*
X039834Y024824D01*
X039879Y024779D01*
X039879Y024644D01*
X039969Y024644D02*
X039699Y024644D01*
X039969Y024529D02*
X039699Y024349D01*
X039699Y024235D02*
X039699Y024055D01*
X039834Y024055D02*
X039834Y024145D01*
X039834Y024939D02*
X039834Y025119D01*
X039789Y025119D02*
X039969Y025119D01*
X039969Y025233D02*
X039699Y025233D01*
X039969Y025413D01*
X039699Y025413D01*
X039744Y025528D02*
X039789Y025528D01*
X039834Y025573D01*
X039834Y025663D01*
X039879Y025708D01*
X039924Y025708D01*
X039969Y025663D01*
X039969Y025573D01*
X039924Y025528D01*
X039744Y025528D02*
X039699Y025573D01*
X039699Y025663D01*
X039744Y025708D01*
X039699Y025822D02*
X039699Y025912D01*
X039699Y025867D02*
X039969Y025867D01*
X039969Y025822D02*
X039969Y025912D01*
X039924Y026019D02*
X039969Y026064D01*
X039969Y026154D01*
X039924Y026199D01*
X039744Y026199D01*
X039699Y026154D01*
X039699Y026064D01*
X039744Y026019D01*
X039924Y026019D01*
X039969Y026314D02*
X039699Y026314D01*
X039969Y026494D01*
X039699Y026494D01*
X039056Y026494D02*
X038681Y026494D01*
X039789Y025119D02*
X039699Y025029D01*
X039789Y024939D01*
X039969Y024939D01*
X040449Y018003D02*
X040449Y017822D01*
X040719Y017822D01*
X040719Y018003D01*
X040584Y017912D02*
X040584Y017822D01*
X040719Y017708D02*
X040719Y017528D01*
X040449Y017528D01*
X040494Y017413D02*
X040584Y017413D01*
X040629Y017368D01*
X040629Y017233D01*
X040719Y017233D02*
X040449Y017233D01*
X040449Y017368D01*
X040494Y017413D01*
X040449Y017119D02*
X040674Y017119D01*
X040719Y017074D01*
X040719Y016983D01*
X040674Y016938D01*
X040449Y016938D01*
X040494Y016824D02*
X040449Y016779D01*
X040449Y016689D01*
X040494Y016644D01*
X040674Y016644D01*
X040719Y016689D01*
X040719Y016779D01*
X040674Y016824D01*
X040494Y016824D01*
X040494Y016529D02*
X040449Y016484D01*
X040449Y016394D01*
X040494Y016349D01*
X040674Y016349D01*
X040719Y016394D01*
X040719Y016484D01*
X040674Y016529D01*
X040674Y016235D02*
X040494Y016235D01*
X040449Y016190D01*
X040449Y016100D01*
X040494Y016055D01*
X040674Y016055D01*
X040719Y016100D01*
X040719Y016190D01*
X040674Y016235D01*
X040719Y015940D02*
X040449Y015940D01*
X040539Y015850D01*
X040449Y015760D01*
X040719Y015760D01*
X040719Y015645D02*
X040629Y015555D01*
X040629Y015600D02*
X040629Y015465D01*
X040719Y015465D02*
X040449Y015465D01*
X040449Y015600D01*
X040494Y015645D01*
X040584Y015645D01*
X040629Y015600D01*
X040719Y015351D02*
X040719Y015171D01*
X040449Y015171D01*
X040449Y015351D01*
X040584Y015261D02*
X040584Y015171D01*
X040584Y015056D02*
X040584Y014876D01*
X040719Y014876D02*
X040449Y014876D01*
X040449Y014761D02*
X040449Y014581D01*
X040449Y014671D02*
X040719Y014671D01*
X040719Y015056D02*
X040449Y015056D01*
X040156Y015546D02*
X039886Y015546D01*
X039886Y015456D02*
X039886Y015636D01*
X039886Y015751D02*
X039931Y015751D01*
X040021Y015841D01*
X040156Y015841D01*
X040021Y015841D02*
X039931Y015931D01*
X039886Y015931D01*
X039886Y016046D02*
X039886Y016181D01*
X039931Y016226D01*
X040021Y016226D01*
X040066Y016181D01*
X040066Y016046D01*
X040156Y016046D02*
X039886Y016046D01*
X039886Y016340D02*
X040156Y016340D01*
X040156Y016520D01*
X040021Y016430D02*
X040021Y016340D01*
X039886Y016340D02*
X039886Y016520D01*
X040021Y016635D02*
X040021Y016815D01*
X040066Y016930D02*
X039886Y017110D01*
X039886Y016930D02*
X040156Y016930D01*
X040021Y016975D02*
X040156Y017110D01*
D13*
X025880Y017782D02*
X025486Y017782D01*
X025683Y017978D02*
X025683Y017585D01*
X024246Y005728D02*
X024246Y005335D01*
X024049Y005532D02*
X024443Y005532D01*
X020818Y005532D02*
X020424Y005532D01*
X018755Y005094D02*
X018361Y005094D01*
X018558Y005291D02*
X018558Y004897D01*
X018361Y000844D02*
X018755Y000844D01*
X035933Y029335D02*
X035933Y029728D01*
X035736Y029532D02*
X036130Y029532D01*
X035785Y030299D02*
X035982Y030496D01*
X035982Y030889D01*
X035588Y030889D02*
X035588Y030496D01*
X035785Y030299D01*
X035337Y030594D02*
X034943Y030594D01*
X035239Y030889D01*
X035239Y030299D01*
X034693Y030299D02*
X034299Y030299D01*
X034693Y030692D01*
X034693Y030791D01*
X034594Y030889D01*
X034397Y030889D01*
X034299Y030791D01*
X040424Y029532D02*
X040818Y029532D01*
D14*
X030773Y019836D02*
X030773Y019694D01*
X030631Y019694D01*
X030631Y019836D01*
X030773Y019836D01*
X010148Y023006D02*
X010006Y023006D01*
X010006Y023148D01*
X010148Y023148D01*
X010148Y023006D01*
D15*
X023191Y022660D02*
X023238Y022706D01*
X023285Y022660D01*
X023285Y022566D01*
X023339Y022566D02*
X023339Y022660D01*
X023385Y022660D02*
X023409Y022660D01*
X023385Y022660D02*
X023339Y022613D01*
X023285Y022636D02*
X023191Y022636D01*
X023191Y022660D02*
X023191Y022566D01*
X023461Y022590D02*
X023461Y022636D01*
X023485Y022660D01*
X023555Y022660D01*
X023555Y022706D02*
X023555Y022566D01*
X023485Y022566D01*
X023461Y022590D01*
X023609Y022590D02*
X023632Y022566D01*
X023702Y022566D01*
X023702Y022660D01*
X023756Y022660D02*
X023779Y022660D01*
X023779Y022566D01*
X023756Y022566D02*
X023803Y022566D01*
X023854Y022566D02*
X023854Y022660D01*
X023924Y022660D01*
X023948Y022636D01*
X023948Y022566D01*
X024002Y022590D02*
X024025Y022566D01*
X024072Y022566D01*
X024095Y022590D01*
X024095Y022636D01*
X024072Y022660D01*
X024025Y022660D01*
X024002Y022636D01*
X024002Y022590D01*
X023779Y022706D02*
X023779Y022730D01*
X023609Y022660D02*
X023609Y022590D01*
X024296Y022590D02*
X024320Y022566D01*
X024390Y022566D01*
X024444Y022590D02*
X024467Y022566D01*
X024514Y022566D01*
X024537Y022590D01*
X024537Y022636D01*
X024514Y022660D01*
X024467Y022660D01*
X024444Y022636D01*
X024444Y022590D01*
X024390Y022660D02*
X024320Y022660D01*
X024296Y022636D01*
X024296Y022590D01*
X024591Y022566D02*
X024591Y022660D01*
X024614Y022660D01*
X024638Y022636D01*
X024661Y022660D01*
X024684Y022636D01*
X024684Y022566D01*
X024638Y022566D02*
X024638Y022636D01*
X024738Y022660D02*
X024808Y022660D01*
X024832Y022636D01*
X024832Y022590D01*
X024808Y022566D01*
X024738Y022566D01*
X024738Y022520D02*
X024738Y022660D01*
X024886Y022590D02*
X024909Y022613D01*
X024979Y022613D01*
X024979Y022636D02*
X024979Y022566D01*
X024909Y022566D01*
X024886Y022590D01*
X024909Y022660D02*
X024956Y022660D01*
X024979Y022636D01*
X025033Y022660D02*
X025080Y022660D01*
X025056Y022683D02*
X025056Y022590D01*
X025080Y022566D01*
X025131Y022566D02*
X025178Y022566D01*
X025154Y022566D02*
X025154Y022660D01*
X025131Y022660D01*
X025154Y022706D02*
X025154Y022730D01*
X025229Y022706D02*
X025229Y022566D01*
X025299Y022566D01*
X025323Y022590D01*
X025323Y022636D01*
X025299Y022660D01*
X025229Y022660D01*
X025377Y022706D02*
X025400Y022706D01*
X025400Y022566D01*
X025377Y022566D02*
X025423Y022566D01*
X025475Y022590D02*
X025475Y022636D01*
X025498Y022660D01*
X025545Y022660D01*
X025568Y022636D01*
X025568Y022613D01*
X025475Y022613D01*
X025475Y022590D02*
X025498Y022566D01*
X025545Y022566D01*
X025769Y022613D02*
X025769Y022660D01*
X025816Y022706D01*
X025868Y022660D02*
X025914Y022706D01*
X025961Y022660D01*
X025961Y022566D01*
X026015Y022566D02*
X026015Y022660D01*
X026062Y022660D02*
X026085Y022660D01*
X026062Y022660D02*
X026015Y022613D01*
X025961Y022636D02*
X025868Y022636D01*
X025868Y022660D02*
X025868Y022566D01*
X025816Y022566D02*
X025769Y022613D01*
X026138Y022636D02*
X026161Y022660D01*
X026231Y022660D01*
X026231Y022706D02*
X026231Y022566D01*
X026161Y022566D01*
X026138Y022590D01*
X026138Y022636D01*
X026285Y022660D02*
X026285Y022590D01*
X026308Y022566D01*
X026378Y022566D01*
X026378Y022660D01*
X026432Y022660D02*
X026456Y022660D01*
X026456Y022566D01*
X026479Y022566D02*
X026432Y022566D01*
X026531Y022566D02*
X026531Y022660D01*
X026601Y022660D01*
X026624Y022636D01*
X026624Y022566D01*
X026678Y022590D02*
X026701Y022566D01*
X026748Y022566D01*
X026771Y022590D01*
X026771Y022636D01*
X026748Y022660D01*
X026701Y022660D01*
X026678Y022636D01*
X026678Y022590D01*
X026456Y022706D02*
X026456Y022730D01*
X026973Y022706D02*
X027019Y022660D01*
X027066Y022706D01*
X027066Y022566D01*
X027120Y022590D02*
X027120Y022636D01*
X027143Y022660D01*
X027190Y022660D01*
X027213Y022636D01*
X027213Y022613D01*
X027120Y022613D01*
X027120Y022590D02*
X027143Y022566D01*
X027190Y022566D01*
X027267Y022590D02*
X027291Y022566D01*
X027361Y022566D01*
X027361Y022543D02*
X027361Y022660D01*
X027291Y022660D01*
X027267Y022636D01*
X027267Y022590D01*
X027314Y022520D02*
X027337Y022520D01*
X027361Y022543D01*
X027414Y022590D02*
X027438Y022613D01*
X027508Y022613D01*
X027508Y022636D02*
X027508Y022566D01*
X027438Y022566D01*
X027414Y022590D01*
X027438Y022660D02*
X027485Y022660D01*
X027508Y022636D01*
X027709Y022683D02*
X027732Y022706D01*
X027779Y022706D01*
X027803Y022683D01*
X027803Y022660D01*
X027709Y022566D01*
X027803Y022566D01*
X027856Y022590D02*
X027880Y022566D01*
X027926Y022566D01*
X027950Y022590D01*
X027950Y022636D01*
X027926Y022660D01*
X027903Y022660D01*
X027856Y022636D01*
X027856Y022706D01*
X027950Y022706D01*
X028004Y022636D02*
X028074Y022636D01*
X028097Y022613D01*
X028097Y022590D01*
X028074Y022566D01*
X028027Y022566D01*
X028004Y022590D01*
X028004Y022636D01*
X028050Y022683D01*
X028097Y022706D01*
X028151Y022683D02*
X028174Y022706D01*
X028221Y022706D01*
X028244Y022683D01*
X028151Y022590D01*
X028174Y022566D01*
X028221Y022566D01*
X028244Y022590D01*
X028244Y022683D01*
X028298Y022706D02*
X028345Y022660D01*
X028345Y022613D01*
X028298Y022566D01*
X028151Y022590D02*
X028151Y022683D01*
X026973Y022706D02*
X026973Y022566D01*
X021956Y008166D02*
X021958Y008189D01*
X021964Y008211D01*
X021973Y008233D01*
X021986Y008252D01*
X022001Y008269D01*
X022019Y008283D01*
X022040Y008294D01*
X022062Y008302D01*
X022084Y008306D01*
X022108Y008306D01*
X022130Y008302D01*
X022152Y008294D01*
X022173Y008283D01*
X022191Y008269D01*
X022206Y008252D01*
X022219Y008233D01*
X022228Y008211D01*
X022234Y008189D01*
X022236Y008166D01*
X022234Y008143D01*
X022228Y008121D01*
X022219Y008099D01*
X022206Y008080D01*
X022191Y008063D01*
X022173Y008049D01*
X022152Y008038D01*
X022130Y008030D01*
X022108Y008026D01*
X022084Y008026D01*
X022062Y008030D01*
X022040Y008038D01*
X022019Y008049D01*
X022001Y008063D01*
X021986Y008080D01*
X021973Y008099D01*
X021964Y008121D01*
X021958Y008143D01*
X021956Y008166D01*
D16*
X021876Y007940D02*
X021876Y008922D01*
X020886Y009820D02*
X020726Y009820D01*
X020726Y010293D02*
X020886Y010293D01*
X020105Y008043D02*
X019945Y008043D01*
X019945Y007570D02*
X020105Y007570D01*
X023736Y007940D02*
X023736Y008922D01*
X013793Y007511D02*
X013793Y007351D01*
X013320Y007351D02*
X013320Y007511D01*
X011931Y009056D02*
X011681Y008806D01*
X010181Y008806D01*
X009931Y009056D01*
X009931Y009556D01*
X010181Y009806D01*
X011681Y009806D01*
X011931Y009556D01*
X011931Y009056D01*
X011681Y009806D02*
X011931Y010056D01*
X011931Y010556D01*
X011681Y010806D01*
X010181Y010806D01*
X009931Y010556D01*
X009931Y010056D01*
X010181Y009806D01*
X010181Y010806D02*
X009931Y011056D01*
X009931Y011556D01*
X010181Y011806D01*
X011681Y011806D01*
X011931Y011556D01*
X011931Y011056D01*
X011681Y010806D01*
X008258Y011073D02*
X008098Y011073D01*
X008098Y011545D02*
X008258Y011545D01*
X006761Y011543D02*
X006601Y011543D01*
X006601Y011070D02*
X006761Y011070D01*
X004418Y009449D02*
X004418Y009289D01*
X003945Y009289D02*
X003945Y009449D01*
X006570Y003386D02*
X006570Y003226D01*
X007043Y003226D02*
X007043Y003386D01*
X026326Y018751D02*
X028786Y018751D01*
X028786Y020113D01*
X026326Y020113D01*
X026326Y018751D01*
X028281Y024306D02*
X028394Y024306D01*
X028281Y024306D02*
X028181Y024406D01*
X028181Y025206D01*
X028281Y025306D01*
X028394Y025306D01*
X028969Y025306D02*
X029081Y025306D01*
X029181Y025206D01*
X029281Y025306D01*
X029394Y025306D01*
X029969Y025306D02*
X030081Y025306D01*
X030181Y025206D01*
X030181Y024406D01*
X030081Y024306D01*
X029969Y024306D01*
X029394Y024306D02*
X029281Y024306D01*
X029181Y024406D01*
X029081Y024306D01*
X028969Y024306D01*
X036244Y027281D02*
X036244Y028231D01*
X036894Y028231D01*
X037594Y028231D02*
X038894Y028231D01*
X039594Y028231D02*
X040244Y028231D01*
X040244Y030831D01*
X040244Y030931D01*
X036244Y030931D01*
X036244Y030831D01*
X036244Y028231D01*
X036244Y027281D02*
X040244Y027281D01*
X040244Y028231D01*
X039044Y030301D02*
X039046Y030329D01*
X039052Y030356D01*
X039061Y030382D01*
X039074Y030407D01*
X039091Y030430D01*
X039110Y030450D01*
X039132Y030467D01*
X039156Y030481D01*
X039182Y030491D01*
X039209Y030498D01*
X039237Y030501D01*
X039265Y030500D01*
X039292Y030495D01*
X039319Y030486D01*
X039344Y030474D01*
X039367Y030459D01*
X039388Y030440D01*
X039406Y030419D01*
X039421Y030395D01*
X039432Y030369D01*
X039440Y030343D01*
X039444Y030315D01*
X039444Y030287D01*
X039440Y030259D01*
X039432Y030233D01*
X039421Y030207D01*
X039406Y030183D01*
X039388Y030162D01*
X039367Y030143D01*
X039344Y030128D01*
X039319Y030116D01*
X039292Y030107D01*
X039265Y030102D01*
X039237Y030101D01*
X039209Y030104D01*
X039182Y030111D01*
X039156Y030121D01*
X039132Y030135D01*
X039110Y030152D01*
X039091Y030172D01*
X039074Y030195D01*
X039061Y030220D01*
X039052Y030246D01*
X039046Y030273D01*
X039044Y030301D01*
X040244Y030831D02*
X036244Y030831D01*
X037044Y030301D02*
X037046Y030329D01*
X037052Y030356D01*
X037061Y030382D01*
X037074Y030407D01*
X037091Y030430D01*
X037110Y030450D01*
X037132Y030467D01*
X037156Y030481D01*
X037182Y030491D01*
X037209Y030498D01*
X037237Y030501D01*
X037265Y030500D01*
X037292Y030495D01*
X037319Y030486D01*
X037344Y030474D01*
X037367Y030459D01*
X037388Y030440D01*
X037406Y030419D01*
X037421Y030395D01*
X037432Y030369D01*
X037440Y030343D01*
X037444Y030315D01*
X037444Y030287D01*
X037440Y030259D01*
X037432Y030233D01*
X037421Y030207D01*
X037406Y030183D01*
X037388Y030162D01*
X037367Y030143D01*
X037344Y030128D01*
X037319Y030116D01*
X037292Y030107D01*
X037265Y030102D01*
X037237Y030101D01*
X037209Y030104D01*
X037182Y030111D01*
X037156Y030121D01*
X037132Y030135D01*
X037110Y030152D01*
X037091Y030172D01*
X037074Y030195D01*
X037061Y030220D01*
X037052Y030246D01*
X037046Y030273D01*
X037044Y030301D01*
X005493Y021414D02*
X005493Y020198D01*
X005119Y020198D01*
X005119Y021414D01*
X005493Y021414D01*
D17*
X006288Y007413D03*
D18*
X002752Y002505D02*
X001111Y002505D01*
X001111Y004607D01*
X002752Y004607D01*
X002752Y002505D01*
X002752Y005255D02*
X001111Y005255D01*
X001111Y007357D01*
X002752Y007357D01*
X002752Y005255D01*
X002752Y008005D02*
X001111Y008005D01*
X001111Y012107D01*
X002752Y012107D01*
X002752Y008005D01*
X006738Y004606D02*
X006738Y004506D01*
X006938Y004506D02*
X006938Y004606D01*
X014274Y018300D02*
X014176Y018399D01*
X014176Y023714D01*
X014274Y023812D01*
X019589Y023812D01*
X019687Y023714D01*
X019687Y018596D01*
X019392Y018300D01*
X014274Y018300D01*
X019196Y018694D02*
X019198Y018713D01*
X019203Y018732D01*
X019213Y018748D01*
X019225Y018763D01*
X019240Y018775D01*
X019256Y018785D01*
X019275Y018790D01*
X019294Y018792D01*
X019313Y018790D01*
X019332Y018785D01*
X019348Y018775D01*
X019363Y018763D01*
X019375Y018748D01*
X019385Y018732D01*
X019390Y018713D01*
X019392Y018694D01*
X019390Y018675D01*
X019385Y018656D01*
X019375Y018640D01*
X019363Y018625D01*
X019348Y018613D01*
X019332Y018603D01*
X019313Y018598D01*
X019294Y018596D01*
X019275Y018598D01*
X019256Y018603D01*
X019240Y018613D01*
X019225Y018625D01*
X019213Y018640D01*
X019203Y018656D01*
X019198Y018675D01*
X019196Y018694D01*
X021733Y027485D02*
X015630Y027485D01*
X015630Y029127D01*
X021733Y029127D01*
X021733Y027485D01*
X022630Y027485D02*
X028733Y027485D01*
X028733Y029127D01*
X022630Y029127D01*
X022630Y027485D01*
X029630Y027485D02*
X035733Y027485D01*
X035733Y029127D01*
X029630Y029127D01*
X029630Y027485D01*
X036829Y026857D02*
X036829Y018755D01*
X038471Y018755D01*
X038471Y026857D01*
X036829Y026857D01*
X014733Y027485D02*
X014733Y029127D01*
X011630Y029127D01*
X011630Y027485D01*
X014733Y027485D01*
X010733Y027485D02*
X010733Y029127D01*
X007630Y029127D01*
X007630Y027485D01*
X010733Y027485D01*
X006733Y027485D02*
X006733Y029127D01*
X001630Y029127D01*
X001630Y027485D01*
X006733Y027485D01*
D19*
X006926Y024310D02*
X007410Y024310D01*
X007410Y023306D01*
X006926Y023306D01*
X006926Y024310D01*
X011426Y020060D02*
X011910Y020060D01*
X011910Y019056D01*
X011426Y019056D01*
X011426Y020060D01*
X009660Y019060D02*
X009660Y018056D01*
X009176Y018056D01*
X009176Y019060D01*
X009660Y019060D01*
X009660Y016560D02*
X009176Y016560D01*
X009176Y015556D01*
X009660Y015556D01*
X009660Y016560D01*
X011426Y015810D02*
X011910Y015810D01*
X011910Y014806D01*
X011426Y014806D01*
X011426Y015810D01*
M02*
