G75*
G70*
%OFA0B0*%
%FSLAX24Y24*%
%IPPOS*%
%LPD*%
%AMOC8*
5,1,8,0,0,1.08239X$1,22.5*
%
%ADD10C,0.0050*%
%ADD11C,0.0060*%
D10*
X004208Y005831D02*
X004344Y005831D01*
X004389Y005876D01*
X004389Y005966D01*
X004344Y006011D01*
X004208Y006011D01*
X004208Y006101D02*
X004208Y005831D01*
X004503Y005831D02*
X004503Y005966D01*
X004548Y006011D01*
X004683Y006011D01*
X004683Y005831D01*
X004798Y005876D02*
X004798Y005966D01*
X004888Y005966D01*
X004978Y005876D02*
X004933Y005831D01*
X004843Y005831D01*
X004798Y005876D01*
X004978Y005876D02*
X004978Y006056D01*
X004933Y006101D01*
X004843Y006101D01*
X004798Y006056D01*
X005387Y006056D02*
X005387Y006011D01*
X005432Y005966D01*
X005567Y005966D01*
X005682Y005921D02*
X005682Y005876D01*
X005727Y005831D01*
X005817Y005831D01*
X005862Y005876D01*
X005817Y005966D02*
X005727Y005966D01*
X005682Y005921D01*
X005682Y006056D02*
X005727Y006101D01*
X005817Y006101D01*
X005862Y006056D01*
X005862Y006011D01*
X005817Y005966D01*
X005976Y005876D02*
X005976Y006101D01*
X006156Y006101D02*
X006156Y005876D01*
X006111Y005831D01*
X006021Y005831D01*
X005976Y005876D01*
X005567Y005831D02*
X005567Y006101D01*
X005432Y006101D01*
X005387Y006056D01*
X005432Y005966D02*
X005387Y005921D01*
X005387Y005876D01*
X005432Y005831D01*
X005567Y005831D01*
X005602Y010081D02*
X005647Y010126D01*
X005647Y010216D01*
X005602Y010261D01*
X005512Y010261D01*
X005467Y010216D01*
X005467Y010171D01*
X005647Y010171D01*
X005602Y010081D02*
X005512Y010081D01*
X005308Y010126D02*
X005308Y010306D01*
X005353Y010261D02*
X005263Y010261D01*
X005308Y010126D02*
X005263Y010081D01*
X005762Y010126D02*
X005807Y010171D01*
X005897Y010171D01*
X005942Y010216D01*
X005897Y010261D01*
X005762Y010261D01*
X005762Y010126D02*
X005807Y010081D01*
X005942Y010081D01*
X006057Y010171D02*
X006237Y010171D01*
X006237Y010126D02*
X006237Y010216D01*
X006192Y010261D01*
X006102Y010261D01*
X006057Y010216D01*
X006057Y010171D01*
X006102Y010081D02*
X006192Y010081D01*
X006237Y010126D01*
X006351Y010081D02*
X006441Y010171D01*
X006396Y010171D02*
X006531Y010171D01*
X006531Y010081D02*
X006531Y010351D01*
X006396Y010351D01*
X006351Y010306D01*
X006351Y010216D01*
X006396Y010171D01*
X006941Y010126D02*
X006941Y010216D01*
X006986Y010261D01*
X007076Y010261D01*
X007121Y010216D01*
X007121Y010126D01*
X007076Y010081D01*
X006986Y010081D01*
X006941Y010126D01*
X007227Y010081D02*
X007272Y010126D01*
X007272Y010306D01*
X007317Y010261D02*
X007227Y010261D01*
X007432Y010261D02*
X007432Y010081D01*
X007567Y010081D01*
X007612Y010126D01*
X007612Y010261D01*
X007726Y010261D02*
X007726Y010081D01*
X007726Y010216D02*
X007906Y010216D01*
X007906Y010261D02*
X007816Y010351D01*
X007726Y010261D01*
X007906Y010261D02*
X007906Y010081D01*
X004156Y010681D02*
X004111Y010636D01*
X004021Y010636D01*
X003976Y010681D01*
X003976Y010906D01*
X003862Y010906D02*
X003727Y010906D01*
X003682Y010861D01*
X003682Y010816D01*
X003727Y010771D01*
X003862Y010771D01*
X003862Y010636D02*
X003727Y010636D01*
X003682Y010681D01*
X003682Y010726D01*
X003727Y010771D01*
X003567Y010771D02*
X003567Y010681D01*
X003522Y010636D01*
X003432Y010636D01*
X003387Y010681D01*
X003387Y010771D01*
X003432Y010816D01*
X003522Y010816D01*
X003567Y010771D01*
X003273Y010771D02*
X003228Y010816D01*
X003137Y010816D01*
X003092Y010771D01*
X003092Y010681D01*
X003137Y010636D01*
X003228Y010636D01*
X003273Y010681D01*
X003273Y010771D01*
X002978Y010816D02*
X002888Y010816D01*
X002933Y010861D02*
X002933Y010681D01*
X002888Y010636D01*
X003862Y010636D02*
X003862Y010906D01*
X004156Y010906D02*
X004156Y010681D01*
D11*
X004631Y004656D02*
X005731Y004656D01*
X005748Y004658D01*
X005765Y004662D01*
X005781Y004669D01*
X005795Y004679D01*
X005808Y004692D01*
X005818Y004706D01*
X005825Y004722D01*
X005829Y004739D01*
X005831Y004756D01*
X005831Y005356D01*
X005829Y005373D01*
X005825Y005390D01*
X005818Y005406D01*
X005808Y005420D01*
X005795Y005433D01*
X005781Y005443D01*
X005765Y005450D01*
X005748Y005454D01*
X005731Y005456D01*
X004631Y005456D01*
X004614Y005454D01*
X004597Y005450D01*
X004581Y005443D01*
X004567Y005433D01*
X004554Y005420D01*
X004544Y005406D01*
X004537Y005390D01*
X004533Y005373D01*
X004531Y005356D01*
X004531Y004756D01*
X004533Y004739D01*
X004537Y004722D01*
X004544Y004706D01*
X004554Y004692D01*
X004567Y004679D01*
X004581Y004669D01*
X004597Y004662D01*
X004614Y004658D01*
X004631Y004656D01*
X004381Y009156D02*
X004981Y009156D01*
X004998Y009158D01*
X005015Y009162D01*
X005031Y009169D01*
X005045Y009179D01*
X005058Y009192D01*
X005068Y009206D01*
X005075Y009222D01*
X005079Y009239D01*
X005081Y009256D01*
X005081Y010356D01*
X005079Y010373D01*
X005075Y010390D01*
X005068Y010406D01*
X005058Y010420D01*
X005045Y010433D01*
X005031Y010443D01*
X005015Y010450D01*
X004998Y010454D01*
X004981Y010456D01*
X004381Y010456D01*
X004364Y010454D01*
X004347Y010450D01*
X004331Y010443D01*
X004317Y010433D01*
X004304Y010420D01*
X004294Y010406D01*
X004287Y010390D01*
X004283Y010373D01*
X004281Y010356D01*
X004281Y009256D01*
X004283Y009239D01*
X004287Y009222D01*
X004294Y009206D01*
X004304Y009192D01*
X004317Y009179D01*
X004331Y009169D01*
X004347Y009162D01*
X004364Y009158D01*
X004381Y009156D01*
M02*
