G75*
G70*
%OFA0B0*%
%FSLAX24Y24*%
%IPPOS*%
%LPD*%
%AMOC8*
5,1,8,0,0,1.08239X$1,22.5*
%
%ADD10R,0.0460X0.0630*%
%ADD11R,0.0630X0.0460*%
%ADD12C,0.0860*%
%ADD13C,0.0560*%
%ADD14C,0.1500*%
%ADD15C,0.0630*%
%ADD16OC8,0.0630*%
%ADD17OC8,0.0560*%
%ADD18C,0.0860*%
%ADD19C,0.0237*%
%ADD20C,0.0160*%
%ADD21C,0.0500*%
%ADD22C,0.0220*%
%ADD23C,0.0316*%
%ADD24C,0.0240*%
%ADD25C,0.0120*%
%ADD26C,0.0100*%
%ADD27C,0.0080*%
D10*
X005755Y004930D03*
X006355Y004930D03*
D11*
X005555Y009380D03*
X005555Y009980D03*
D12*
X002805Y010430D03*
X002805Y009430D03*
X002805Y008430D03*
X002805Y006680D03*
X002805Y005680D03*
X002805Y003930D03*
X002805Y002930D03*
X002805Y011430D03*
X003055Y028680D03*
X004055Y028680D03*
X005055Y028680D03*
X006055Y028680D03*
X007055Y028680D03*
X009055Y028680D03*
X010055Y028680D03*
X011055Y028680D03*
X013055Y028680D03*
X014055Y028680D03*
X015055Y028680D03*
X017055Y028680D03*
X018055Y028680D03*
X019055Y028680D03*
X020055Y028680D03*
X021055Y028680D03*
X022055Y028680D03*
X024055Y028680D03*
X025055Y028680D03*
X026055Y028680D03*
X027055Y028680D03*
X028055Y028680D03*
X029055Y028680D03*
X031055Y028680D03*
X032055Y028680D03*
X033055Y028680D03*
X034055Y028680D03*
X035055Y028680D03*
X036055Y028680D03*
X038649Y026180D03*
X038649Y025180D03*
X038649Y024180D03*
X038649Y023180D03*
X038649Y022180D03*
X038649Y021180D03*
X038649Y020180D03*
X038649Y019180D03*
D13*
X027636Y014973D03*
X027636Y014186D03*
X027636Y013399D03*
X027636Y012611D03*
X027636Y011824D03*
X027636Y011036D03*
X027636Y010249D03*
X027636Y009461D03*
X027636Y008674D03*
X027636Y007887D03*
X018974Y007887D03*
X018974Y008674D03*
X018974Y009461D03*
X018974Y010249D03*
X018974Y011036D03*
X018974Y011824D03*
X018974Y012611D03*
X018974Y013399D03*
X018974Y014186D03*
X018974Y014973D03*
X006555Y024305D03*
X005555Y024305D03*
X014930Y025430D03*
X015930Y025430D03*
D14*
X038180Y029180D03*
X040180Y029180D03*
D15*
X030180Y024680D03*
X017930Y002305D03*
D16*
X017930Y001305D03*
D17*
X012305Y009180D03*
X012305Y010180D03*
X012305Y011180D03*
X011305Y011180D03*
X011305Y010180D03*
X011305Y009180D03*
X023805Y024430D03*
X023805Y025430D03*
X024805Y025430D03*
X025805Y025430D03*
X025805Y024430D03*
X024805Y024430D03*
D18*
X031055Y017360D02*
X031055Y016500D01*
X033555Y016500D02*
X033555Y017360D01*
X037695Y017550D02*
X038555Y017550D01*
X038555Y014850D02*
X037695Y014850D01*
D19*
X037930Y013680D03*
X037680Y013430D03*
X034399Y017930D03*
X032555Y019180D03*
X032555Y019742D03*
X033055Y021305D03*
X035055Y021805D03*
X035555Y021805D03*
X036930Y022180D03*
X035555Y023430D03*
X035055Y022930D03*
X034055Y024680D03*
X033055Y025805D03*
X035055Y025805D03*
X035055Y026930D03*
X036930Y024805D03*
X035055Y019805D03*
X029430Y022180D03*
X026680Y021274D03*
X026680Y020305D03*
X024805Y020305D03*
X024430Y021305D03*
X024055Y022055D03*
X023555Y023180D03*
X024305Y023555D03*
X022305Y023180D03*
X021961Y022836D03*
X022055Y024055D03*
X022055Y025024D03*
X021430Y025305D03*
X020055Y024930D03*
X019118Y025086D03*
X020055Y025930D03*
X020055Y022930D03*
X019555Y022930D03*
X019055Y022930D03*
X018055Y022430D03*
X017555Y022930D03*
X017055Y022930D03*
X016805Y022430D03*
X016805Y021680D03*
X016336Y021711D03*
X015805Y022430D03*
X013555Y020805D03*
X013618Y020430D03*
X014055Y020305D03*
X013930Y019680D03*
X012555Y018680D03*
X011430Y018555D03*
X011586Y019430D03*
X009399Y018430D03*
X009055Y018804D03*
X007180Y019805D03*
X006180Y021555D03*
X005555Y021555D03*
X004430Y021055D03*
X003555Y021305D03*
X003555Y022930D03*
X005180Y023555D03*
X003055Y025430D03*
X006055Y027117D03*
X008055Y027805D03*
X008555Y026555D03*
X009305Y026055D03*
X010055Y026836D03*
X011055Y027805D03*
X013055Y026805D03*
X011930Y026055D03*
X010805Y023930D03*
X008055Y023680D03*
X008055Y024555D03*
X011430Y021305D03*
X015680Y019930D03*
X016211Y019524D03*
X016430Y018805D03*
X015930Y018555D03*
X014180Y017430D03*
X014305Y016680D03*
X013805Y016305D03*
X013805Y015680D03*
X013680Y014805D03*
X013680Y014305D03*
X012555Y014430D03*
X012555Y015180D03*
X012430Y015930D03*
X011243Y017055D03*
X010305Y015930D03*
X009180Y016555D03*
X007180Y017305D03*
X004868Y015868D03*
X003555Y015680D03*
X004055Y014180D03*
X002774Y012274D03*
X004805Y011930D03*
X005430Y010555D03*
X006305Y009430D03*
X006555Y008930D03*
X006118Y008493D03*
X005086Y008243D03*
X004430Y008180D03*
X005024Y007774D03*
X004649Y006680D03*
X005024Y006430D03*
X004430Y006055D03*
X004993Y005430D03*
X004305Y004618D03*
X006774Y002993D03*
X007305Y004555D03*
X007399Y005336D03*
X007993Y006149D03*
X009149Y004992D03*
X008555Y004055D03*
X008680Y003805D03*
X008680Y001680D03*
X008430Y001430D03*
X012055Y001430D03*
X012305Y001680D03*
X012055Y003555D03*
X012305Y003805D03*
X010930Y004805D03*
X011930Y007055D03*
X010555Y007649D03*
X009024Y009024D03*
X008555Y010430D03*
X010805Y012680D03*
X010305Y013055D03*
X011555Y014180D03*
X012055Y012305D03*
X013430Y011555D03*
X013430Y010805D03*
X014180Y010055D03*
X014555Y011961D03*
X014555Y013180D03*
X016680Y014680D03*
X020118Y014493D03*
X020167Y016068D03*
X022055Y016493D03*
X022555Y016493D03*
X021680Y017368D03*
X021555Y018180D03*
X022555Y019055D03*
X023555Y018680D03*
X024805Y017867D03*
X025430Y017805D03*
X026305Y017555D03*
X028440Y018929D03*
X029055Y019680D03*
X027055Y024180D03*
X027555Y025055D03*
X027555Y025680D03*
X028055Y025805D03*
X029055Y026930D03*
X029680Y027055D03*
X028055Y027118D03*
X027552Y027678D03*
X022305Y020680D03*
X022555Y020305D03*
X022024Y020305D03*
X019805Y019680D03*
X019805Y019055D03*
X018586Y019867D03*
X018055Y019430D03*
X019180Y020305D03*
X023930Y014430D03*
X024555Y013680D03*
X026055Y013930D03*
X026649Y013930D03*
X025774Y012086D03*
X025055Y012180D03*
X022805Y012742D03*
X022305Y014024D03*
X023430Y010180D03*
X025055Y007555D03*
X026930Y007555D03*
X029430Y007555D03*
X029805Y007555D03*
X030180Y007555D03*
X030555Y007555D03*
X030555Y006555D03*
X030180Y006555D03*
X029805Y006555D03*
X029430Y006555D03*
X029430Y005555D03*
X029805Y005555D03*
X030180Y005555D03*
X030555Y005555D03*
X030555Y004680D03*
X030180Y004680D03*
X029805Y004680D03*
X029430Y004680D03*
X029430Y003930D03*
X029805Y003930D03*
X030180Y003930D03*
X030555Y003930D03*
X031555Y004305D03*
X030555Y002805D03*
X030180Y002805D03*
X029805Y002805D03*
X029430Y002805D03*
X031680Y001930D03*
X031930Y002180D03*
X033805Y002055D03*
X034055Y002305D03*
X037680Y002055D03*
X037930Y002430D03*
X030555Y008555D03*
X030180Y008555D03*
X029805Y008555D03*
X029430Y008555D03*
X029430Y009555D03*
X029805Y009555D03*
X030180Y009555D03*
X030555Y009555D03*
X030555Y010555D03*
X030180Y010555D03*
X029805Y010555D03*
X029430Y010555D03*
X029430Y011430D03*
X029805Y011430D03*
X030180Y011430D03*
X030555Y011430D03*
X031680Y013430D03*
X031930Y013680D03*
X028555Y004680D03*
X007524Y007368D03*
X002805Y007555D03*
X014430Y026680D03*
D20*
X001901Y000725D02*
X001864Y000710D01*
X041621Y000710D01*
X041584Y000725D01*
X041350Y000959D01*
X041224Y001265D01*
X041224Y001595D01*
X041350Y001901D01*
X041584Y002135D01*
X041890Y002261D01*
X042220Y002261D01*
X042526Y002135D01*
X042760Y001901D01*
X042775Y001864D01*
X042775Y030746D01*
X042760Y030709D01*
X042526Y030475D01*
X042220Y030349D01*
X041890Y030349D01*
X041584Y030475D01*
X041350Y030709D01*
X041224Y031015D01*
X041224Y031345D01*
X041350Y031651D01*
X041584Y031885D01*
X041621Y031900D01*
X001864Y031900D01*
X001901Y031885D01*
X002135Y031651D01*
X002261Y031345D01*
X002261Y031015D01*
X002135Y030709D01*
X001901Y030475D01*
X001595Y030349D01*
X001265Y030349D01*
X000959Y030475D01*
X000725Y030709D01*
X000710Y030746D01*
X000710Y001864D01*
X000725Y001901D01*
X000959Y002135D01*
X001265Y002261D01*
X001595Y002261D01*
X001901Y002135D01*
X002135Y001901D01*
X002261Y001595D01*
X002261Y001265D01*
X002135Y000959D01*
X001901Y000725D01*
X001922Y000747D02*
X041563Y000747D01*
X041404Y000906D02*
X030348Y000906D01*
X030333Y000890D02*
X030470Y001027D01*
X030470Y001027D01*
X040833Y011390D01*
X040970Y011527D01*
X041045Y011708D01*
X041045Y026902D01*
X040970Y027083D01*
X039141Y028912D01*
X039170Y028983D01*
X039170Y029377D01*
X039019Y029741D01*
X038741Y030019D01*
X038377Y030170D01*
X037983Y030170D01*
X037619Y030019D01*
X037341Y029741D01*
X037190Y029377D01*
X037190Y028983D01*
X037341Y028619D01*
X037619Y028341D01*
X037983Y028190D01*
X038377Y028190D01*
X038448Y028219D01*
X040065Y026602D01*
X040065Y012008D01*
X030914Y002857D01*
X030914Y002876D01*
X030859Y003008D01*
X030758Y003109D01*
X030626Y003164D01*
X030484Y003164D01*
X030367Y003116D01*
X030251Y003164D01*
X030109Y003164D01*
X029992Y003116D01*
X029876Y003164D01*
X029734Y003164D01*
X029617Y003116D01*
X029501Y003164D01*
X029359Y003164D01*
X029227Y003109D01*
X029126Y003008D01*
X029076Y002889D01*
X029018Y003031D01*
X028906Y003143D01*
X028759Y003203D01*
X028734Y003203D01*
X025750Y006188D01*
X025750Y011727D01*
X025845Y011727D01*
X025977Y011782D01*
X026078Y011883D01*
X026117Y011977D01*
X027219Y013079D01*
X027294Y013005D01*
X027195Y012906D01*
X027116Y012715D01*
X027116Y012508D01*
X027195Y012317D01*
X027294Y012217D01*
X027195Y012118D01*
X027116Y011927D01*
X027116Y011720D01*
X027195Y011529D01*
X027294Y011430D01*
X027195Y011331D01*
X027116Y011140D01*
X027116Y010933D01*
X027195Y010742D01*
X027294Y010643D01*
X027195Y010543D01*
X027116Y010352D01*
X027116Y010145D01*
X027195Y009954D01*
X027294Y009855D01*
X027195Y009756D01*
X027116Y009565D01*
X027116Y009358D01*
X027195Y009167D01*
X027294Y009068D01*
X027195Y008969D01*
X027116Y008778D01*
X027116Y008571D01*
X027195Y008380D01*
X027294Y008280D01*
X027195Y008181D01*
X027116Y007990D01*
X027116Y007866D01*
X027001Y007914D01*
X026859Y007914D01*
X026727Y007859D01*
X026626Y007758D01*
X026571Y007626D01*
X026571Y007484D01*
X026610Y007390D01*
X026610Y005491D01*
X026659Y005374D01*
X027909Y004124D01*
X027999Y004034D01*
X028116Y003985D01*
X029071Y003985D01*
X029071Y003859D01*
X029126Y003727D01*
X029227Y003626D01*
X029359Y003571D01*
X029501Y003571D01*
X029617Y003619D01*
X029734Y003571D01*
X029876Y003571D01*
X029992Y003619D01*
X030109Y003571D01*
X030251Y003571D01*
X030367Y003619D01*
X030484Y003571D01*
X030626Y003571D01*
X030758Y003626D01*
X030859Y003727D01*
X030914Y003859D01*
X030914Y003985D01*
X031390Y003985D01*
X031484Y003946D01*
X031626Y003946D01*
X031758Y004001D01*
X031859Y004102D01*
X031914Y004234D01*
X032291Y004234D01*
X032133Y004076D02*
X031833Y004076D01*
X031914Y004234D02*
X031914Y004376D01*
X031859Y004508D01*
X031758Y004609D01*
X031626Y004664D01*
X031484Y004664D01*
X031390Y004625D01*
X030914Y004625D01*
X030914Y004751D01*
X030859Y004883D01*
X030758Y004984D01*
X030626Y005039D01*
X030484Y005039D01*
X030367Y004991D01*
X030251Y005039D01*
X030109Y005039D01*
X029992Y004991D01*
X029876Y005039D01*
X029734Y005039D01*
X029617Y004991D01*
X029501Y005039D01*
X029359Y005039D01*
X029227Y004984D01*
X029126Y004883D01*
X029071Y004751D01*
X029071Y004625D01*
X028914Y004625D01*
X028914Y004751D01*
X028875Y004845D01*
X028875Y014547D01*
X029063Y014735D01*
X034369Y014735D01*
X034486Y014784D01*
X034576Y014874D01*
X035826Y016124D01*
X035875Y016241D01*
X035875Y020119D01*
X035826Y020236D01*
X035736Y020326D01*
X035683Y020380D01*
X036990Y020380D01*
X037100Y020426D01*
X037554Y020880D01*
X038048Y020880D01*
X038081Y020800D01*
X038258Y020623D01*
X038199Y020564D01*
X038144Y020489D01*
X038102Y020406D01*
X038073Y020318D01*
X038059Y020226D01*
X038059Y020208D01*
X038620Y020208D01*
X038620Y020152D01*
X038059Y020152D01*
X038059Y020134D01*
X038073Y020042D01*
X038102Y019953D01*
X038144Y019871D01*
X038199Y019796D01*
X038258Y019737D01*
X038081Y019559D01*
X037979Y019313D01*
X037979Y019047D01*
X038081Y018800D01*
X038269Y018612D01*
X038515Y018510D01*
X038782Y018510D01*
X039028Y018612D01*
X039217Y018800D01*
X039319Y019047D01*
X039319Y019313D01*
X039217Y019559D01*
X039040Y019737D01*
X039099Y019796D01*
X039153Y019871D01*
X039196Y019953D01*
X039224Y020042D01*
X039239Y020134D01*
X039239Y020152D01*
X038677Y020152D01*
X038677Y020208D01*
X039239Y020208D01*
X039239Y020226D01*
X039224Y020318D01*
X039196Y020406D01*
X039153Y020489D01*
X039099Y020564D01*
X039040Y020623D01*
X039217Y020800D01*
X039319Y021047D01*
X039319Y021313D01*
X039217Y021559D01*
X039096Y021680D01*
X039217Y021800D01*
X039319Y022047D01*
X039319Y022313D01*
X039217Y022559D01*
X039096Y022680D01*
X039217Y022800D01*
X039319Y023047D01*
X039319Y023313D01*
X039217Y023559D01*
X039096Y023680D01*
X039217Y023800D01*
X039319Y024047D01*
X039319Y024313D01*
X039217Y024559D01*
X039096Y024680D01*
X039217Y024800D01*
X039319Y025047D01*
X039319Y025313D01*
X039217Y025559D01*
X039096Y025680D01*
X039217Y025800D01*
X039319Y026047D01*
X039319Y026313D01*
X039217Y026559D01*
X039028Y026748D01*
X038782Y026850D01*
X038515Y026850D01*
X038269Y026748D01*
X038081Y026559D01*
X038073Y026540D01*
X036983Y026540D01*
X036851Y026485D01*
X032906Y022540D01*
X029358Y022540D01*
X029226Y022485D01*
X029125Y022384D01*
X029070Y022252D01*
X029070Y022108D01*
X029125Y021976D01*
X029226Y021875D01*
X029358Y021820D01*
X033127Y021820D01*
X033259Y021875D01*
X033360Y021976D01*
X037204Y025820D01*
X038073Y025820D01*
X038081Y025800D01*
X038201Y025680D01*
X038081Y025559D01*
X037979Y025313D01*
X037979Y025047D01*
X038081Y024800D01*
X038201Y024680D01*
X038081Y024559D01*
X037979Y024313D01*
X037979Y024047D01*
X038081Y023800D01*
X038201Y023680D01*
X038081Y023559D01*
X037979Y023313D01*
X037979Y023047D01*
X038081Y022800D01*
X038201Y022680D01*
X038081Y022559D01*
X038048Y022480D01*
X037870Y022480D01*
X037760Y022434D01*
X037676Y022350D01*
X036556Y021230D01*
X035433Y021230D01*
X035662Y021460D01*
X035759Y021500D01*
X035860Y021601D01*
X035915Y021733D01*
X035915Y023502D01*
X035860Y023634D01*
X035759Y023735D01*
X035627Y023790D01*
X035483Y023790D01*
X035351Y023735D01*
X035250Y023634D01*
X035195Y023502D01*
X035195Y023262D01*
X035127Y023290D01*
X034983Y023290D01*
X034851Y023235D01*
X034750Y023134D01*
X034695Y023002D01*
X034695Y021733D01*
X034740Y021625D01*
X033220Y021625D01*
X033126Y021664D01*
X032984Y021664D01*
X032852Y021609D01*
X032751Y021508D01*
X032696Y021376D01*
X032696Y021234D01*
X032698Y021230D01*
X027145Y021230D01*
X027360Y021445D01*
X027415Y021577D01*
X027415Y024252D01*
X027360Y024384D01*
X027259Y024485D01*
X027162Y024525D01*
X027125Y024563D01*
X027125Y025994D01*
X027076Y026111D01*
X027008Y026180D01*
X027326Y026499D01*
X027375Y026616D01*
X027375Y028087D01*
X027435Y028112D01*
X027555Y028232D01*
X027675Y028112D01*
X027922Y028010D01*
X028188Y028010D01*
X028435Y028112D01*
X028555Y028232D01*
X028675Y028112D01*
X028922Y028010D01*
X029188Y028010D01*
X029435Y028112D01*
X029623Y028300D01*
X029725Y028547D01*
X029725Y028807D01*
X029860Y028672D01*
X029860Y025145D01*
X029709Y024994D01*
X029625Y024790D01*
X029625Y024570D01*
X029709Y024366D01*
X029866Y024209D01*
X030070Y024125D01*
X030290Y024125D01*
X030494Y024209D01*
X030605Y024320D01*
X032002Y024320D01*
X032134Y024375D01*
X033259Y025500D01*
X033360Y025601D01*
X033415Y025733D01*
X033415Y028104D01*
X033435Y028112D01*
X033555Y028232D01*
X033675Y028112D01*
X033695Y028104D01*
X033695Y024608D01*
X033750Y024476D01*
X033851Y024375D01*
X033983Y024320D01*
X034127Y024320D01*
X034259Y024375D01*
X034360Y024476D01*
X034415Y024608D01*
X034415Y028104D01*
X034435Y028112D01*
X034555Y028232D01*
X034675Y028112D01*
X034922Y028010D01*
X035188Y028010D01*
X035435Y028112D01*
X035555Y028232D01*
X035675Y028112D01*
X035922Y028010D01*
X036188Y028010D01*
X036435Y028112D01*
X036623Y028300D01*
X036725Y028547D01*
X036725Y028813D01*
X036623Y029060D01*
X036435Y029248D01*
X036188Y029350D01*
X035922Y029350D01*
X035675Y029248D01*
X035555Y029128D01*
X035435Y029248D01*
X035188Y029350D01*
X034922Y029350D01*
X034675Y029248D01*
X034555Y029128D01*
X034435Y029248D01*
X034188Y029350D01*
X033922Y029350D01*
X033675Y029248D01*
X033555Y029128D01*
X033435Y029248D01*
X033188Y029350D01*
X032922Y029350D01*
X032675Y029248D01*
X032498Y029071D01*
X032439Y029130D01*
X032364Y029185D01*
X032281Y029227D01*
X032193Y029255D01*
X032101Y029270D01*
X032083Y029270D01*
X032083Y028708D01*
X032027Y028708D01*
X032027Y029270D01*
X032009Y029270D01*
X031917Y029255D01*
X031829Y029227D01*
X031746Y029185D01*
X031671Y029130D01*
X031612Y029071D01*
X031435Y029248D01*
X031188Y029350D01*
X030922Y029350D01*
X030675Y029248D01*
X030487Y029060D01*
X030454Y028980D01*
X030451Y028986D01*
X029826Y029611D01*
X029736Y029701D01*
X029619Y029750D01*
X026741Y029750D01*
X026624Y029701D01*
X026248Y029325D01*
X026188Y029350D01*
X025922Y029350D01*
X025862Y029325D01*
X025576Y029611D01*
X025486Y029701D01*
X025369Y029750D01*
X019741Y029750D01*
X019624Y029701D01*
X019248Y029325D01*
X019188Y029350D01*
X018922Y029350D01*
X018675Y029248D01*
X018498Y029071D01*
X018439Y029130D01*
X018364Y029185D01*
X018281Y029227D01*
X018193Y029255D01*
X018101Y029270D01*
X018083Y029270D01*
X018083Y028708D01*
X018027Y028708D01*
X018027Y029270D01*
X018009Y029270D01*
X017917Y029255D01*
X017829Y029227D01*
X017746Y029185D01*
X017671Y029130D01*
X017612Y029071D01*
X017435Y029248D01*
X017188Y029350D01*
X016922Y029350D01*
X016675Y029248D01*
X016487Y029060D01*
X016385Y028813D01*
X016385Y028547D01*
X016487Y028300D01*
X016675Y028112D01*
X016922Y028010D01*
X017188Y028010D01*
X017435Y028112D01*
X017612Y028289D01*
X017671Y028230D01*
X017746Y028175D01*
X017829Y028133D01*
X017917Y028105D01*
X018009Y028090D01*
X018027Y028090D01*
X018027Y028652D01*
X018083Y028652D01*
X018083Y028090D01*
X018101Y028090D01*
X018193Y028105D01*
X018281Y028133D01*
X018364Y028175D01*
X018439Y028230D01*
X018498Y028289D01*
X018675Y028112D01*
X018922Y028010D01*
X019188Y028010D01*
X019435Y028112D01*
X019555Y028232D01*
X019675Y028112D01*
X019922Y028010D01*
X020188Y028010D01*
X020435Y028112D01*
X020555Y028232D01*
X020675Y028112D01*
X020695Y028104D01*
X020695Y026983D01*
X020750Y026851D01*
X020851Y026750D01*
X021070Y026531D01*
X021070Y025368D01*
X020400Y026037D01*
X020360Y026134D01*
X020259Y026235D01*
X020127Y026290D01*
X016704Y026290D01*
X016110Y026884D01*
X016105Y026889D01*
X016105Y028990D01*
X016059Y029100D01*
X015559Y029600D01*
X015475Y029684D01*
X015365Y029730D01*
X012745Y029730D01*
X012635Y029684D01*
X012135Y029184D01*
X012051Y029100D01*
X012005Y028990D01*
X012005Y027492D01*
X011931Y027418D01*
X006262Y027417D01*
X006258Y027422D01*
X006126Y027476D01*
X005984Y027476D01*
X005852Y027422D01*
X005751Y027321D01*
X005696Y027189D01*
X005696Y027046D01*
X005751Y026914D01*
X005790Y026875D01*
X004563Y026875D01*
X004375Y027063D01*
X004375Y028087D01*
X004435Y028112D01*
X004555Y028232D01*
X004675Y028112D01*
X004922Y028010D01*
X005188Y028010D01*
X005435Y028112D01*
X005555Y028232D01*
X005675Y028112D01*
X005922Y028010D01*
X006188Y028010D01*
X006435Y028112D01*
X006555Y028232D01*
X006675Y028112D01*
X006922Y028010D01*
X007188Y028010D01*
X007435Y028112D01*
X007623Y028300D01*
X007725Y028547D01*
X007725Y028813D01*
X007623Y029060D01*
X007435Y029248D01*
X007188Y029350D01*
X006922Y029350D01*
X006675Y029248D01*
X006555Y029128D01*
X006435Y029248D01*
X006188Y029350D01*
X005922Y029350D01*
X005675Y029248D01*
X005555Y029128D01*
X005435Y029248D01*
X005188Y029350D01*
X004922Y029350D01*
X004675Y029248D01*
X004555Y029128D01*
X004435Y029248D01*
X004188Y029350D01*
X003922Y029350D01*
X003675Y029248D01*
X003498Y029071D01*
X003439Y029130D01*
X003364Y029185D01*
X003281Y029227D01*
X003193Y029255D01*
X003101Y029270D01*
X003083Y029270D01*
X003083Y028708D01*
X003027Y028708D01*
X003027Y028652D01*
X003083Y028652D01*
X003083Y028090D01*
X003101Y028090D01*
X003193Y028105D01*
X003281Y028133D01*
X003364Y028175D01*
X003439Y028230D01*
X003498Y028289D01*
X003675Y028112D01*
X003735Y028087D01*
X003735Y026866D01*
X003784Y026749D01*
X004159Y026374D01*
X004249Y026284D01*
X004267Y026276D01*
X004250Y026259D01*
X003250Y025259D01*
X003195Y025127D01*
X003195Y022858D01*
X003250Y022726D01*
X003351Y022625D01*
X003483Y022570D01*
X003627Y022570D01*
X003735Y022615D01*
X003735Y022313D01*
X003284Y021861D01*
X003235Y021744D01*
X003235Y021470D01*
X003196Y021376D01*
X003196Y021234D01*
X003251Y021102D01*
X003352Y021001D01*
X003484Y020946D01*
X003626Y020946D01*
X003758Y021001D01*
X003859Y021102D01*
X003914Y021234D01*
X003914Y021376D01*
X003875Y021470D01*
X003875Y021547D01*
X004236Y021909D01*
X004326Y021999D01*
X004375Y022116D01*
X004375Y024735D01*
X004875Y025235D01*
X006006Y025235D01*
X005979Y025222D01*
X005929Y025201D01*
X005922Y025194D01*
X005913Y025190D01*
X005877Y025150D01*
X005839Y025111D01*
X005835Y025102D01*
X005589Y024825D01*
X005452Y024825D01*
X005260Y024746D01*
X005114Y024600D01*
X005035Y024408D01*
X005035Y024202D01*
X005114Y024010D01*
X005210Y023915D01*
X005108Y023915D01*
X004976Y023860D01*
X004611Y023495D01*
X004562Y023446D01*
X004532Y023372D01*
X004508Y023314D01*
X004508Y023314D01*
X004508Y023314D01*
X004508Y023242D01*
X004508Y021413D01*
X004502Y021415D01*
X004358Y021415D01*
X004226Y021360D01*
X003750Y020884D01*
X003695Y020752D01*
X003695Y016012D01*
X003627Y016040D01*
X003483Y016040D01*
X003351Y015985D01*
X003250Y015884D01*
X003195Y015752D01*
X003195Y013108D01*
X003250Y012976D01*
X004601Y011625D01*
X004733Y011570D01*
X004742Y011570D01*
X003815Y010643D01*
X003766Y010525D01*
X003766Y009063D01*
X003454Y008750D01*
X003398Y008750D01*
X003373Y008810D01*
X003196Y008987D01*
X003255Y009046D01*
X003310Y009121D01*
X003352Y009204D01*
X003380Y009292D01*
X003395Y009384D01*
X003395Y009402D01*
X002833Y009402D01*
X002833Y009458D01*
X003395Y009458D01*
X003395Y009476D01*
X003380Y009568D01*
X003352Y009656D01*
X003310Y009739D01*
X003255Y009814D01*
X003196Y009873D01*
X003373Y010050D01*
X003475Y010297D01*
X003475Y010563D01*
X003373Y010810D01*
X003253Y010930D01*
X003373Y011050D01*
X003475Y011297D01*
X003475Y011563D01*
X003373Y011810D01*
X003185Y011998D01*
X002938Y012100D01*
X002672Y012100D01*
X002425Y011998D01*
X002237Y011810D01*
X002135Y011563D01*
X002135Y011297D01*
X002237Y011050D01*
X002357Y010930D01*
X002237Y010810D01*
X002135Y010563D01*
X002135Y010297D01*
X002237Y010050D01*
X002414Y009873D01*
X002355Y009814D01*
X002300Y009739D01*
X002258Y009656D01*
X002230Y009568D01*
X002215Y009476D01*
X002215Y009458D01*
X002777Y009458D01*
X002777Y009402D01*
X002215Y009402D01*
X002215Y009384D01*
X002230Y009292D01*
X002258Y009204D01*
X002300Y009121D01*
X002355Y009046D01*
X002414Y008987D01*
X002237Y008810D01*
X002135Y008563D01*
X002135Y008297D01*
X002237Y008050D01*
X002425Y007862D01*
X002672Y007760D01*
X002938Y007760D01*
X003185Y007862D01*
X003373Y008050D01*
X003398Y008110D01*
X003650Y008110D01*
X003768Y008159D01*
X003858Y008249D01*
X004268Y008659D01*
X004358Y008749D01*
X004406Y008866D01*
X004406Y010329D01*
X005486Y011409D01*
X005576Y011499D01*
X005625Y011616D01*
X005625Y016545D01*
X007524Y018444D01*
X007866Y018444D01*
X007070Y017648D01*
X006977Y017609D01*
X006876Y017508D01*
X006821Y017376D01*
X006821Y017234D01*
X006876Y017102D01*
X006977Y017001D01*
X007070Y016962D01*
X008985Y015047D01*
X008985Y012991D01*
X008984Y012989D01*
X008985Y012927D01*
X008985Y012866D01*
X008986Y012864D01*
X008986Y012861D01*
X009010Y012805D01*
X009034Y012749D01*
X009036Y012747D01*
X009037Y012744D01*
X009081Y012702D01*
X009124Y012659D01*
X009126Y012658D01*
X009773Y012031D01*
X007273Y012031D01*
X007155Y011983D01*
X007065Y011893D01*
X005622Y010450D01*
X005192Y010450D01*
X005104Y010413D01*
X005037Y010346D01*
X005000Y010258D01*
X005000Y009702D01*
X005009Y009680D01*
X005000Y009658D01*
X005000Y009102D01*
X005037Y009014D01*
X005104Y008947D01*
X005192Y008910D01*
X005265Y008910D01*
X005265Y008876D01*
X005211Y008876D01*
X005154Y008876D01*
X005154Y008876D01*
X004836Y008876D01*
X004779Y008876D01*
X004779Y008876D01*
X004779Y008876D01*
X004724Y008854D01*
X004672Y008832D01*
X004633Y008793D01*
X004379Y008539D01*
X004359Y008539D01*
X004227Y008484D01*
X004126Y008383D01*
X004071Y008251D01*
X004071Y008109D01*
X004126Y007977D01*
X004221Y007881D01*
X003434Y007094D01*
X003396Y007003D01*
X003373Y007060D01*
X003185Y007248D01*
X002938Y007350D01*
X002672Y007350D01*
X002425Y007248D01*
X002237Y007060D01*
X002135Y006813D01*
X002135Y006547D01*
X002237Y006300D01*
X002357Y006180D01*
X002237Y006060D01*
X002135Y005813D01*
X002135Y005547D01*
X002237Y005300D01*
X002425Y005112D01*
X002672Y005010D01*
X002938Y005010D01*
X003185Y005112D01*
X003373Y005300D01*
X003390Y005342D01*
X003390Y004268D01*
X003373Y004310D01*
X003185Y004498D01*
X002938Y004600D01*
X002672Y004600D01*
X002425Y004498D01*
X002237Y004310D01*
X002135Y004063D01*
X002135Y003797D01*
X002237Y003550D01*
X002414Y003373D01*
X002355Y003314D01*
X002300Y003239D01*
X002258Y003156D01*
X002230Y003068D01*
X002215Y002976D01*
X002215Y002958D01*
X002777Y002958D01*
X002777Y002902D01*
X002833Y002902D01*
X002833Y002958D01*
X003395Y002958D01*
X003395Y002976D01*
X003380Y003068D01*
X003352Y003156D01*
X003310Y003239D01*
X003255Y003314D01*
X003196Y003373D01*
X003373Y003550D01*
X003475Y003797D01*
X003475Y003975D01*
X003684Y003766D01*
X003766Y003684D01*
X003872Y003640D01*
X007685Y003640D01*
X008297Y003028D01*
X008404Y002984D01*
X008519Y002984D01*
X009018Y002984D01*
X008982Y002896D01*
X008982Y002714D01*
X009002Y002665D01*
X006976Y002665D01*
X006884Y002703D01*
X006726Y002703D01*
X006579Y002643D01*
X006467Y002531D01*
X006407Y002384D01*
X006407Y002226D01*
X006467Y002079D01*
X006579Y001967D01*
X006726Y001907D01*
X006884Y001907D01*
X006976Y001945D01*
X008438Y001945D01*
X008376Y001883D01*
X008332Y001778D01*
X008227Y001734D01*
X008126Y001633D01*
X008071Y001501D01*
X008071Y001359D01*
X008126Y001227D01*
X008227Y001126D01*
X008359Y001071D01*
X008501Y001071D01*
X008633Y001126D01*
X008734Y001227D01*
X008778Y001332D01*
X008883Y001376D01*
X008984Y001477D01*
X009039Y001609D01*
X009039Y001751D01*
X008984Y001883D01*
X008922Y001945D01*
X012063Y001945D01*
X012001Y001883D01*
X011957Y001778D01*
X011852Y001734D01*
X011751Y001633D01*
X011696Y001501D01*
X011696Y001359D01*
X011751Y001227D01*
X011852Y001126D01*
X011984Y001071D01*
X012126Y001071D01*
X012258Y001126D01*
X012359Y001227D01*
X012403Y001332D01*
X012508Y001376D01*
X012609Y001477D01*
X012664Y001609D01*
X012664Y001751D01*
X012609Y001883D01*
X012508Y001984D01*
X012376Y002039D01*
X012298Y002039D01*
X013259Y003000D01*
X013360Y003101D01*
X013415Y003233D01*
X013415Y005134D01*
X013453Y005226D01*
X013453Y005384D01*
X013393Y005531D01*
X013281Y005643D01*
X013134Y005703D01*
X012976Y005703D01*
X012829Y005643D01*
X012717Y005531D01*
X012657Y005384D01*
X012657Y005226D01*
X012695Y005134D01*
X012695Y003454D01*
X011906Y002665D01*
X011608Y002665D01*
X011628Y002714D01*
X011628Y002896D01*
X011559Y003064D01*
X011501Y003122D01*
X011745Y003366D01*
X011751Y003352D01*
X011852Y003251D01*
X011984Y003196D01*
X012126Y003196D01*
X012258Y003251D01*
X012359Y003352D01*
X012403Y003457D01*
X012508Y003501D01*
X012609Y003602D01*
X012664Y003734D01*
X012664Y003876D01*
X012609Y004008D01*
X012508Y004109D01*
X012494Y004115D01*
X012501Y004122D01*
X012551Y004172D01*
X012573Y004224D01*
X012595Y004279D01*
X012595Y004336D01*
X012595Y006310D01*
X012790Y006505D01*
X019240Y006505D01*
X019350Y006551D01*
X019434Y006635D01*
X020184Y007385D01*
X020230Y007495D01*
X020230Y012681D01*
X022735Y015186D01*
X022735Y014906D01*
X022195Y014367D01*
X022102Y014328D01*
X022001Y014227D01*
X021946Y014095D01*
X021946Y013952D01*
X021985Y013859D01*
X021985Y013179D01*
X022034Y013061D01*
X022124Y012971D01*
X022462Y012633D01*
X022501Y012539D01*
X022602Y012438D01*
X022734Y012384D01*
X022876Y012384D01*
X023008Y012438D01*
X023109Y012539D01*
X023110Y012541D01*
X023110Y010345D01*
X023071Y010251D01*
X023071Y010109D01*
X023126Y009977D01*
X023227Y009876D01*
X023359Y009821D01*
X023501Y009821D01*
X023633Y009876D01*
X023734Y009977D01*
X023789Y010109D01*
X023789Y010251D01*
X023750Y010345D01*
X023750Y014547D01*
X025076Y015874D01*
X025110Y015955D01*
X025110Y012539D01*
X024984Y012539D01*
X024875Y012494D01*
X024875Y013515D01*
X024914Y013609D01*
X024914Y013751D01*
X024859Y013883D01*
X024758Y013984D01*
X024626Y014039D01*
X024484Y014039D01*
X024352Y013984D01*
X024251Y013883D01*
X024196Y013751D01*
X024196Y013609D01*
X024235Y013515D01*
X024235Y007173D01*
X024217Y007156D01*
X024157Y007009D01*
X024157Y006851D01*
X024217Y006704D01*
X024329Y006592D01*
X024476Y006532D01*
X024634Y006532D01*
X024781Y006592D01*
X024893Y006704D01*
X024953Y006851D01*
X024953Y007009D01*
X024893Y007156D01*
X024875Y007173D01*
X024875Y007241D01*
X024984Y007196D01*
X025110Y007196D01*
X025110Y005991D01*
X025159Y005874D01*
X027907Y003125D01*
X026241Y003125D01*
X026124Y003076D01*
X025876Y002828D01*
X025851Y002828D01*
X025704Y002768D01*
X025592Y002656D01*
X025532Y002509D01*
X025532Y002351D01*
X025592Y002204D01*
X025704Y002092D01*
X025851Y002032D01*
X026009Y002032D01*
X026156Y002092D01*
X026268Y002204D01*
X026328Y002351D01*
X026328Y002376D01*
X026438Y002485D01*
X028437Y002485D01*
X028454Y002467D01*
X028601Y002407D01*
X028759Y002407D01*
X028906Y002467D01*
X029018Y002579D01*
X029076Y002721D01*
X029126Y002602D01*
X029227Y002501D01*
X029359Y002446D01*
X029501Y002446D01*
X029617Y002494D01*
X029734Y002446D01*
X029876Y002446D01*
X029992Y002494D01*
X030109Y002446D01*
X030251Y002446D01*
X030367Y002494D01*
X030484Y002446D01*
X030503Y002446D01*
X029852Y001795D01*
X022435Y001795D01*
X022405Y001825D01*
X022405Y006110D01*
X022453Y006226D01*
X022453Y006384D01*
X022393Y006531D01*
X022281Y006643D01*
X022134Y006703D01*
X021976Y006703D01*
X021829Y006643D01*
X021717Y006531D01*
X021657Y006384D01*
X021657Y006226D01*
X021705Y006110D01*
X021705Y001825D01*
X021675Y001795D01*
X021008Y001795D01*
X020083Y002720D01*
X019902Y002795D01*
X018197Y002795D01*
X018040Y002860D01*
X017820Y002860D01*
X017616Y002776D01*
X017459Y002619D01*
X017375Y002415D01*
X017375Y002195D01*
X017459Y001991D01*
X017616Y001834D01*
X017747Y001780D01*
X017733Y001780D01*
X017455Y001502D01*
X017455Y001305D01*
X017930Y001305D01*
X018405Y001305D01*
X018405Y001502D01*
X018127Y001780D01*
X018113Y001780D01*
X018197Y001815D01*
X019602Y001815D01*
X020527Y000890D01*
X020708Y000815D01*
X030152Y000815D01*
X030333Y000890D01*
X030507Y001064D02*
X041307Y001064D01*
X041241Y001223D02*
X030665Y001223D01*
X030824Y001381D02*
X041224Y001381D01*
X041224Y001540D02*
X030982Y001540D01*
X031141Y001698D02*
X037604Y001698D01*
X037609Y001696D02*
X037751Y001696D01*
X037883Y001751D01*
X037984Y001852D01*
X038039Y001984D01*
X038039Y002087D01*
X038133Y002126D01*
X038234Y002227D01*
X038289Y002359D01*
X038289Y002501D01*
X038234Y002633D01*
X038133Y002734D01*
X038001Y002789D01*
X037859Y002789D01*
X037727Y002734D01*
X037626Y002633D01*
X037571Y002501D01*
X037571Y002398D01*
X037477Y002359D01*
X037376Y002258D01*
X037321Y002126D01*
X037321Y001984D01*
X037376Y001852D01*
X037477Y001751D01*
X037609Y001696D01*
X037756Y001698D02*
X041266Y001698D01*
X041332Y001857D02*
X037986Y001857D01*
X038039Y002015D02*
X041465Y002015D01*
X041678Y002174D02*
X038181Y002174D01*
X038278Y002332D02*
X042775Y002332D01*
X042775Y002174D02*
X042432Y002174D01*
X042645Y002015D02*
X042775Y002015D01*
X042775Y002491D02*
X038289Y002491D01*
X038218Y002649D02*
X039100Y002649D01*
X039156Y002593D02*
X038994Y002755D01*
X038907Y002966D01*
X032409Y002966D01*
X032567Y003125D02*
X038907Y003125D01*
X038907Y003195D02*
X038907Y002966D01*
X038973Y002808D02*
X032250Y002808D01*
X032092Y002649D02*
X037642Y002649D01*
X037571Y002491D02*
X031933Y002491D01*
X031775Y002332D02*
X037450Y002332D01*
X037341Y002174D02*
X031616Y002174D01*
X031458Y002015D02*
X037321Y002015D01*
X037374Y001857D02*
X031299Y001857D01*
X030389Y002332D02*
X026320Y002332D01*
X026237Y002174D02*
X030231Y002174D01*
X030072Y002015D02*
X022405Y002015D01*
X022405Y001857D02*
X029914Y001857D01*
X029983Y002491D02*
X030002Y002491D01*
X030358Y002491D02*
X030377Y002491D01*
X029627Y002491D02*
X029608Y002491D01*
X029252Y002491D02*
X028929Y002491D01*
X029046Y002649D02*
X029106Y002649D01*
X029108Y002966D02*
X029044Y002966D01*
X028924Y003125D02*
X029264Y003125D01*
X029596Y003125D02*
X029639Y003125D01*
X029971Y003125D02*
X030014Y003125D01*
X030346Y003125D02*
X030389Y003125D01*
X030721Y003125D02*
X031182Y003125D01*
X031340Y003283D02*
X028655Y003283D01*
X028496Y003442D02*
X031499Y003442D01*
X031657Y003600D02*
X030696Y003600D01*
X030872Y003759D02*
X031816Y003759D01*
X031974Y003917D02*
X030914Y003917D01*
X031555Y004305D02*
X028180Y004305D01*
X026930Y005555D01*
X026930Y007555D01*
X026571Y007563D02*
X025750Y007563D01*
X025750Y007721D02*
X026610Y007721D01*
X026776Y007880D02*
X025750Y007880D01*
X025750Y008038D02*
X027136Y008038D01*
X027116Y007880D02*
X027084Y007880D01*
X027210Y008197D02*
X025750Y008197D01*
X025750Y008355D02*
X027219Y008355D01*
X027139Y008514D02*
X025750Y008514D01*
X025750Y008672D02*
X027116Y008672D01*
X027138Y008831D02*
X025750Y008831D01*
X025750Y008989D02*
X027215Y008989D01*
X027214Y009148D02*
X025750Y009148D01*
X025750Y009306D02*
X027137Y009306D01*
X027116Y009465D02*
X025750Y009465D01*
X025750Y009623D02*
X027140Y009623D01*
X027220Y009782D02*
X025750Y009782D01*
X025750Y009940D02*
X027209Y009940D01*
X027135Y010099D02*
X025750Y010099D01*
X025750Y010257D02*
X027116Y010257D01*
X027142Y010416D02*
X025750Y010416D01*
X025750Y010574D02*
X027225Y010574D01*
X027204Y010733D02*
X025750Y010733D01*
X025750Y010891D02*
X027133Y010891D01*
X027116Y011050D02*
X025750Y011050D01*
X025750Y011208D02*
X027144Y011208D01*
X027231Y011367D02*
X025750Y011367D01*
X025750Y011525D02*
X027199Y011525D01*
X027131Y011684D02*
X025750Y011684D01*
X026037Y011842D02*
X027116Y011842D01*
X027146Y012001D02*
X026141Y012001D01*
X026299Y012159D02*
X027236Y012159D01*
X027194Y012318D02*
X026458Y012318D01*
X026616Y012476D02*
X027129Y012476D01*
X027116Y012635D02*
X026775Y012635D01*
X026933Y012793D02*
X027148Y012793D01*
X027092Y012952D02*
X027241Y012952D01*
X027086Y013399D02*
X027086Y015211D01*
X027430Y015555D01*
X034180Y015555D01*
X035055Y016430D01*
X035055Y019805D01*
X034735Y019640D02*
X034735Y016563D01*
X034047Y015875D01*
X033797Y015875D01*
X033935Y015932D01*
X034123Y016120D01*
X034225Y016367D01*
X034225Y017493D01*
X034123Y017740D01*
X033935Y017928D01*
X033688Y018030D01*
X033422Y018030D01*
X033175Y017928D01*
X032987Y017740D01*
X032885Y017493D01*
X032885Y016367D01*
X032987Y016120D01*
X033175Y015932D01*
X033313Y015875D01*
X027366Y015875D01*
X027249Y015826D01*
X027159Y015736D01*
X026815Y015393D01*
X026766Y015275D01*
X026766Y013531D01*
X025750Y012515D01*
X025750Y013729D01*
X025751Y013727D01*
X025852Y013626D01*
X025984Y013571D01*
X026126Y013571D01*
X026258Y013626D01*
X026359Y013727D01*
X026398Y013820D01*
X026486Y013909D01*
X026576Y013999D01*
X026625Y014116D01*
X026625Y017390D01*
X026664Y017484D01*
X026664Y017626D01*
X026609Y017758D01*
X026508Y017859D01*
X026376Y017914D01*
X026234Y017914D01*
X026102Y017859D01*
X026001Y017758D01*
X025946Y017626D01*
X025946Y017484D01*
X025985Y017390D01*
X025985Y014313D01*
X025945Y014273D01*
X025852Y014234D01*
X025751Y014133D01*
X025750Y014131D01*
X025750Y017640D01*
X025789Y017734D01*
X025789Y017876D01*
X025744Y017985D01*
X026262Y017985D01*
X026358Y017945D01*
X026502Y017945D01*
X026634Y018000D01*
X027204Y018570D01*
X028054Y018570D01*
X028510Y018569D01*
X028643Y018623D01*
X028744Y018724D01*
X028799Y018856D01*
X028800Y019000D01*
X028745Y019132D01*
X028644Y019234D01*
X028512Y019289D01*
X028127Y019290D01*
X028127Y019290D01*
X028055Y019290D01*
X027984Y019290D01*
X027299Y019290D01*
X027329Y019320D01*
X029127Y019320D01*
X029259Y019375D01*
X029360Y019476D01*
X029415Y019608D01*
X029415Y019752D01*
X029361Y019883D01*
X031906Y019883D01*
X032328Y019460D01*
X032251Y019383D01*
X032196Y019251D01*
X032196Y019109D01*
X032251Y018977D01*
X032352Y018876D01*
X032484Y018821D01*
X032626Y018821D01*
X032720Y018860D01*
X033744Y018860D01*
X033861Y018909D01*
X034696Y019744D01*
X034696Y019734D01*
X034735Y019640D01*
X034735Y019609D02*
X034561Y019609D01*
X034403Y019450D02*
X034735Y019450D01*
X034735Y019292D02*
X034244Y019292D01*
X034086Y019133D02*
X034735Y019133D01*
X034735Y018975D02*
X033927Y018975D01*
X033680Y019180D02*
X034805Y020305D01*
X035305Y020305D01*
X035555Y020055D01*
X035555Y016305D01*
X034305Y015055D01*
X028930Y015055D01*
X028555Y014680D01*
X028555Y004680D01*
X028914Y004710D02*
X029071Y004710D01*
X029120Y004868D02*
X028875Y004868D01*
X028875Y005027D02*
X029329Y005027D01*
X029531Y005027D02*
X029704Y005027D01*
X029906Y005027D02*
X030079Y005027D01*
X030281Y005027D02*
X030454Y005027D01*
X030656Y005027D02*
X033084Y005027D01*
X033242Y005185D02*
X028875Y005185D01*
X028875Y005344D02*
X033401Y005344D01*
X033559Y005502D02*
X028875Y005502D01*
X028875Y005661D02*
X033718Y005661D01*
X033876Y005819D02*
X028875Y005819D01*
X028875Y005978D02*
X034035Y005978D01*
X034193Y006136D02*
X028875Y006136D01*
X028875Y006295D02*
X029183Y006295D01*
X029227Y006251D02*
X029359Y006196D01*
X029501Y006196D01*
X029618Y006244D01*
X029734Y006196D01*
X029876Y006196D01*
X029992Y006244D01*
X030109Y006196D01*
X030251Y006196D01*
X030367Y006244D01*
X030484Y006196D01*
X030626Y006196D01*
X030758Y006251D01*
X030859Y006352D01*
X030914Y006484D01*
X030914Y006626D01*
X030859Y006758D01*
X030758Y006859D01*
X030626Y006914D01*
X030484Y006914D01*
X030367Y006866D01*
X030251Y006914D01*
X030109Y006914D01*
X029992Y006866D01*
X029876Y006914D01*
X029734Y006914D01*
X029618Y006866D01*
X029501Y006914D01*
X029359Y006914D01*
X029227Y006859D01*
X029126Y006758D01*
X029071Y006626D01*
X029071Y006484D01*
X029126Y006352D01*
X029227Y006251D01*
X029084Y006453D02*
X028875Y006453D01*
X028875Y006612D02*
X029071Y006612D01*
X029138Y006770D02*
X028875Y006770D01*
X028875Y006929D02*
X034986Y006929D01*
X035144Y007087D02*
X028875Y007087D01*
X028875Y007246D02*
X029240Y007246D01*
X029227Y007251D02*
X029359Y007196D01*
X029501Y007196D01*
X029617Y007244D01*
X029734Y007196D01*
X029876Y007196D01*
X029992Y007244D01*
X030109Y007196D01*
X030251Y007196D01*
X030367Y007244D01*
X030484Y007196D01*
X030626Y007196D01*
X030758Y007251D01*
X030859Y007352D01*
X030914Y007484D01*
X030914Y007626D01*
X030859Y007758D01*
X030758Y007859D01*
X030626Y007914D01*
X030484Y007914D01*
X030367Y007866D01*
X030251Y007914D01*
X030109Y007914D01*
X029992Y007866D01*
X029876Y007914D01*
X029734Y007914D01*
X029617Y007866D01*
X029501Y007914D01*
X029359Y007914D01*
X029227Y007859D01*
X029126Y007758D01*
X029071Y007626D01*
X029071Y007484D01*
X029126Y007352D01*
X029227Y007251D01*
X029104Y007404D02*
X028875Y007404D01*
X028875Y007563D02*
X029071Y007563D01*
X029110Y007721D02*
X028875Y007721D01*
X028875Y007880D02*
X029276Y007880D01*
X029584Y007880D02*
X029651Y007880D01*
X029959Y007880D02*
X030026Y007880D01*
X030334Y007880D02*
X030401Y007880D01*
X030709Y007880D02*
X035937Y007880D01*
X036095Y008038D02*
X028875Y008038D01*
X028875Y008197D02*
X036254Y008197D01*
X036412Y008355D02*
X028875Y008355D01*
X028875Y008514D02*
X036571Y008514D01*
X036729Y008672D02*
X028875Y008672D01*
X028875Y008831D02*
X036888Y008831D01*
X037046Y008989D02*
X028875Y008989D01*
X028875Y009148D02*
X037205Y009148D01*
X037363Y009306D02*
X030813Y009306D01*
X030859Y009352D02*
X030914Y009484D01*
X030914Y009626D01*
X030859Y009758D01*
X030758Y009859D01*
X030626Y009914D01*
X030484Y009914D01*
X030367Y009866D01*
X030251Y009914D01*
X030109Y009914D01*
X029992Y009866D01*
X029876Y009914D01*
X029734Y009914D01*
X029617Y009866D01*
X029501Y009914D01*
X029359Y009914D01*
X029227Y009859D01*
X029126Y009758D01*
X029071Y009626D01*
X029071Y009484D01*
X029126Y009352D01*
X029227Y009251D01*
X029359Y009196D01*
X029501Y009196D01*
X029617Y009244D01*
X029734Y009196D01*
X029876Y009196D01*
X029992Y009244D01*
X030109Y009196D01*
X030251Y009196D01*
X030367Y009244D01*
X030484Y009196D01*
X030626Y009196D01*
X030758Y009251D01*
X030859Y009352D01*
X030906Y009465D02*
X037522Y009465D01*
X037680Y009623D02*
X030914Y009623D01*
X030836Y009782D02*
X037839Y009782D01*
X037997Y009940D02*
X028875Y009940D01*
X028875Y009782D02*
X029149Y009782D01*
X029071Y009623D02*
X028875Y009623D01*
X028875Y009465D02*
X029079Y009465D01*
X029172Y009306D02*
X028875Y009306D01*
X028875Y010099D02*
X038156Y010099D01*
X038314Y010257D02*
X030764Y010257D01*
X030758Y010251D02*
X030859Y010352D01*
X030914Y010484D01*
X030914Y010626D01*
X030859Y010758D01*
X030758Y010859D01*
X030626Y010914D01*
X030484Y010914D01*
X030367Y010866D01*
X030251Y010914D01*
X030109Y010914D01*
X029992Y010866D01*
X029876Y010914D01*
X029734Y010914D01*
X029617Y010866D01*
X029501Y010914D01*
X029359Y010914D01*
X029227Y010859D01*
X029126Y010758D01*
X029071Y010626D01*
X029071Y010484D01*
X029126Y010352D01*
X029227Y010251D01*
X029359Y010196D01*
X029501Y010196D01*
X029617Y010244D01*
X029734Y010196D01*
X029876Y010196D01*
X029992Y010244D01*
X030109Y010196D01*
X030251Y010196D01*
X030367Y010244D01*
X030484Y010196D01*
X030626Y010196D01*
X030758Y010251D01*
X030886Y010416D02*
X038473Y010416D01*
X038631Y010574D02*
X030914Y010574D01*
X030870Y010733D02*
X038790Y010733D01*
X038948Y010891D02*
X030681Y010891D01*
X030626Y011071D02*
X030758Y011126D01*
X030859Y011227D01*
X030914Y011359D01*
X030914Y011501D01*
X030859Y011633D01*
X030758Y011734D01*
X030626Y011789D01*
X030484Y011789D01*
X030367Y011741D01*
X030251Y011789D01*
X030109Y011789D01*
X029992Y011741D01*
X029876Y011789D01*
X029734Y011789D01*
X029617Y011741D01*
X029501Y011789D01*
X029359Y011789D01*
X029227Y011734D01*
X029126Y011633D01*
X029071Y011501D01*
X029071Y011359D01*
X029126Y011227D01*
X029227Y011126D01*
X029359Y011071D01*
X029501Y011071D01*
X029617Y011119D01*
X029734Y011071D01*
X029876Y011071D01*
X029992Y011119D01*
X030109Y011071D01*
X030251Y011071D01*
X030367Y011119D01*
X030484Y011071D01*
X030626Y011071D01*
X030840Y011208D02*
X039265Y011208D01*
X039107Y011050D02*
X028875Y011050D01*
X028875Y011208D02*
X029145Y011208D01*
X029071Y011367D02*
X028875Y011367D01*
X028875Y011525D02*
X029081Y011525D01*
X029176Y011684D02*
X028875Y011684D01*
X028875Y011842D02*
X039899Y011842D01*
X039741Y011684D02*
X030809Y011684D01*
X030904Y011525D02*
X039582Y011525D01*
X039424Y011367D02*
X030914Y011367D01*
X030429Y010891D02*
X030306Y010891D01*
X030054Y010891D02*
X029931Y010891D01*
X029679Y010891D02*
X029556Y010891D01*
X029304Y010891D02*
X028875Y010891D01*
X028875Y010733D02*
X029115Y010733D01*
X029071Y010574D02*
X028875Y010574D01*
X028875Y010416D02*
X029099Y010416D01*
X029221Y010257D02*
X028875Y010257D01*
X028875Y012001D02*
X040058Y012001D01*
X040065Y012159D02*
X039786Y012159D01*
X039752Y012125D02*
X039886Y012259D01*
X039959Y012435D01*
X039959Y012624D01*
X039886Y012800D01*
X039752Y012934D01*
X039577Y013006D01*
X039387Y013006D01*
X039212Y012934D01*
X039078Y012800D01*
X039005Y012624D01*
X039005Y012435D01*
X039078Y012259D01*
X039212Y012125D01*
X039387Y012053D01*
X039577Y012053D01*
X039752Y012125D01*
X039911Y012318D02*
X040065Y012318D01*
X040065Y012476D02*
X039959Y012476D01*
X039955Y012635D02*
X040065Y012635D01*
X040065Y012793D02*
X039889Y012793D01*
X040065Y012952D02*
X039709Y012952D01*
X040065Y013110D02*
X037845Y013110D01*
X037883Y013126D02*
X037984Y013227D01*
X038028Y013332D01*
X038133Y013376D01*
X038234Y013477D01*
X038289Y013609D01*
X038289Y013751D01*
X038234Y013883D01*
X038133Y013984D01*
X038001Y014039D01*
X037859Y014039D01*
X037727Y013984D01*
X037626Y013883D01*
X037582Y013778D01*
X037477Y013734D01*
X037376Y013633D01*
X037321Y013501D01*
X037321Y013359D01*
X037376Y013227D01*
X037477Y013126D01*
X037609Y013071D01*
X037751Y013071D01*
X037883Y013126D01*
X038001Y013269D02*
X040065Y013269D01*
X040065Y013427D02*
X038184Y013427D01*
X038279Y013586D02*
X040065Y013586D01*
X040065Y013744D02*
X038289Y013744D01*
X038215Y013903D02*
X040065Y013903D01*
X040065Y014061D02*
X028875Y014061D01*
X028875Y013903D02*
X031645Y013903D01*
X031626Y013883D02*
X031582Y013778D01*
X031477Y013734D01*
X031376Y013633D01*
X031321Y013501D01*
X031321Y013359D01*
X031376Y013227D01*
X031477Y013126D01*
X031609Y013071D01*
X031751Y013071D01*
X031883Y013126D01*
X031984Y013227D01*
X032028Y013332D01*
X032133Y013376D01*
X032234Y013477D01*
X032289Y013609D01*
X032289Y013751D01*
X032234Y013883D01*
X032133Y013984D01*
X032001Y014039D01*
X031859Y014039D01*
X031727Y013984D01*
X031626Y013883D01*
X031501Y013744D02*
X028875Y013744D01*
X028875Y013586D02*
X031356Y013586D01*
X031321Y013427D02*
X028875Y013427D01*
X028875Y013269D02*
X031359Y013269D01*
X031515Y013110D02*
X028875Y013110D01*
X028875Y012952D02*
X039255Y012952D01*
X039075Y012793D02*
X028875Y012793D01*
X028875Y012635D02*
X039010Y012635D01*
X039005Y012476D02*
X028875Y012476D01*
X028875Y012318D02*
X039054Y012318D01*
X039178Y012159D02*
X028875Y012159D01*
X027086Y013399D02*
X025774Y012086D01*
X025750Y012635D02*
X025870Y012635D01*
X025750Y012793D02*
X026028Y012793D01*
X026187Y012952D02*
X025750Y012952D01*
X025750Y013110D02*
X026345Y013110D01*
X026504Y013269D02*
X025750Y013269D01*
X025750Y013427D02*
X026662Y013427D01*
X026766Y013586D02*
X026161Y013586D01*
X025949Y013586D02*
X025750Y013586D01*
X026055Y013930D02*
X026305Y014180D01*
X026305Y017555D01*
X026664Y017548D02*
X030496Y017548D01*
X030508Y017586D02*
X030480Y017498D01*
X030465Y017406D01*
X030465Y017010D01*
X030975Y017010D01*
X030975Y017945D01*
X030917Y017935D01*
X030829Y017907D01*
X030746Y017865D01*
X030671Y017810D01*
X030605Y017744D01*
X030550Y017669D01*
X030508Y017586D01*
X030577Y017707D02*
X026631Y017707D01*
X026494Y017865D02*
X030747Y017865D01*
X030975Y017865D02*
X031135Y017865D01*
X031135Y017945D02*
X031193Y017935D01*
X031281Y017907D01*
X031364Y017865D01*
X031439Y017810D01*
X031505Y017744D01*
X031560Y017669D01*
X031602Y017586D01*
X031630Y017498D01*
X031645Y017406D01*
X031645Y017010D01*
X031135Y017010D01*
X030975Y017010D01*
X030975Y016850D01*
X030465Y016850D01*
X030465Y016454D01*
X030480Y016362D01*
X030508Y016274D01*
X030550Y016191D01*
X030605Y016116D01*
X030671Y016050D01*
X030746Y015995D01*
X030829Y015953D01*
X030917Y015925D01*
X030975Y015915D01*
X030975Y016850D01*
X031135Y016850D01*
X031135Y017010D01*
X031135Y017945D01*
X031135Y017707D02*
X030975Y017707D01*
X030975Y017548D02*
X031135Y017548D01*
X031135Y017390D02*
X030975Y017390D01*
X030975Y017231D02*
X031135Y017231D01*
X031135Y017073D02*
X030975Y017073D01*
X030975Y016914D02*
X026625Y016914D01*
X026625Y016756D02*
X030465Y016756D01*
X030465Y016597D02*
X026625Y016597D01*
X026625Y016439D02*
X030467Y016439D01*
X030506Y016280D02*
X026625Y016280D01*
X026625Y016122D02*
X030601Y016122D01*
X030809Y015963D02*
X026625Y015963D01*
X026625Y015805D02*
X027227Y015805D01*
X027068Y015646D02*
X026625Y015646D01*
X026625Y015488D02*
X026910Y015488D01*
X026789Y015329D02*
X026625Y015329D01*
X026625Y015171D02*
X026766Y015171D01*
X026766Y015012D02*
X026625Y015012D01*
X026625Y014854D02*
X026766Y014854D01*
X026766Y014695D02*
X026625Y014695D01*
X026625Y014537D02*
X026766Y014537D01*
X026766Y014378D02*
X026625Y014378D01*
X026625Y014220D02*
X026766Y014220D01*
X026766Y014061D02*
X026602Y014061D01*
X026486Y013909D02*
X026486Y013909D01*
X026480Y013903D02*
X026766Y013903D01*
X026766Y013744D02*
X026366Y013744D01*
X025837Y014220D02*
X025750Y014220D01*
X025750Y014378D02*
X025985Y014378D01*
X025985Y014537D02*
X025750Y014537D01*
X025750Y014695D02*
X025985Y014695D01*
X025985Y014854D02*
X025750Y014854D01*
X025750Y015012D02*
X025985Y015012D01*
X025985Y015171D02*
X025750Y015171D01*
X025750Y015329D02*
X025985Y015329D01*
X025985Y015488D02*
X025750Y015488D01*
X025750Y015646D02*
X025985Y015646D01*
X025985Y015805D02*
X025750Y015805D01*
X025750Y015963D02*
X025985Y015963D01*
X025985Y016122D02*
X025750Y016122D01*
X025750Y016280D02*
X025985Y016280D01*
X025985Y016439D02*
X025750Y016439D01*
X025750Y016597D02*
X025985Y016597D01*
X025985Y016756D02*
X025750Y016756D01*
X025750Y016914D02*
X025985Y016914D01*
X025985Y017073D02*
X025750Y017073D01*
X025750Y017231D02*
X025985Y017231D01*
X025985Y017390D02*
X025750Y017390D01*
X025750Y017548D02*
X025946Y017548D01*
X025979Y017707D02*
X025778Y017707D01*
X025789Y017865D02*
X026116Y017865D01*
X026658Y018024D02*
X033406Y018024D01*
X033704Y018024D02*
X034735Y018024D01*
X034735Y018182D02*
X026816Y018182D01*
X026975Y018341D02*
X034735Y018341D01*
X034735Y018499D02*
X027133Y018499D01*
X026430Y018305D02*
X023430Y018305D01*
X023055Y017930D01*
X023055Y014774D01*
X022305Y014024D01*
X022305Y013242D01*
X022805Y012742D01*
X023046Y012476D02*
X023110Y012476D01*
X023110Y012318D02*
X020230Y012318D01*
X020230Y012476D02*
X022564Y012476D01*
X022460Y012635D02*
X020230Y012635D01*
X020342Y012793D02*
X022302Y012793D01*
X022143Y012952D02*
X020501Y012952D01*
X020659Y013110D02*
X022014Y013110D01*
X021985Y013269D02*
X020818Y013269D01*
X020976Y013427D02*
X021985Y013427D01*
X021985Y013586D02*
X021135Y013586D01*
X021293Y013744D02*
X021985Y013744D01*
X021967Y013903D02*
X021452Y013903D01*
X021610Y014061D02*
X021946Y014061D01*
X021998Y014220D02*
X021769Y014220D01*
X021927Y014378D02*
X022207Y014378D01*
X022086Y014537D02*
X022365Y014537D01*
X022244Y014695D02*
X022524Y014695D01*
X022403Y014854D02*
X022682Y014854D01*
X022735Y015012D02*
X022561Y015012D01*
X022720Y015171D02*
X022735Y015171D01*
X023430Y014680D02*
X023430Y010180D01*
X023697Y009940D02*
X024235Y009940D01*
X024235Y009782D02*
X020230Y009782D01*
X020230Y009940D02*
X023163Y009940D01*
X023075Y010099D02*
X020230Y010099D01*
X020230Y010257D02*
X023074Y010257D01*
X023110Y010416D02*
X020230Y010416D01*
X020230Y010574D02*
X023110Y010574D01*
X023110Y010733D02*
X020230Y010733D01*
X020230Y010891D02*
X023110Y010891D01*
X023110Y011050D02*
X020230Y011050D01*
X020230Y011208D02*
X023110Y011208D01*
X023110Y011367D02*
X020230Y011367D01*
X020230Y011525D02*
X023110Y011525D01*
X023110Y011684D02*
X020230Y011684D01*
X020230Y011842D02*
X023110Y011842D01*
X023110Y012001D02*
X020230Y012001D01*
X020230Y012159D02*
X023110Y012159D01*
X023750Y012159D02*
X024235Y012159D01*
X024235Y012001D02*
X023750Y012001D01*
X023750Y011842D02*
X024235Y011842D01*
X024235Y011684D02*
X023750Y011684D01*
X023750Y011525D02*
X024235Y011525D01*
X024235Y011367D02*
X023750Y011367D01*
X023750Y011208D02*
X024235Y011208D01*
X024235Y011050D02*
X023750Y011050D01*
X023750Y010891D02*
X024235Y010891D01*
X024235Y010733D02*
X023750Y010733D01*
X023750Y010574D02*
X024235Y010574D01*
X024235Y010416D02*
X023750Y010416D01*
X023786Y010257D02*
X024235Y010257D01*
X024235Y010099D02*
X023785Y010099D01*
X024235Y009623D02*
X020230Y009623D01*
X020230Y009465D02*
X024235Y009465D01*
X024235Y009306D02*
X020230Y009306D01*
X020230Y009148D02*
X024235Y009148D01*
X024235Y008989D02*
X020230Y008989D01*
X020230Y008831D02*
X024235Y008831D01*
X024235Y008672D02*
X020230Y008672D01*
X020230Y008514D02*
X024235Y008514D01*
X024235Y008355D02*
X020230Y008355D01*
X020230Y008197D02*
X024235Y008197D01*
X024235Y008038D02*
X020230Y008038D01*
X020230Y007880D02*
X024235Y007880D01*
X024235Y007721D02*
X020230Y007721D01*
X020230Y007563D02*
X024235Y007563D01*
X024235Y007404D02*
X020192Y007404D01*
X020045Y007246D02*
X024235Y007246D01*
X024189Y007087D02*
X019886Y007087D01*
X019728Y006929D02*
X024157Y006929D01*
X024190Y006770D02*
X019569Y006770D01*
X019411Y006612D02*
X021798Y006612D01*
X021685Y006453D02*
X012738Y006453D01*
X012595Y006295D02*
X021657Y006295D01*
X021694Y006136D02*
X012595Y006136D01*
X012595Y005978D02*
X021705Y005978D01*
X021705Y005819D02*
X012595Y005819D01*
X012595Y005661D02*
X012873Y005661D01*
X012706Y005502D02*
X012595Y005502D01*
X012595Y005344D02*
X012657Y005344D01*
X012674Y005185D02*
X012595Y005185D01*
X012595Y005027D02*
X012695Y005027D01*
X012695Y004868D02*
X012595Y004868D01*
X012595Y004710D02*
X012695Y004710D01*
X012695Y004551D02*
X012595Y004551D01*
X012595Y004393D02*
X012695Y004393D01*
X012595Y004279D02*
X012595Y004279D01*
X012595Y004279D01*
X012577Y004234D02*
X012695Y004234D01*
X012551Y004172D02*
X012551Y004172D01*
X012551Y004172D01*
X012542Y004076D02*
X012695Y004076D01*
X012695Y003917D02*
X012647Y003917D01*
X012664Y003759D02*
X012695Y003759D01*
X012695Y003600D02*
X012607Y003600D01*
X012682Y003442D02*
X012396Y003442D01*
X012290Y003283D02*
X012524Y003283D01*
X012365Y003125D02*
X011503Y003125D01*
X011599Y002966D02*
X012207Y002966D01*
X012048Y002808D02*
X011628Y002808D01*
X011662Y003283D02*
X011820Y003283D01*
X012908Y002649D02*
X017489Y002649D01*
X017406Y002491D02*
X012750Y002491D01*
X012591Y002332D02*
X017375Y002332D01*
X017384Y002174D02*
X012433Y002174D01*
X012434Y002015D02*
X017449Y002015D01*
X017594Y001857D02*
X012620Y001857D01*
X012664Y001698D02*
X017651Y001698D01*
X017493Y001540D02*
X012635Y001540D01*
X012513Y001381D02*
X017455Y001381D01*
X017455Y001305D02*
X017455Y001108D01*
X017733Y000830D01*
X017930Y000830D01*
X018127Y000830D01*
X018405Y001108D01*
X018405Y001305D01*
X017930Y001305D01*
X017930Y001305D01*
X017930Y000830D01*
X017930Y001305D01*
X017930Y001305D01*
X017930Y001305D01*
X017455Y001305D01*
X017455Y001223D02*
X012355Y001223D01*
X011755Y001223D02*
X008730Y001223D01*
X008888Y001381D02*
X011696Y001381D01*
X011712Y001540D02*
X009010Y001540D01*
X009039Y001698D02*
X011816Y001698D01*
X011990Y001857D02*
X008995Y001857D01*
X008365Y001857D02*
X002153Y001857D01*
X002219Y001698D02*
X008191Y001698D01*
X008087Y001540D02*
X002261Y001540D01*
X002261Y001381D02*
X008071Y001381D01*
X008130Y001223D02*
X002244Y001223D01*
X002178Y001064D02*
X017499Y001064D01*
X017658Y000906D02*
X002081Y000906D01*
X002020Y002015D02*
X006532Y002015D01*
X006429Y002174D02*
X001807Y002174D01*
X002355Y002546D02*
X002421Y002480D01*
X002496Y002425D01*
X002579Y002383D01*
X002667Y002355D01*
X002759Y002340D01*
X002777Y002340D01*
X002777Y002902D01*
X002215Y002902D01*
X002215Y002884D01*
X002230Y002792D01*
X002258Y002704D01*
X002300Y002621D01*
X002355Y002546D01*
X002410Y002491D02*
X000710Y002491D01*
X000710Y002649D02*
X002286Y002649D01*
X002227Y002808D02*
X000710Y002808D01*
X000710Y002966D02*
X002215Y002966D01*
X002248Y003125D02*
X000710Y003125D01*
X000710Y003283D02*
X002332Y003283D01*
X002346Y003442D02*
X000710Y003442D01*
X000710Y003600D02*
X002216Y003600D01*
X002151Y003759D02*
X000710Y003759D01*
X000710Y003917D02*
X002135Y003917D01*
X002140Y004076D02*
X000710Y004076D01*
X000710Y004234D02*
X002206Y004234D01*
X002320Y004393D02*
X000710Y004393D01*
X000710Y004551D02*
X002553Y004551D01*
X002632Y005027D02*
X000710Y005027D01*
X000710Y005185D02*
X002352Y005185D01*
X002219Y005344D02*
X000710Y005344D01*
X000710Y005502D02*
X002154Y005502D01*
X002135Y005661D02*
X000710Y005661D01*
X000710Y005819D02*
X002137Y005819D01*
X002203Y005978D02*
X000710Y005978D01*
X000710Y006136D02*
X002313Y006136D01*
X002243Y006295D02*
X000710Y006295D01*
X000710Y006453D02*
X002174Y006453D01*
X002135Y006612D02*
X000710Y006612D01*
X000710Y006770D02*
X002135Y006770D01*
X002183Y006929D02*
X000710Y006929D01*
X000710Y007087D02*
X002264Y007087D01*
X002423Y007246D02*
X000710Y007246D01*
X000710Y007404D02*
X003744Y007404D01*
X003902Y007563D02*
X000710Y007563D01*
X000710Y007721D02*
X004061Y007721D01*
X004219Y007880D02*
X003202Y007880D01*
X003361Y008038D02*
X004101Y008038D01*
X004071Y008197D02*
X003805Y008197D01*
X003964Y008355D02*
X004114Y008355D01*
X004122Y008514D02*
X004298Y008514D01*
X004281Y008672D02*
X004512Y008672D01*
X004391Y008831D02*
X004670Y008831D01*
X004672Y008832D02*
X004672Y008832D01*
X004672Y008832D01*
X004406Y008989D02*
X005062Y008989D01*
X005000Y009148D02*
X004406Y009148D01*
X004406Y009306D02*
X005000Y009306D01*
X005000Y009465D02*
X004406Y009465D01*
X004406Y009623D02*
X005000Y009623D01*
X005000Y009782D02*
X004406Y009782D01*
X004406Y009940D02*
X005000Y009940D01*
X005000Y010099D02*
X004406Y010099D01*
X004406Y010257D02*
X005000Y010257D01*
X005109Y010416D02*
X004493Y010416D01*
X004652Y010574D02*
X005746Y010574D01*
X005905Y010733D02*
X004810Y010733D01*
X004969Y010891D02*
X006063Y010891D01*
X006222Y011050D02*
X005127Y011050D01*
X005286Y011208D02*
X006380Y011208D01*
X006539Y011367D02*
X005444Y011367D01*
X005587Y011525D02*
X006697Y011525D01*
X006856Y011684D02*
X005625Y011684D01*
X005625Y011842D02*
X007014Y011842D01*
X007198Y012001D02*
X005625Y012001D01*
X005625Y012159D02*
X009641Y012159D01*
X009477Y012318D02*
X005625Y012318D01*
X005625Y012476D02*
X009314Y012476D01*
X009150Y012635D02*
X005625Y012635D01*
X005625Y012793D02*
X009015Y012793D01*
X008985Y012952D02*
X005625Y012952D01*
X005625Y013110D02*
X008985Y013110D01*
X008985Y013269D02*
X005625Y013269D01*
X005625Y013427D02*
X008985Y013427D01*
X008985Y013586D02*
X005625Y013586D01*
X005625Y013744D02*
X008985Y013744D01*
X008985Y013903D02*
X005625Y013903D01*
X005625Y014061D02*
X008985Y014061D01*
X008985Y014220D02*
X005625Y014220D01*
X005625Y014378D02*
X008985Y014378D01*
X008985Y014537D02*
X005625Y014537D01*
X005625Y014695D02*
X008985Y014695D01*
X008985Y014854D02*
X005625Y014854D01*
X005625Y015012D02*
X008985Y015012D01*
X008862Y015171D02*
X005625Y015171D01*
X005625Y015329D02*
X008703Y015329D01*
X008545Y015488D02*
X005625Y015488D01*
X005625Y015646D02*
X008386Y015646D01*
X008228Y015805D02*
X005625Y015805D01*
X005625Y015963D02*
X008069Y015963D01*
X007911Y016122D02*
X005625Y016122D01*
X005625Y016280D02*
X007752Y016280D01*
X007594Y016439D02*
X005625Y016439D01*
X005677Y016597D02*
X007435Y016597D01*
X007277Y016756D02*
X005835Y016756D01*
X005994Y016914D02*
X007118Y016914D01*
X006905Y017073D02*
X006152Y017073D01*
X006311Y017231D02*
X006822Y017231D01*
X006827Y017390D02*
X006469Y017390D01*
X006628Y017548D02*
X006916Y017548D01*
X006786Y017707D02*
X007129Y017707D01*
X007287Y017865D02*
X006945Y017865D01*
X007103Y018024D02*
X007446Y018024D01*
X007604Y018182D02*
X007262Y018182D01*
X007420Y018341D02*
X007763Y018341D01*
X007431Y018804D02*
X005305Y016678D01*
X005305Y011680D01*
X004086Y010461D01*
X004086Y008930D01*
X003586Y008430D01*
X002805Y008430D01*
X002180Y008672D02*
X000710Y008672D01*
X000710Y008514D02*
X002135Y008514D01*
X002135Y008355D02*
X000710Y008355D01*
X000710Y008197D02*
X002177Y008197D01*
X002249Y008038D02*
X000710Y008038D01*
X000710Y007880D02*
X002408Y007880D01*
X003187Y007246D02*
X003585Y007246D01*
X003431Y007087D02*
X003346Y007087D01*
X005121Y005765D02*
X005185Y005765D01*
X005238Y005765D01*
X005287Y005785D01*
X005344Y005809D01*
X005344Y005809D01*
X005344Y005809D01*
X005380Y005845D01*
X005894Y006359D01*
X007133Y006359D01*
X007109Y006300D01*
X007109Y005554D01*
X007095Y005539D01*
X007040Y005408D01*
X007040Y005265D01*
X007095Y005133D01*
X007195Y005032D01*
X007327Y004977D01*
X007470Y004977D01*
X007602Y005032D01*
X007703Y005133D01*
X007757Y005265D01*
X007757Y005408D01*
X007703Y005539D01*
X007689Y005554D01*
X007689Y005945D01*
X007789Y005845D01*
X007921Y005790D01*
X008064Y005790D01*
X008157Y005829D01*
X009053Y005829D01*
X009119Y005829D01*
X009167Y005849D01*
X009236Y005878D01*
X009236Y005878D01*
X009236Y005878D01*
X009275Y005916D01*
X010665Y007306D01*
X010758Y007345D01*
X010859Y007446D01*
X010914Y007577D01*
X010914Y007720D01*
X010859Y007852D01*
X010758Y007953D01*
X010626Y008007D01*
X010585Y008007D01*
X011238Y008660D01*
X011520Y008660D01*
X011825Y008965D01*
X011825Y009360D01*
X011865Y009360D01*
X011865Y009200D01*
X012285Y009200D01*
X012285Y009620D01*
X012198Y009620D01*
X012238Y009660D01*
X012520Y009660D01*
X012825Y009965D01*
X012825Y010395D01*
X012540Y010680D01*
X012720Y010860D01*
X013071Y010860D01*
X013071Y010734D01*
X013126Y010602D01*
X013227Y010501D01*
X013320Y010462D01*
X013837Y009945D01*
X013876Y009852D01*
X013977Y009751D01*
X014109Y009696D01*
X014251Y009696D01*
X014383Y009751D01*
X014484Y009852D01*
X014539Y009984D01*
X014539Y010126D01*
X014484Y010258D01*
X014383Y010359D01*
X014290Y010398D01*
X013828Y010860D01*
X014619Y010860D01*
X014736Y010909D01*
X014826Y010999D01*
X015236Y011409D01*
X015326Y011499D01*
X015375Y011616D01*
X015375Y013491D01*
X016371Y014487D01*
X016376Y014477D01*
X016477Y014376D01*
X016609Y014321D01*
X016751Y014321D01*
X016883Y014376D01*
X016984Y014477D01*
X017023Y014570D01*
X017563Y015110D01*
X018468Y015110D01*
X018454Y015077D01*
X018454Y014870D01*
X018533Y014679D01*
X018633Y014580D01*
X018533Y014480D01*
X018454Y014289D01*
X018454Y014082D01*
X018533Y013891D01*
X018633Y013792D01*
X018533Y013693D01*
X018454Y013502D01*
X018454Y013295D01*
X018533Y013104D01*
X018633Y013005D01*
X018533Y012906D01*
X018454Y012715D01*
X018454Y012508D01*
X018533Y012317D01*
X018533Y012318D02*
X015375Y012318D01*
X015375Y012476D02*
X018467Y012476D01*
X018454Y012635D02*
X015375Y012635D01*
X015375Y012793D02*
X018487Y012793D01*
X018579Y012952D02*
X015375Y012952D01*
X015375Y013110D02*
X018531Y013110D01*
X018465Y013269D02*
X015375Y013269D01*
X015375Y013427D02*
X018454Y013427D01*
X018489Y013586D02*
X015470Y013586D01*
X015628Y013744D02*
X018584Y013744D01*
X018529Y013903D02*
X015787Y013903D01*
X015945Y014061D02*
X018463Y014061D01*
X018454Y014220D02*
X016104Y014220D01*
X016262Y014378D02*
X016475Y014378D01*
X016680Y014680D02*
X017430Y015430D01*
X019930Y015430D01*
X020555Y016055D01*
X020555Y019680D01*
X021555Y020680D01*
X022305Y020680D01*
X022024Y020305D02*
X021055Y019336D01*
X021055Y016180D01*
X019061Y014186D01*
X018974Y014186D01*
X018491Y014378D02*
X016885Y014378D01*
X017009Y014537D02*
X018590Y014537D01*
X018527Y014695D02*
X017148Y014695D01*
X017306Y014854D02*
X018461Y014854D01*
X018454Y015012D02*
X017465Y015012D01*
X017620Y016428D02*
X019914Y018712D01*
X020008Y018751D01*
X020109Y018852D01*
X020164Y018984D01*
X020164Y019126D01*
X020109Y019258D01*
X020008Y019359D01*
X019988Y019368D01*
X020008Y019376D01*
X020109Y019477D01*
X020164Y019609D01*
X020164Y019751D01*
X020109Y019883D01*
X020008Y019984D01*
X019876Y020039D01*
X019734Y020039D01*
X019602Y019984D01*
X019501Y019883D01*
X019446Y019751D01*
X019446Y019746D01*
X013806Y014105D01*
X013679Y014105D01*
X013605Y014179D01*
X013605Y014448D01*
X013609Y014446D01*
X013751Y014446D01*
X013883Y014501D01*
X013984Y014602D01*
X014023Y014695D01*
X014396Y014695D01*
X014554Y014854D02*
X014181Y014854D01*
X014340Y015012D02*
X014713Y015012D01*
X014871Y015171D02*
X014498Y015171D01*
X014657Y015329D02*
X015030Y015329D01*
X015188Y015488D02*
X014815Y015488D01*
X014861Y015534D02*
X014951Y015624D01*
X015000Y015741D01*
X015000Y017619D01*
X014951Y017736D01*
X011750Y020938D01*
X011750Y021140D01*
X011789Y021234D01*
X011789Y021376D01*
X011734Y021508D01*
X011633Y021609D01*
X011501Y021664D01*
X011359Y021664D01*
X011227Y021609D01*
X011126Y021508D01*
X011071Y021376D01*
X011071Y021234D01*
X011110Y021140D01*
X011110Y020869D01*
X011110Y020741D01*
X011159Y020624D01*
X014360Y017422D01*
X014360Y017040D01*
X012829Y017040D01*
X012415Y017454D01*
X012415Y018890D01*
X012415Y018961D01*
X012415Y019033D01*
X012387Y019100D01*
X012360Y019165D01*
X012360Y019165D01*
X012360Y019165D01*
X012317Y019209D01*
X012259Y019266D01*
X012259Y019266D01*
X011790Y019735D01*
X011658Y019790D01*
X011515Y019790D01*
X011382Y019735D01*
X011281Y019634D01*
X011226Y019502D01*
X011226Y019358D01*
X011281Y019226D01*
X011695Y018812D01*
X011695Y017233D01*
X011750Y017101D01*
X012186Y016665D01*
X011983Y016665D01*
X011851Y016610D01*
X011750Y016509D01*
X011531Y016290D01*
X011454Y016290D01*
X010985Y016759D01*
X010884Y016860D01*
X010752Y016915D01*
X009108Y016915D01*
X008976Y016860D01*
X008875Y016759D01*
X008820Y016627D01*
X008820Y016483D01*
X008875Y016351D01*
X008976Y016250D01*
X009108Y016195D01*
X010063Y016195D01*
X010001Y016133D01*
X009946Y016001D01*
X009946Y015859D01*
X009985Y015765D01*
X009985Y013220D01*
X009946Y013126D01*
X009946Y012984D01*
X010001Y012852D01*
X010102Y012751D01*
X010234Y012696D01*
X010376Y012696D01*
X010445Y012725D01*
X010445Y012608D01*
X010500Y012476D01*
X010234Y012476D01*
X010397Y012318D02*
X011695Y012318D01*
X011695Y012281D02*
X010435Y012281D01*
X009625Y013066D01*
X009625Y015244D01*
X009576Y015361D01*
X007633Y017305D01*
X008438Y018110D01*
X009234Y018110D01*
X009327Y018071D01*
X009470Y018071D01*
X009602Y018126D01*
X009703Y018227D01*
X009757Y018359D01*
X009757Y018501D01*
X009703Y018633D01*
X009602Y018734D01*
X009470Y018789D01*
X009415Y018789D01*
X009415Y022031D01*
X011035Y023651D01*
X012630Y022056D01*
X012630Y020495D01*
X012676Y020385D01*
X012760Y020301D01*
X013260Y019801D01*
X013370Y019755D01*
X013865Y019755D01*
X013975Y019801D01*
X014059Y019885D01*
X014121Y019946D01*
X014126Y019946D01*
X014258Y020001D01*
X014359Y020102D01*
X014414Y020234D01*
X014414Y020376D01*
X014359Y020508D01*
X014258Y020609D01*
X014126Y020664D01*
X013984Y020664D01*
X013918Y020637D01*
X013887Y020668D01*
X013914Y020734D01*
X013914Y020876D01*
X013875Y020970D01*
X013875Y021936D01*
X015546Y020264D01*
X015476Y020235D01*
X015375Y020134D01*
X015320Y020002D01*
X015320Y018733D01*
X015375Y018601D01*
X015726Y018250D01*
X015858Y018195D01*
X016002Y018195D01*
X016134Y018250D01*
X016235Y018351D01*
X016290Y018483D01*
X016290Y018627D01*
X016235Y018759D01*
X016040Y018954D01*
X016040Y019771D01*
X016051Y019760D01*
X016135Y019676D01*
X016245Y019630D01*
X017431Y019630D01*
X017696Y019364D01*
X017696Y019359D01*
X017751Y019227D01*
X017852Y019126D01*
X017984Y019071D01*
X018126Y019071D01*
X018258Y019126D01*
X018359Y019227D01*
X018414Y019359D01*
X018414Y019501D01*
X018389Y019561D01*
X018515Y019509D01*
X018658Y019509D01*
X018789Y019563D01*
X018890Y019664D01*
X018945Y019796D01*
X018945Y019939D01*
X018890Y020071D01*
X018789Y020172D01*
X018662Y020225D01*
X018311Y020596D01*
X018309Y020600D01*
X018279Y020630D01*
X018431Y020630D01*
X018821Y020239D01*
X018821Y020234D01*
X018876Y020102D01*
X018977Y020001D01*
X019109Y019946D01*
X019251Y019946D01*
X019383Y020001D01*
X019484Y020102D01*
X019539Y020234D01*
X019539Y020376D01*
X019484Y020508D01*
X019383Y020609D01*
X019251Y020664D01*
X019246Y020664D01*
X019029Y020880D01*
X021302Y020880D01*
X021284Y020861D01*
X020284Y019861D01*
X020235Y019744D01*
X020235Y016428D01*
X017620Y016428D01*
X017631Y016439D02*
X020235Y016439D01*
X020235Y016597D02*
X017790Y016597D01*
X017949Y016756D02*
X020235Y016756D01*
X020235Y016914D02*
X018108Y016914D01*
X018267Y017073D02*
X020235Y017073D01*
X020235Y017231D02*
X018427Y017231D01*
X018586Y017390D02*
X020235Y017390D01*
X020235Y017548D02*
X018745Y017548D01*
X018904Y017707D02*
X020235Y017707D01*
X020235Y017865D02*
X019063Y017865D01*
X019223Y018024D02*
X020235Y018024D01*
X020235Y018182D02*
X019382Y018182D01*
X019541Y018341D02*
X020235Y018341D01*
X020235Y018499D02*
X019700Y018499D01*
X019859Y018658D02*
X020235Y018658D01*
X020235Y018816D02*
X020073Y018816D01*
X020160Y018975D02*
X020235Y018975D01*
X020235Y019133D02*
X020161Y019133D01*
X020235Y019292D02*
X020076Y019292D01*
X020082Y019450D02*
X020235Y019450D01*
X020235Y019609D02*
X020164Y019609D01*
X020157Y019767D02*
X020245Y019767D01*
X020348Y019926D02*
X020067Y019926D01*
X020506Y020084D02*
X019466Y020084D01*
X019539Y020243D02*
X020665Y020243D01*
X020823Y020401D02*
X019529Y020401D01*
X019433Y020560D02*
X020982Y020560D01*
X021140Y020718D02*
X019191Y020718D01*
X019033Y020877D02*
X021299Y020877D01*
X019543Y019926D02*
X018945Y019926D01*
X018933Y019767D02*
X019453Y019767D01*
X019309Y019609D02*
X018835Y019609D01*
X019151Y019450D02*
X018414Y019450D01*
X018386Y019292D02*
X018992Y019292D01*
X018834Y019133D02*
X018265Y019133D01*
X018517Y018816D02*
X016178Y018816D01*
X016277Y018658D02*
X018358Y018658D01*
X018200Y018499D02*
X016290Y018499D01*
X016225Y018341D02*
X018041Y018341D01*
X017883Y018182D02*
X014506Y018182D01*
X014664Y018024D02*
X017724Y018024D01*
X017566Y017865D02*
X014823Y017865D01*
X014964Y017707D02*
X017407Y017707D01*
X017249Y017548D02*
X015000Y017548D01*
X015000Y017390D02*
X017090Y017390D01*
X016932Y017231D02*
X015000Y017231D01*
X015000Y017073D02*
X016773Y017073D01*
X016615Y016914D02*
X015000Y016914D01*
X015000Y016756D02*
X016456Y016756D01*
X016298Y016597D02*
X015000Y016597D01*
X015000Y016439D02*
X016139Y016439D01*
X015981Y016280D02*
X015000Y016280D01*
X015000Y016122D02*
X015822Y016122D01*
X015664Y015963D02*
X015000Y015963D01*
X015000Y015805D02*
X015505Y015805D01*
X015347Y015646D02*
X014961Y015646D01*
X014861Y015534D02*
X014023Y014695D01*
X013919Y014537D02*
X014237Y014537D01*
X014079Y014378D02*
X013605Y014378D01*
X013605Y014220D02*
X013920Y014220D01*
X013680Y014805D02*
X014680Y015805D01*
X014680Y017555D01*
X011430Y020805D01*
X011430Y021305D01*
X011772Y021194D02*
X012630Y021194D01*
X012630Y021352D02*
X011789Y021352D01*
X011732Y021511D02*
X012630Y021511D01*
X012630Y021669D02*
X009415Y021669D01*
X009415Y021511D02*
X011128Y021511D01*
X011071Y021352D02*
X009415Y021352D01*
X009415Y021194D02*
X011088Y021194D01*
X011110Y021035D02*
X009415Y021035D01*
X009415Y020877D02*
X011110Y020877D01*
X011120Y020718D02*
X009415Y020718D01*
X009415Y020560D02*
X011223Y020560D01*
X011381Y020401D02*
X009415Y020401D01*
X009415Y020243D02*
X011540Y020243D01*
X011698Y020084D02*
X009415Y020084D01*
X009415Y019926D02*
X011857Y019926D01*
X011713Y019767D02*
X012015Y019767D01*
X011917Y019609D02*
X012174Y019609D01*
X012075Y019450D02*
X012332Y019450D01*
X012234Y019292D02*
X012491Y019292D01*
X012374Y019133D02*
X012649Y019133D01*
X012808Y018975D02*
X012415Y018975D01*
X012415Y019033D02*
X012415Y019033D01*
X012415Y019033D01*
X012415Y018890D02*
X012415Y018890D01*
X012415Y018816D02*
X012966Y018816D01*
X013125Y018658D02*
X012415Y018658D01*
X012415Y018499D02*
X013283Y018499D01*
X013442Y018341D02*
X012415Y018341D01*
X012415Y018182D02*
X013600Y018182D01*
X013759Y018024D02*
X012415Y018024D01*
X012415Y017865D02*
X013917Y017865D01*
X014076Y017707D02*
X012415Y017707D01*
X012415Y017548D02*
X014234Y017548D01*
X014360Y017390D02*
X012480Y017390D01*
X012638Y017231D02*
X014360Y017231D01*
X014360Y017073D02*
X012797Y017073D01*
X012095Y016756D02*
X010989Y016756D01*
X010985Y016759D02*
X010985Y016759D01*
X011147Y016597D02*
X011838Y016597D01*
X011679Y016439D02*
X011306Y016439D01*
X010754Y016914D02*
X011937Y016914D01*
X011778Y017073D02*
X007865Y017073D01*
X007707Y017231D02*
X011696Y017231D01*
X011695Y017390D02*
X007717Y017390D01*
X007876Y017548D02*
X011695Y017548D01*
X011695Y017707D02*
X008034Y017707D01*
X008193Y017865D02*
X011695Y017865D01*
X011695Y018024D02*
X008351Y018024D01*
X008305Y018430D02*
X007180Y017305D01*
X009305Y015180D01*
X009305Y012930D01*
X010305Y011961D01*
X012680Y011961D01*
X019805Y019055D01*
X018675Y018975D02*
X016040Y018975D01*
X016040Y019133D02*
X017845Y019133D01*
X017724Y019292D02*
X016040Y019292D01*
X016040Y019450D02*
X017611Y019450D01*
X017452Y019609D02*
X016040Y019609D01*
X016051Y019760D02*
X016051Y019760D01*
X016044Y019767D02*
X016040Y019767D01*
X015320Y019767D02*
X013894Y019767D01*
X014100Y019926D02*
X015320Y019926D01*
X015354Y020084D02*
X014341Y020084D01*
X014414Y020243D02*
X015494Y020243D01*
X015410Y020401D02*
X014404Y020401D01*
X014308Y020560D02*
X015251Y020560D01*
X015093Y020718D02*
X013907Y020718D01*
X013914Y020877D02*
X014934Y020877D01*
X014776Y021035D02*
X013875Y021035D01*
X013875Y021194D02*
X014617Y021194D01*
X014459Y021352D02*
X013875Y021352D01*
X013875Y021511D02*
X014300Y021511D01*
X014142Y021669D02*
X013875Y021669D01*
X013875Y021828D02*
X013983Y021828D01*
X013555Y022243D02*
X011180Y024680D01*
X009055Y024680D01*
X008055Y023680D01*
X007980Y024058D02*
X007980Y024365D01*
X007934Y024475D01*
X007850Y024559D01*
X007225Y025184D01*
X007115Y025230D01*
X006417Y025230D01*
X006405Y025235D01*
X011494Y025235D01*
X011611Y025284D01*
X011701Y025374D01*
X012005Y025677D01*
X012005Y024292D01*
X011452Y024859D01*
X011451Y024861D01*
X011408Y024905D01*
X011365Y024949D01*
X011363Y024950D01*
X011361Y024951D01*
X011304Y024975D01*
X011248Y024999D01*
X011246Y024999D01*
X011244Y025000D01*
X011182Y025000D01*
X011121Y025001D01*
X011119Y025000D01*
X008991Y025000D01*
X008874Y024951D01*
X007980Y024058D01*
X007980Y024205D02*
X008127Y024205D01*
X007980Y024364D02*
X008286Y024364D01*
X008444Y024522D02*
X007887Y024522D01*
X007729Y024681D02*
X008603Y024681D01*
X008761Y024839D02*
X007570Y024839D01*
X007412Y024998D02*
X008985Y024998D01*
X009864Y023911D02*
X010277Y023911D01*
X008750Y022384D01*
X008695Y022252D01*
X008695Y022108D01*
X008695Y019164D01*
X007580Y019164D01*
X005915Y020829D01*
X005915Y021627D01*
X005860Y021759D01*
X005759Y021860D01*
X005627Y021915D01*
X005483Y021915D01*
X005351Y021860D01*
X005250Y021759D01*
X005228Y021705D01*
X005228Y023093D01*
X005485Y023351D01*
X005540Y023483D01*
X005540Y023627D01*
X005485Y023759D01*
X005459Y023785D01*
X005658Y023785D01*
X005850Y023864D01*
X005996Y024010D01*
X006055Y024153D01*
X006114Y024010D01*
X006260Y023864D01*
X006452Y023785D01*
X006639Y023785D01*
X007652Y022826D01*
X007694Y022784D01*
X007698Y022782D01*
X007701Y022779D01*
X007757Y022758D01*
X007811Y022735D01*
X007816Y022735D01*
X007820Y022733D01*
X007879Y022735D01*
X008619Y022735D01*
X008736Y022784D01*
X008826Y022874D01*
X008845Y022918D01*
X009864Y023911D01*
X009841Y023888D02*
X010254Y023888D01*
X010095Y023730D02*
X009678Y023730D01*
X009515Y023571D02*
X009937Y023571D01*
X009778Y023413D02*
X009352Y023413D01*
X009189Y023254D02*
X009620Y023254D01*
X009461Y023096D02*
X009027Y023096D01*
X008864Y022937D02*
X009303Y022937D01*
X009144Y022779D02*
X008724Y022779D01*
X008986Y022620D02*
X005228Y022620D01*
X005228Y022462D02*
X008827Y022462D01*
X008716Y022303D02*
X005228Y022303D01*
X005228Y022145D02*
X008695Y022145D01*
X008695Y021986D02*
X005228Y021986D01*
X005228Y021828D02*
X005318Y021828D01*
X005792Y021828D02*
X008695Y021828D01*
X008695Y021669D02*
X005897Y021669D01*
X005915Y021511D02*
X008695Y021511D01*
X008695Y021352D02*
X005915Y021352D01*
X005915Y021194D02*
X008695Y021194D01*
X008695Y021035D02*
X005915Y021035D01*
X005915Y020877D02*
X008695Y020877D01*
X008695Y020718D02*
X006026Y020718D01*
X006185Y020560D02*
X008695Y020560D01*
X008695Y020401D02*
X006343Y020401D01*
X006502Y020243D02*
X008695Y020243D01*
X008695Y020084D02*
X006660Y020084D01*
X006819Y019926D02*
X008695Y019926D01*
X008695Y019767D02*
X006977Y019767D01*
X007136Y019609D02*
X008695Y019609D01*
X008695Y019450D02*
X007294Y019450D01*
X007453Y019292D02*
X008695Y019292D01*
X009415Y019292D02*
X011254Y019292D01*
X011226Y019450D02*
X009415Y019450D01*
X009415Y019609D02*
X011271Y019609D01*
X011459Y019767D02*
X009415Y019767D01*
X009415Y019133D02*
X011374Y019133D01*
X011533Y018975D02*
X009415Y018975D01*
X009415Y018816D02*
X011691Y018816D01*
X011695Y018658D02*
X009679Y018658D01*
X009757Y018499D02*
X011695Y018499D01*
X011695Y018341D02*
X009750Y018341D01*
X009658Y018182D02*
X011695Y018182D01*
X013238Y019450D02*
X015320Y019450D01*
X015320Y019292D02*
X013396Y019292D01*
X013555Y019133D02*
X015320Y019133D01*
X015320Y018975D02*
X013713Y018975D01*
X013872Y018816D02*
X015320Y018816D01*
X015351Y018658D02*
X014030Y018658D01*
X014189Y018499D02*
X015477Y018499D01*
X015635Y018341D02*
X014347Y018341D01*
X015320Y019609D02*
X013079Y019609D01*
X012921Y019767D02*
X013341Y019767D01*
X013135Y019926D02*
X012762Y019926D01*
X012604Y020084D02*
X012977Y020084D01*
X012818Y020243D02*
X012445Y020243D01*
X012287Y020401D02*
X012669Y020401D01*
X012630Y020560D02*
X012128Y020560D01*
X011970Y020718D02*
X012630Y020718D01*
X012630Y020877D02*
X011811Y020877D01*
X011750Y021035D02*
X012630Y021035D01*
X012630Y021828D02*
X009415Y021828D01*
X009415Y021986D02*
X012630Y021986D01*
X012541Y022145D02*
X009529Y022145D01*
X009687Y022303D02*
X012383Y022303D01*
X012224Y022462D02*
X009846Y022462D01*
X010004Y022620D02*
X012066Y022620D01*
X011907Y022779D02*
X010163Y022779D01*
X010321Y022937D02*
X011749Y022937D01*
X011590Y023096D02*
X010480Y023096D01*
X010638Y023254D02*
X011432Y023254D01*
X011273Y023413D02*
X010797Y023413D01*
X010955Y023571D02*
X011115Y023571D01*
X011935Y024364D02*
X012005Y024364D01*
X012005Y024522D02*
X011781Y024522D01*
X011626Y024681D02*
X012005Y024681D01*
X012005Y024839D02*
X011472Y024839D01*
X011252Y024998D02*
X012005Y024998D01*
X012005Y025156D02*
X007253Y025156D01*
X006305Y024930D02*
X006110Y024930D01*
X005555Y024305D01*
X005195Y024681D02*
X004375Y024681D01*
X004375Y024522D02*
X005082Y024522D01*
X005035Y024364D02*
X004375Y024364D01*
X004375Y024205D02*
X005035Y024205D01*
X005099Y024047D02*
X004375Y024047D01*
X004375Y023888D02*
X005043Y023888D01*
X004845Y023730D02*
X004375Y023730D01*
X004375Y023571D02*
X004687Y023571D01*
X004562Y023446D02*
X004562Y023446D01*
X004562Y023446D01*
X004548Y023413D02*
X004375Y023413D01*
X004375Y023254D02*
X004508Y023254D01*
X004508Y023096D02*
X004375Y023096D01*
X004375Y022937D02*
X004508Y022937D01*
X004508Y022779D02*
X004375Y022779D01*
X004375Y022620D02*
X004508Y022620D01*
X004508Y022462D02*
X004375Y022462D01*
X004375Y022303D02*
X004508Y022303D01*
X004508Y022145D02*
X004375Y022145D01*
X004314Y021986D02*
X004508Y021986D01*
X004508Y021828D02*
X004155Y021828D01*
X003997Y021669D02*
X004508Y021669D01*
X004508Y021511D02*
X003875Y021511D01*
X003914Y021352D02*
X004218Y021352D01*
X004059Y021194D02*
X003897Y021194D01*
X003901Y021035D02*
X003792Y021035D01*
X003747Y020877D02*
X000710Y020877D01*
X000710Y021035D02*
X003318Y021035D01*
X003213Y021194D02*
X000710Y021194D01*
X000710Y021352D02*
X003196Y021352D01*
X003235Y021511D02*
X000710Y021511D01*
X000710Y021669D02*
X003235Y021669D01*
X003270Y021828D02*
X000710Y021828D01*
X000710Y021986D02*
X003408Y021986D01*
X003567Y022145D02*
X000710Y022145D01*
X000710Y022303D02*
X003725Y022303D01*
X003735Y022462D02*
X000710Y022462D01*
X000710Y022620D02*
X003363Y022620D01*
X003228Y022779D02*
X000710Y022779D01*
X000710Y022937D02*
X003195Y022937D01*
X003195Y023096D02*
X000710Y023096D01*
X000710Y023254D02*
X003195Y023254D01*
X003195Y023413D02*
X000710Y023413D01*
X000710Y023571D02*
X003195Y023571D01*
X003195Y023730D02*
X000710Y023730D01*
X000710Y023888D02*
X003195Y023888D01*
X003195Y024047D02*
X000710Y024047D01*
X000710Y024205D02*
X003195Y024205D01*
X003195Y024364D02*
X000710Y024364D01*
X000710Y024522D02*
X003195Y024522D01*
X003195Y024681D02*
X000710Y024681D01*
X000710Y024839D02*
X003195Y024839D01*
X003195Y024998D02*
X000710Y024998D01*
X000710Y025156D02*
X003207Y025156D01*
X003305Y025315D02*
X000710Y025315D01*
X000710Y025473D02*
X003464Y025473D01*
X003622Y025632D02*
X000710Y025632D01*
X000710Y025790D02*
X003781Y025790D01*
X003939Y025949D02*
X000710Y025949D01*
X000710Y026107D02*
X004098Y026107D01*
X004256Y026266D02*
X000710Y026266D01*
X000710Y026424D02*
X004108Y026424D01*
X003950Y026583D02*
X000710Y026583D01*
X000710Y026741D02*
X003791Y026741D01*
X003735Y026900D02*
X000710Y026900D01*
X000710Y027058D02*
X003735Y027058D01*
X003735Y027217D02*
X000710Y027217D01*
X000710Y027375D02*
X003735Y027375D01*
X003735Y027534D02*
X000710Y027534D01*
X000710Y027692D02*
X003735Y027692D01*
X003735Y027851D02*
X000710Y027851D01*
X000710Y028009D02*
X003735Y028009D01*
X003620Y028168D02*
X003349Y028168D01*
X003083Y028168D02*
X003027Y028168D01*
X003027Y028090D02*
X003027Y028652D01*
X002465Y028652D01*
X002465Y028634D01*
X002480Y028542D01*
X002508Y028454D01*
X002550Y028371D01*
X002605Y028296D01*
X002671Y028230D01*
X002746Y028175D01*
X002829Y028133D01*
X002917Y028105D01*
X003009Y028090D01*
X003027Y028090D01*
X003027Y028326D02*
X003083Y028326D01*
X003083Y028485D02*
X003027Y028485D01*
X003027Y028643D02*
X003083Y028643D01*
X003027Y028708D02*
X002465Y028708D01*
X002465Y028726D01*
X002480Y028818D01*
X002508Y028906D01*
X002550Y028989D01*
X002605Y029064D01*
X002671Y029130D01*
X002746Y029185D01*
X002829Y029227D01*
X002917Y029255D01*
X003009Y029270D01*
X003027Y029270D01*
X003027Y028708D01*
X003027Y028802D02*
X003083Y028802D01*
X003083Y028960D02*
X003027Y028960D01*
X003027Y029119D02*
X003083Y029119D01*
X003451Y029119D02*
X003546Y029119D01*
X003746Y029277D02*
X000710Y029277D01*
X000710Y029119D02*
X002659Y029119D01*
X002536Y028960D02*
X000710Y028960D01*
X000710Y028802D02*
X002477Y028802D01*
X002465Y028643D02*
X000710Y028643D01*
X000710Y028485D02*
X002498Y028485D01*
X002583Y028326D02*
X000710Y028326D01*
X000710Y028168D02*
X002761Y028168D01*
X004055Y028680D02*
X004055Y026930D01*
X004430Y026555D01*
X008555Y026555D01*
X009675Y028112D02*
X009922Y028010D01*
X010188Y028010D01*
X010435Y028112D01*
X010555Y028232D01*
X010675Y028112D01*
X010922Y028010D01*
X011188Y028010D01*
X011435Y028112D01*
X011623Y028300D01*
X011725Y028547D01*
X011725Y028813D01*
X011623Y029060D01*
X011435Y029248D01*
X011188Y029350D01*
X010922Y029350D01*
X010675Y029248D01*
X010555Y029128D01*
X010435Y029248D01*
X010188Y029350D01*
X009922Y029350D01*
X009675Y029248D01*
X009498Y029071D01*
X009439Y029130D01*
X009364Y029185D01*
X009281Y029227D01*
X009193Y029255D01*
X009101Y029270D01*
X009083Y029270D01*
X009083Y028708D01*
X009027Y028708D01*
X009027Y028652D01*
X008465Y028652D01*
X008465Y028634D01*
X008480Y028542D01*
X008508Y028454D01*
X008550Y028371D01*
X008605Y028296D01*
X008671Y028230D01*
X008746Y028175D01*
X008829Y028133D01*
X008917Y028105D01*
X009009Y028090D01*
X009027Y028090D01*
X009027Y028652D01*
X009083Y028652D01*
X009083Y028090D01*
X009101Y028090D01*
X009193Y028105D01*
X009281Y028133D01*
X009364Y028175D01*
X009439Y028230D01*
X009498Y028289D01*
X009675Y028112D01*
X009620Y028168D02*
X009349Y028168D01*
X009083Y028168D02*
X009027Y028168D01*
X009027Y028326D02*
X009083Y028326D01*
X009083Y028485D02*
X009027Y028485D01*
X009027Y028643D02*
X009083Y028643D01*
X009027Y028708D02*
X008465Y028708D01*
X008465Y028726D01*
X008480Y028818D01*
X008508Y028906D01*
X008550Y028989D01*
X008605Y029064D01*
X008671Y029130D01*
X008746Y029185D01*
X008829Y029227D01*
X008917Y029255D01*
X009009Y029270D01*
X009027Y029270D01*
X009027Y028708D01*
X009027Y028802D02*
X009083Y028802D01*
X009083Y028960D02*
X009027Y028960D01*
X009027Y029119D02*
X009083Y029119D01*
X009451Y029119D02*
X009546Y029119D01*
X009746Y029277D02*
X007364Y029277D01*
X007564Y029119D02*
X008659Y029119D01*
X008536Y028960D02*
X007664Y028960D01*
X007725Y028802D02*
X008477Y028802D01*
X008465Y028643D02*
X007725Y028643D01*
X007699Y028485D02*
X008498Y028485D01*
X008583Y028326D02*
X007634Y028326D01*
X007490Y028168D02*
X008761Y028168D01*
X010364Y029277D02*
X010746Y029277D01*
X011364Y029277D02*
X012228Y029277D01*
X012386Y029436D02*
X000710Y029436D01*
X000710Y029594D02*
X012545Y029594D01*
X012069Y029119D02*
X011564Y029119D01*
X011664Y028960D02*
X012005Y028960D01*
X012005Y028802D02*
X011725Y028802D01*
X011725Y028643D02*
X012005Y028643D01*
X012005Y028485D02*
X011699Y028485D01*
X011634Y028326D02*
X012005Y028326D01*
X012005Y028168D02*
X011490Y028168D01*
X012005Y028009D02*
X004375Y028009D01*
X004375Y027851D02*
X012005Y027851D01*
X012005Y027692D02*
X004375Y027692D01*
X004375Y027534D02*
X012005Y027534D01*
X012605Y027534D02*
X013755Y027534D01*
X013755Y027692D02*
X012605Y027692D01*
X012605Y027851D02*
X013755Y027851D01*
X013755Y028009D02*
X012605Y028009D01*
X012605Y028168D02*
X012761Y028168D01*
X012746Y028175D02*
X012829Y028133D01*
X012917Y028105D01*
X013009Y028090D01*
X013027Y028090D01*
X013027Y028652D01*
X013083Y028652D01*
X013083Y028090D01*
X013101Y028090D01*
X013193Y028105D01*
X013281Y028133D01*
X013364Y028175D01*
X013439Y028230D01*
X013498Y028289D01*
X013675Y028112D01*
X013755Y028079D01*
X013755Y023404D01*
X012855Y024304D01*
X012855Y026365D01*
X012809Y026475D01*
X012725Y026559D01*
X012323Y026961D01*
X012559Y027198D01*
X012605Y027308D01*
X012605Y028296D01*
X012671Y028230D01*
X012746Y028175D01*
X013027Y028168D02*
X013083Y028168D01*
X013083Y028326D02*
X013027Y028326D01*
X013027Y028485D02*
X013083Y028485D01*
X013083Y028643D02*
X013027Y028643D01*
X013349Y028168D02*
X013620Y028168D01*
X013755Y027375D02*
X012605Y027375D01*
X012567Y027217D02*
X013755Y027217D01*
X013755Y027058D02*
X012420Y027058D01*
X012385Y026900D02*
X013755Y026900D01*
X013755Y026741D02*
X012543Y026741D01*
X012702Y026583D02*
X013755Y026583D01*
X013755Y026424D02*
X012830Y026424D01*
X012855Y026266D02*
X013755Y026266D01*
X013755Y026107D02*
X012855Y026107D01*
X012855Y025949D02*
X013755Y025949D01*
X013755Y025790D02*
X012855Y025790D01*
X012855Y025632D02*
X013755Y025632D01*
X013755Y025473D02*
X012855Y025473D01*
X012855Y025315D02*
X013755Y025315D01*
X013755Y025156D02*
X012855Y025156D01*
X012855Y024998D02*
X013755Y024998D01*
X013755Y024839D02*
X012855Y024839D01*
X012855Y024681D02*
X013755Y024681D01*
X013755Y024522D02*
X012855Y024522D01*
X012855Y024364D02*
X013755Y024364D01*
X013755Y024205D02*
X012954Y024205D01*
X013113Y024047D02*
X013755Y024047D01*
X013755Y023888D02*
X013271Y023888D01*
X013430Y023730D02*
X013755Y023730D01*
X013755Y023571D02*
X013588Y023571D01*
X013747Y023413D02*
X013755Y023413D01*
X013555Y022243D02*
X013555Y020805D01*
X015805Y022430D02*
X016805Y022430D01*
X016555Y022930D02*
X015180Y024305D01*
X014860Y024625D01*
X014930Y025430D01*
X015930Y025430D02*
X016000Y023985D01*
X016430Y023555D01*
X017055Y022930D01*
X017305Y023187D02*
X017258Y023234D01*
X017165Y023273D01*
X016701Y023736D01*
X016314Y024124D01*
X016270Y025034D01*
X016371Y025135D01*
X016450Y025327D01*
X016450Y025533D01*
X016425Y025594D01*
X016483Y025570D01*
X019962Y025570D01*
X021034Y024499D01*
X021102Y024430D01*
X019945Y023273D01*
X019852Y023234D01*
X019805Y023187D01*
X019758Y023234D01*
X019626Y023289D01*
X019484Y023289D01*
X019352Y023234D01*
X019305Y023187D01*
X019258Y023234D01*
X019126Y023289D01*
X018984Y023289D01*
X018855Y023235D01*
X018855Y023306D01*
X020121Y024571D01*
X020126Y024571D01*
X020258Y024626D01*
X020359Y024727D01*
X020414Y024859D01*
X020414Y025001D01*
X020359Y025133D01*
X020258Y025234D01*
X020126Y025289D01*
X019984Y025289D01*
X019852Y025234D01*
X019751Y025133D01*
X019696Y025001D01*
X019696Y024996D01*
X018301Y023600D01*
X018255Y023490D01*
X018255Y022735D01*
X018126Y022789D01*
X017984Y022789D01*
X017864Y022739D01*
X017914Y022859D01*
X017914Y023001D01*
X017859Y023133D01*
X017758Y023234D01*
X017626Y023289D01*
X017484Y023289D01*
X017352Y023234D01*
X017305Y023187D01*
X017210Y023254D02*
X017400Y023254D01*
X017710Y023254D02*
X018255Y023254D01*
X018255Y023096D02*
X017875Y023096D01*
X017914Y022937D02*
X018255Y022937D01*
X018255Y022779D02*
X018151Y022779D01*
X017959Y022779D02*
X017881Y022779D01*
X018255Y023413D02*
X017025Y023413D01*
X016867Y023571D02*
X018289Y023571D01*
X018430Y023730D02*
X016708Y023730D01*
X016550Y023888D02*
X018589Y023888D01*
X018747Y024047D02*
X016391Y024047D01*
X016310Y024205D02*
X018906Y024205D01*
X019064Y024364D02*
X016302Y024364D01*
X016294Y024522D02*
X019223Y024522D01*
X019381Y024681D02*
X016287Y024681D01*
X016279Y024839D02*
X019540Y024839D01*
X019696Y024998D02*
X016271Y024998D01*
X016379Y025156D02*
X019774Y025156D01*
X020059Y025473D02*
X016450Y025473D01*
X016445Y025315D02*
X020218Y025315D01*
X020336Y025156D02*
X020376Y025156D01*
X020414Y024998D02*
X020535Y024998D01*
X020406Y024839D02*
X020693Y024839D01*
X020852Y024681D02*
X020313Y024681D01*
X020071Y024522D02*
X021010Y024522D01*
X021036Y024364D02*
X019913Y024364D01*
X019754Y024205D02*
X020877Y024205D01*
X020719Y024047D02*
X019596Y024047D01*
X019437Y023888D02*
X020560Y023888D01*
X020402Y023730D02*
X019279Y023730D01*
X019120Y023571D02*
X020243Y023571D01*
X020085Y023413D02*
X018962Y023413D01*
X018900Y023254D02*
X018855Y023254D01*
X019210Y023254D02*
X019400Y023254D01*
X019710Y023254D02*
X019900Y023254D01*
X020055Y022930D02*
X021555Y024430D01*
X023805Y024430D01*
X023055Y024680D02*
X023805Y025430D01*
X024555Y026180D01*
X026555Y026180D01*
X026805Y025930D01*
X026805Y024430D01*
X027055Y024180D01*
X027170Y024522D02*
X029645Y024522D01*
X029625Y024681D02*
X027125Y024681D01*
X027125Y024839D02*
X027262Y024839D01*
X027250Y024851D02*
X027351Y024750D01*
X027483Y024695D01*
X028377Y024695D01*
X028509Y024750D01*
X028610Y024851D01*
X029360Y025601D01*
X029415Y025733D01*
X029415Y025877D01*
X029415Y027002D01*
X029360Y027134D01*
X029259Y027235D01*
X029127Y027290D01*
X028983Y027290D01*
X028851Y027235D01*
X028750Y027134D01*
X028695Y027002D01*
X028695Y025954D01*
X028373Y025632D01*
X028415Y025733D01*
X028415Y027189D01*
X028360Y027321D01*
X028259Y027423D01*
X028127Y027478D01*
X027983Y027478D01*
X027851Y027423D01*
X027750Y027321D01*
X027695Y027189D01*
X027695Y025733D01*
X027750Y025601D01*
X027851Y025500D01*
X027983Y025445D01*
X028127Y025445D01*
X028228Y025487D01*
X028156Y025415D01*
X027483Y025415D01*
X027351Y025360D01*
X027250Y025259D01*
X027195Y025127D01*
X027195Y024983D01*
X027250Y024851D01*
X027195Y024998D02*
X027125Y024998D01*
X027125Y025156D02*
X027207Y025156D01*
X027125Y025315D02*
X027305Y025315D01*
X027125Y025473D02*
X027916Y025473D01*
X027737Y025632D02*
X027125Y025632D01*
X027125Y025790D02*
X027695Y025790D01*
X027695Y025949D02*
X027125Y025949D01*
X027078Y026107D02*
X027695Y026107D01*
X027695Y026266D02*
X027093Y026266D01*
X027252Y026424D02*
X027695Y026424D01*
X027695Y026583D02*
X027361Y026583D01*
X027375Y026741D02*
X027695Y026741D01*
X027695Y026900D02*
X027375Y026900D01*
X027375Y027058D02*
X027695Y027058D01*
X027706Y027217D02*
X027375Y027217D01*
X027375Y027375D02*
X027803Y027375D01*
X027375Y027534D02*
X029860Y027534D01*
X029860Y027692D02*
X027375Y027692D01*
X027375Y027851D02*
X029860Y027851D01*
X029860Y028009D02*
X027375Y028009D01*
X027490Y028168D02*
X027620Y028168D01*
X027055Y028680D02*
X027055Y026680D01*
X026555Y026180D01*
X026422Y026500D02*
X024491Y026500D01*
X024374Y026451D01*
X024284Y026361D01*
X023872Y025950D01*
X023590Y025950D01*
X023285Y025645D01*
X023285Y025363D01*
X022922Y025000D01*
X022415Y025000D01*
X022415Y028104D01*
X022435Y028112D01*
X022623Y028300D01*
X022725Y028547D01*
X022725Y028813D01*
X022623Y029060D01*
X022573Y029110D01*
X023537Y029110D01*
X023487Y029060D01*
X023385Y028813D01*
X023385Y028547D01*
X023487Y028300D01*
X023675Y028112D01*
X023922Y028010D01*
X024188Y028010D01*
X024435Y028112D01*
X024612Y028289D01*
X024671Y028230D01*
X024746Y028175D01*
X024829Y028133D01*
X024917Y028105D01*
X025009Y028090D01*
X025027Y028090D01*
X025027Y028652D01*
X025083Y028652D01*
X025083Y028090D01*
X025101Y028090D01*
X025193Y028105D01*
X025281Y028133D01*
X025364Y028175D01*
X025439Y028230D01*
X025498Y028289D01*
X025675Y028112D01*
X025922Y028010D01*
X026188Y028010D01*
X026435Y028112D01*
X026555Y028232D01*
X026675Y028112D01*
X026735Y028087D01*
X026735Y026813D01*
X026422Y026500D01*
X026505Y026583D02*
X022415Y026583D01*
X022415Y026741D02*
X026663Y026741D01*
X026735Y026900D02*
X022415Y026900D01*
X022415Y027058D02*
X026735Y027058D01*
X026735Y027217D02*
X022415Y027217D01*
X022415Y027375D02*
X026735Y027375D01*
X026735Y027534D02*
X022415Y027534D01*
X022415Y027692D02*
X026735Y027692D01*
X026735Y027851D02*
X022415Y027851D01*
X022415Y028009D02*
X026735Y028009D01*
X026620Y028168D02*
X026490Y028168D01*
X026055Y028680D02*
X025305Y029430D01*
X019805Y029430D01*
X019055Y028680D01*
X019490Y028168D02*
X019620Y028168D01*
X020490Y028168D02*
X020620Y028168D01*
X020695Y028009D02*
X016105Y028009D01*
X016105Y027851D02*
X020695Y027851D01*
X020695Y027692D02*
X016105Y027692D01*
X016105Y027534D02*
X020695Y027534D01*
X020695Y027375D02*
X016105Y027375D01*
X016105Y027217D02*
X020695Y027217D01*
X020695Y027058D02*
X016105Y027058D01*
X016105Y026900D02*
X020730Y026900D01*
X020860Y026741D02*
X016253Y026741D01*
X016110Y026884D02*
X016110Y026884D01*
X016412Y026583D02*
X021018Y026583D01*
X021070Y026424D02*
X016570Y026424D01*
X016620Y028168D02*
X016105Y028168D01*
X016105Y028326D02*
X016476Y028326D01*
X016411Y028485D02*
X016105Y028485D01*
X016105Y028643D02*
X016385Y028643D01*
X016385Y028802D02*
X016105Y028802D01*
X016105Y028960D02*
X016446Y028960D01*
X016546Y029119D02*
X016041Y029119D01*
X015882Y029277D02*
X016746Y029277D01*
X017364Y029277D02*
X018746Y029277D01*
X018546Y029119D02*
X018451Y029119D01*
X018083Y029119D02*
X018027Y029119D01*
X018027Y028960D02*
X018083Y028960D01*
X018083Y028802D02*
X018027Y028802D01*
X018027Y028643D02*
X018083Y028643D01*
X018083Y028485D02*
X018027Y028485D01*
X018027Y028326D02*
X018083Y028326D01*
X018083Y028168D02*
X018027Y028168D01*
X017761Y028168D02*
X017490Y028168D01*
X018349Y028168D02*
X018620Y028168D01*
X017659Y029119D02*
X017564Y029119D01*
X019358Y029436D02*
X015724Y029436D01*
X015565Y029594D02*
X019516Y029594D01*
X022490Y028168D02*
X023620Y028168D01*
X023476Y028326D02*
X022634Y028326D01*
X022699Y028485D02*
X023411Y028485D01*
X023385Y028643D02*
X022725Y028643D01*
X022725Y028802D02*
X023385Y028802D01*
X023446Y028960D02*
X022664Y028960D01*
X024490Y028168D02*
X024761Y028168D01*
X025027Y028168D02*
X025083Y028168D01*
X025083Y028326D02*
X025027Y028326D01*
X025027Y028485D02*
X025083Y028485D01*
X025083Y028643D02*
X025027Y028643D01*
X025349Y028168D02*
X025620Y028168D01*
X026055Y028680D02*
X026805Y029430D01*
X029555Y029430D01*
X030180Y028805D01*
X030180Y024680D01*
X030605Y025040D02*
X030500Y025145D01*
X030500Y028287D01*
X030675Y028112D01*
X030922Y028010D01*
X031188Y028010D01*
X031435Y028112D01*
X031612Y028289D01*
X031671Y028230D01*
X031746Y028175D01*
X031829Y028133D01*
X031917Y028105D01*
X032009Y028090D01*
X032027Y028090D01*
X032027Y028652D01*
X032083Y028652D01*
X032083Y028090D01*
X032101Y028090D01*
X032193Y028105D01*
X032281Y028133D01*
X032364Y028175D01*
X032439Y028230D01*
X032498Y028289D01*
X032675Y028112D01*
X032695Y028104D01*
X032695Y025954D01*
X031781Y025040D01*
X030605Y025040D01*
X030500Y025156D02*
X031897Y025156D01*
X032055Y025315D02*
X030500Y025315D01*
X030500Y025473D02*
X032214Y025473D01*
X032372Y025632D02*
X030500Y025632D01*
X030500Y025790D02*
X032531Y025790D01*
X032689Y025949D02*
X030500Y025949D01*
X030500Y026107D02*
X032695Y026107D01*
X032695Y026266D02*
X030500Y026266D01*
X030500Y026424D02*
X032695Y026424D01*
X032695Y026583D02*
X030500Y026583D01*
X030500Y026741D02*
X032695Y026741D01*
X032695Y026900D02*
X030500Y026900D01*
X030500Y027058D02*
X032695Y027058D01*
X032695Y027217D02*
X030500Y027217D01*
X030500Y027375D02*
X032695Y027375D01*
X032695Y027534D02*
X030500Y027534D01*
X030500Y027692D02*
X032695Y027692D01*
X032695Y027851D02*
X030500Y027851D01*
X030500Y028009D02*
X032695Y028009D01*
X032620Y028168D02*
X032349Y028168D01*
X032083Y028168D02*
X032027Y028168D01*
X032027Y028326D02*
X032083Y028326D01*
X032083Y028485D02*
X032027Y028485D01*
X032027Y028643D02*
X032083Y028643D01*
X032083Y028802D02*
X032027Y028802D01*
X032027Y028960D02*
X032083Y028960D01*
X032083Y029119D02*
X032027Y029119D01*
X031659Y029119D02*
X031564Y029119D01*
X031364Y029277D02*
X032746Y029277D01*
X032546Y029119D02*
X032451Y029119D01*
X033364Y029277D02*
X033746Y029277D01*
X034364Y029277D02*
X034746Y029277D01*
X035364Y029277D02*
X035746Y029277D01*
X036364Y029277D02*
X037190Y029277D01*
X037190Y029119D02*
X036564Y029119D01*
X036664Y028960D02*
X037200Y028960D01*
X037265Y028802D02*
X036725Y028802D01*
X036725Y028643D02*
X037331Y028643D01*
X037475Y028485D02*
X036699Y028485D01*
X036634Y028326D02*
X037655Y028326D01*
X038499Y028168D02*
X036490Y028168D01*
X035620Y028168D02*
X035490Y028168D01*
X034620Y028168D02*
X034490Y028168D01*
X034415Y028009D02*
X038658Y028009D01*
X038816Y027851D02*
X034415Y027851D01*
X034415Y027692D02*
X038975Y027692D01*
X039133Y027534D02*
X034415Y027534D01*
X034415Y027375D02*
X039292Y027375D01*
X039450Y027217D02*
X035278Y027217D01*
X035259Y027235D02*
X035127Y027290D01*
X034983Y027290D01*
X034851Y027235D01*
X034750Y027134D01*
X034695Y027002D01*
X034695Y025733D01*
X034750Y025601D01*
X034851Y025500D01*
X034983Y025445D01*
X035127Y025445D01*
X035259Y025500D01*
X035360Y025601D01*
X035415Y025733D01*
X035415Y027002D01*
X035360Y027134D01*
X035259Y027235D01*
X035392Y027058D02*
X039609Y027058D01*
X039767Y026900D02*
X035415Y026900D01*
X035415Y026741D02*
X038262Y026741D01*
X038104Y026583D02*
X035415Y026583D01*
X035415Y026424D02*
X036790Y026424D01*
X036631Y026266D02*
X035415Y026266D01*
X035415Y026107D02*
X036473Y026107D01*
X036314Y025949D02*
X035415Y025949D01*
X035415Y025790D02*
X036156Y025790D01*
X035997Y025632D02*
X035373Y025632D01*
X035194Y025473D02*
X035839Y025473D01*
X035680Y025315D02*
X034415Y025315D01*
X034415Y025473D02*
X034916Y025473D01*
X034737Y025632D02*
X034415Y025632D01*
X034415Y025790D02*
X034695Y025790D01*
X034695Y025949D02*
X034415Y025949D01*
X034415Y026107D02*
X034695Y026107D01*
X034695Y026266D02*
X034415Y026266D01*
X034415Y026424D02*
X034695Y026424D01*
X034695Y026583D02*
X034415Y026583D01*
X034415Y026741D02*
X034695Y026741D01*
X034695Y026900D02*
X034415Y026900D01*
X034415Y027058D02*
X034718Y027058D01*
X034832Y027217D02*
X034415Y027217D01*
X033695Y027217D02*
X033415Y027217D01*
X033415Y027375D02*
X033695Y027375D01*
X033695Y027534D02*
X033415Y027534D01*
X033415Y027692D02*
X033695Y027692D01*
X033695Y027851D02*
X033415Y027851D01*
X033415Y028009D02*
X033695Y028009D01*
X033620Y028168D02*
X033490Y028168D01*
X033415Y027058D02*
X033695Y027058D01*
X033695Y026900D02*
X033415Y026900D01*
X033415Y026741D02*
X033695Y026741D01*
X033695Y026583D02*
X033415Y026583D01*
X033415Y026424D02*
X033695Y026424D01*
X033695Y026266D02*
X033415Y026266D01*
X033415Y026107D02*
X033695Y026107D01*
X033695Y025949D02*
X033415Y025949D01*
X033415Y025790D02*
X033695Y025790D01*
X033695Y025632D02*
X033373Y025632D01*
X033259Y025500D02*
X033259Y025500D01*
X033232Y025473D02*
X033695Y025473D01*
X033695Y025315D02*
X033074Y025315D01*
X032915Y025156D02*
X033695Y025156D01*
X033695Y024998D02*
X032757Y024998D01*
X032598Y024839D02*
X033695Y024839D01*
X033695Y024681D02*
X032440Y024681D01*
X032281Y024522D02*
X033731Y024522D01*
X033878Y024364D02*
X032107Y024364D01*
X030484Y024205D02*
X034571Y024205D01*
X034729Y024364D02*
X034232Y024364D01*
X034379Y024522D02*
X034888Y024522D01*
X035046Y024681D02*
X034415Y024681D01*
X034415Y024839D02*
X035205Y024839D01*
X035363Y024998D02*
X034415Y024998D01*
X034415Y025156D02*
X035522Y025156D01*
X036065Y024681D02*
X036570Y024681D01*
X036570Y024839D02*
X036223Y024839D01*
X036382Y024998D02*
X036620Y024998D01*
X036625Y025009D02*
X036570Y024877D01*
X036570Y022108D01*
X036625Y021976D01*
X036726Y021875D01*
X036858Y021820D01*
X037002Y021820D01*
X037134Y021875D01*
X037235Y021976D01*
X037290Y022108D01*
X037290Y024877D01*
X037235Y025009D01*
X037134Y025110D01*
X037002Y025165D01*
X036858Y025165D01*
X036726Y025110D01*
X036625Y025009D01*
X036540Y025156D02*
X036837Y025156D01*
X037023Y025156D02*
X037979Y025156D01*
X037979Y025315D02*
X036699Y025315D01*
X036857Y025473D02*
X038045Y025473D01*
X038153Y025632D02*
X037016Y025632D01*
X037174Y025790D02*
X038091Y025790D01*
X037999Y024998D02*
X037240Y024998D01*
X037290Y024839D02*
X038065Y024839D01*
X038201Y024681D02*
X037290Y024681D01*
X037290Y024522D02*
X038065Y024522D01*
X038000Y024364D02*
X037290Y024364D01*
X037290Y024205D02*
X037979Y024205D01*
X037979Y024047D02*
X037290Y024047D01*
X037290Y023888D02*
X038044Y023888D01*
X038152Y023730D02*
X037290Y023730D01*
X037290Y023571D02*
X038092Y023571D01*
X038020Y023413D02*
X037290Y023413D01*
X037290Y023254D02*
X037979Y023254D01*
X037979Y023096D02*
X037290Y023096D01*
X037290Y022937D02*
X038024Y022937D01*
X038103Y022779D02*
X037290Y022779D01*
X037290Y022620D02*
X038141Y022620D01*
X037826Y022462D02*
X037290Y022462D01*
X037290Y022303D02*
X037629Y022303D01*
X037470Y022145D02*
X037290Y022145D01*
X037312Y021986D02*
X037239Y021986D01*
X037153Y021828D02*
X037020Y021828D01*
X036995Y021669D02*
X035888Y021669D01*
X035915Y021828D02*
X036840Y021828D01*
X036621Y021986D02*
X035915Y021986D01*
X035915Y022145D02*
X036570Y022145D01*
X036570Y022303D02*
X035915Y022303D01*
X035915Y022462D02*
X036570Y022462D01*
X036570Y022620D02*
X035915Y022620D01*
X035915Y022779D02*
X036570Y022779D01*
X036570Y022937D02*
X035915Y022937D01*
X035915Y023096D02*
X036570Y023096D01*
X036570Y023254D02*
X035915Y023254D01*
X035915Y023413D02*
X036570Y023413D01*
X036570Y023571D02*
X035886Y023571D01*
X035765Y023730D02*
X036570Y023730D01*
X036570Y023888D02*
X035272Y023888D01*
X035345Y023730D02*
X035114Y023730D01*
X035224Y023571D02*
X034955Y023571D01*
X034797Y023413D02*
X035195Y023413D01*
X034897Y023254D02*
X034638Y023254D01*
X034734Y023096D02*
X034480Y023096D01*
X034321Y022937D02*
X034695Y022937D01*
X034695Y022779D02*
X034163Y022779D01*
X034004Y022620D02*
X034695Y022620D01*
X034695Y022462D02*
X033846Y022462D01*
X033687Y022303D02*
X034695Y022303D01*
X034695Y022145D02*
X033529Y022145D01*
X033370Y021986D02*
X034695Y021986D01*
X034695Y021828D02*
X033145Y021828D01*
X032753Y021511D02*
X027387Y021511D01*
X027415Y021669D02*
X034722Y021669D01*
X035055Y021305D02*
X035555Y021805D01*
X035770Y021511D02*
X036836Y021511D01*
X036678Y021352D02*
X035555Y021352D01*
X035055Y021305D02*
X033055Y021305D01*
X032696Y021352D02*
X027267Y021352D01*
X027415Y021828D02*
X029340Y021828D01*
X029121Y021986D02*
X027415Y021986D01*
X027415Y022145D02*
X029070Y022145D01*
X029091Y022303D02*
X027415Y022303D01*
X027415Y022462D02*
X029202Y022462D01*
X027415Y022620D02*
X032986Y022620D01*
X033144Y022779D02*
X027415Y022779D01*
X027415Y022937D02*
X033303Y022937D01*
X033461Y023096D02*
X027415Y023096D01*
X027415Y023254D02*
X033620Y023254D01*
X033778Y023413D02*
X027415Y023413D01*
X027415Y023571D02*
X033937Y023571D01*
X034095Y023730D02*
X027415Y023730D01*
X027415Y023888D02*
X034254Y023888D01*
X034412Y024047D02*
X027415Y024047D01*
X027415Y024205D02*
X029876Y024205D01*
X029712Y024364D02*
X027369Y024364D01*
X026695Y024087D02*
X026695Y021798D01*
X026375Y021478D01*
X026320Y021345D01*
X026320Y021230D01*
X024787Y021230D01*
X024789Y021234D01*
X024789Y021376D01*
X024734Y021508D01*
X024633Y021609D01*
X024501Y021664D01*
X024359Y021664D01*
X024227Y021609D01*
X024223Y021605D01*
X023304Y021605D01*
X023154Y021755D01*
X023846Y021755D01*
X023851Y021750D01*
X023983Y021695D01*
X024127Y021695D01*
X024259Y021750D01*
X026110Y023601D01*
X026165Y023733D01*
X026165Y023877D01*
X026125Y023973D01*
X026125Y024015D01*
X026325Y024215D01*
X026325Y024645D01*
X026020Y024950D01*
X025590Y024950D01*
X025305Y024665D01*
X025040Y024930D01*
X025325Y025215D01*
X025325Y025645D01*
X025110Y025860D01*
X025613Y025860D01*
X025365Y025612D01*
X025365Y025450D01*
X025785Y025450D01*
X025785Y025410D01*
X025825Y025410D01*
X025825Y025450D01*
X026245Y025450D01*
X026245Y025612D01*
X025997Y025860D01*
X026422Y025860D01*
X026485Y025797D01*
X026485Y024366D01*
X026534Y024249D01*
X026624Y024159D01*
X026695Y024087D01*
X026695Y024047D02*
X026157Y024047D01*
X026160Y023888D02*
X026695Y023888D01*
X026695Y023730D02*
X026163Y023730D01*
X026080Y023571D02*
X026695Y023571D01*
X026695Y023413D02*
X025922Y023413D01*
X025763Y023254D02*
X026695Y023254D01*
X026695Y023096D02*
X025605Y023096D01*
X025446Y022937D02*
X026695Y022937D01*
X026695Y022779D02*
X025288Y022779D01*
X025129Y022620D02*
X026695Y022620D01*
X026695Y022462D02*
X024971Y022462D01*
X024812Y022303D02*
X026695Y022303D01*
X026695Y022145D02*
X024654Y022145D01*
X024495Y021986D02*
X026695Y021986D01*
X026695Y021828D02*
X024337Y021828D01*
X024732Y021511D02*
X026408Y021511D01*
X026323Y021352D02*
X024789Y021352D01*
X023240Y021669D02*
X026566Y021669D01*
X025805Y023805D02*
X025805Y024430D01*
X026325Y024364D02*
X026486Y024364D01*
X026485Y024522D02*
X026325Y024522D01*
X026290Y024681D02*
X026485Y024681D01*
X026485Y024839D02*
X026131Y024839D01*
X025987Y024990D02*
X026245Y025248D01*
X026245Y025410D01*
X025825Y025410D01*
X025825Y024990D01*
X025987Y024990D01*
X025995Y024998D02*
X026485Y024998D01*
X026485Y025156D02*
X026153Y025156D01*
X026245Y025315D02*
X026485Y025315D01*
X026485Y025473D02*
X026245Y025473D01*
X026226Y025632D02*
X026485Y025632D01*
X026485Y025790D02*
X026067Y025790D01*
X025543Y025790D02*
X025180Y025790D01*
X025325Y025632D02*
X025384Y025632D01*
X025365Y025473D02*
X025325Y025473D01*
X025365Y025410D02*
X025365Y025248D01*
X025623Y024990D01*
X025785Y024990D01*
X025785Y025410D01*
X025365Y025410D01*
X025365Y025315D02*
X025325Y025315D01*
X025266Y025156D02*
X025457Y025156D01*
X025615Y024998D02*
X025108Y024998D01*
X025131Y024839D02*
X025479Y024839D01*
X025320Y024681D02*
X025290Y024681D01*
X024805Y024430D02*
X024805Y023555D01*
X026315Y024205D02*
X026577Y024205D01*
X025825Y024998D02*
X025785Y024998D01*
X025785Y025156D02*
X025825Y025156D01*
X025825Y025315D02*
X025785Y025315D01*
X024805Y025430D02*
X024305Y024930D01*
X023237Y025315D02*
X022415Y025315D01*
X022415Y025473D02*
X023285Y025473D01*
X023285Y025632D02*
X022415Y025632D01*
X022415Y025790D02*
X023430Y025790D01*
X023588Y025949D02*
X022415Y025949D01*
X022415Y026107D02*
X024029Y026107D01*
X024188Y026266D02*
X022415Y026266D01*
X022415Y026424D02*
X024346Y026424D01*
X023078Y025156D02*
X022415Y025156D01*
X023055Y024680D02*
X021305Y024680D01*
X020055Y025930D01*
X020186Y026266D02*
X021070Y026266D01*
X021070Y026107D02*
X020371Y026107D01*
X020489Y025949D02*
X021070Y025949D01*
X021070Y025790D02*
X020648Y025790D01*
X020806Y025632D02*
X021070Y025632D01*
X021070Y025473D02*
X020965Y025473D01*
X025594Y029594D02*
X026516Y029594D01*
X026358Y029436D02*
X025752Y029436D01*
X028490Y028168D02*
X028620Y028168D01*
X029490Y028168D02*
X029860Y028168D01*
X029860Y028326D02*
X029634Y028326D01*
X029699Y028485D02*
X029860Y028485D01*
X029860Y028643D02*
X029725Y028643D01*
X029725Y028802D02*
X029731Y028802D01*
X030161Y029277D02*
X030746Y029277D01*
X030546Y029119D02*
X030319Y029119D01*
X030002Y029436D02*
X037214Y029436D01*
X037280Y029594D02*
X029844Y029594D01*
X030500Y028168D02*
X030620Y028168D01*
X031490Y028168D02*
X031761Y028168D01*
X029860Y027375D02*
X028307Y027375D01*
X028404Y027217D02*
X028832Y027217D01*
X028718Y027058D02*
X028415Y027058D01*
X028415Y026900D02*
X028695Y026900D01*
X028695Y026741D02*
X028415Y026741D01*
X028415Y026583D02*
X028695Y026583D01*
X028695Y026424D02*
X028415Y026424D01*
X028415Y026266D02*
X028695Y026266D01*
X028695Y026107D02*
X028415Y026107D01*
X028415Y025949D02*
X028689Y025949D01*
X028531Y025790D02*
X028415Y025790D01*
X028214Y025473D02*
X028194Y025473D01*
X028757Y024998D02*
X029713Y024998D01*
X029645Y024839D02*
X028598Y024839D01*
X028915Y025156D02*
X029860Y025156D01*
X029860Y025315D02*
X029074Y025315D01*
X029232Y025473D02*
X029860Y025473D01*
X029860Y025632D02*
X029373Y025632D01*
X029415Y025790D02*
X029860Y025790D01*
X029860Y025949D02*
X029415Y025949D01*
X029415Y026107D02*
X029860Y026107D01*
X029860Y026266D02*
X029415Y026266D01*
X029415Y026424D02*
X029860Y026424D01*
X029860Y026583D02*
X029415Y026583D01*
X029415Y026741D02*
X029860Y026741D01*
X029860Y026900D02*
X029415Y026900D01*
X029392Y027058D02*
X029860Y027058D01*
X029860Y027217D02*
X029278Y027217D01*
X035431Y024047D02*
X036570Y024047D01*
X036570Y024205D02*
X035589Y024205D01*
X035748Y024364D02*
X036570Y024364D01*
X036570Y024522D02*
X035906Y024522D01*
X039097Y024681D02*
X040065Y024681D01*
X040065Y024839D02*
X039233Y024839D01*
X039298Y024998D02*
X040065Y024998D01*
X040065Y025156D02*
X039319Y025156D01*
X039318Y025315D02*
X040065Y025315D01*
X040065Y025473D02*
X039253Y025473D01*
X039145Y025632D02*
X040065Y025632D01*
X040065Y025790D02*
X039206Y025790D01*
X039278Y025949D02*
X040065Y025949D01*
X040065Y026107D02*
X039319Y026107D01*
X039319Y026266D02*
X040065Y026266D01*
X040065Y026424D02*
X039273Y026424D01*
X039194Y026583D02*
X040065Y026583D01*
X039926Y026741D02*
X039035Y026741D01*
X040202Y027851D02*
X042775Y027851D01*
X042775Y028009D02*
X040044Y028009D01*
X039885Y028168D02*
X042775Y028168D01*
X042775Y028326D02*
X040496Y028326D01*
X040473Y028316D02*
X040583Y028362D01*
X040687Y028422D01*
X040781Y028494D01*
X040866Y028579D01*
X040938Y028673D01*
X040998Y028777D01*
X041044Y028887D01*
X041074Y029002D01*
X041090Y029120D01*
X041090Y029132D01*
X040228Y029132D01*
X040228Y028270D01*
X040240Y028270D01*
X040358Y028286D01*
X040473Y028316D01*
X040228Y028326D02*
X040132Y028326D01*
X040132Y028270D02*
X040132Y029132D01*
X039270Y029132D01*
X039270Y029120D01*
X039286Y029002D01*
X039316Y028887D01*
X039362Y028777D01*
X039422Y028673D01*
X039494Y028579D01*
X039579Y028494D01*
X039673Y028422D01*
X039777Y028362D01*
X039887Y028316D01*
X040002Y028286D01*
X040120Y028270D01*
X040132Y028270D01*
X040132Y028485D02*
X040228Y028485D01*
X040228Y028643D02*
X040132Y028643D01*
X040132Y028802D02*
X040228Y028802D01*
X040228Y028960D02*
X040132Y028960D01*
X040132Y029119D02*
X040228Y029119D01*
X040228Y029132D02*
X040132Y029132D01*
X040132Y029228D01*
X039270Y029228D01*
X039270Y029240D01*
X039286Y029358D01*
X039316Y029473D01*
X039362Y029583D01*
X039422Y029687D01*
X039494Y029781D01*
X039579Y029866D01*
X039673Y029938D01*
X039777Y029998D01*
X039887Y030044D01*
X040002Y030074D01*
X040120Y030090D01*
X040132Y030090D01*
X040132Y029228D01*
X040228Y029228D01*
X040228Y030090D01*
X040240Y030090D01*
X040358Y030074D01*
X040473Y030044D01*
X040583Y029998D01*
X040687Y029938D01*
X040781Y029866D01*
X040866Y029781D01*
X040938Y029687D01*
X040998Y029583D01*
X041044Y029473D01*
X041074Y029358D01*
X041090Y029240D01*
X041090Y029228D01*
X040228Y029228D01*
X040228Y029132D01*
X040228Y029277D02*
X040132Y029277D01*
X040132Y029436D02*
X040228Y029436D01*
X040228Y029594D02*
X040132Y029594D01*
X040132Y029753D02*
X040228Y029753D01*
X040228Y029911D02*
X040132Y029911D01*
X040132Y030070D02*
X040228Y030070D01*
X040376Y030070D02*
X042775Y030070D01*
X042775Y030228D02*
X000710Y030228D01*
X000710Y030070D02*
X037741Y030070D01*
X037511Y029911D02*
X000710Y029911D01*
X000710Y029753D02*
X037353Y029753D01*
X038619Y030070D02*
X039984Y030070D01*
X039638Y029911D02*
X038849Y029911D01*
X039008Y029753D02*
X039472Y029753D01*
X039368Y029594D02*
X039080Y029594D01*
X039146Y029436D02*
X039306Y029436D01*
X039275Y029277D02*
X039170Y029277D01*
X039170Y029119D02*
X039270Y029119D01*
X039297Y028960D02*
X039160Y028960D01*
X039251Y028802D02*
X039352Y028802D01*
X039410Y028643D02*
X039445Y028643D01*
X039568Y028485D02*
X039592Y028485D01*
X039727Y028326D02*
X039864Y028326D01*
X040361Y027692D02*
X042775Y027692D01*
X042775Y027534D02*
X040519Y027534D01*
X040678Y027375D02*
X042775Y027375D01*
X042775Y027217D02*
X040836Y027217D01*
X040981Y027058D02*
X042775Y027058D01*
X042775Y026900D02*
X041045Y026900D01*
X041045Y026741D02*
X042775Y026741D01*
X042775Y026583D02*
X041045Y026583D01*
X041045Y026424D02*
X042775Y026424D01*
X042775Y026266D02*
X041045Y026266D01*
X041045Y026107D02*
X042775Y026107D01*
X042775Y025949D02*
X041045Y025949D01*
X041045Y025790D02*
X042775Y025790D01*
X042775Y025632D02*
X041045Y025632D01*
X041045Y025473D02*
X042775Y025473D01*
X042775Y025315D02*
X041045Y025315D01*
X041045Y025156D02*
X042775Y025156D01*
X042775Y024998D02*
X041045Y024998D01*
X041045Y024839D02*
X042775Y024839D01*
X042775Y024681D02*
X041045Y024681D01*
X041045Y024522D02*
X042775Y024522D01*
X042775Y024364D02*
X041045Y024364D01*
X041045Y024205D02*
X042775Y024205D01*
X042775Y024047D02*
X041045Y024047D01*
X041045Y023888D02*
X042775Y023888D01*
X042775Y023730D02*
X041045Y023730D01*
X041045Y023571D02*
X042775Y023571D01*
X042775Y023413D02*
X041045Y023413D01*
X041045Y023254D02*
X042775Y023254D01*
X042775Y023096D02*
X041045Y023096D01*
X041045Y022937D02*
X042775Y022937D01*
X042775Y022779D02*
X041045Y022779D01*
X041045Y022620D02*
X042775Y022620D01*
X042775Y022462D02*
X041045Y022462D01*
X041045Y022303D02*
X042775Y022303D01*
X042775Y022145D02*
X041045Y022145D01*
X041045Y021986D02*
X042775Y021986D01*
X042775Y021828D02*
X041045Y021828D01*
X041045Y021669D02*
X042775Y021669D01*
X042775Y021511D02*
X041045Y021511D01*
X041045Y021352D02*
X042775Y021352D01*
X042775Y021194D02*
X041045Y021194D01*
X041045Y021035D02*
X042775Y021035D01*
X042775Y020877D02*
X041045Y020877D01*
X041045Y020718D02*
X042775Y020718D01*
X042775Y020560D02*
X041045Y020560D01*
X041045Y020401D02*
X042775Y020401D01*
X042775Y020243D02*
X041045Y020243D01*
X041045Y020084D02*
X042775Y020084D01*
X042775Y019926D02*
X041045Y019926D01*
X041045Y019767D02*
X042775Y019767D01*
X042775Y019609D02*
X041045Y019609D01*
X041045Y019450D02*
X042775Y019450D01*
X042775Y019292D02*
X041045Y019292D01*
X041045Y019133D02*
X042775Y019133D01*
X042775Y018975D02*
X041045Y018975D01*
X041045Y018816D02*
X042775Y018816D01*
X042775Y018658D02*
X041045Y018658D01*
X041045Y018499D02*
X042775Y018499D01*
X042775Y018341D02*
X041045Y018341D01*
X041045Y018182D02*
X042775Y018182D01*
X042775Y018024D02*
X041045Y018024D01*
X041045Y017865D02*
X042775Y017865D01*
X042775Y017707D02*
X041045Y017707D01*
X041045Y017548D02*
X042775Y017548D01*
X042775Y017390D02*
X041045Y017390D01*
X041045Y017231D02*
X042775Y017231D01*
X042775Y017073D02*
X041045Y017073D01*
X041045Y016914D02*
X042775Y016914D01*
X042775Y016756D02*
X041045Y016756D01*
X041045Y016597D02*
X042775Y016597D01*
X042775Y016439D02*
X041045Y016439D01*
X041045Y016280D02*
X042775Y016280D01*
X042775Y016122D02*
X041045Y016122D01*
X041045Y015963D02*
X042775Y015963D01*
X042775Y015805D02*
X041045Y015805D01*
X041045Y015646D02*
X042775Y015646D01*
X042775Y015488D02*
X041045Y015488D01*
X041045Y015329D02*
X042775Y015329D01*
X042775Y015171D02*
X041045Y015171D01*
X041045Y015012D02*
X042775Y015012D01*
X042775Y014854D02*
X041045Y014854D01*
X041045Y014695D02*
X042775Y014695D01*
X042775Y014537D02*
X041045Y014537D01*
X041045Y014378D02*
X042775Y014378D01*
X042775Y014220D02*
X041045Y014220D01*
X041045Y014061D02*
X042775Y014061D01*
X042775Y013903D02*
X041045Y013903D01*
X041045Y013744D02*
X042775Y013744D01*
X042775Y013586D02*
X041045Y013586D01*
X041045Y013427D02*
X042775Y013427D01*
X042775Y013269D02*
X041045Y013269D01*
X041045Y013110D02*
X042775Y013110D01*
X042775Y012952D02*
X041045Y012952D01*
X041045Y012793D02*
X042775Y012793D01*
X042775Y012635D02*
X041045Y012635D01*
X041045Y012476D02*
X042775Y012476D01*
X042775Y012318D02*
X041045Y012318D01*
X041045Y012159D02*
X042775Y012159D01*
X042775Y012001D02*
X041045Y012001D01*
X041045Y011842D02*
X042775Y011842D01*
X042775Y011684D02*
X041035Y011684D01*
X040968Y011525D02*
X042775Y011525D01*
X042775Y011367D02*
X040809Y011367D01*
X040833Y011390D02*
X040833Y011390D01*
X040651Y011208D02*
X042775Y011208D01*
X042775Y011050D02*
X040492Y011050D01*
X040334Y010891D02*
X042775Y010891D01*
X042775Y010733D02*
X040175Y010733D01*
X040017Y010574D02*
X042775Y010574D01*
X042775Y010416D02*
X039858Y010416D01*
X039700Y010257D02*
X042775Y010257D01*
X042775Y010099D02*
X039541Y010099D01*
X039383Y009940D02*
X042775Y009940D01*
X042775Y009782D02*
X039224Y009782D01*
X039066Y009623D02*
X042775Y009623D01*
X042775Y009465D02*
X038907Y009465D01*
X038749Y009306D02*
X042775Y009306D01*
X042775Y009148D02*
X038590Y009148D01*
X038432Y008989D02*
X042775Y008989D01*
X042775Y008831D02*
X038273Y008831D01*
X038115Y008672D02*
X042775Y008672D01*
X042775Y008514D02*
X037956Y008514D01*
X037798Y008355D02*
X042775Y008355D01*
X042775Y008197D02*
X037639Y008197D01*
X037481Y008038D02*
X042775Y008038D01*
X042775Y007880D02*
X037322Y007880D01*
X037164Y007721D02*
X042775Y007721D01*
X042775Y007563D02*
X037005Y007563D01*
X036847Y007404D02*
X042775Y007404D01*
X042775Y007246D02*
X036688Y007246D01*
X036530Y007087D02*
X042775Y007087D01*
X042775Y006929D02*
X036371Y006929D01*
X036213Y006770D02*
X042775Y006770D01*
X042775Y006612D02*
X036054Y006612D01*
X035896Y006453D02*
X042775Y006453D01*
X042775Y006295D02*
X035737Y006295D01*
X035579Y006136D02*
X042775Y006136D01*
X042775Y005978D02*
X035420Y005978D01*
X035262Y005819D02*
X042775Y005819D01*
X042775Y005661D02*
X035103Y005661D01*
X034945Y005502D02*
X042775Y005502D01*
X042775Y005344D02*
X034786Y005344D01*
X034628Y005185D02*
X042775Y005185D01*
X042775Y005027D02*
X034469Y005027D01*
X034311Y004868D02*
X042775Y004868D01*
X042775Y004710D02*
X034152Y004710D01*
X033994Y004551D02*
X042775Y004551D01*
X042775Y004393D02*
X033835Y004393D01*
X033677Y004234D02*
X042775Y004234D01*
X042775Y004076D02*
X033518Y004076D01*
X033360Y003917D02*
X042775Y003917D01*
X042775Y003759D02*
X033201Y003759D01*
X033043Y003600D02*
X039233Y003600D01*
X039156Y003568D02*
X039368Y003656D01*
X039597Y003656D01*
X039808Y003568D01*
X039970Y003406D01*
X040057Y003195D01*
X040057Y002966D01*
X042775Y002966D01*
X042775Y002808D02*
X039992Y002808D01*
X039970Y002755D02*
X040057Y002966D01*
X040057Y003125D02*
X042775Y003125D01*
X042775Y003283D02*
X040021Y003283D01*
X039935Y003442D02*
X042775Y003442D01*
X042775Y003600D02*
X039731Y003600D01*
X039156Y003568D02*
X038994Y003406D01*
X038907Y003195D01*
X038943Y003283D02*
X032726Y003283D01*
X032884Y003442D02*
X039030Y003442D01*
X039864Y002649D02*
X042775Y002649D01*
X039970Y002755D02*
X039808Y002593D01*
X039597Y002505D01*
X039368Y002505D01*
X039156Y002593D01*
X034510Y006453D02*
X030901Y006453D01*
X030914Y006612D02*
X034669Y006612D01*
X034827Y006770D02*
X030847Y006770D01*
X030802Y006295D02*
X034352Y006295D01*
X035303Y007246D02*
X030745Y007246D01*
X030881Y007404D02*
X035461Y007404D01*
X035620Y007563D02*
X030914Y007563D01*
X030875Y007721D02*
X035778Y007721D01*
X032925Y004868D02*
X030865Y004868D01*
X030914Y004710D02*
X032767Y004710D01*
X032608Y004551D02*
X031816Y004551D01*
X031907Y004393D02*
X032450Y004393D01*
X031023Y002966D02*
X030877Y002966D01*
X030414Y003600D02*
X030321Y003600D01*
X030039Y003600D02*
X029946Y003600D01*
X029664Y003600D02*
X029571Y003600D01*
X029289Y003600D02*
X028338Y003600D01*
X028179Y003759D02*
X029113Y003759D01*
X029071Y003917D02*
X028021Y003917D01*
X027957Y004076D02*
X027862Y004076D01*
X027798Y004234D02*
X027704Y004234D01*
X027640Y004393D02*
X027545Y004393D01*
X027481Y004551D02*
X027387Y004551D01*
X027323Y004710D02*
X027228Y004710D01*
X027164Y004868D02*
X027070Y004868D01*
X027006Y005027D02*
X026911Y005027D01*
X026847Y005185D02*
X026753Y005185D01*
X026689Y005344D02*
X026594Y005344D01*
X026610Y005502D02*
X026436Y005502D01*
X026277Y005661D02*
X026610Y005661D01*
X026610Y005819D02*
X026119Y005819D01*
X025960Y005978D02*
X026610Y005978D01*
X026610Y006136D02*
X025802Y006136D01*
X025750Y006295D02*
X026610Y006295D01*
X026610Y006453D02*
X025750Y006453D01*
X025750Y006612D02*
X026610Y006612D01*
X026610Y006770D02*
X025750Y006770D01*
X025750Y006929D02*
X026610Y006929D01*
X026610Y007087D02*
X025750Y007087D01*
X025750Y007246D02*
X026610Y007246D01*
X026604Y007404D02*
X025750Y007404D01*
X025055Y007555D02*
X025055Y012180D01*
X025110Y012635D02*
X024875Y012635D01*
X024875Y012793D02*
X025110Y012793D01*
X025110Y012952D02*
X024875Y012952D01*
X024875Y013110D02*
X025110Y013110D01*
X025110Y013269D02*
X024875Y013269D01*
X024875Y013427D02*
X025110Y013427D01*
X025110Y013586D02*
X024904Y013586D01*
X024914Y013744D02*
X025110Y013744D01*
X025110Y013903D02*
X024840Y013903D01*
X025110Y014061D02*
X023750Y014061D01*
X023750Y013903D02*
X024270Y013903D01*
X024196Y013744D02*
X023750Y013744D01*
X023750Y013586D02*
X024206Y013586D01*
X024235Y013427D02*
X023750Y013427D01*
X023750Y013269D02*
X024235Y013269D01*
X024235Y013110D02*
X023750Y013110D01*
X023750Y012952D02*
X024235Y012952D01*
X024235Y012793D02*
X023750Y012793D01*
X023750Y012635D02*
X024235Y012635D01*
X024235Y012476D02*
X023750Y012476D01*
X023750Y012318D02*
X024235Y012318D01*
X024555Y013680D02*
X024555Y006930D01*
X024953Y006929D02*
X025110Y006929D01*
X025110Y007087D02*
X024921Y007087D01*
X024920Y006770D02*
X025110Y006770D01*
X025110Y006612D02*
X024800Y006612D01*
X025110Y006453D02*
X022425Y006453D01*
X022453Y006295D02*
X025110Y006295D01*
X025110Y006136D02*
X022416Y006136D01*
X022405Y005978D02*
X025116Y005978D01*
X025213Y005819D02*
X022405Y005819D01*
X022405Y005661D02*
X025372Y005661D01*
X025530Y005502D02*
X022405Y005502D01*
X022405Y005344D02*
X025689Y005344D01*
X025847Y005185D02*
X022405Y005185D01*
X022405Y005027D02*
X026006Y005027D01*
X026164Y004868D02*
X022405Y004868D01*
X022405Y004710D02*
X026323Y004710D01*
X026481Y004551D02*
X022405Y004551D01*
X022405Y004393D02*
X026640Y004393D01*
X026798Y004234D02*
X022405Y004234D01*
X022405Y004076D02*
X026957Y004076D01*
X027115Y003917D02*
X022405Y003917D01*
X022405Y003759D02*
X027274Y003759D01*
X027432Y003600D02*
X022405Y003600D01*
X022405Y003442D02*
X027591Y003442D01*
X027749Y003283D02*
X022405Y003283D01*
X022405Y003125D02*
X026240Y003125D01*
X026013Y002966D02*
X022405Y002966D01*
X022405Y002808D02*
X025801Y002808D01*
X025590Y002649D02*
X022405Y002649D01*
X022405Y002491D02*
X025532Y002491D01*
X025540Y002332D02*
X022405Y002332D01*
X022405Y002174D02*
X025623Y002174D01*
X025930Y002430D02*
X026305Y002805D01*
X028680Y002805D01*
X025430Y006055D01*
X025430Y017805D01*
X024805Y017867D02*
X024805Y016055D01*
X023430Y014680D01*
X023750Y014537D02*
X025110Y014537D01*
X025110Y014695D02*
X023898Y014695D01*
X024056Y014854D02*
X025110Y014854D01*
X025110Y015012D02*
X024215Y015012D01*
X024373Y015171D02*
X025110Y015171D01*
X025110Y015329D02*
X024532Y015329D01*
X024690Y015488D02*
X025110Y015488D01*
X025110Y015646D02*
X024849Y015646D01*
X025007Y015805D02*
X025110Y015805D01*
X025110Y014378D02*
X023750Y014378D01*
X023750Y014220D02*
X025110Y014220D01*
X021755Y015554D02*
X019493Y013292D01*
X019494Y013295D01*
X019494Y013502D01*
X019415Y013693D01*
X019316Y013792D01*
X019415Y013891D01*
X019494Y014082D01*
X019494Y014167D01*
X021236Y015909D01*
X021326Y015999D01*
X021375Y016116D01*
X021375Y017865D01*
X021483Y017820D01*
X022502Y017820D01*
X022634Y017875D01*
X022735Y017976D01*
X022735Y017866D01*
X022735Y016806D01*
X022626Y016851D01*
X022484Y016851D01*
X022352Y016797D01*
X022305Y016750D01*
X022258Y016797D01*
X022126Y016851D01*
X021984Y016851D01*
X021852Y016797D01*
X021751Y016696D01*
X021696Y016564D01*
X021696Y016421D01*
X021751Y016289D01*
X021755Y016285D01*
X021755Y015554D01*
X021755Y015646D02*
X020974Y015646D01*
X021132Y015805D02*
X021755Y015805D01*
X021755Y015963D02*
X021291Y015963D01*
X021375Y016122D02*
X021755Y016122D01*
X021755Y016280D02*
X021375Y016280D01*
X021375Y016439D02*
X021696Y016439D01*
X021710Y016597D02*
X021375Y016597D01*
X021375Y016756D02*
X021811Y016756D01*
X021375Y016914D02*
X022735Y016914D01*
X022735Y017073D02*
X021375Y017073D01*
X021375Y017231D02*
X022735Y017231D01*
X022735Y017390D02*
X021375Y017390D01*
X021375Y017548D02*
X022735Y017548D01*
X022735Y017707D02*
X021375Y017707D01*
X022610Y017865D02*
X022735Y017865D01*
X022311Y016756D02*
X022299Y016756D01*
X021688Y015488D02*
X020815Y015488D01*
X020657Y015329D02*
X021530Y015329D01*
X021371Y015171D02*
X020498Y015171D01*
X020340Y015012D02*
X021213Y015012D01*
X021054Y014854D02*
X020181Y014854D01*
X020023Y014695D02*
X020896Y014695D01*
X020737Y014537D02*
X019864Y014537D01*
X019706Y014378D02*
X020579Y014378D01*
X020420Y014220D02*
X019547Y014220D01*
X019485Y014061D02*
X020262Y014061D01*
X020103Y013903D02*
X019420Y013903D01*
X019364Y013744D02*
X019945Y013744D01*
X019786Y013586D02*
X019460Y013586D01*
X019494Y013427D02*
X019628Y013427D01*
X018533Y012317D02*
X018633Y012217D01*
X018533Y012118D01*
X018454Y011927D01*
X018454Y011720D01*
X018533Y011529D01*
X018633Y011430D01*
X018533Y011331D01*
X018454Y011140D01*
X018454Y010933D01*
X018533Y010742D01*
X018633Y010643D01*
X018533Y010543D01*
X018454Y010352D01*
X018454Y010145D01*
X018533Y009954D01*
X018633Y009855D01*
X018533Y009756D01*
X018454Y009565D01*
X018454Y009358D01*
X018533Y009167D01*
X018633Y009068D01*
X018533Y008969D01*
X018454Y008778D01*
X018454Y008571D01*
X018533Y008380D01*
X018680Y008233D01*
X018694Y008227D01*
X018688Y008222D01*
X018639Y008173D01*
X018598Y008117D01*
X018567Y008056D01*
X018545Y007990D01*
X018534Y007921D01*
X018534Y007887D01*
X018974Y007887D01*
X018974Y007887D01*
X018534Y007887D01*
X018534Y007852D01*
X018545Y007784D01*
X018567Y007718D01*
X018598Y007656D01*
X018639Y007600D01*
X018688Y007551D01*
X018744Y007510D01*
X018803Y007480D01*
X012745Y007480D01*
X012721Y007470D01*
X012497Y007470D01*
X012391Y007426D01*
X012309Y007344D01*
X012229Y007264D01*
X012133Y007359D01*
X012001Y007414D01*
X011859Y007414D01*
X011765Y007375D01*
X011275Y007375D01*
X011148Y007375D01*
X011086Y007350D01*
X011030Y007326D01*
X011029Y007325D01*
X010940Y007236D01*
X009039Y005335D01*
X008946Y005297D01*
X008845Y005196D01*
X008790Y005064D01*
X008790Y004921D01*
X008809Y004875D01*
X007470Y004875D01*
X007376Y004914D01*
X007234Y004914D01*
X007152Y004880D01*
X006983Y005049D01*
X006936Y005095D01*
X006893Y005139D01*
X006893Y005139D01*
X006893Y005139D01*
X006831Y005164D01*
X006825Y005167D01*
X006825Y005293D01*
X006788Y005381D01*
X006721Y005448D01*
X006633Y005485D01*
X006077Y005485D01*
X005989Y005448D01*
X005945Y005405D01*
X005790Y005405D01*
X005790Y004965D01*
X005720Y004965D01*
X005720Y005405D01*
X005504Y005405D01*
X005463Y005394D01*
X005427Y005373D01*
X005397Y005343D01*
X005376Y005307D01*
X005365Y005266D01*
X005365Y004965D01*
X005720Y004965D01*
X005720Y004895D01*
X005365Y004895D01*
X005365Y004594D01*
X005376Y004553D01*
X005397Y004517D01*
X005427Y004487D01*
X005456Y004470D01*
X004269Y004470D01*
X004189Y004550D01*
X004189Y005463D01*
X004380Y005271D01*
X004420Y005232D01*
X004459Y005193D01*
X004459Y005193D01*
X004459Y005193D01*
X004509Y005172D01*
X004562Y005150D01*
X004620Y005150D01*
X004673Y005150D01*
X004673Y005150D01*
X004765Y005150D01*
X004789Y005126D01*
X004921Y005071D01*
X005064Y005071D01*
X005196Y005126D01*
X005297Y005227D01*
X005351Y005359D01*
X005351Y005501D01*
X005297Y005633D01*
X005196Y005734D01*
X005121Y005765D01*
X005238Y005765D02*
X005238Y005765D01*
X005238Y005765D01*
X005269Y005661D02*
X007109Y005661D01*
X007109Y005819D02*
X005354Y005819D01*
X005513Y005978D02*
X007109Y005978D01*
X007109Y006136D02*
X005671Y006136D01*
X005830Y006295D02*
X007109Y006295D01*
X007689Y005819D02*
X007851Y005819D01*
X007689Y005661D02*
X009364Y005661D01*
X009523Y005819D02*
X008134Y005819D01*
X007993Y006149D02*
X009055Y006149D01*
X010555Y007649D01*
X010818Y007404D02*
X011835Y007404D01*
X012025Y007404D02*
X012369Y007404D01*
X011930Y007055D02*
X011211Y007055D01*
X009149Y004992D01*
X008790Y005027D02*
X007588Y005027D01*
X007724Y005185D02*
X008840Y005185D01*
X009047Y005344D02*
X007757Y005344D01*
X007718Y005502D02*
X009206Y005502D01*
X009119Y005829D02*
X009119Y005829D01*
X009119Y005829D01*
X009336Y005978D02*
X009681Y005978D01*
X009840Y006136D02*
X009495Y006136D01*
X009653Y006295D02*
X009998Y006295D01*
X010157Y006453D02*
X009812Y006453D01*
X009970Y006612D02*
X010315Y006612D01*
X010474Y006770D02*
X010129Y006770D01*
X010287Y006929D02*
X010632Y006929D01*
X010791Y007087D02*
X010446Y007087D01*
X010604Y007246D02*
X010949Y007246D01*
X010940Y007236D02*
X010940Y007236D01*
X011030Y007326D02*
X011030Y007326D01*
X010908Y007563D02*
X018676Y007563D01*
X018565Y007721D02*
X010913Y007721D01*
X010832Y007880D02*
X018534Y007880D01*
X018561Y008038D02*
X010616Y008038D01*
X010774Y008197D02*
X018662Y008197D01*
X018558Y008355D02*
X010933Y008355D01*
X011091Y008514D02*
X018478Y008514D01*
X018454Y008672D02*
X011532Y008672D01*
X011691Y008831D02*
X012032Y008831D01*
X012123Y008740D02*
X011865Y008998D01*
X011865Y009160D01*
X012285Y009160D01*
X012325Y009160D01*
X012325Y009200D01*
X012285Y009200D01*
X012285Y009160D01*
X012285Y008740D01*
X012123Y008740D01*
X012285Y008831D02*
X012325Y008831D01*
X012325Y008740D02*
X012487Y008740D01*
X012745Y008998D01*
X012745Y009160D01*
X012325Y009160D01*
X012325Y008740D01*
X012325Y008989D02*
X012285Y008989D01*
X012285Y009148D02*
X012325Y009148D01*
X012325Y009200D02*
X012745Y009200D01*
X012745Y009362D01*
X012487Y009620D01*
X012325Y009620D01*
X012325Y009200D01*
X012325Y009306D02*
X012285Y009306D01*
X012285Y009465D02*
X012325Y009465D01*
X012201Y009623D02*
X018478Y009623D01*
X018454Y009465D02*
X012643Y009465D01*
X012745Y009306D02*
X018476Y009306D01*
X018553Y009148D02*
X012745Y009148D01*
X012736Y008989D02*
X018554Y008989D01*
X018476Y008831D02*
X012578Y008831D01*
X011874Y008989D02*
X011825Y008989D01*
X011825Y009148D02*
X011865Y009148D01*
X011865Y009306D02*
X011825Y009306D01*
X011805Y009680D02*
X012305Y010180D01*
X012646Y010574D02*
X013154Y010574D01*
X013072Y010733D02*
X012593Y010733D01*
X012805Y010416D02*
X013367Y010416D01*
X013525Y010257D02*
X012825Y010257D01*
X012825Y010099D02*
X013684Y010099D01*
X013839Y009940D02*
X012800Y009940D01*
X012642Y009782D02*
X013946Y009782D01*
X014180Y010055D02*
X013430Y010805D01*
X013955Y010733D02*
X018543Y010733D01*
X018564Y010574D02*
X014114Y010574D01*
X014272Y010416D02*
X018480Y010416D01*
X018454Y010257D02*
X014485Y010257D01*
X014539Y010099D02*
X018474Y010099D01*
X018548Y009940D02*
X014521Y009940D01*
X014414Y009782D02*
X018559Y009782D01*
X018472Y010891D02*
X014694Y010891D01*
X014877Y011050D02*
X018454Y011050D01*
X018483Y011208D02*
X015036Y011208D01*
X015194Y011367D02*
X018569Y011367D01*
X018538Y011525D02*
X015337Y011525D01*
X015375Y011684D02*
X018470Y011684D01*
X018454Y011842D02*
X015375Y011842D01*
X015375Y012001D02*
X018485Y012001D01*
X018574Y012159D02*
X015375Y012159D01*
X015055Y011680D02*
X015055Y013680D01*
X014555Y013180D02*
X014555Y011961D01*
X015055Y011680D02*
X014555Y011180D01*
X012305Y011180D01*
X011805Y010680D01*
X011305Y011180D02*
X007555Y011180D01*
X006305Y009930D01*
X006305Y009430D01*
X006642Y009306D02*
X009603Y009306D01*
X009445Y009148D02*
X006530Y009148D01*
X006508Y009126D02*
X006609Y009227D01*
X006664Y009359D01*
X006664Y009501D01*
X006625Y009595D01*
X006625Y009797D01*
X007688Y010860D01*
X010700Y010860D01*
X010684Y010844D01*
X010571Y010731D01*
X010499Y010701D01*
X010409Y010611D01*
X010360Y010494D01*
X010360Y010063D01*
X007985Y007688D01*
X007689Y007688D01*
X007595Y007726D01*
X007452Y007726D01*
X007370Y007692D01*
X006460Y008602D01*
X006422Y008696D01*
X006321Y008797D01*
X006189Y008851D01*
X006046Y008851D01*
X006031Y008845D01*
X005997Y008845D01*
X005891Y008801D01*
X005868Y008778D01*
X005845Y008800D01*
X005845Y008910D01*
X005918Y008910D01*
X006006Y008947D01*
X006073Y009014D01*
X006110Y009102D01*
X006110Y009122D01*
X006234Y009071D01*
X006376Y009071D01*
X006508Y009126D01*
X006239Y008831D02*
X009128Y008831D01*
X009286Y008989D02*
X006048Y008989D01*
X005962Y008831D02*
X005845Y008831D01*
X006118Y008493D02*
X007243Y007368D01*
X007524Y007368D01*
X008118Y007368D01*
X010680Y009930D01*
X010680Y010430D01*
X010360Y010416D02*
X007243Y010416D01*
X007402Y010574D02*
X010393Y010574D01*
X010572Y010733D02*
X007560Y010733D01*
X007085Y010257D02*
X010360Y010257D01*
X010360Y010099D02*
X006926Y010099D01*
X006768Y009940D02*
X010237Y009940D01*
X010079Y009782D02*
X006625Y009782D01*
X006625Y009623D02*
X009920Y009623D01*
X009762Y009465D02*
X006664Y009465D01*
X006431Y008672D02*
X008969Y008672D01*
X008811Y008514D02*
X006549Y008514D01*
X006708Y008355D02*
X008652Y008355D01*
X008494Y008197D02*
X006866Y008197D01*
X007025Y008038D02*
X008335Y008038D01*
X008177Y007880D02*
X007183Y007880D01*
X007342Y007721D02*
X007440Y007721D01*
X007608Y007721D02*
X008018Y007721D01*
X008586Y006461D02*
X011305Y009180D01*
X010684Y010844D02*
X010684Y010844D01*
X010733Y012320D02*
X010877Y012320D01*
X011009Y012375D01*
X011110Y012476D01*
X011695Y012476D01*
X011695Y012635D02*
X011165Y012635D01*
X011165Y012608D02*
X011165Y015281D01*
X011454Y015570D01*
X011752Y015570D01*
X011884Y015625D01*
X012204Y015945D01*
X013038Y015945D01*
X013005Y015865D01*
X013005Y013995D01*
X013051Y013885D01*
X013301Y013635D01*
X013385Y013551D01*
X013495Y013505D01*
X013777Y013505D01*
X012548Y012281D01*
X012415Y012281D01*
X012415Y014531D01*
X012860Y014976D01*
X012915Y015108D01*
X012915Y015252D01*
X012860Y015384D01*
X012759Y015485D01*
X012627Y015540D01*
X012483Y015540D01*
X012351Y015485D01*
X011750Y014884D01*
X011695Y014752D01*
X011695Y012281D01*
X011110Y012476D02*
X011165Y012608D01*
X011165Y012793D02*
X011695Y012793D01*
X011695Y012952D02*
X011165Y012952D01*
X011165Y013110D02*
X011695Y013110D01*
X011695Y013269D02*
X011165Y013269D01*
X011165Y013427D02*
X011695Y013427D01*
X011695Y013586D02*
X011165Y013586D01*
X011165Y013744D02*
X011695Y013744D01*
X011695Y013903D02*
X011165Y013903D01*
X011165Y014061D02*
X011695Y014061D01*
X011695Y014220D02*
X011165Y014220D01*
X011165Y014378D02*
X011695Y014378D01*
X011695Y014537D02*
X011165Y014537D01*
X011165Y014695D02*
X011695Y014695D01*
X011737Y014854D02*
X011165Y014854D01*
X011165Y015012D02*
X011878Y015012D01*
X012036Y015171D02*
X011165Y015171D01*
X011213Y015329D02*
X012195Y015329D01*
X012357Y015488D02*
X011372Y015488D01*
X011905Y015646D02*
X013005Y015646D01*
X013005Y015488D02*
X012753Y015488D01*
X012883Y015329D02*
X013005Y015329D01*
X013005Y015171D02*
X012915Y015171D01*
X012875Y015012D02*
X013005Y015012D01*
X013005Y014854D02*
X012738Y014854D01*
X012579Y014695D02*
X013005Y014695D01*
X013005Y014537D02*
X012421Y014537D01*
X012415Y014378D02*
X013005Y014378D01*
X013005Y014220D02*
X012415Y014220D01*
X012415Y014061D02*
X013005Y014061D01*
X013043Y013903D02*
X012415Y013903D01*
X012415Y013744D02*
X013192Y013744D01*
X013350Y013586D02*
X012415Y013586D01*
X012415Y013427D02*
X013699Y013427D01*
X013539Y013269D02*
X012415Y013269D01*
X012415Y013110D02*
X013380Y013110D01*
X013221Y012952D02*
X012415Y012952D01*
X012415Y012793D02*
X013062Y012793D01*
X012903Y012635D02*
X012415Y012635D01*
X012415Y012476D02*
X012743Y012476D01*
X012584Y012318D02*
X012415Y012318D01*
X013274Y011711D02*
X013430Y011555D01*
X013274Y011711D02*
X007336Y011711D01*
X005605Y009980D01*
X005555Y009980D01*
X004222Y011050D02*
X003372Y011050D01*
X003438Y011208D02*
X004380Y011208D01*
X004539Y011367D02*
X003475Y011367D01*
X003475Y011525D02*
X004697Y011525D01*
X004542Y011684D02*
X003425Y011684D01*
X003341Y011842D02*
X004384Y011842D01*
X004225Y012001D02*
X003178Y012001D01*
X003908Y012318D02*
X000710Y012318D01*
X000710Y012476D02*
X003750Y012476D01*
X003591Y012635D02*
X000710Y012635D01*
X000710Y012793D02*
X003433Y012793D01*
X003274Y012952D02*
X000710Y012952D01*
X000710Y013110D02*
X003195Y013110D01*
X003195Y013269D02*
X000710Y013269D01*
X000710Y013427D02*
X003195Y013427D01*
X003195Y013586D02*
X000710Y013586D01*
X000710Y013744D02*
X003195Y013744D01*
X003195Y013903D02*
X000710Y013903D01*
X000710Y014061D02*
X003195Y014061D01*
X003195Y014220D02*
X000710Y014220D01*
X000710Y014378D02*
X003195Y014378D01*
X003195Y014537D02*
X000710Y014537D01*
X000710Y014695D02*
X003195Y014695D01*
X003195Y014854D02*
X000710Y014854D01*
X000710Y015012D02*
X003195Y015012D01*
X003195Y015171D02*
X000710Y015171D01*
X000710Y015329D02*
X003195Y015329D01*
X003195Y015488D02*
X000710Y015488D01*
X000710Y015646D02*
X003195Y015646D01*
X003217Y015805D02*
X000710Y015805D01*
X000710Y015963D02*
X003329Y015963D01*
X003695Y016122D02*
X000710Y016122D01*
X000710Y016280D02*
X003695Y016280D01*
X003695Y016439D02*
X000710Y016439D01*
X000710Y016597D02*
X003695Y016597D01*
X003695Y016756D02*
X000710Y016756D01*
X000710Y016914D02*
X003695Y016914D01*
X003695Y017073D02*
X000710Y017073D01*
X000710Y017231D02*
X003695Y017231D01*
X003695Y017390D02*
X000710Y017390D01*
X000710Y017548D02*
X003695Y017548D01*
X003695Y017707D02*
X000710Y017707D01*
X000710Y017865D02*
X003695Y017865D01*
X003695Y018024D02*
X000710Y018024D01*
X000710Y018182D02*
X003695Y018182D01*
X003695Y018341D02*
X000710Y018341D01*
X000710Y018499D02*
X003695Y018499D01*
X003695Y018658D02*
X000710Y018658D01*
X000710Y018816D02*
X003695Y018816D01*
X003695Y018975D02*
X000710Y018975D01*
X000710Y019133D02*
X003695Y019133D01*
X003695Y019292D02*
X000710Y019292D01*
X000710Y019450D02*
X003695Y019450D01*
X003695Y019609D02*
X000710Y019609D01*
X000710Y019767D02*
X003695Y019767D01*
X003695Y019926D02*
X000710Y019926D01*
X000710Y020084D02*
X003695Y020084D01*
X003695Y020243D02*
X000710Y020243D01*
X000710Y020401D02*
X003695Y020401D01*
X003695Y020560D02*
X000710Y020560D01*
X000710Y020718D02*
X003695Y020718D01*
X003555Y021305D02*
X003555Y021680D01*
X004055Y022180D01*
X004055Y024867D01*
X004743Y025555D01*
X011430Y025555D01*
X011930Y026055D01*
X011959Y025632D02*
X012005Y025632D01*
X012005Y025473D02*
X011801Y025473D01*
X011701Y025374D02*
X011701Y025374D01*
X011642Y025315D02*
X012005Y025315D01*
X008555Y023055D02*
X007875Y023055D01*
X006555Y024305D01*
X006099Y024047D02*
X006011Y024047D01*
X005873Y023888D02*
X006237Y023888D01*
X006697Y023730D02*
X005497Y023730D01*
X005540Y023571D02*
X006865Y023571D01*
X007032Y023413D02*
X005511Y023413D01*
X005388Y023254D02*
X007199Y023254D01*
X007367Y023096D02*
X005230Y023096D01*
X005228Y022937D02*
X007534Y022937D01*
X007702Y022779D02*
X005228Y022779D01*
X005601Y024839D02*
X004479Y024839D01*
X004638Y024998D02*
X005742Y024998D01*
X005883Y025156D02*
X004796Y025156D01*
X004538Y026900D02*
X005766Y026900D01*
X005696Y027058D02*
X004380Y027058D01*
X004375Y027217D02*
X005708Y027217D01*
X005805Y027375D02*
X004375Y027375D01*
X004490Y028168D02*
X004620Y028168D01*
X005490Y028168D02*
X005620Y028168D01*
X006490Y028168D02*
X006620Y028168D01*
X006746Y029277D02*
X006364Y029277D01*
X005746Y029277D02*
X005364Y029277D01*
X004746Y029277D02*
X004364Y029277D01*
X002198Y030862D02*
X041287Y030862D01*
X041224Y031021D02*
X002261Y031021D01*
X002261Y031179D02*
X041224Y031179D01*
X041224Y031338D02*
X002261Y031338D01*
X002199Y031496D02*
X041286Y031496D01*
X041354Y031655D02*
X002131Y031655D01*
X001972Y031813D02*
X041513Y031813D01*
X041356Y030704D02*
X002129Y030704D01*
X001971Y030545D02*
X041514Y030545D01*
X041799Y030387D02*
X001686Y030387D01*
X001174Y030387D02*
X000710Y030387D01*
X000710Y030545D02*
X000889Y030545D01*
X000731Y030704D02*
X000710Y030704D01*
X010490Y028168D02*
X010620Y028168D01*
X018345Y020560D02*
X018501Y020560D01*
X018495Y020401D02*
X018660Y020401D01*
X018645Y020243D02*
X018818Y020243D01*
X018877Y020084D02*
X018894Y020084D01*
X014360Y016320D02*
X014165Y016320D01*
X014165Y016233D01*
X014110Y016101D01*
X014009Y016000D01*
X013877Y015945D01*
X013869Y015945D01*
X013605Y015681D01*
X013605Y015183D01*
X014360Y015938D01*
X014360Y016320D01*
X014360Y016280D02*
X014165Y016280D01*
X014119Y016122D02*
X014360Y016122D01*
X014360Y015963D02*
X013920Y015963D01*
X013729Y015805D02*
X014227Y015805D01*
X014068Y015646D02*
X013605Y015646D01*
X013605Y015488D02*
X013910Y015488D01*
X013751Y015329D02*
X013605Y015329D01*
X013005Y015805D02*
X012064Y015805D01*
X010305Y015930D02*
X010305Y013055D01*
X010060Y012793D02*
X009906Y012793D01*
X009960Y012952D02*
X009743Y012952D01*
X009625Y013110D02*
X009946Y013110D01*
X009985Y013269D02*
X009625Y013269D01*
X009625Y013427D02*
X009985Y013427D01*
X009985Y013586D02*
X009625Y013586D01*
X009625Y013744D02*
X009985Y013744D01*
X009985Y013903D02*
X009625Y013903D01*
X009625Y014061D02*
X009985Y014061D01*
X009985Y014220D02*
X009625Y014220D01*
X009625Y014378D02*
X009985Y014378D01*
X009985Y014537D02*
X009625Y014537D01*
X009625Y014695D02*
X009985Y014695D01*
X009985Y014854D02*
X009625Y014854D01*
X009625Y015012D02*
X009985Y015012D01*
X009985Y015171D02*
X009625Y015171D01*
X009590Y015329D02*
X009985Y015329D01*
X009985Y015488D02*
X009450Y015488D01*
X009292Y015646D02*
X009985Y015646D01*
X009969Y015805D02*
X009133Y015805D01*
X008975Y015963D02*
X009946Y015963D01*
X009996Y016122D02*
X008816Y016122D01*
X008946Y016280D02*
X008658Y016280D01*
X008499Y016439D02*
X008839Y016439D01*
X008820Y016597D02*
X008341Y016597D01*
X008182Y016756D02*
X008873Y016756D01*
X009106Y016914D02*
X008024Y016914D01*
X008305Y018430D02*
X009399Y018430D01*
X010070Y012635D02*
X010445Y012635D01*
X010500Y012476D02*
X010601Y012375D01*
X010733Y012320D01*
X004067Y012159D02*
X000710Y012159D01*
X000710Y012001D02*
X002432Y012001D01*
X002269Y011842D02*
X000710Y011842D01*
X000710Y011684D02*
X002185Y011684D01*
X002135Y011525D02*
X000710Y011525D01*
X000710Y011367D02*
X002135Y011367D01*
X002172Y011208D02*
X000710Y011208D01*
X000710Y011050D02*
X002238Y011050D01*
X002318Y010891D02*
X000710Y010891D01*
X000710Y010733D02*
X002205Y010733D01*
X002139Y010574D02*
X000710Y010574D01*
X000710Y010416D02*
X002135Y010416D01*
X002151Y010257D02*
X000710Y010257D01*
X000710Y010099D02*
X002217Y010099D01*
X002347Y009940D02*
X000710Y009940D01*
X000710Y009782D02*
X002331Y009782D01*
X002247Y009623D02*
X000710Y009623D01*
X000710Y009465D02*
X002215Y009465D01*
X002227Y009306D02*
X000710Y009306D01*
X000710Y009148D02*
X002287Y009148D01*
X002412Y008989D02*
X000710Y008989D01*
X000710Y008831D02*
X002258Y008831D01*
X003198Y008989D02*
X003693Y008989D01*
X003766Y009148D02*
X003323Y009148D01*
X003383Y009306D02*
X003766Y009306D01*
X003766Y009465D02*
X003395Y009465D01*
X003363Y009623D02*
X003766Y009623D01*
X003766Y009782D02*
X003279Y009782D01*
X003263Y009940D02*
X003766Y009940D01*
X003766Y010099D02*
X003393Y010099D01*
X003459Y010257D02*
X003766Y010257D01*
X003766Y010416D02*
X003475Y010416D01*
X003471Y010574D02*
X003787Y010574D01*
X003905Y010733D02*
X003405Y010733D01*
X003292Y010891D02*
X004063Y010891D01*
X003534Y008831D02*
X003352Y008831D01*
X004189Y005344D02*
X004308Y005344D01*
X004380Y005271D02*
X004380Y005271D01*
X004477Y005185D02*
X004189Y005185D01*
X004189Y005027D02*
X005365Y005027D01*
X005365Y005185D02*
X005255Y005185D01*
X005345Y005344D02*
X005397Y005344D01*
X005351Y005502D02*
X007079Y005502D01*
X007040Y005344D02*
X006804Y005344D01*
X006825Y005185D02*
X007073Y005185D01*
X006983Y005049D02*
X006983Y005049D01*
X007005Y005027D02*
X007209Y005027D01*
X007024Y004555D02*
X006711Y004868D01*
X006417Y004868D01*
X006355Y004930D01*
X005790Y005027D02*
X005720Y005027D01*
X005720Y005185D02*
X005790Y005185D01*
X005790Y005344D02*
X005720Y005344D01*
X005365Y004868D02*
X004189Y004868D01*
X004189Y004710D02*
X005365Y004710D01*
X005377Y004551D02*
X004189Y004551D01*
X003533Y003917D02*
X003475Y003917D01*
X003459Y003759D02*
X003691Y003759D01*
X003394Y003600D02*
X007725Y003600D01*
X007883Y003442D02*
X003264Y003442D01*
X003278Y003283D02*
X008042Y003283D01*
X008200Y003125D02*
X003362Y003125D01*
X003395Y002966D02*
X009011Y002966D01*
X008982Y002808D02*
X003383Y002808D01*
X003380Y002792D02*
X003395Y002884D01*
X003395Y002902D01*
X002833Y002902D01*
X002833Y002340D01*
X002851Y002340D01*
X002943Y002355D01*
X003031Y002383D01*
X003114Y002425D01*
X003189Y002480D01*
X003255Y002546D01*
X003310Y002621D01*
X003352Y002704D01*
X003380Y002792D01*
X003324Y002649D02*
X006595Y002649D01*
X006451Y002491D02*
X003200Y002491D01*
X002833Y002491D02*
X002777Y002491D01*
X002777Y002649D02*
X002833Y002649D01*
X002833Y002808D02*
X002777Y002808D01*
X001053Y002174D02*
X000710Y002174D01*
X000710Y002332D02*
X006407Y002332D01*
X007024Y004555D02*
X007305Y004555D01*
X010680Y004555D01*
X010930Y004805D01*
X010930Y004805D01*
X013237Y005661D02*
X021705Y005661D01*
X021705Y005502D02*
X013404Y005502D01*
X013453Y005344D02*
X021705Y005344D01*
X021705Y005185D02*
X013436Y005185D01*
X013415Y005027D02*
X021705Y005027D01*
X021705Y004868D02*
X013415Y004868D01*
X013415Y004710D02*
X021705Y004710D01*
X021705Y004551D02*
X013415Y004551D01*
X013415Y004393D02*
X021705Y004393D01*
X021705Y004234D02*
X013415Y004234D01*
X013415Y004076D02*
X021705Y004076D01*
X021705Y003917D02*
X013415Y003917D01*
X013415Y003759D02*
X021705Y003759D01*
X021705Y003600D02*
X013415Y003600D01*
X013415Y003442D02*
X021705Y003442D01*
X021705Y003283D02*
X013415Y003283D01*
X013370Y003125D02*
X021705Y003125D01*
X021705Y002966D02*
X013225Y002966D01*
X013067Y002808D02*
X017693Y002808D01*
X018167Y002808D02*
X021705Y002808D01*
X021705Y002649D02*
X020154Y002649D01*
X020312Y002491D02*
X021705Y002491D01*
X021705Y002332D02*
X020471Y002332D01*
X020629Y002174D02*
X021705Y002174D01*
X021705Y002015D02*
X020788Y002015D01*
X020946Y001857D02*
X021705Y001857D01*
X020512Y000906D02*
X018202Y000906D01*
X018361Y001064D02*
X020353Y001064D01*
X020195Y001223D02*
X018405Y001223D01*
X018405Y001381D02*
X020036Y001381D01*
X019878Y001540D02*
X018367Y001540D01*
X018209Y001698D02*
X019719Y001698D01*
X017930Y001223D02*
X017930Y001223D01*
X017930Y001064D02*
X017930Y001064D01*
X017930Y000906D02*
X017930Y000906D01*
X022312Y006612D02*
X024310Y006612D01*
X031845Y013110D02*
X037515Y013110D01*
X037359Y013269D02*
X032001Y013269D01*
X032184Y013427D02*
X037321Y013427D01*
X037356Y013586D02*
X032279Y013586D01*
X032289Y013744D02*
X037501Y013744D01*
X037645Y013903D02*
X032215Y013903D01*
X034556Y014854D02*
X038475Y014854D01*
X038475Y014930D02*
X038475Y014770D01*
X038635Y014770D01*
X038635Y014930D01*
X038475Y014930D01*
X038475Y015440D01*
X037649Y015440D01*
X037557Y015425D01*
X037469Y015397D01*
X037386Y015355D01*
X037311Y015300D01*
X037245Y015234D01*
X037190Y015159D01*
X037148Y015076D01*
X037120Y014988D01*
X037110Y014930D01*
X038475Y014930D01*
X038475Y015012D02*
X038635Y015012D01*
X038635Y014930D02*
X038635Y015435D01*
X038693Y015425D01*
X038781Y015397D01*
X038864Y015355D01*
X038939Y015300D01*
X039005Y015234D01*
X039060Y015159D01*
X039102Y015076D01*
X039130Y014988D01*
X039140Y014930D01*
X038635Y014930D01*
X038635Y014854D02*
X040065Y014854D01*
X040065Y015012D02*
X039123Y015012D01*
X039051Y015171D02*
X040065Y015171D01*
X040065Y015329D02*
X038899Y015329D01*
X038635Y015329D02*
X038475Y015329D01*
X038475Y015171D02*
X038635Y015171D01*
X038635Y014770D02*
X039140Y014770D01*
X039130Y014712D01*
X039102Y014624D01*
X039060Y014541D01*
X039005Y014466D01*
X038939Y014400D01*
X038864Y014345D01*
X038781Y014303D01*
X038693Y014275D01*
X038635Y014265D01*
X038635Y014770D01*
X038635Y014695D02*
X038475Y014695D01*
X038475Y014770D02*
X038475Y014260D01*
X037649Y014260D01*
X037557Y014275D01*
X037469Y014303D01*
X037386Y014345D01*
X037311Y014400D01*
X037245Y014466D01*
X037190Y014541D01*
X037148Y014624D01*
X037120Y014712D01*
X037110Y014770D01*
X038475Y014770D01*
X038475Y014537D02*
X038635Y014537D01*
X038635Y014378D02*
X038475Y014378D01*
X038909Y014378D02*
X040065Y014378D01*
X040065Y014220D02*
X028875Y014220D01*
X028875Y014378D02*
X037341Y014378D01*
X037193Y014537D02*
X028875Y014537D01*
X029023Y014695D02*
X037125Y014695D01*
X037127Y015012D02*
X034715Y015012D01*
X034873Y015171D02*
X037199Y015171D01*
X037351Y015329D02*
X035032Y015329D01*
X035190Y015488D02*
X040065Y015488D01*
X040065Y015646D02*
X035349Y015646D01*
X035507Y015805D02*
X040065Y015805D01*
X040065Y015963D02*
X035666Y015963D01*
X035824Y016122D02*
X040065Y016122D01*
X040065Y016280D02*
X035875Y016280D01*
X035875Y016439D02*
X040065Y016439D01*
X040065Y016597D02*
X035875Y016597D01*
X035875Y016756D02*
X040065Y016756D01*
X040065Y016914D02*
X035875Y016914D01*
X035875Y017073D02*
X037348Y017073D01*
X037311Y017100D02*
X037386Y017045D01*
X037469Y017003D01*
X037557Y016975D01*
X037649Y016960D01*
X038475Y016960D01*
X038475Y017470D01*
X038635Y017470D01*
X038635Y017630D01*
X038475Y017630D01*
X038475Y018140D01*
X037649Y018140D01*
X037557Y018125D01*
X037469Y018097D01*
X037386Y018055D01*
X037311Y018000D01*
X037245Y017934D01*
X037190Y017859D01*
X037148Y017776D01*
X037120Y017688D01*
X037110Y017630D01*
X038475Y017630D01*
X038475Y017470D01*
X037110Y017470D01*
X037120Y017412D01*
X037148Y017324D01*
X037190Y017241D01*
X037245Y017166D01*
X037311Y017100D01*
X037197Y017231D02*
X035875Y017231D01*
X035875Y017390D02*
X037127Y017390D01*
X037125Y017707D02*
X035875Y017707D01*
X035875Y017865D02*
X037195Y017865D01*
X037343Y018024D02*
X035875Y018024D01*
X035875Y018182D02*
X040065Y018182D01*
X040065Y018024D02*
X038907Y018024D01*
X038939Y018000D02*
X038864Y018055D01*
X038781Y018097D01*
X038693Y018125D01*
X038635Y018135D01*
X038635Y017630D01*
X039140Y017630D01*
X039130Y017688D01*
X039102Y017776D01*
X039060Y017859D01*
X039005Y017934D01*
X038939Y018000D01*
X039055Y017865D02*
X040065Y017865D01*
X040065Y017707D02*
X039125Y017707D01*
X039140Y017470D02*
X038635Y017470D01*
X038635Y016965D01*
X038693Y016975D01*
X038781Y017003D01*
X038864Y017045D01*
X038939Y017100D01*
X039005Y017166D01*
X039060Y017241D01*
X039102Y017324D01*
X039130Y017412D01*
X039140Y017470D01*
X039123Y017390D02*
X040065Y017390D01*
X040065Y017548D02*
X038635Y017548D01*
X038635Y017390D02*
X038475Y017390D01*
X038475Y017548D02*
X035875Y017548D01*
X035875Y018341D02*
X040065Y018341D01*
X040065Y018499D02*
X035875Y018499D01*
X035875Y018658D02*
X038224Y018658D01*
X038074Y018816D02*
X035875Y018816D01*
X035875Y018975D02*
X038009Y018975D01*
X037979Y019133D02*
X035875Y019133D01*
X035875Y019292D02*
X037979Y019292D01*
X038035Y019450D02*
X035875Y019450D01*
X035875Y019609D02*
X038130Y019609D01*
X038227Y019767D02*
X035875Y019767D01*
X035875Y019926D02*
X038116Y019926D01*
X038067Y020084D02*
X035875Y020084D01*
X035820Y020243D02*
X038061Y020243D01*
X038100Y020401D02*
X037040Y020401D01*
X037234Y020560D02*
X038195Y020560D01*
X038163Y020718D02*
X037392Y020718D01*
X037551Y020877D02*
X038049Y020877D01*
X039134Y020718D02*
X040065Y020718D01*
X040065Y020560D02*
X039102Y020560D01*
X039197Y020401D02*
X040065Y020401D01*
X040065Y020243D02*
X039236Y020243D01*
X039231Y020084D02*
X040065Y020084D01*
X040065Y019926D02*
X039181Y019926D01*
X039070Y019767D02*
X040065Y019767D01*
X040065Y019609D02*
X039168Y019609D01*
X039262Y019450D02*
X040065Y019450D01*
X040065Y019292D02*
X039319Y019292D01*
X039319Y019133D02*
X040065Y019133D01*
X040065Y018975D02*
X039289Y018975D01*
X039223Y018816D02*
X040065Y018816D01*
X040065Y018658D02*
X039074Y018658D01*
X038635Y018024D02*
X038475Y018024D01*
X038475Y017865D02*
X038635Y017865D01*
X038635Y017707D02*
X038475Y017707D01*
X038475Y017231D02*
X038635Y017231D01*
X038635Y017073D02*
X038475Y017073D01*
X038902Y017073D02*
X040065Y017073D01*
X040065Y017231D02*
X039053Y017231D01*
X039125Y014695D02*
X040065Y014695D01*
X040065Y014537D02*
X039057Y014537D01*
X034735Y016597D02*
X034225Y016597D01*
X034225Y016439D02*
X034611Y016439D01*
X034452Y016280D02*
X034189Y016280D01*
X034123Y016122D02*
X034294Y016122D01*
X034135Y015963D02*
X033966Y015963D01*
X033144Y015963D02*
X031301Y015963D01*
X031281Y015953D02*
X031364Y015995D01*
X031439Y016050D01*
X031505Y016116D01*
X031560Y016191D01*
X031602Y016274D01*
X031630Y016362D01*
X031645Y016454D01*
X031645Y016850D01*
X031135Y016850D01*
X031135Y015915D01*
X031193Y015925D01*
X031281Y015953D01*
X031135Y015963D02*
X030975Y015963D01*
X030975Y016122D02*
X031135Y016122D01*
X031135Y016280D02*
X030975Y016280D01*
X030975Y016439D02*
X031135Y016439D01*
X031135Y016597D02*
X030975Y016597D01*
X030975Y016756D02*
X031135Y016756D01*
X031135Y016914D02*
X032885Y016914D01*
X032885Y016756D02*
X031645Y016756D01*
X031645Y016597D02*
X032885Y016597D01*
X032885Y016439D02*
X031643Y016439D01*
X031604Y016280D02*
X032921Y016280D01*
X032987Y016122D02*
X031509Y016122D01*
X031645Y017073D02*
X032885Y017073D01*
X032885Y017231D02*
X031645Y017231D01*
X031645Y017390D02*
X032885Y017390D01*
X032908Y017548D02*
X031614Y017548D01*
X031533Y017707D02*
X032973Y017707D01*
X033113Y017865D02*
X031363Y017865D01*
X030465Y017390D02*
X026625Y017390D01*
X026625Y017231D02*
X030465Y017231D01*
X030465Y017073D02*
X026625Y017073D01*
X028677Y018658D02*
X034735Y018658D01*
X034735Y018816D02*
X028782Y018816D01*
X028800Y018975D02*
X032253Y018975D01*
X032196Y019133D02*
X028744Y019133D01*
X029334Y019450D02*
X032318Y019450D01*
X032213Y019292D02*
X027301Y019292D01*
X027984Y019290D02*
X027984Y019290D01*
X029415Y019609D02*
X032180Y019609D01*
X032021Y019767D02*
X029409Y019767D01*
X032555Y019180D02*
X033680Y019180D01*
X033997Y017865D02*
X034735Y017865D01*
X034735Y017707D02*
X034137Y017707D01*
X034202Y017548D02*
X034735Y017548D01*
X034735Y017390D02*
X034225Y017390D01*
X034225Y017231D02*
X034735Y017231D01*
X034735Y017073D02*
X034225Y017073D01*
X034225Y016914D02*
X034735Y016914D01*
X034735Y016756D02*
X034225Y016756D01*
X039248Y020877D02*
X040065Y020877D01*
X040065Y021035D02*
X039314Y021035D01*
X039319Y021194D02*
X040065Y021194D01*
X040065Y021352D02*
X039303Y021352D01*
X039237Y021511D02*
X040065Y021511D01*
X040065Y021669D02*
X039107Y021669D01*
X039228Y021828D02*
X040065Y021828D01*
X040065Y021986D02*
X039294Y021986D01*
X039319Y022145D02*
X040065Y022145D01*
X040065Y022303D02*
X039319Y022303D01*
X039257Y022462D02*
X040065Y022462D01*
X040065Y022620D02*
X039156Y022620D01*
X039195Y022779D02*
X040065Y022779D01*
X040065Y022937D02*
X039273Y022937D01*
X039319Y023096D02*
X040065Y023096D01*
X040065Y023254D02*
X039319Y023254D01*
X039278Y023413D02*
X040065Y023413D01*
X040065Y023571D02*
X039205Y023571D01*
X039146Y023730D02*
X040065Y023730D01*
X040065Y023888D02*
X039253Y023888D01*
X039319Y024047D02*
X040065Y024047D01*
X040065Y024205D02*
X039319Y024205D01*
X039298Y024364D02*
X040065Y024364D01*
X040065Y024522D02*
X039232Y024522D01*
X040769Y028485D02*
X042775Y028485D01*
X042775Y028643D02*
X040915Y028643D01*
X041008Y028802D02*
X042775Y028802D01*
X042775Y028960D02*
X041063Y028960D01*
X041090Y029119D02*
X042775Y029119D01*
X042775Y029277D02*
X041085Y029277D01*
X041054Y029436D02*
X042775Y029436D01*
X042775Y029594D02*
X040992Y029594D01*
X040888Y029753D02*
X042775Y029753D01*
X042775Y029911D02*
X040722Y029911D01*
X042311Y030387D02*
X042775Y030387D01*
X042775Y030545D02*
X042596Y030545D01*
X042754Y030704D02*
X042775Y030704D01*
X004562Y005150D02*
X004562Y005150D01*
X004562Y005150D01*
X003390Y005185D02*
X003258Y005185D01*
X003390Y005027D02*
X002978Y005027D01*
X003390Y004868D02*
X000710Y004868D01*
X000710Y004710D02*
X003390Y004710D01*
X003390Y004551D02*
X003057Y004551D01*
X003290Y004393D02*
X003390Y004393D01*
X000840Y002015D02*
X000710Y002015D01*
D21*
X017930Y002305D02*
X019805Y002305D01*
X020805Y001305D01*
X021680Y001305D01*
X022055Y001305D01*
X030055Y001305D01*
X040555Y011805D01*
X040555Y026805D01*
X038180Y029180D01*
X038180Y029180D01*
X038180Y029180D01*
D22*
X022055Y006305D02*
X022055Y001305D01*
X022305Y001430D02*
X022055Y001680D01*
X021680Y001305D01*
D23*
X025930Y002430D03*
X028680Y002805D03*
X024555Y006930D03*
X022055Y006305D03*
X013055Y005305D03*
X006805Y002305D03*
D24*
X012055Y002305D01*
X013055Y003305D01*
X013055Y005305D01*
X004805Y011930D02*
X003555Y013180D01*
X003555Y015680D01*
X004868Y015868D02*
X004868Y023242D01*
X005180Y023555D01*
X003555Y022930D02*
X003555Y025055D01*
X004555Y026055D01*
X009305Y026055D01*
X010805Y023930D02*
X009055Y022180D01*
X009055Y018804D01*
X007431Y018804D01*
X005555Y020680D01*
X005555Y021555D01*
X004430Y021055D02*
X004055Y020680D01*
X004055Y014180D01*
X009180Y016555D02*
X010680Y016555D01*
X011305Y015930D01*
X011680Y015930D01*
X012055Y016305D01*
X013805Y016305D01*
X014305Y016680D02*
X012680Y016680D01*
X012055Y017305D01*
X012055Y018961D01*
X011586Y019430D01*
X015680Y019930D02*
X015680Y018805D01*
X015930Y018555D01*
X017443Y016068D02*
X015055Y013680D01*
X012555Y015180D02*
X012055Y014680D01*
X012055Y012305D01*
X010805Y012680D02*
X010805Y015430D01*
X011305Y015930D01*
X017443Y016068D02*
X020167Y016068D01*
X021555Y018180D02*
X022430Y018180D01*
X023555Y019305D01*
X026274Y019305D01*
X027211Y020243D01*
X032055Y020243D01*
X032555Y019742D01*
X035055Y021805D02*
X035055Y022930D01*
X035555Y023430D02*
X035555Y021805D01*
X036930Y022180D02*
X036930Y024805D01*
X037055Y026180D02*
X038524Y026180D01*
X038649Y026180D01*
X037055Y026180D02*
X033055Y022180D01*
X029430Y022180D01*
X027055Y021649D02*
X026680Y021274D01*
X027055Y021649D02*
X027055Y024180D01*
X027555Y025055D02*
X028305Y025055D01*
X029055Y025805D01*
X029055Y026930D01*
X028055Y027118D02*
X028055Y025805D01*
X030180Y024680D02*
X031930Y024680D01*
X033055Y025805D01*
X033055Y028680D01*
X034055Y028680D02*
X034055Y024680D01*
X035055Y025805D02*
X035055Y026930D01*
X026680Y020305D02*
X024805Y020305D01*
X022555Y020305D01*
X022555Y019055D01*
X023555Y018680D02*
X026180Y018680D01*
X027180Y019680D01*
X029055Y019680D01*
X028440Y018929D02*
X028055Y018930D01*
X027055Y018930D01*
X026430Y018305D01*
X024055Y022055D02*
X025805Y023805D01*
X022305Y023180D02*
X022055Y023430D01*
X022055Y024055D01*
X022055Y025024D02*
X022055Y028680D01*
X021055Y028680D02*
X021055Y027055D01*
X021430Y026680D01*
X021430Y025305D01*
X020055Y025930D02*
X016555Y025930D01*
X015805Y026680D01*
X014430Y026680D01*
D25*
X015805Y026680D02*
X015805Y028930D01*
X015305Y029430D01*
X012805Y029430D01*
X012305Y028930D01*
X012305Y027368D01*
X012055Y027118D01*
X006055Y027117D01*
X008555Y026555D02*
X009618Y026555D01*
X009774Y026399D01*
X010305Y026399D01*
X010461Y026555D01*
X011930Y026555D01*
X012305Y026180D01*
X012305Y023930D01*
X016305Y019930D01*
X017555Y019930D01*
X018055Y019430D01*
X018586Y019867D02*
X018055Y020430D01*
X016305Y020430D01*
X012555Y024180D01*
X012555Y026305D01*
X012024Y026836D01*
X010055Y026836D01*
X007680Y024305D02*
X007055Y024930D01*
X006305Y024930D01*
X007680Y024305D02*
X007680Y023618D01*
X007992Y023305D01*
X008430Y023305D01*
X009555Y024430D01*
X011055Y024430D01*
X013180Y022305D01*
X013180Y020680D01*
X013430Y020430D01*
X013618Y020430D01*
X013430Y020055D02*
X013805Y020055D01*
X014055Y020305D01*
X013430Y020055D02*
X012930Y020555D01*
X012930Y022180D01*
X010899Y024211D01*
X009742Y024211D01*
X008555Y023055D01*
X009055Y018804D02*
X009055Y018804D01*
X007431Y018804D02*
X007429Y018804D01*
X013305Y015805D02*
X013305Y014055D01*
X013555Y013805D01*
X013930Y013805D01*
X019805Y019680D01*
X019180Y020305D02*
X018555Y020930D01*
X016305Y020930D01*
X014055Y023180D01*
X014055Y028680D01*
X018555Y023430D02*
X020055Y024930D01*
X018555Y023430D02*
X018555Y022680D01*
X019180Y022055D01*
X024055Y022055D01*
X023555Y022305D02*
X024805Y023555D01*
X024305Y023555D02*
X024055Y023305D01*
X024055Y023118D01*
X023461Y022524D01*
X023555Y022305D02*
X019680Y022305D01*
X019055Y022930D01*
X019555Y022930D02*
X019867Y022617D01*
X019961Y022524D01*
X019555Y022930D02*
X019555Y022930D01*
X018805Y021680D02*
X018055Y022430D01*
X017211Y022024D02*
X016649Y022024D01*
X016336Y021711D01*
X016805Y021680D02*
X017305Y021180D01*
X022305Y021180D01*
X022805Y020680D01*
X036930Y020680D01*
X037430Y021180D01*
X038524Y021180D01*
X038649Y021180D01*
X038649Y022180D02*
X038524Y022180D01*
X037930Y022180D01*
X036680Y020930D01*
X023055Y020930D01*
X022555Y021430D01*
X017805Y021430D01*
X017211Y022024D01*
X018805Y021680D02*
X022805Y021680D01*
X023180Y021305D01*
X024430Y021305D01*
X023211Y022836D02*
X023555Y023180D01*
X023211Y022836D02*
X021961Y022836D01*
X022055Y016493D02*
X022055Y015430D01*
X019555Y012930D01*
X019555Y007680D01*
X019055Y007180D01*
X012805Y007180D01*
X012680Y006805D02*
X019180Y006805D01*
X019930Y007555D01*
X019930Y012805D01*
X022555Y015430D01*
X022555Y016493D01*
X013805Y016305D02*
X013305Y015805D01*
X005555Y009380D02*
X005555Y009380D01*
D26*
X005555Y009430D01*
X005505Y009380D01*
X005555Y009380D02*
X005555Y008680D01*
X005711Y008524D01*
X005711Y007774D01*
X005399Y007743D02*
X005399Y008399D01*
X005211Y008586D01*
X004836Y008586D01*
X004430Y008180D01*
X004993Y008243D02*
X003680Y006930D01*
X003680Y004180D01*
X003930Y003930D01*
X007805Y003930D01*
X008461Y003274D01*
X011243Y003274D01*
X012305Y004336D01*
X012305Y006430D01*
X012680Y006805D01*
X012555Y007180D02*
X012805Y007180D01*
X012555Y007180D02*
X011930Y006555D01*
X011930Y004243D01*
X011180Y003493D01*
X008555Y003493D01*
X007868Y004180D01*
X004149Y004180D01*
X003899Y004430D01*
X003899Y006649D01*
X004649Y006680D02*
X004711Y006680D01*
X005118Y006836D02*
X007961Y006836D01*
X011305Y010180D01*
X010930Y010680D02*
X011805Y010680D01*
X010930Y010680D02*
X010680Y010430D01*
X011211Y009680D02*
X011805Y009680D01*
X011211Y009680D02*
X008180Y006649D01*
X005774Y006649D01*
X005180Y006055D01*
X004430Y006055D01*
X004993Y008243D02*
X005086Y008243D01*
X006055Y008555D02*
X006118Y008493D01*
X007618Y006461D02*
X007399Y006242D01*
X007399Y005336D01*
X007618Y006461D02*
X008586Y006461D01*
X019961Y022524D02*
X023461Y022524D01*
X024305Y023555D02*
X024305Y024930D01*
X019961Y022524D02*
X019742Y022743D01*
D27*
X017555Y022930D02*
X017305Y022680D01*
X016805Y022680D01*
X016555Y022930D01*
X005711Y007774D02*
X004930Y006993D01*
X004493Y006993D01*
X004305Y006805D01*
X004305Y006586D01*
X004555Y006336D01*
X004930Y006336D01*
X005024Y006430D01*
X004961Y006680D02*
X004711Y006680D01*
X004961Y006680D02*
X005118Y006836D01*
X004899Y007243D02*
X004492Y007243D01*
X004086Y006836D01*
X004086Y005961D01*
X004618Y005430D01*
X004993Y005430D01*
X003899Y006649D02*
X003899Y006899D01*
X004774Y007774D01*
X005024Y007774D01*
X005399Y007743D02*
X004899Y007243D01*
M02*
