G75*
G70*
%OFA0B0*%
%FSLAX24Y24*%
%IPPOS*%
%LPD*%
%AMOC8*
5,1,8,0,0,1.08239X$1,22.5*
%
%ADD10R,0.0118X0.0236*%
%ADD11C,0.0040*%
%ADD12R,0.0500X0.0500*%
%ADD13R,0.0197X0.0984*%
%ADD14R,0.0787X0.0984*%
%ADD15R,0.0300X0.0300*%
%ADD16R,0.1339X0.0748*%
%ADD17R,0.0472X0.0315*%
%ADD18R,0.0591X0.0512*%
%ADD19R,0.0512X0.0591*%
%ADD20R,0.0630X0.0512*%
%ADD21R,0.0748X0.0748*%
%ADD22R,0.0709X0.0669*%
%ADD23R,0.1575X0.0472*%
%ADD24R,0.0800X0.0800*%
%ADD25R,0.0590X0.0790*%
%ADD26R,0.1500X0.0790*%
%ADD27R,0.0512X0.0630*%
%ADD28R,0.0591X0.0138*%
%ADD29R,0.0138X0.0591*%
%ADD30R,0.0390X0.0272*%
%ADD31R,0.0472X0.0236*%
%ADD32R,0.0866X0.0236*%
%ADD33R,0.0300X0.0600*%
%ADD34R,0.0236X0.0866*%
%ADD35R,0.0748X0.0433*%
%ADD36R,0.0260X0.0800*%
%ADD37R,0.0240X0.0870*%
%ADD38R,0.0630X0.1063*%
%ADD39R,0.0689X0.1850*%
%ADD40R,0.0945X0.0945*%
%ADD41R,0.0315X0.0354*%
D10*
X005813Y006036D03*
X006010Y006036D03*
X006207Y006036D03*
X006403Y006036D03*
X006600Y006036D03*
X006797Y006036D03*
X006797Y006430D03*
X006600Y006430D03*
X006403Y006430D03*
X006207Y006430D03*
X006010Y006430D03*
X005813Y006430D03*
X005813Y006824D03*
X006010Y006824D03*
X006207Y006824D03*
X006403Y006824D03*
X006600Y006824D03*
X006797Y006824D03*
D11*
X007122Y006893D02*
X007122Y006952D01*
X007299Y006952D01*
X007299Y006893D01*
X007122Y006893D01*
X007122Y006898D02*
X007299Y006898D01*
X007299Y006937D02*
X007122Y006937D01*
X007122Y007089D02*
X007299Y007089D01*
X007299Y007149D01*
X007142Y007149D01*
X007122Y007129D01*
X007299Y007129D01*
X007299Y007091D02*
X007122Y007091D01*
X007122Y007089D02*
X007122Y007129D01*
X007004Y007247D02*
X006964Y007247D01*
X006964Y007424D01*
X007024Y007424D01*
X007024Y007267D01*
X007004Y007247D01*
X007024Y007283D02*
X006964Y007283D01*
X006964Y007322D02*
X007024Y007322D01*
X007024Y007360D02*
X006964Y007360D01*
X006964Y007399D02*
X007024Y007399D01*
X006827Y007399D02*
X006768Y007399D01*
X006768Y007424D02*
X006827Y007424D01*
X006827Y007247D01*
X006768Y007247D01*
X006768Y007424D01*
X006768Y007360D02*
X006827Y007360D01*
X006827Y007322D02*
X006768Y007322D01*
X006768Y007283D02*
X006827Y007283D01*
X006630Y007283D02*
X006571Y007283D01*
X006571Y007247D02*
X006571Y007424D01*
X006630Y007424D01*
X006630Y007247D01*
X006571Y007247D01*
X006571Y007322D02*
X006630Y007322D01*
X006630Y007360D02*
X006571Y007360D01*
X006571Y007399D02*
X006630Y007399D01*
X006433Y007399D02*
X006374Y007399D01*
X006374Y007424D02*
X006433Y007424D01*
X006433Y007247D01*
X006374Y007247D01*
X006374Y007424D01*
X006374Y007360D02*
X006433Y007360D01*
X006433Y007322D02*
X006374Y007322D01*
X006374Y007283D02*
X006433Y007283D01*
X006236Y007283D02*
X006177Y007283D01*
X006177Y007247D02*
X006177Y007424D01*
X006236Y007424D01*
X006236Y007247D01*
X006177Y007247D01*
X006177Y007322D02*
X006236Y007322D01*
X006236Y007360D02*
X006177Y007360D01*
X006177Y007399D02*
X006236Y007399D01*
X006039Y007399D02*
X005980Y007399D01*
X005980Y007424D02*
X006039Y007424D01*
X006039Y007247D01*
X005980Y007247D01*
X005980Y007424D01*
X005980Y007360D02*
X006039Y007360D01*
X006039Y007322D02*
X005980Y007322D01*
X005980Y007283D02*
X006039Y007283D01*
X005842Y007283D02*
X005783Y007283D01*
X005783Y007247D02*
X005783Y007424D01*
X005842Y007424D01*
X005842Y007247D01*
X005783Y007247D01*
X005783Y007322D02*
X005842Y007322D01*
X005842Y007360D02*
X005783Y007360D01*
X005783Y007399D02*
X005842Y007399D01*
X005646Y007399D02*
X005586Y007399D01*
X005586Y007424D02*
X005646Y007424D01*
X005646Y007247D01*
X005606Y007247D01*
X005586Y007267D01*
X005586Y007424D01*
X005586Y007360D02*
X005646Y007360D01*
X005646Y007322D02*
X005586Y007322D01*
X005586Y007283D02*
X005646Y007283D01*
X005488Y007129D02*
X005488Y007089D01*
X005311Y007089D01*
X005311Y007149D01*
X005468Y007149D01*
X005488Y007129D01*
X005311Y007129D01*
X005311Y007091D02*
X005488Y007091D01*
X005488Y006952D02*
X005488Y006893D01*
X005311Y006893D01*
X005311Y006952D01*
X005488Y006952D01*
X005488Y006937D02*
X005311Y006937D01*
X005311Y006898D02*
X005488Y006898D01*
X005488Y006755D02*
X005488Y006696D01*
X005311Y006696D01*
X005311Y006755D01*
X005488Y006755D01*
X005488Y006744D02*
X005311Y006744D01*
X005311Y006706D02*
X005488Y006706D01*
X005488Y006558D02*
X005488Y006499D01*
X005311Y006499D01*
X005311Y006558D01*
X005488Y006558D01*
X005488Y006552D02*
X005311Y006552D01*
X005311Y006513D02*
X005488Y006513D01*
X005488Y006361D02*
X005488Y006302D01*
X005311Y006302D01*
X005311Y006361D01*
X005488Y006361D01*
X005488Y006359D02*
X005311Y006359D01*
X005311Y006321D02*
X005488Y006321D01*
X005488Y006164D02*
X005488Y006105D01*
X005311Y006105D01*
X005311Y006164D01*
X005488Y006164D01*
X005488Y006128D02*
X005311Y006128D01*
X005311Y005967D02*
X005311Y005908D01*
X005488Y005908D01*
X005488Y005967D01*
X005311Y005967D01*
X005311Y005936D02*
X005488Y005936D01*
X005488Y005771D02*
X005311Y005771D01*
X005311Y005711D01*
X005468Y005711D01*
X005488Y005731D01*
X005488Y005771D01*
X005488Y005743D02*
X005311Y005743D01*
X005586Y005593D02*
X005606Y005613D01*
X005646Y005613D01*
X005646Y005436D01*
X005586Y005436D01*
X005586Y005593D01*
X005586Y005589D02*
X005646Y005589D01*
X005646Y005551D02*
X005586Y005551D01*
X005586Y005512D02*
X005646Y005512D01*
X005646Y005474D02*
X005586Y005474D01*
X005783Y005474D02*
X005842Y005474D01*
X005842Y005512D02*
X005783Y005512D01*
X005783Y005551D02*
X005842Y005551D01*
X005842Y005589D02*
X005783Y005589D01*
X005783Y005613D02*
X005842Y005613D01*
X005842Y005436D01*
X005783Y005436D01*
X005783Y005613D01*
X005980Y005613D02*
X006039Y005613D01*
X006039Y005436D01*
X005980Y005436D01*
X005980Y005613D01*
X005980Y005589D02*
X006039Y005589D01*
X006039Y005551D02*
X005980Y005551D01*
X005980Y005512D02*
X006039Y005512D01*
X006039Y005474D02*
X005980Y005474D01*
X006177Y005474D02*
X006236Y005474D01*
X006236Y005512D02*
X006177Y005512D01*
X006177Y005551D02*
X006236Y005551D01*
X006236Y005589D02*
X006177Y005589D01*
X006177Y005613D02*
X006236Y005613D01*
X006236Y005436D01*
X006177Y005436D01*
X006177Y005613D01*
X006374Y005613D02*
X006433Y005613D01*
X006433Y005436D01*
X006374Y005436D01*
X006374Y005613D01*
X006374Y005589D02*
X006433Y005589D01*
X006433Y005551D02*
X006374Y005551D01*
X006374Y005512D02*
X006433Y005512D01*
X006433Y005474D02*
X006374Y005474D01*
X006571Y005474D02*
X006630Y005474D01*
X006630Y005512D02*
X006571Y005512D01*
X006571Y005551D02*
X006630Y005551D01*
X006630Y005589D02*
X006571Y005589D01*
X006571Y005613D02*
X006630Y005613D01*
X006630Y005436D01*
X006571Y005436D01*
X006571Y005613D01*
X006768Y005613D02*
X006827Y005613D01*
X006827Y005436D01*
X006768Y005436D01*
X006768Y005613D01*
X006768Y005589D02*
X006827Y005589D01*
X006827Y005551D02*
X006768Y005551D01*
X006768Y005512D02*
X006827Y005512D01*
X006827Y005474D02*
X006768Y005474D01*
X006964Y005474D02*
X007024Y005474D01*
X007024Y005512D02*
X006964Y005512D01*
X006964Y005551D02*
X007024Y005551D01*
X007024Y005589D02*
X006964Y005589D01*
X006964Y005613D02*
X006964Y005436D01*
X007024Y005436D01*
X007024Y005593D01*
X007004Y005613D01*
X006964Y005613D01*
X007122Y005731D02*
X007122Y005771D01*
X007299Y005771D01*
X007299Y005711D01*
X007142Y005711D01*
X007122Y005731D01*
X007122Y005743D02*
X007299Y005743D01*
X007299Y005908D02*
X007299Y005967D01*
X007122Y005967D01*
X007122Y005908D01*
X007299Y005908D01*
X007299Y005936D02*
X007122Y005936D01*
X007122Y006105D02*
X007122Y006164D01*
X007299Y006164D01*
X007299Y006105D01*
X007122Y006105D01*
X007122Y006128D02*
X007299Y006128D01*
X007299Y006302D02*
X007299Y006361D01*
X007122Y006361D01*
X007122Y006302D01*
X007299Y006302D01*
X007299Y006321D02*
X007122Y006321D01*
X007122Y006359D02*
X007299Y006359D01*
X007299Y006499D02*
X007299Y006558D01*
X007122Y006558D01*
X007122Y006499D01*
X007299Y006499D01*
X007299Y006513D02*
X007122Y006513D01*
X007122Y006552D02*
X007299Y006552D01*
X007299Y006696D02*
X007299Y006755D01*
X007122Y006755D01*
X007122Y006696D01*
X007299Y006696D01*
X007299Y006706D02*
X007122Y006706D01*
X007122Y006744D02*
X007299Y006744D01*
D12*
X005055Y008843D03*
X005055Y009643D03*
X006780Y011180D03*
X007580Y011180D03*
X008651Y011183D03*
X009451Y011183D03*
X014180Y008580D03*
X014180Y007780D03*
X007680Y003330D03*
X007680Y002530D03*
X002555Y013030D03*
X002555Y013830D03*
X002555Y015155D03*
X002555Y015955D03*
X002555Y017905D03*
X002555Y018705D03*
X002555Y020030D03*
X002555Y020830D03*
X002555Y021780D03*
X002555Y022580D03*
X002555Y023530D03*
X002555Y024330D03*
X022030Y004180D03*
X022830Y004180D03*
X028905Y001305D03*
X029705Y001305D03*
D13*
X010935Y003789D03*
X010620Y003789D03*
X010305Y003789D03*
X009990Y003789D03*
X009675Y003789D03*
D14*
X008533Y003789D03*
X008533Y001624D03*
X012077Y001624D03*
X012077Y003789D03*
D15*
X007711Y004130D03*
X007711Y004730D03*
D16*
X011930Y006287D03*
X011930Y007823D03*
D17*
X005055Y002326D03*
X005055Y003034D03*
X006055Y003034D03*
X006055Y002326D03*
D18*
X006055Y003806D03*
X006055Y004554D03*
X005055Y004554D03*
X005055Y003806D03*
X010306Y010182D03*
X010306Y010930D03*
X023305Y005929D03*
X023305Y005181D03*
D19*
X023181Y007305D03*
X023929Y007305D03*
X027181Y001305D03*
X027929Y001305D03*
X010773Y006930D03*
X010025Y006930D03*
X009179Y006930D03*
X008431Y006930D03*
X008775Y008180D03*
X009523Y008180D03*
X007929Y008180D03*
X007181Y008180D03*
X004429Y013055D03*
X003681Y013055D03*
X012220Y020805D03*
X012890Y020805D03*
X021931Y014930D03*
X022679Y014930D03*
D20*
X021305Y016068D03*
X021305Y016855D03*
X020805Y014949D03*
X020805Y014161D03*
X017805Y014286D03*
X016680Y014054D03*
X016680Y013306D03*
X017805Y013304D03*
X017805Y012556D03*
X017805Y015074D03*
X026305Y018786D03*
X026305Y019574D03*
X028305Y024306D03*
X028305Y025054D03*
X031805Y025054D03*
X031805Y024306D03*
X033055Y024306D03*
X033055Y025054D03*
X035055Y025054D03*
X035055Y024306D03*
X036055Y024306D03*
X036055Y025054D03*
X033930Y019324D03*
X033930Y018536D03*
X021805Y025962D03*
X021805Y026710D03*
X020805Y026679D03*
X020805Y025931D03*
X012930Y024304D03*
X012930Y023556D03*
X011180Y025306D03*
X011180Y026054D03*
X010055Y026054D03*
X010055Y025306D03*
X007055Y025306D03*
X007055Y026054D03*
X005055Y026054D03*
X005055Y025306D03*
X004055Y025306D03*
X004055Y026054D03*
D21*
X031844Y013592D03*
X037789Y013553D03*
D22*
X031844Y002096D03*
D23*
X029955Y002884D03*
X029955Y003947D03*
X029955Y004616D03*
X029955Y005561D03*
X029955Y006585D03*
X029955Y007529D03*
X029955Y008514D03*
X029955Y009498D03*
X029955Y010482D03*
X029955Y011466D03*
D24*
X033966Y002214D03*
X037785Y002214D03*
D25*
X029340Y018065D03*
X028440Y018065D03*
X027540Y018065D03*
D26*
X028430Y020545D03*
D27*
X032681Y022180D03*
X033429Y022180D03*
X029324Y016930D03*
X028536Y016930D03*
X025523Y016680D03*
X024775Y016680D03*
X022074Y012743D03*
X021286Y012743D03*
X012949Y013680D03*
X012161Y013680D03*
X010699Y014680D03*
X009911Y014680D03*
X012181Y016680D03*
X012929Y016680D03*
X012949Y017930D03*
X012161Y017930D03*
X010699Y017180D03*
X009911Y017180D03*
X008449Y018055D03*
X007661Y018055D03*
X006554Y018055D03*
X005806Y018055D03*
X005786Y019180D03*
X006574Y019180D03*
X007931Y019930D03*
X008679Y019930D03*
X008699Y021055D03*
X007911Y021055D03*
X007911Y022180D03*
X008699Y022180D03*
X010286Y021930D03*
X011074Y021930D03*
X012181Y021930D03*
X012929Y021930D03*
X010679Y019930D03*
X009931Y019930D03*
X004429Y020180D03*
X003681Y020180D03*
X003681Y021930D03*
X004429Y021930D03*
X004429Y023680D03*
X003681Y023680D03*
X003681Y016680D03*
X004429Y016680D03*
X004429Y014930D03*
X003681Y014930D03*
X016911Y024961D03*
X017699Y024961D03*
X015949Y026430D03*
X015161Y026430D03*
X025181Y001305D03*
X025929Y001305D03*
D28*
X020955Y018568D03*
X020955Y018765D03*
X020955Y018961D03*
X020955Y019158D03*
X020955Y019355D03*
X020955Y019552D03*
X020955Y019749D03*
X020955Y019946D03*
X020955Y020143D03*
X020955Y020339D03*
X020955Y020536D03*
X020955Y020733D03*
X020955Y020930D03*
X020955Y021127D03*
X020955Y021324D03*
X020955Y021521D03*
X020955Y021717D03*
X020955Y021914D03*
X020955Y022111D03*
X020955Y022308D03*
X020955Y022505D03*
X020955Y022702D03*
X020955Y022899D03*
X020955Y023095D03*
X020955Y023292D03*
X014655Y023292D03*
X014655Y023095D03*
X014655Y022899D03*
X014655Y022702D03*
X014655Y022505D03*
X014655Y022308D03*
X014655Y022111D03*
X014655Y021914D03*
X014655Y021717D03*
X014655Y021521D03*
X014655Y021324D03*
X014655Y021127D03*
X014655Y020930D03*
X014655Y020733D03*
X014655Y020536D03*
X014655Y020339D03*
X014655Y020143D03*
X014655Y019946D03*
X014655Y019749D03*
X014655Y019552D03*
X014655Y019355D03*
X014655Y019158D03*
X014655Y018961D03*
X014655Y018765D03*
X014655Y018568D03*
D29*
X015443Y017780D03*
X015640Y017780D03*
X015836Y017780D03*
X016033Y017780D03*
X016230Y017780D03*
X016427Y017780D03*
X016624Y017780D03*
X016821Y017780D03*
X017018Y017780D03*
X017214Y017780D03*
X017411Y017780D03*
X017608Y017780D03*
X017805Y017780D03*
X018002Y017780D03*
X018199Y017780D03*
X018396Y017780D03*
X018592Y017780D03*
X018789Y017780D03*
X018986Y017780D03*
X019183Y017780D03*
X019380Y017780D03*
X019577Y017780D03*
X019774Y017780D03*
X019970Y017780D03*
X020167Y017780D03*
X020167Y024080D03*
X019970Y024080D03*
X019774Y024080D03*
X019577Y024080D03*
X019380Y024080D03*
X019183Y024080D03*
X018986Y024080D03*
X018789Y024080D03*
X018592Y024080D03*
X018396Y024080D03*
X018199Y024080D03*
X018002Y024080D03*
X017805Y024080D03*
X017608Y024080D03*
X017411Y024080D03*
X017214Y024080D03*
X017018Y024080D03*
X016821Y024080D03*
X016624Y024080D03*
X016427Y024080D03*
X016230Y024080D03*
X016033Y024080D03*
X015836Y024080D03*
X015640Y024080D03*
X015443Y024080D03*
D30*
X013063Y019804D03*
X013063Y019430D03*
X013063Y019056D03*
X012043Y019056D03*
X012043Y019804D03*
X010813Y018804D03*
X010813Y018430D03*
X010813Y018056D03*
X009793Y018056D03*
X009793Y018804D03*
X009793Y016304D03*
X009793Y015556D03*
X010813Y015556D03*
X010813Y015930D03*
X010813Y016304D03*
X012043Y015554D03*
X012043Y014806D03*
X013063Y014806D03*
X013063Y015180D03*
X013063Y015554D03*
X008563Y023306D03*
X008563Y023680D03*
X008563Y024054D03*
X007543Y024054D03*
X007543Y023306D03*
D31*
X006694Y021054D03*
X006694Y020680D03*
X006694Y020306D03*
X005666Y020306D03*
X005666Y021054D03*
D32*
X009656Y022930D03*
X009656Y023430D03*
X009656Y023930D03*
X009656Y024430D03*
X011704Y024430D03*
X011704Y023930D03*
X011704Y023430D03*
X011704Y022930D03*
D33*
X013680Y006305D03*
X015180Y006305D03*
X015180Y004305D03*
X015180Y003305D03*
X013680Y003305D03*
X013680Y004305D03*
X013680Y001305D03*
X015180Y001305D03*
D34*
X031555Y018406D03*
X032055Y018406D03*
X032555Y018406D03*
X033055Y018406D03*
X033055Y020454D03*
X032555Y020454D03*
X032055Y020454D03*
X031555Y020454D03*
D35*
X018783Y025727D03*
X018783Y026633D03*
X017327Y026633D03*
X017327Y025727D03*
X009283Y010445D03*
X009283Y009540D03*
X007827Y009540D03*
X007827Y010445D03*
D36*
X023305Y012845D03*
X023805Y012845D03*
X024305Y012845D03*
X024805Y012845D03*
X025305Y012845D03*
X025805Y012845D03*
X026305Y012845D03*
X026805Y012845D03*
X026805Y015265D03*
X026305Y015265D03*
X025805Y015265D03*
X025305Y015265D03*
X024805Y015265D03*
X024305Y015265D03*
X023805Y015265D03*
X023305Y015265D03*
D37*
X022555Y007335D03*
X022055Y007335D03*
X021555Y007335D03*
X021055Y007335D03*
X021055Y005275D03*
X021555Y005275D03*
X022055Y005275D03*
X022555Y005275D03*
D38*
X022106Y008680D03*
X021004Y008680D03*
X023379Y009055D03*
X024481Y009055D03*
D39*
X023937Y002305D03*
X021555Y002305D03*
D40*
X020055Y002064D03*
X020055Y003796D03*
D41*
X010554Y005286D03*
X009806Y005286D03*
X010180Y006113D03*
M02*
