G75*
G70*
%OFA0B0*%
%FSLAX24Y24*%
%IPPOS*%
%LPD*%
%AMOC8*
5,1,8,0,0,1.08239X$1,22.5*
%
%ADD10C,0.1162*%
%ADD11R,0.0800X0.0800*%
%ADD12OC8,0.0800*%
%ADD13C,0.0414*%
%ADD14R,0.0520X0.0690*%
%ADD15R,0.0060X0.0720*%
%ADD16R,0.0690X0.0520*%
%ADD17R,0.0720X0.0060*%
%ADD18C,0.0920*%
%ADD19C,0.0651*%
%ADD20C,0.0454*%
%ADD21C,0.0620*%
%ADD22C,0.0920*%
%ADD23C,0.1360*%
%ADD24C,0.0820*%
%ADD25C,0.0690*%
%ADD26OC8,0.0690*%
%ADD27C,0.0297*%
%ADD28C,0.0376*%
D10*
X001430Y001430D03*
X001430Y031180D03*
X042055Y031180D03*
X042055Y001430D03*
D11*
X023805Y024430D03*
X011305Y011180D03*
D12*
X011305Y010180D03*
X011305Y009180D03*
X012305Y009180D03*
X012305Y010180D03*
X012305Y011180D03*
X024805Y024430D03*
X025805Y024430D03*
X025805Y025430D03*
X024805Y025430D03*
X023805Y025430D03*
D13*
X011171Y002805D03*
X009439Y002805D03*
D14*
X006355Y004930D03*
X005755Y004930D03*
D15*
X006055Y004930D03*
D16*
X005555Y009380D03*
X005555Y009980D03*
D17*
X005555Y009680D03*
D18*
X002805Y009430D03*
X002805Y008430D03*
X002805Y006680D03*
X002805Y005680D03*
X002805Y003930D03*
X002805Y002930D03*
X002805Y010430D03*
X002805Y011430D03*
X003055Y028680D03*
X004055Y028680D03*
X005055Y028680D03*
X006055Y028680D03*
X007055Y028680D03*
X009055Y028680D03*
X010055Y028680D03*
X011055Y028680D03*
X013055Y028680D03*
X014055Y028680D03*
X015055Y028680D03*
X017055Y028680D03*
X018055Y028680D03*
X019055Y028680D03*
X020055Y028680D03*
X021055Y028680D03*
X022055Y028680D03*
X024055Y028680D03*
X025055Y028680D03*
X026055Y028680D03*
X027055Y028680D03*
X028055Y028680D03*
X029055Y028680D03*
X031055Y028680D03*
X032055Y028680D03*
X033055Y028680D03*
X034055Y028680D03*
X035055Y028680D03*
X036055Y028680D03*
X038649Y026180D03*
X038649Y025180D03*
X038649Y024180D03*
X038649Y023180D03*
X038649Y022180D03*
X038649Y021180D03*
X038649Y020180D03*
X038649Y019180D03*
D19*
X039482Y003081D03*
D20*
X039482Y012529D03*
D21*
X027636Y012611D03*
X027636Y011824D03*
X027636Y011036D03*
X027636Y010249D03*
X027636Y009461D03*
X027636Y008674D03*
X027636Y007887D03*
X027636Y013399D03*
X027636Y014186D03*
X027636Y014973D03*
X018974Y014973D03*
X018974Y014186D03*
X018974Y013399D03*
X018974Y012611D03*
X018974Y011824D03*
X018974Y011036D03*
X018974Y010249D03*
X018974Y009461D03*
X018974Y008674D03*
X018974Y007887D03*
D22*
X031055Y016500D02*
X031055Y017360D01*
X033555Y017360D02*
X033555Y016500D01*
X037695Y017550D02*
X038555Y017550D01*
X038555Y014850D02*
X037695Y014850D01*
D23*
X038180Y029180D03*
X040180Y029180D03*
D24*
X015805Y025430D03*
X014805Y025430D03*
X006680Y024305D03*
X005680Y024305D03*
D25*
X030180Y024680D03*
X017930Y002305D03*
D26*
X017930Y001305D03*
D27*
X010930Y004805D03*
X009149Y004992D03*
X007993Y006149D03*
X007399Y005336D03*
X007305Y004555D03*
X006774Y003118D03*
X004305Y004618D03*
X004993Y005430D03*
X004430Y006055D03*
X005024Y006430D03*
X004649Y006680D03*
X005024Y007774D03*
X005086Y008243D03*
X004430Y008180D03*
X006118Y008493D03*
X006555Y008930D03*
X006305Y009430D03*
X005430Y010555D03*
X004805Y011930D03*
X002774Y012274D03*
X004055Y014180D03*
X003555Y015680D03*
X004868Y015868D03*
X007180Y017305D03*
X009055Y018804D03*
X009399Y018430D03*
X011243Y017055D03*
X010305Y015930D03*
X009180Y016555D03*
X011430Y018555D03*
X012555Y018680D03*
X011586Y019430D03*
X013618Y020430D03*
X013555Y020805D03*
X014055Y020305D03*
X013930Y019680D03*
X015680Y019930D03*
X016086Y019649D03*
X016430Y018805D03*
X015930Y018555D03*
X014180Y017430D03*
X014305Y016680D03*
X013805Y016305D03*
X013805Y015680D03*
X013680Y014805D03*
X013680Y014305D03*
X012555Y014430D03*
X012555Y015180D03*
X012430Y015930D03*
X011555Y014180D03*
X010305Y013055D03*
X010805Y012680D03*
X012055Y012305D03*
X013430Y011555D03*
X013430Y010805D03*
X014180Y010055D03*
X014555Y011961D03*
X014555Y013180D03*
X016680Y014680D03*
X020118Y014493D03*
X020167Y016068D03*
X022055Y016493D03*
X022555Y016493D03*
X021680Y017368D03*
X021555Y018180D03*
X022555Y019055D03*
X023555Y018680D03*
X024805Y017867D03*
X025430Y017805D03*
X026305Y017555D03*
X028440Y018929D03*
X029055Y019680D03*
X026680Y020305D03*
X026680Y021274D03*
X024805Y020305D03*
X024430Y021305D03*
X024055Y022055D03*
X023555Y023180D03*
X024305Y023555D03*
X022305Y023180D03*
X021961Y022836D03*
X022055Y024055D03*
X022055Y025024D03*
X021430Y025305D03*
X020055Y024930D03*
X019118Y025086D03*
X020055Y025930D03*
X020055Y022930D03*
X019555Y022930D03*
X019055Y022930D03*
X018055Y022430D03*
X017555Y022930D03*
X017055Y022930D03*
X016805Y022430D03*
X016805Y021680D03*
X016336Y021711D03*
X015805Y022430D03*
X018586Y019867D03*
X018055Y019430D03*
X019180Y020305D03*
X019805Y019680D03*
X019805Y019055D03*
X022024Y020305D03*
X022305Y020680D03*
X022555Y020305D03*
X027055Y024180D03*
X027555Y025055D03*
X027555Y025680D03*
X028055Y025805D03*
X029055Y026930D03*
X029680Y027180D03*
X028055Y027118D03*
X027552Y027678D03*
X033055Y025680D03*
X034055Y024680D03*
X035055Y025805D03*
X035055Y026930D03*
X036930Y024805D03*
X035555Y023430D03*
X035055Y022930D03*
X035055Y021805D03*
X035555Y021805D03*
X036930Y022180D03*
X035055Y019805D03*
X033055Y021305D03*
X032555Y019742D03*
X032555Y019180D03*
X034399Y017930D03*
X029430Y022180D03*
X023930Y014430D03*
X024555Y013680D03*
X026055Y013930D03*
X026649Y013930D03*
X025774Y012086D03*
X025055Y012180D03*
X022805Y012742D03*
X022305Y014024D03*
X023430Y010430D03*
X025055Y007555D03*
X026930Y007555D03*
X028555Y004680D03*
X031555Y004180D03*
X031055Y008930D03*
X011930Y007055D03*
X010555Y007649D03*
X009024Y009024D03*
X008555Y010430D03*
X007524Y007368D03*
X002805Y007555D03*
X007180Y019805D03*
X006180Y021555D03*
X005555Y021555D03*
X004430Y021055D03*
X003555Y021305D03*
X003555Y022930D03*
X005180Y023555D03*
X003055Y025430D03*
X006055Y027117D03*
X008055Y028680D03*
X010055Y026836D03*
X009305Y026055D03*
X008555Y026555D03*
X008180Y024555D03*
X008055Y023680D03*
X010805Y023930D03*
X011930Y026055D03*
X012930Y026805D03*
X014430Y026680D03*
X011805Y028680D03*
X011430Y021305D03*
D28*
X024555Y006930D03*
X022055Y006305D03*
X025930Y002430D03*
X028680Y002805D03*
X013055Y005305D03*
X006805Y002305D03*
M02*
