G75*
G70*
%OFA0B0*%
%FSLAX24Y24*%
%IPPOS*%
%LPD*%
%AMOC8*
5,1,8,0,0,1.08239X$1,22.5*
%
%ADD10C,0.1162*%
%ADD11R,0.0800X0.0800*%
%ADD12OC8,0.0800*%
%ADD13C,0.0414*%
%ADD14R,0.0520X0.0690*%
%ADD15R,0.0060X0.0720*%
%ADD16R,0.0690X0.0520*%
%ADD17R,0.0720X0.0060*%
%ADD18C,0.0920*%
%ADD19C,0.0651*%
%ADD20C,0.0454*%
%ADD21C,0.0620*%
%ADD22C,0.0920*%
%ADD23C,0.1360*%
%ADD24C,0.0690*%
%ADD25C,0.0820*%
%ADD26OC8,0.0690*%
%ADD27C,0.0297*%
%ADD28C,0.0376*%
D10*
X001433Y001433D03*
X001433Y031183D03*
X042058Y031183D03*
X042058Y001433D03*
D11*
X023808Y024433D03*
X011308Y011183D03*
D12*
X012308Y011183D03*
X012308Y010183D03*
X011308Y010183D03*
X011308Y009183D03*
X012308Y009183D03*
X024808Y024433D03*
X025808Y024433D03*
X025808Y025433D03*
X024808Y025433D03*
X023808Y025433D03*
D13*
X011175Y002808D03*
X009442Y002808D03*
D14*
X006358Y004933D03*
X005758Y004933D03*
D15*
X006058Y004933D03*
D16*
X005558Y009383D03*
X005558Y009983D03*
D17*
X005558Y009683D03*
D18*
X002808Y009433D03*
X002808Y008433D03*
X002808Y006683D03*
X002808Y005683D03*
X002808Y003933D03*
X002808Y002933D03*
X002808Y010433D03*
X002808Y011433D03*
X003058Y028683D03*
X004058Y028683D03*
X005058Y028683D03*
X006058Y028683D03*
X007058Y028683D03*
X009058Y028683D03*
X010058Y028683D03*
X011058Y028683D03*
X013058Y028683D03*
X014058Y028683D03*
X015058Y028683D03*
X017058Y028683D03*
X018058Y028683D03*
X019058Y028683D03*
X020058Y028683D03*
X021058Y028683D03*
X022058Y028683D03*
X024058Y028683D03*
X025058Y028683D03*
X026058Y028683D03*
X027058Y028683D03*
X028058Y028683D03*
X029058Y028683D03*
X031058Y028683D03*
X032058Y028683D03*
X033058Y028683D03*
X034058Y028683D03*
X035058Y028683D03*
X036058Y028683D03*
X038652Y026183D03*
X038652Y025183D03*
X038652Y024183D03*
X038652Y023183D03*
X038652Y022183D03*
X038652Y021183D03*
X038652Y020183D03*
X038652Y019183D03*
D19*
X039486Y003084D03*
D20*
X039486Y012533D03*
D21*
X027639Y012614D03*
X027639Y011827D03*
X027639Y011040D03*
X027639Y010252D03*
X027639Y009465D03*
X027639Y008677D03*
X027639Y007890D03*
X027639Y013402D03*
X027639Y014189D03*
X027639Y014977D03*
X018978Y014977D03*
X018978Y014189D03*
X018978Y013402D03*
X018978Y012614D03*
X018978Y011827D03*
X018978Y011040D03*
X018978Y010252D03*
X018978Y009465D03*
X018978Y008677D03*
X018978Y007890D03*
D22*
X031058Y016503D02*
X031058Y017363D01*
X033558Y017363D02*
X033558Y016503D01*
X037698Y017553D02*
X038558Y017553D01*
X038558Y014853D02*
X037698Y014853D01*
D23*
X038183Y029183D03*
X040183Y029183D03*
D24*
X030183Y024683D03*
X006246Y011402D03*
X017933Y002308D03*
D25*
X006683Y024308D03*
X005683Y024308D03*
X014808Y025433D03*
X015808Y025433D03*
D26*
X017933Y001308D03*
D27*
X010933Y004808D03*
X009152Y004996D03*
X007996Y006152D03*
X007402Y005340D03*
X007308Y004558D03*
X006777Y003121D03*
X004433Y004621D03*
X004996Y005433D03*
X004433Y006058D03*
X005027Y006433D03*
X004652Y006683D03*
X005027Y007777D03*
X005090Y008246D03*
X004433Y008183D03*
X006121Y008496D03*
X006558Y008933D03*
X006308Y009433D03*
X005433Y010558D03*
X004808Y011933D03*
X002402Y012277D03*
X004058Y014183D03*
X003558Y015683D03*
X004871Y015871D03*
X007183Y017308D03*
X009058Y018807D03*
X009402Y018433D03*
X011246Y017058D03*
X010308Y015933D03*
X009183Y016558D03*
X011433Y018558D03*
X012558Y018683D03*
X011590Y019433D03*
X013621Y020433D03*
X013558Y020808D03*
X014058Y020308D03*
X013933Y019683D03*
X015683Y019933D03*
X016090Y019652D03*
X016433Y018808D03*
X015933Y018558D03*
X014183Y017433D03*
X014308Y016683D03*
X013808Y016308D03*
X013808Y015683D03*
X013683Y014808D03*
X013683Y014308D03*
X012558Y014433D03*
X012558Y015183D03*
X012433Y015933D03*
X011558Y014183D03*
X010308Y013058D03*
X010808Y012683D03*
X012058Y012308D03*
X013433Y011558D03*
X013433Y010808D03*
X014183Y010058D03*
X014558Y011965D03*
X014558Y013183D03*
X016683Y014683D03*
X020121Y014496D03*
X020171Y016071D03*
X022058Y016496D03*
X022558Y016496D03*
X021683Y017371D03*
X021558Y018183D03*
X022558Y019058D03*
X023558Y018683D03*
X024808Y017871D03*
X025433Y017808D03*
X026308Y017558D03*
X028058Y018933D03*
X028808Y018933D03*
X029058Y019683D03*
X030933Y018933D03*
X032558Y019183D03*
X032558Y019746D03*
X033058Y021308D03*
X035058Y021808D03*
X035558Y021808D03*
X036933Y022183D03*
X035558Y023433D03*
X035058Y022933D03*
X034058Y024683D03*
X033058Y025683D03*
X035058Y025808D03*
X035058Y026933D03*
X036933Y024808D03*
X035058Y019808D03*
X034402Y017933D03*
X029433Y022183D03*
X026683Y021277D03*
X026683Y020308D03*
X024808Y020308D03*
X024433Y021308D03*
X024058Y022058D03*
X023558Y023183D03*
X024308Y023558D03*
X022308Y023183D03*
X021965Y022840D03*
X022058Y024058D03*
X022058Y025027D03*
X021433Y025308D03*
X020058Y024933D03*
X019121Y025090D03*
X020058Y025933D03*
X020058Y022933D03*
X019558Y022933D03*
X019058Y022933D03*
X018058Y022433D03*
X017558Y022933D03*
X017058Y022933D03*
X016808Y022433D03*
X016808Y021683D03*
X016340Y021715D03*
X015808Y022433D03*
X018590Y019871D03*
X018058Y019433D03*
X019183Y020308D03*
X019808Y019683D03*
X019808Y019058D03*
X022027Y020308D03*
X022308Y020683D03*
X022558Y020308D03*
X027058Y024183D03*
X027558Y025058D03*
X027558Y025683D03*
X028058Y025808D03*
X029058Y026933D03*
X029683Y026933D03*
X028058Y027121D03*
X027558Y027152D03*
X014433Y026683D03*
X012683Y026683D03*
X011933Y026058D03*
X010058Y026840D03*
X009308Y026058D03*
X008558Y026558D03*
X008558Y024808D03*
X008058Y023683D03*
X006308Y021683D03*
X005558Y021558D03*
X004433Y021058D03*
X003558Y021308D03*
X003558Y022933D03*
X005183Y023683D03*
X003058Y025558D03*
X006058Y027121D03*
X008058Y028683D03*
X011808Y028683D03*
X010808Y023933D03*
X011433Y021308D03*
X007183Y019808D03*
X008558Y010433D03*
X009027Y009027D03*
X010558Y007652D03*
X011933Y007058D03*
X007527Y007371D03*
X002808Y007433D03*
X022308Y014027D03*
X022808Y012746D03*
X024558Y013683D03*
X023933Y014433D03*
X026058Y013933D03*
X026652Y013933D03*
X025777Y012090D03*
X025058Y012183D03*
X023433Y010433D03*
X025058Y007558D03*
X026933Y007558D03*
X028558Y004683D03*
X031558Y004183D03*
X031058Y008933D03*
D28*
X024558Y006933D03*
X022058Y006308D03*
X025933Y002433D03*
X028683Y002808D03*
X013058Y005308D03*
X006808Y002308D03*
M02*
