G75*
G70*
%OFA0B0*%
%FSLAX24Y24*%
%IPPOS*%
%LPD*%
%AMOC8*
5,1,8,0,0,1.08239X$1,22.5*
%
%ADD10R,0.0118X0.0236*%
%ADD11C,0.0040*%
%ADD12R,0.0500X0.0500*%
%ADD13R,0.0433X0.0394*%
%ADD14R,0.0197X0.0984*%
%ADD15R,0.0787X0.0984*%
%ADD16R,0.0300X0.0300*%
%ADD17R,0.1339X0.0748*%
%ADD18R,0.0472X0.0315*%
%ADD19R,0.0591X0.0512*%
%ADD20R,0.0512X0.0591*%
%ADD21R,0.0630X0.0512*%
%ADD22R,0.0748X0.0748*%
%ADD23R,0.0709X0.0669*%
%ADD24R,0.1575X0.0472*%
%ADD25R,0.0800X0.0800*%
%ADD26R,0.0590X0.0790*%
%ADD27R,0.1500X0.0790*%
%ADD28R,0.0512X0.0630*%
%ADD29R,0.0591X0.0138*%
%ADD30R,0.0138X0.0591*%
%ADD31R,0.0390X0.0272*%
%ADD32R,0.0472X0.0236*%
%ADD33R,0.0866X0.0236*%
%ADD34R,0.0300X0.0600*%
%ADD35R,0.0236X0.0866*%
%ADD36R,0.0748X0.0433*%
%ADD37R,0.0260X0.0800*%
%ADD38R,0.0240X0.0870*%
%ADD39R,0.0630X0.1063*%
%ADD40R,0.0689X0.1850*%
%ADD41R,0.0945X0.0945*%
D10*
X004939Y006163D03*
X005136Y006163D03*
X005333Y006163D03*
X005530Y006163D03*
X005727Y006163D03*
X005924Y006163D03*
X005924Y006556D03*
X005727Y006556D03*
X005530Y006556D03*
X005333Y006556D03*
X005136Y006556D03*
X004939Y006556D03*
X004939Y006950D03*
X005136Y006950D03*
X005333Y006950D03*
X005530Y006950D03*
X005727Y006950D03*
X005924Y006950D03*
D11*
X006248Y006881D02*
X006426Y006881D01*
X006426Y006822D01*
X006248Y006822D01*
X006248Y006881D01*
X006248Y006858D02*
X006426Y006858D01*
X006426Y007019D02*
X006248Y007019D01*
X006248Y007078D01*
X006426Y007078D01*
X006426Y007019D01*
X006426Y007050D02*
X006248Y007050D01*
X006248Y007216D02*
X006426Y007216D01*
X006426Y007275D01*
X006268Y007275D01*
X006248Y007255D01*
X006248Y007216D01*
X006248Y007243D02*
X006426Y007243D01*
X006150Y007393D02*
X006130Y007373D01*
X006091Y007373D01*
X006091Y007550D01*
X006150Y007550D01*
X006150Y007393D01*
X006150Y007397D02*
X006091Y007397D01*
X006091Y007436D02*
X006150Y007436D01*
X006150Y007474D02*
X006091Y007474D01*
X006091Y007513D02*
X006150Y007513D01*
X005953Y007513D02*
X005894Y007513D01*
X005894Y007550D02*
X005953Y007550D01*
X005953Y007373D01*
X005894Y007373D01*
X005894Y007550D01*
X005894Y007474D02*
X005953Y007474D01*
X005953Y007436D02*
X005894Y007436D01*
X005894Y007397D02*
X005953Y007397D01*
X005756Y007397D02*
X005697Y007397D01*
X005697Y007373D02*
X005697Y007550D01*
X005756Y007550D01*
X005756Y007373D01*
X005697Y007373D01*
X005697Y007436D02*
X005756Y007436D01*
X005756Y007474D02*
X005697Y007474D01*
X005697Y007513D02*
X005756Y007513D01*
X005559Y007513D02*
X005500Y007513D01*
X005500Y007550D02*
X005559Y007550D01*
X005559Y007373D01*
X005500Y007373D01*
X005500Y007550D01*
X005500Y007474D02*
X005559Y007474D01*
X005559Y007436D02*
X005500Y007436D01*
X005500Y007397D02*
X005559Y007397D01*
X005363Y007397D02*
X005303Y007397D01*
X005303Y007373D02*
X005303Y007550D01*
X005363Y007550D01*
X005363Y007373D01*
X005303Y007373D01*
X005303Y007436D02*
X005363Y007436D01*
X005363Y007474D02*
X005303Y007474D01*
X005303Y007513D02*
X005363Y007513D01*
X005166Y007513D02*
X005107Y007513D01*
X005107Y007550D02*
X005166Y007550D01*
X005166Y007373D01*
X005107Y007373D01*
X005107Y007550D01*
X005107Y007474D02*
X005166Y007474D01*
X005166Y007436D02*
X005107Y007436D01*
X005107Y007397D02*
X005166Y007397D01*
X004969Y007397D02*
X004910Y007397D01*
X004910Y007373D02*
X004910Y007550D01*
X004969Y007550D01*
X004969Y007373D01*
X004910Y007373D01*
X004910Y007436D02*
X004969Y007436D01*
X004969Y007474D02*
X004910Y007474D01*
X004910Y007513D02*
X004969Y007513D01*
X004772Y007513D02*
X004713Y007513D01*
X004713Y007550D02*
X004772Y007550D01*
X004772Y007373D01*
X004733Y007373D01*
X004713Y007393D01*
X004713Y007550D01*
X004713Y007474D02*
X004772Y007474D01*
X004772Y007436D02*
X004713Y007436D01*
X004713Y007397D02*
X004772Y007397D01*
X004614Y007255D02*
X004614Y007216D01*
X004437Y007216D01*
X004437Y007275D01*
X004595Y007275D01*
X004614Y007255D01*
X004614Y007243D02*
X004437Y007243D01*
X004437Y007078D02*
X004437Y007019D01*
X004614Y007019D01*
X004614Y007078D01*
X004437Y007078D01*
X004437Y007050D02*
X004614Y007050D01*
X004614Y006881D02*
X004614Y006822D01*
X004437Y006822D01*
X004437Y006881D01*
X004614Y006881D01*
X004614Y006858D02*
X004437Y006858D01*
X004437Y006684D02*
X004437Y006625D01*
X004614Y006625D01*
X004614Y006684D01*
X004437Y006684D01*
X004437Y006665D02*
X004614Y006665D01*
X004614Y006626D02*
X004437Y006626D01*
X004437Y006487D02*
X004437Y006428D01*
X004614Y006428D01*
X004614Y006487D01*
X004437Y006487D01*
X004437Y006472D02*
X004614Y006472D01*
X004614Y006434D02*
X004437Y006434D01*
X004437Y006291D02*
X004437Y006231D01*
X004614Y006231D01*
X004614Y006291D01*
X004437Y006291D01*
X004437Y006279D02*
X004614Y006279D01*
X004614Y006241D02*
X004437Y006241D01*
X004437Y006094D02*
X004437Y006035D01*
X004614Y006035D01*
X004614Y006094D01*
X004437Y006094D01*
X004437Y006087D02*
X004614Y006087D01*
X004614Y006048D02*
X004437Y006048D01*
X004437Y005897D02*
X004437Y005838D01*
X004595Y005838D01*
X004614Y005857D01*
X004614Y005897D01*
X004437Y005897D01*
X004437Y005894D02*
X004614Y005894D01*
X004612Y005855D02*
X004437Y005855D01*
X004713Y005720D02*
X004713Y005562D01*
X004772Y005562D01*
X004772Y005739D01*
X004733Y005739D01*
X004713Y005720D01*
X004713Y005701D02*
X004772Y005701D01*
X004772Y005663D02*
X004713Y005663D01*
X004713Y005624D02*
X004772Y005624D01*
X004772Y005586D02*
X004713Y005586D01*
X004910Y005586D02*
X004969Y005586D01*
X004969Y005562D02*
X004910Y005562D01*
X004910Y005739D01*
X004969Y005739D01*
X004969Y005562D01*
X004969Y005624D02*
X004910Y005624D01*
X004910Y005663D02*
X004969Y005663D01*
X004969Y005701D02*
X004910Y005701D01*
X005107Y005701D02*
X005166Y005701D01*
X005166Y005663D02*
X005107Y005663D01*
X005107Y005624D02*
X005166Y005624D01*
X005166Y005586D02*
X005107Y005586D01*
X005107Y005562D02*
X005166Y005562D01*
X005166Y005739D01*
X005107Y005739D01*
X005107Y005562D01*
X005303Y005562D02*
X005363Y005562D01*
X005363Y005739D01*
X005303Y005739D01*
X005303Y005562D01*
X005303Y005586D02*
X005363Y005586D01*
X005363Y005624D02*
X005303Y005624D01*
X005303Y005663D02*
X005363Y005663D01*
X005363Y005701D02*
X005303Y005701D01*
X005500Y005701D02*
X005559Y005701D01*
X005559Y005663D02*
X005500Y005663D01*
X005500Y005624D02*
X005559Y005624D01*
X005559Y005586D02*
X005500Y005586D01*
X005500Y005562D02*
X005559Y005562D01*
X005559Y005739D01*
X005500Y005739D01*
X005500Y005562D01*
X005697Y005562D02*
X005756Y005562D01*
X005756Y005739D01*
X005697Y005739D01*
X005697Y005562D01*
X005697Y005586D02*
X005756Y005586D01*
X005756Y005624D02*
X005697Y005624D01*
X005697Y005663D02*
X005756Y005663D01*
X005756Y005701D02*
X005697Y005701D01*
X005894Y005701D02*
X005953Y005701D01*
X005953Y005663D02*
X005894Y005663D01*
X005894Y005624D02*
X005953Y005624D01*
X005953Y005586D02*
X005894Y005586D01*
X005894Y005562D02*
X005953Y005562D01*
X005953Y005739D01*
X005894Y005739D01*
X005894Y005562D01*
X006091Y005562D02*
X006091Y005739D01*
X006130Y005739D01*
X006150Y005720D01*
X006150Y005562D01*
X006091Y005562D01*
X006091Y005586D02*
X006150Y005586D01*
X006150Y005624D02*
X006091Y005624D01*
X006091Y005663D02*
X006150Y005663D01*
X006150Y005701D02*
X006091Y005701D01*
X006250Y005855D02*
X006426Y005855D01*
X006426Y005838D02*
X006426Y005897D01*
X006248Y005897D01*
X006248Y005857D01*
X006268Y005838D01*
X006426Y005838D01*
X006426Y005894D02*
X006248Y005894D01*
X006248Y006035D02*
X006248Y006094D01*
X006426Y006094D01*
X006426Y006035D01*
X006248Y006035D01*
X006248Y006048D02*
X006426Y006048D01*
X006426Y006087D02*
X006248Y006087D01*
X006248Y006231D02*
X006248Y006291D01*
X006426Y006291D01*
X006426Y006231D01*
X006248Y006231D01*
X006248Y006241D02*
X006426Y006241D01*
X006426Y006279D02*
X006248Y006279D01*
X006248Y006428D02*
X006248Y006487D01*
X006426Y006487D01*
X006426Y006428D01*
X006248Y006428D01*
X006248Y006434D02*
X006426Y006434D01*
X006426Y006472D02*
X006248Y006472D01*
X006248Y006625D02*
X006248Y006684D01*
X006426Y006684D01*
X006426Y006625D01*
X006248Y006625D01*
X006248Y006626D02*
X006426Y006626D01*
X006426Y006665D02*
X006248Y006665D01*
D12*
X004181Y008969D03*
X004181Y009769D03*
X006281Y011306D03*
X007081Y011306D03*
X007778Y011309D03*
X008578Y011309D03*
X013306Y008706D03*
X013306Y007906D03*
X006806Y003706D03*
X006806Y002906D03*
X001681Y013156D03*
X001681Y013956D03*
X001681Y015281D03*
X001681Y016081D03*
X001681Y018031D03*
X001681Y018831D03*
X001681Y020156D03*
X001681Y020956D03*
X001681Y021906D03*
X001681Y022706D03*
X001681Y023656D03*
X001681Y024456D03*
X021156Y004306D03*
X021956Y004306D03*
X028031Y001431D03*
X028831Y001431D03*
D13*
X009672Y006306D03*
X009003Y006306D03*
X008266Y006244D03*
X007597Y006244D03*
D14*
X008801Y003916D03*
X009116Y003916D03*
X009431Y003916D03*
X009746Y003916D03*
X010061Y003916D03*
D15*
X011203Y003916D03*
X011203Y001750D03*
X007660Y001750D03*
X007660Y003916D03*
D16*
X006838Y004256D03*
X006838Y004856D03*
D17*
X011056Y006414D03*
X011056Y007949D03*
D18*
X004182Y002452D03*
X004182Y003161D03*
X005181Y003161D03*
X005181Y002452D03*
D19*
X005181Y003932D03*
X005181Y004680D03*
X004181Y004680D03*
X004181Y003932D03*
X009432Y010308D03*
X009432Y011056D03*
X022431Y006055D03*
X022431Y005307D03*
D20*
X022307Y007431D03*
X023055Y007431D03*
X026307Y001431D03*
X027055Y001431D03*
X009899Y007119D03*
X009151Y007119D03*
X008305Y007056D03*
X007557Y007056D03*
X007901Y008306D03*
X008649Y008306D03*
X007055Y008306D03*
X006307Y008306D03*
X003555Y013181D03*
X002807Y013181D03*
X011347Y020931D03*
X012016Y020931D03*
X021057Y015056D03*
X021805Y015056D03*
D21*
X020431Y016194D03*
X020431Y016981D03*
X019931Y015075D03*
X019931Y014288D03*
X016931Y014413D03*
X016931Y015200D03*
X015806Y014180D03*
X015806Y013432D03*
X016931Y013430D03*
X016931Y012682D03*
X025431Y018913D03*
X025431Y019700D03*
X027431Y024432D03*
X027431Y025180D03*
X030931Y025180D03*
X030931Y024432D03*
X032181Y024432D03*
X032181Y025180D03*
X034181Y025180D03*
X034181Y024432D03*
X035181Y024432D03*
X035181Y025180D03*
X033056Y019450D03*
X033056Y018663D03*
X020931Y026089D03*
X020931Y026837D03*
X019931Y026805D03*
X019931Y026057D03*
X012056Y024430D03*
X012056Y023682D03*
X010306Y025432D03*
X010306Y026180D03*
X009181Y026180D03*
X009181Y025432D03*
X006181Y025432D03*
X006181Y026180D03*
X004181Y026180D03*
X004181Y025432D03*
X003181Y025432D03*
X003181Y026180D03*
D22*
X030971Y013719D03*
X036916Y013679D03*
D23*
X030971Y002223D03*
D24*
X029081Y003010D03*
X029081Y004073D03*
X029081Y004742D03*
X029081Y005687D03*
X029081Y006711D03*
X029081Y007656D03*
X029081Y008640D03*
X029081Y009624D03*
X029081Y010608D03*
X029081Y011593D03*
D25*
X033093Y002341D03*
X036912Y002341D03*
D26*
X028466Y018191D03*
X027566Y018191D03*
X026666Y018191D03*
D27*
X027556Y020671D03*
D28*
X031807Y022306D03*
X032555Y022306D03*
X028450Y016931D03*
X027663Y016931D03*
X024649Y016806D03*
X023901Y016806D03*
X021200Y012869D03*
X020413Y012869D03*
X012075Y013806D03*
X011288Y013806D03*
X009825Y014806D03*
X009038Y014806D03*
X011307Y016806D03*
X012055Y016806D03*
X012075Y018056D03*
X011288Y018056D03*
X009825Y017306D03*
X009038Y017306D03*
X007575Y018181D03*
X006788Y018181D03*
X005680Y018181D03*
X004932Y018181D03*
X004913Y019306D03*
X005700Y019306D03*
X007057Y020056D03*
X007805Y020056D03*
X007825Y021181D03*
X007038Y021181D03*
X007038Y022306D03*
X007825Y022306D03*
X009413Y022056D03*
X010200Y022056D03*
X011307Y022056D03*
X012055Y022056D03*
X009805Y020056D03*
X009057Y020056D03*
X003555Y020306D03*
X002807Y020306D03*
X002807Y022056D03*
X003555Y022056D03*
X003555Y023806D03*
X002807Y023806D03*
X002807Y016806D03*
X003555Y016806D03*
X003555Y015056D03*
X002807Y015056D03*
X016038Y025088D03*
X016825Y025088D03*
X015075Y026556D03*
X014288Y026556D03*
X024307Y001431D03*
X025055Y001431D03*
D29*
X020081Y018694D03*
X020081Y018891D03*
X020081Y019088D03*
X020081Y019285D03*
X020081Y019481D03*
X020081Y019678D03*
X020081Y019875D03*
X020081Y020072D03*
X020081Y020269D03*
X020081Y020466D03*
X020081Y020663D03*
X020081Y020859D03*
X020081Y021056D03*
X020081Y021253D03*
X020081Y021450D03*
X020081Y021647D03*
X020081Y021844D03*
X020081Y022041D03*
X020081Y022237D03*
X020081Y022434D03*
X020081Y022631D03*
X020081Y022828D03*
X020081Y023025D03*
X020081Y023222D03*
X020081Y023419D03*
X013782Y023419D03*
X013782Y023222D03*
X013782Y023025D03*
X013782Y022828D03*
X013782Y022631D03*
X013782Y022434D03*
X013782Y022237D03*
X013782Y022041D03*
X013782Y021844D03*
X013782Y021647D03*
X013782Y021450D03*
X013782Y021253D03*
X013782Y021056D03*
X013782Y020859D03*
X013782Y020663D03*
X013782Y020466D03*
X013782Y020269D03*
X013782Y020072D03*
X013782Y019875D03*
X013782Y019678D03*
X013782Y019481D03*
X013782Y019285D03*
X013782Y019088D03*
X013782Y018891D03*
X013782Y018694D03*
D30*
X014569Y017907D03*
X014766Y017907D03*
X014963Y017907D03*
X015160Y017907D03*
X015357Y017907D03*
X015553Y017907D03*
X015750Y017907D03*
X015947Y017907D03*
X016144Y017907D03*
X016341Y017907D03*
X016538Y017907D03*
X016735Y017907D03*
X016931Y017907D03*
X017128Y017907D03*
X017325Y017907D03*
X017522Y017907D03*
X017719Y017907D03*
X017916Y017907D03*
X018113Y017907D03*
X018309Y017907D03*
X018506Y017907D03*
X018703Y017907D03*
X018900Y017907D03*
X019097Y017907D03*
X019294Y017907D03*
X019294Y024206D03*
X019097Y024206D03*
X018900Y024206D03*
X018703Y024206D03*
X018506Y024206D03*
X018309Y024206D03*
X018113Y024206D03*
X017916Y024206D03*
X017719Y024206D03*
X017522Y024206D03*
X017325Y024206D03*
X017128Y024206D03*
X016931Y024206D03*
X016735Y024206D03*
X016538Y024206D03*
X016341Y024206D03*
X016144Y024206D03*
X015947Y024206D03*
X015750Y024206D03*
X015553Y024206D03*
X015357Y024206D03*
X015160Y024206D03*
X014963Y024206D03*
X014766Y024206D03*
X014569Y024206D03*
D31*
X012189Y019930D03*
X012189Y019556D03*
X012189Y019182D03*
X011170Y019182D03*
X011170Y019930D03*
X009939Y018930D03*
X009939Y018556D03*
X009939Y018182D03*
X008920Y018182D03*
X008920Y018930D03*
X008920Y016430D03*
X008920Y015682D03*
X009939Y015682D03*
X009939Y016056D03*
X009939Y016430D03*
X011170Y015680D03*
X011170Y014932D03*
X012189Y014932D03*
X012189Y015306D03*
X012189Y015680D03*
X007689Y023432D03*
X007689Y023806D03*
X007689Y024180D03*
X006670Y024180D03*
X006670Y023432D03*
D32*
X005821Y021180D03*
X005821Y020806D03*
X005821Y020432D03*
X004792Y020432D03*
X004792Y021180D03*
D33*
X008783Y023056D03*
X008783Y023556D03*
X008783Y024056D03*
X008783Y024556D03*
X010830Y024556D03*
X010830Y024056D03*
X010830Y023556D03*
X010830Y023056D03*
D34*
X012806Y006431D03*
X014306Y006431D03*
X014306Y004431D03*
X014306Y003431D03*
X012806Y003431D03*
X012806Y004431D03*
X012806Y001431D03*
X014306Y001431D03*
D35*
X030681Y018533D03*
X031181Y018533D03*
X031681Y018533D03*
X032181Y018533D03*
X032181Y020580D03*
X031681Y020580D03*
X031181Y020580D03*
X030681Y020580D03*
D36*
X017910Y025854D03*
X017910Y026759D03*
X016453Y026759D03*
X016453Y025854D03*
X008410Y010572D03*
X008410Y009666D03*
X006953Y009666D03*
X006953Y010572D03*
D37*
X022431Y012971D03*
X022931Y012971D03*
X023431Y012971D03*
X023931Y012971D03*
X024431Y012971D03*
X024931Y012971D03*
X025431Y012971D03*
X025931Y012971D03*
X025931Y015391D03*
X025431Y015391D03*
X024931Y015391D03*
X024431Y015391D03*
X023931Y015391D03*
X023431Y015391D03*
X022931Y015391D03*
X022431Y015391D03*
D38*
X021681Y007461D03*
X021181Y007461D03*
X020681Y007461D03*
X020181Y007461D03*
X020181Y005401D03*
X020681Y005401D03*
X021181Y005401D03*
X021681Y005401D03*
D39*
X021233Y009181D03*
X020130Y009181D03*
X022505Y009181D03*
X023608Y009181D03*
D40*
X023063Y002431D03*
X020681Y002431D03*
D41*
X019181Y002190D03*
X019181Y003922D03*
M02*
