G75*
G70*
%OFA0B0*%
%FSLAX24Y24*%
%IPPOS*%
%LPD*%
%AMOC8*
5,1,8,0,0,1.08239X$1,22.5*
%
%ADD10R,0.0740X0.0740*%
%ADD11OC8,0.0740*%
%ADD12R,0.0460X0.0630*%
%ADD13R,0.0630X0.0460*%
%ADD14C,0.0860*%
%ADD15C,0.0560*%
%ADD16C,0.0860*%
%ADD17C,0.1300*%
%ADD18C,0.0630*%
%ADD19C,0.0760*%
%ADD20OC8,0.0630*%
%ADD21C,0.0160*%
%ADD22C,0.0237*%
%ADD23C,0.0500*%
%ADD24C,0.0316*%
%ADD25C,0.0220*%
%ADD26C,0.0240*%
%ADD27C,0.0120*%
%ADD28C,0.0100*%
%ADD29C,0.0080*%
D10*
X011308Y011183D03*
X023808Y024433D03*
D11*
X023808Y025433D03*
X024808Y025433D03*
X025808Y025433D03*
X025808Y024433D03*
X024808Y024433D03*
X012308Y011183D03*
X012308Y010183D03*
X011308Y010183D03*
X011308Y009183D03*
X012308Y009183D03*
D12*
X006358Y004933D03*
X005758Y004933D03*
D13*
X005558Y009383D03*
X005558Y009983D03*
D14*
X002808Y010433D03*
X002808Y009433D03*
X002808Y008433D03*
X002808Y006683D03*
X002808Y005683D03*
X002808Y003933D03*
X002808Y002933D03*
X002808Y011433D03*
X003058Y028683D03*
X004058Y028683D03*
X005058Y028683D03*
X006058Y028683D03*
X007058Y028683D03*
X009058Y028683D03*
X010058Y028683D03*
X011058Y028683D03*
X013058Y028683D03*
X014058Y028683D03*
X015058Y028683D03*
X017058Y028683D03*
X018058Y028683D03*
X019058Y028683D03*
X020058Y028683D03*
X021058Y028683D03*
X022058Y028683D03*
X024058Y028683D03*
X025058Y028683D03*
X026058Y028683D03*
X027058Y028683D03*
X028058Y028683D03*
X029058Y028683D03*
X031058Y028683D03*
X032058Y028683D03*
X033058Y028683D03*
X034058Y028683D03*
X035058Y028683D03*
X036058Y028683D03*
X038652Y026183D03*
X038652Y025183D03*
X038652Y024183D03*
X038652Y023183D03*
X038652Y022183D03*
X038652Y021183D03*
X038652Y020183D03*
X038652Y019183D03*
D15*
X027639Y014977D03*
X027639Y014189D03*
X027639Y013402D03*
X027639Y012614D03*
X027639Y011827D03*
X027639Y011040D03*
X027639Y010252D03*
X027639Y009465D03*
X027639Y008677D03*
X027639Y007890D03*
X018978Y007890D03*
X018978Y008677D03*
X018978Y009465D03*
X018978Y010252D03*
X018978Y011040D03*
X018978Y011827D03*
X018978Y012614D03*
X018978Y013402D03*
X018978Y014189D03*
X018978Y014977D03*
D16*
X031058Y016503D02*
X031058Y017363D01*
X033558Y017363D02*
X033558Y016503D01*
X037698Y017553D02*
X038558Y017553D01*
X038558Y014853D02*
X037698Y014853D01*
D17*
X038183Y029183D03*
X040183Y029183D03*
D18*
X030183Y024683D03*
X006246Y011402D03*
X017933Y002308D03*
D19*
X006683Y024308D03*
X005683Y024308D03*
X014808Y025433D03*
X015808Y025433D03*
D20*
X017933Y001308D03*
D21*
X001904Y000729D02*
X001867Y000713D01*
X041625Y000713D01*
X041588Y000729D01*
X041354Y000963D01*
X041227Y001268D01*
X041227Y001599D01*
X041354Y001904D01*
X041588Y002138D01*
X041893Y002265D01*
X042224Y002265D01*
X042529Y002138D01*
X042763Y001904D01*
X042778Y001867D01*
X042778Y030750D01*
X042763Y030713D01*
X042529Y030479D01*
X042224Y030352D01*
X041893Y030352D01*
X041588Y030479D01*
X041354Y030713D01*
X041227Y031018D01*
X041227Y031349D01*
X041354Y031654D01*
X041588Y031888D01*
X041625Y031903D01*
X001867Y031903D01*
X001904Y031888D01*
X002138Y031654D01*
X002265Y031349D01*
X002265Y031018D01*
X002138Y030713D01*
X001904Y030479D01*
X001599Y030352D01*
X001268Y030352D01*
X000963Y030479D01*
X000729Y030713D01*
X000713Y030750D01*
X000713Y001867D01*
X000729Y001904D01*
X000963Y002138D01*
X001268Y002265D01*
X001599Y002265D01*
X001904Y002138D01*
X002138Y001904D01*
X002265Y001599D01*
X002265Y001268D01*
X002138Y000963D01*
X001904Y000729D01*
X001926Y000750D02*
X041566Y000750D01*
X041407Y000909D02*
X030102Y000909D01*
X030086Y000893D02*
X030224Y001031D01*
X040836Y011643D01*
X040974Y011781D01*
X041048Y011961D01*
X041048Y026711D01*
X041048Y026906D01*
X040974Y027086D01*
X039067Y028992D01*
X039073Y029006D01*
X039073Y029360D01*
X038938Y029688D01*
X038688Y029938D01*
X038360Y030073D01*
X038006Y030073D01*
X037679Y029938D01*
X037429Y029688D01*
X037293Y029360D01*
X037293Y029006D01*
X037429Y028679D01*
X037679Y028429D01*
X038006Y028293D01*
X038360Y028293D01*
X038375Y028299D01*
X040068Y026605D01*
X040068Y012261D01*
X031916Y004109D01*
X031917Y004112D01*
X031917Y004255D01*
X031862Y004387D01*
X031762Y004487D01*
X031630Y004542D01*
X031487Y004542D01*
X031394Y004503D01*
X028872Y004503D01*
X028917Y004612D01*
X028917Y004755D01*
X028878Y004848D01*
X028878Y014551D01*
X029066Y014738D01*
X034372Y014738D01*
X034490Y014787D01*
X034580Y014877D01*
X035830Y016127D01*
X035878Y016245D01*
X035878Y016372D01*
X035878Y020122D01*
X035830Y020240D01*
X035740Y020330D01*
X035686Y020383D01*
X036499Y020383D01*
X036618Y020383D01*
X036728Y020429D01*
X037183Y020883D01*
X038051Y020883D01*
X038084Y020804D01*
X038261Y020627D01*
X038202Y020568D01*
X038148Y020493D01*
X038105Y020410D01*
X036682Y020410D01*
X036868Y020568D02*
X038203Y020568D01*
X038161Y020727D02*
X037026Y020727D01*
X036312Y021361D02*
X035564Y021361D01*
X035666Y021463D02*
X035436Y021233D01*
X036184Y021233D01*
X036800Y021849D01*
X036729Y021878D01*
X036628Y021979D01*
X036573Y022112D01*
X036573Y024880D01*
X036628Y025012D01*
X036729Y025114D01*
X036862Y025168D01*
X037005Y025168D01*
X037137Y025114D01*
X037239Y025012D01*
X037293Y024880D01*
X037293Y022343D01*
X037304Y022353D01*
X037388Y022438D01*
X037499Y022483D01*
X038051Y022483D01*
X038084Y022563D01*
X038205Y022683D01*
X038084Y022804D01*
X037982Y023050D01*
X037982Y023317D01*
X038084Y023563D01*
X038205Y023683D01*
X038084Y023804D01*
X037982Y024050D01*
X037982Y024317D01*
X038084Y024563D01*
X038205Y024683D01*
X038084Y024804D01*
X037982Y025050D01*
X037982Y025317D01*
X038084Y025563D01*
X038205Y025683D01*
X038084Y025804D01*
X038076Y025823D01*
X037207Y025823D01*
X033364Y021979D01*
X033262Y021878D01*
X033130Y021823D01*
X029362Y021823D01*
X029229Y021878D01*
X029128Y021979D01*
X029073Y022112D01*
X029073Y022255D01*
X029128Y022387D01*
X029229Y022489D01*
X029362Y022543D01*
X032909Y022543D01*
X036753Y026387D01*
X036753Y026387D01*
X036854Y026489D01*
X036987Y026543D01*
X038076Y026543D01*
X038084Y026563D01*
X038273Y026751D01*
X038519Y026853D01*
X038785Y026853D01*
X039032Y026751D01*
X039220Y026563D01*
X039322Y026317D01*
X039322Y026050D01*
X039220Y025804D01*
X039100Y025683D01*
X039220Y025563D01*
X039322Y025317D01*
X039322Y025050D01*
X039220Y024804D01*
X039100Y024683D01*
X039220Y024563D01*
X039322Y024317D01*
X039322Y024050D01*
X039220Y023804D01*
X039100Y023683D01*
X039220Y023563D01*
X039322Y023317D01*
X039322Y023050D01*
X039220Y022804D01*
X039100Y022683D01*
X039220Y022563D01*
X039322Y022317D01*
X039322Y022050D01*
X039220Y021804D01*
X039100Y021683D01*
X039220Y021563D01*
X039322Y021317D01*
X039322Y021050D01*
X039220Y020804D01*
X039043Y020627D01*
X039102Y020568D01*
X039157Y020493D01*
X039199Y020410D01*
X040068Y020410D01*
X040068Y020568D02*
X039101Y020568D01*
X039143Y020727D02*
X040068Y020727D01*
X040068Y020885D02*
X039254Y020885D01*
X039320Y021044D02*
X040068Y021044D01*
X040068Y021203D02*
X039322Y021203D01*
X039304Y021361D02*
X040068Y021361D01*
X040068Y021520D02*
X039238Y021520D01*
X039105Y021678D02*
X040068Y021678D01*
X040068Y021837D02*
X039234Y021837D01*
X039299Y021995D02*
X040068Y021995D01*
X040068Y022154D02*
X039322Y022154D01*
X039322Y022312D02*
X040068Y022312D01*
X040068Y022471D02*
X039258Y022471D01*
X039153Y022629D02*
X040068Y022629D01*
X040068Y022788D02*
X039204Y022788D01*
X039279Y022947D02*
X040068Y022947D01*
X040068Y023105D02*
X039322Y023105D01*
X039322Y023264D02*
X040068Y023264D01*
X040068Y023422D02*
X039278Y023422D01*
X039202Y023581D02*
X040068Y023581D01*
X040068Y023739D02*
X039156Y023739D01*
X039259Y023898D02*
X040068Y023898D01*
X040068Y024056D02*
X039322Y024056D01*
X039322Y024215D02*
X040068Y024215D01*
X040068Y024373D02*
X039299Y024373D01*
X039233Y024532D02*
X040068Y024532D01*
X040068Y024691D02*
X039107Y024691D01*
X039239Y024849D02*
X040068Y024849D01*
X040068Y025008D02*
X039304Y025008D01*
X039322Y025166D02*
X040068Y025166D01*
X040068Y025325D02*
X039319Y025325D01*
X039253Y025483D02*
X040068Y025483D01*
X040068Y025642D02*
X039141Y025642D01*
X039217Y025800D02*
X040068Y025800D01*
X040068Y025959D02*
X039284Y025959D01*
X039322Y026117D02*
X040068Y026117D01*
X040068Y026276D02*
X039322Y026276D01*
X039273Y026434D02*
X040068Y026434D01*
X040068Y026593D02*
X039190Y026593D01*
X039031Y026752D02*
X039922Y026752D01*
X039764Y026910D02*
X035418Y026910D01*
X035418Y027005D02*
X035364Y027137D01*
X035262Y027239D01*
X035130Y027293D01*
X034987Y027293D01*
X034854Y027239D01*
X034753Y027137D01*
X034698Y027005D01*
X034698Y025737D01*
X034753Y025604D01*
X034854Y025503D01*
X034987Y025448D01*
X035130Y025448D01*
X035262Y025503D01*
X035364Y025604D01*
X035418Y025737D01*
X035418Y027005D01*
X035392Y027069D02*
X039605Y027069D01*
X039447Y027227D02*
X035274Y027227D01*
X034843Y027227D02*
X034418Y027227D01*
X034418Y027069D02*
X034725Y027069D01*
X034698Y026910D02*
X034418Y026910D01*
X034418Y026752D02*
X034698Y026752D01*
X034698Y026593D02*
X034418Y026593D01*
X034418Y026434D02*
X034698Y026434D01*
X034698Y026276D02*
X034418Y026276D01*
X034418Y026117D02*
X034698Y026117D01*
X034698Y025959D02*
X034418Y025959D01*
X034418Y025800D02*
X034698Y025800D01*
X034738Y025642D02*
X034418Y025642D01*
X034418Y025483D02*
X034903Y025483D01*
X035214Y025483D02*
X035849Y025483D01*
X035691Y025325D02*
X034418Y025325D01*
X034418Y025166D02*
X035532Y025166D01*
X035374Y025008D02*
X034418Y025008D01*
X034418Y024849D02*
X035215Y024849D01*
X035056Y024691D02*
X034418Y024691D01*
X034418Y024612D02*
X034418Y028107D01*
X034438Y028115D01*
X034558Y028236D01*
X034679Y028115D01*
X034925Y028013D01*
X035192Y028013D01*
X035438Y028115D01*
X035558Y028236D01*
X035679Y028115D01*
X035925Y028013D01*
X036192Y028013D01*
X036438Y028115D01*
X036626Y028304D01*
X036728Y028550D01*
X036728Y028817D01*
X036626Y029063D01*
X036438Y029251D01*
X036192Y029353D01*
X035925Y029353D01*
X035679Y029251D01*
X035558Y029131D01*
X035438Y029251D01*
X035192Y029353D01*
X034925Y029353D01*
X034679Y029251D01*
X034558Y029131D01*
X034438Y029251D01*
X034192Y029353D01*
X033925Y029353D01*
X033679Y029251D01*
X033558Y029131D01*
X033438Y029251D01*
X033192Y029353D01*
X032925Y029353D01*
X032679Y029251D01*
X032502Y029074D01*
X032443Y029133D01*
X032368Y029188D01*
X032285Y029230D01*
X032197Y029259D01*
X032105Y029273D01*
X032087Y029273D01*
X032087Y028712D01*
X032030Y028712D01*
X032030Y029273D01*
X032012Y029273D01*
X031920Y029259D01*
X031832Y029230D01*
X031749Y029188D01*
X031674Y029133D01*
X031615Y029074D01*
X031438Y029251D01*
X031192Y029353D01*
X030925Y029353D01*
X030679Y029251D01*
X030490Y029063D01*
X030457Y028983D01*
X030455Y028990D01*
X029830Y029615D01*
X029740Y029705D01*
X029622Y029753D01*
X026872Y029753D01*
X026745Y029753D01*
X026627Y029705D01*
X026251Y029329D01*
X026192Y029353D01*
X025925Y029353D01*
X025866Y029329D01*
X025580Y029615D01*
X025490Y029705D01*
X025372Y029753D01*
X019872Y029753D01*
X019745Y029753D01*
X019627Y029705D01*
X019251Y029329D01*
X019192Y029353D01*
X018925Y029353D01*
X018679Y029251D01*
X018502Y029074D01*
X018443Y029133D01*
X018368Y029188D01*
X018285Y029230D01*
X018197Y029259D01*
X018105Y029273D01*
X018087Y029273D01*
X018087Y028712D01*
X018030Y028712D01*
X018030Y029273D01*
X018012Y029273D01*
X017920Y029259D01*
X017832Y029230D01*
X017749Y029188D01*
X017674Y029133D01*
X017615Y029074D01*
X017438Y029251D01*
X017192Y029353D01*
X016925Y029353D01*
X016679Y029251D01*
X016490Y029063D01*
X016388Y028817D01*
X016388Y028550D01*
X016490Y028304D01*
X016679Y028115D01*
X016925Y028013D01*
X017192Y028013D01*
X017438Y028115D01*
X017615Y028292D01*
X017674Y028233D01*
X017749Y028179D01*
X017832Y028137D01*
X017920Y028108D01*
X018012Y028093D01*
X018030Y028093D01*
X018030Y028655D01*
X018087Y028655D01*
X018087Y028093D01*
X018105Y028093D01*
X018197Y028108D01*
X018285Y028137D01*
X018368Y028179D01*
X018443Y028233D01*
X018502Y028292D01*
X018679Y028115D01*
X018925Y028013D01*
X019192Y028013D01*
X019438Y028115D01*
X019558Y028236D01*
X019679Y028115D01*
X019925Y028013D01*
X020192Y028013D01*
X020438Y028115D01*
X020558Y028236D01*
X020679Y028115D01*
X020698Y028107D01*
X020698Y026987D01*
X020753Y026854D01*
X020854Y026753D01*
X021073Y026534D01*
X021073Y025371D01*
X020404Y026041D01*
X020364Y026137D01*
X020262Y026239D01*
X020130Y026293D01*
X016707Y026293D01*
X016108Y026892D01*
X016108Y028874D01*
X016108Y028993D01*
X016063Y029103D01*
X015563Y029603D01*
X015478Y029688D01*
X015368Y029733D01*
X012868Y029733D01*
X012749Y029733D01*
X012638Y029688D01*
X012138Y029188D01*
X012054Y029103D01*
X012008Y028993D01*
X012008Y027495D01*
X011934Y027421D01*
X006266Y027421D01*
X006262Y027425D01*
X006130Y027480D01*
X005987Y027480D01*
X005855Y027425D01*
X005754Y027324D01*
X005700Y027192D01*
X005700Y027049D01*
X005754Y026918D01*
X005794Y026878D01*
X004566Y026878D01*
X004378Y027066D01*
X004378Y028091D01*
X004438Y028115D01*
X004558Y028236D01*
X004679Y028115D01*
X004925Y028013D01*
X005192Y028013D01*
X005438Y028115D01*
X005558Y028236D01*
X005679Y028115D01*
X005925Y028013D01*
X006192Y028013D01*
X006438Y028115D01*
X006558Y028236D01*
X006679Y028115D01*
X006925Y028013D01*
X007192Y028013D01*
X007438Y028115D01*
X007626Y028304D01*
X007728Y028550D01*
X007728Y028817D01*
X007626Y029063D01*
X007438Y029251D01*
X007192Y029353D01*
X006925Y029353D01*
X006679Y029251D01*
X006558Y029131D01*
X006438Y029251D01*
X006192Y029353D01*
X005925Y029353D01*
X005679Y029251D01*
X005558Y029131D01*
X005438Y029251D01*
X005192Y029353D01*
X004925Y029353D01*
X004679Y029251D01*
X004558Y029131D01*
X004438Y029251D01*
X004192Y029353D01*
X003925Y029353D01*
X003679Y029251D01*
X003502Y029074D01*
X003443Y029133D01*
X003368Y029188D01*
X003285Y029230D01*
X003197Y029259D01*
X003105Y029273D01*
X003087Y029273D01*
X003087Y028712D01*
X003030Y028712D01*
X003030Y029273D01*
X003012Y029273D01*
X002920Y029259D01*
X002832Y029230D01*
X002749Y029188D01*
X002674Y029133D01*
X002608Y029068D01*
X002554Y028993D01*
X002512Y028910D01*
X002483Y028822D01*
X002468Y028730D01*
X002468Y028712D01*
X003030Y028712D01*
X003030Y028655D01*
X003087Y028655D01*
X003087Y028093D01*
X003105Y028093D01*
X003197Y028108D01*
X003285Y028137D01*
X003368Y028179D01*
X003443Y028233D01*
X003502Y028292D01*
X003679Y028115D01*
X003738Y028091D01*
X003738Y026997D01*
X003738Y026870D01*
X003787Y026752D01*
X004162Y026377D01*
X004252Y026287D01*
X004270Y026280D01*
X004253Y026262D01*
X003253Y025262D01*
X003198Y025130D01*
X003198Y024987D01*
X003198Y022862D01*
X003253Y022729D01*
X003354Y022628D01*
X003487Y022573D01*
X003630Y022573D01*
X003738Y022618D01*
X003738Y022316D01*
X003287Y021865D01*
X003238Y021747D01*
X003238Y021620D01*
X003238Y021473D01*
X003200Y021380D01*
X003200Y021237D01*
X003254Y021105D01*
X003355Y021004D01*
X003487Y020950D01*
X003630Y020950D01*
X003762Y021004D01*
X003862Y021105D01*
X003917Y021237D01*
X003917Y021380D01*
X003878Y021473D01*
X003878Y021551D01*
X004240Y021912D01*
X004330Y022002D01*
X004378Y022120D01*
X004378Y024738D01*
X004878Y025238D01*
X011497Y025238D01*
X011615Y025287D01*
X011705Y025377D01*
X012008Y025681D01*
X012008Y024295D01*
X011455Y024863D01*
X011455Y024865D01*
X011410Y024909D01*
X011368Y024952D01*
X011366Y024953D01*
X011365Y024955D01*
X011306Y024979D01*
X011251Y025002D01*
X011249Y025002D01*
X011247Y025003D01*
X011184Y025003D01*
X011124Y025004D01*
X011122Y025003D01*
X009122Y025003D01*
X008995Y025003D01*
X008877Y024955D01*
X007983Y024061D01*
X007983Y024368D01*
X007938Y024478D01*
X007853Y024563D01*
X007228Y025188D01*
X007118Y025233D01*
X006999Y025233D01*
X006249Y025233D01*
X006138Y025188D01*
X006054Y025103D01*
X005858Y024907D01*
X005807Y024928D01*
X005560Y024928D01*
X005332Y024834D01*
X005158Y024660D01*
X005063Y024432D01*
X005063Y024185D01*
X005122Y024043D01*
X005112Y024043D01*
X004979Y023989D01*
X004566Y023575D01*
X004564Y023571D01*
X004511Y023442D01*
X004511Y023299D01*
X004511Y021416D01*
X004505Y021418D01*
X004362Y021418D01*
X004229Y021364D01*
X003753Y020887D01*
X003698Y020755D01*
X003698Y020612D01*
X003698Y016015D01*
X003630Y016043D01*
X003487Y016043D01*
X003354Y015989D01*
X003253Y015887D01*
X003198Y015755D01*
X003198Y013255D01*
X003198Y013112D01*
X003253Y012979D01*
X004604Y011628D01*
X004737Y011573D01*
X004746Y011573D01*
X003818Y010646D01*
X003770Y010528D01*
X003770Y010401D01*
X003770Y009066D01*
X003457Y008753D01*
X003401Y008753D01*
X003376Y008813D01*
X003199Y008990D01*
X003258Y009049D01*
X003313Y009124D01*
X003355Y009207D01*
X003384Y009295D01*
X003398Y009387D01*
X003398Y009405D01*
X002837Y009405D01*
X002837Y009462D01*
X003398Y009462D01*
X003398Y009480D01*
X003384Y009572D01*
X003355Y009660D01*
X003313Y009743D01*
X003258Y009818D01*
X003199Y009877D01*
X003376Y010054D01*
X003478Y010300D01*
X003478Y010567D01*
X003376Y010813D01*
X003256Y010933D01*
X003376Y011054D01*
X003478Y011300D01*
X003478Y011567D01*
X003376Y011813D01*
X003188Y012001D01*
X002942Y012103D01*
X002675Y012103D01*
X002429Y012001D01*
X002240Y011813D01*
X002138Y011567D01*
X002138Y011300D01*
X002240Y011054D01*
X002361Y010933D01*
X002240Y010813D01*
X002138Y010567D01*
X002138Y010300D01*
X002240Y010054D01*
X002417Y009877D01*
X002358Y009818D01*
X002304Y009743D01*
X002262Y009660D01*
X002233Y009572D01*
X002218Y009480D01*
X002218Y009462D01*
X002780Y009462D01*
X002780Y009405D01*
X002218Y009405D01*
X002218Y009387D01*
X002233Y009295D01*
X002262Y009207D01*
X002304Y009124D01*
X002358Y009049D01*
X002417Y008990D01*
X002240Y008813D01*
X002138Y008567D01*
X002138Y008300D01*
X002240Y008054D01*
X002429Y007865D01*
X002675Y007763D01*
X002942Y007763D01*
X003188Y007865D01*
X003376Y008054D01*
X003401Y008113D01*
X003653Y008113D01*
X003771Y008162D01*
X003861Y008252D01*
X003861Y008252D01*
X004271Y008662D01*
X004361Y008752D01*
X004410Y008870D01*
X004410Y010332D01*
X004488Y010411D01*
X004488Y009620D01*
X004537Y009502D01*
X004627Y009412D01*
X004877Y009162D01*
X004995Y009113D01*
X005003Y009113D01*
X005003Y009106D01*
X005040Y009017D01*
X005107Y008950D01*
X005196Y008913D01*
X005268Y008913D01*
X005268Y008880D01*
X005157Y008880D01*
X004782Y008880D01*
X004675Y008835D01*
X004668Y008828D01*
X004382Y008542D01*
X004362Y008542D01*
X004230Y008487D01*
X004129Y008387D01*
X004075Y008255D01*
X004075Y008112D01*
X004129Y007980D01*
X004225Y007885D01*
X003438Y007098D01*
X003400Y007006D01*
X003376Y007063D01*
X003188Y007251D01*
X002942Y007353D01*
X002675Y007353D01*
X002429Y007251D01*
X002240Y007063D01*
X002138Y006817D01*
X002138Y006550D01*
X002240Y006304D01*
X002361Y006183D01*
X002240Y006063D01*
X002138Y005817D01*
X002138Y005550D01*
X002240Y005304D01*
X002429Y005115D01*
X002675Y005013D01*
X002942Y005013D01*
X003188Y005115D01*
X003376Y005304D01*
X003393Y005345D01*
X003393Y004272D01*
X003376Y004313D01*
X003188Y004501D01*
X002942Y004603D01*
X002675Y004603D01*
X002429Y004501D01*
X002240Y004313D01*
X002138Y004067D01*
X002138Y003800D01*
X002240Y003554D01*
X002417Y003377D01*
X002358Y003318D01*
X002304Y003243D01*
X002262Y003160D01*
X002233Y003072D01*
X002218Y002980D01*
X002218Y002962D01*
X002780Y002962D01*
X002780Y002905D01*
X002837Y002905D01*
X002837Y002962D01*
X003398Y002962D01*
X003398Y002980D01*
X003384Y003072D01*
X003355Y003160D01*
X003313Y003243D01*
X003258Y003318D01*
X003199Y003377D01*
X003376Y003554D01*
X003478Y003800D01*
X003478Y003978D01*
X003688Y003769D01*
X003769Y003688D01*
X003876Y003643D01*
X007688Y003643D01*
X008219Y003113D01*
X008300Y003031D01*
X008407Y002987D01*
X009021Y002987D01*
X008985Y002899D01*
X008985Y002717D01*
X009005Y002668D01*
X006980Y002668D01*
X006888Y002706D01*
X006729Y002706D01*
X006583Y002646D01*
X006471Y002534D01*
X006410Y002388D01*
X006410Y002229D01*
X006471Y002083D01*
X006583Y001971D01*
X006729Y001910D01*
X006888Y001910D01*
X006980Y001948D01*
X011987Y001948D01*
X012130Y001948D01*
X012262Y002003D01*
X013262Y003003D01*
X013364Y003104D01*
X013418Y003237D01*
X013418Y005137D01*
X013456Y005229D01*
X013456Y005388D01*
X013396Y005534D01*
X013284Y005646D01*
X013138Y005706D01*
X012979Y005706D01*
X012833Y005646D01*
X012721Y005534D01*
X012660Y005388D01*
X012660Y005229D01*
X012698Y005137D01*
X012698Y003457D01*
X011909Y002668D01*
X011611Y002668D01*
X011632Y002717D01*
X011632Y002899D01*
X011595Y002987D01*
X011688Y002987D01*
X011804Y002987D01*
X011836Y003000D01*
X011910Y003031D01*
X011992Y003113D01*
X012544Y003665D01*
X012554Y003675D01*
X012598Y003782D01*
X012598Y006313D01*
X012793Y006508D01*
X019243Y006508D01*
X019353Y006554D01*
X019438Y006638D01*
X020188Y007388D01*
X020233Y007499D01*
X020233Y007618D01*
X020233Y012684D01*
X022738Y015189D01*
X022738Y014910D01*
X022199Y014370D01*
X022105Y014331D01*
X022004Y014230D01*
X021950Y014099D01*
X021950Y013956D01*
X021988Y013862D01*
X021988Y013182D01*
X022037Y013065D01*
X022127Y012975D01*
X022466Y012636D01*
X022504Y012543D01*
X022605Y012442D01*
X022737Y012387D01*
X022880Y012387D01*
X023012Y012442D01*
X023112Y012543D01*
X023113Y012545D01*
X023113Y010598D01*
X023075Y010505D01*
X023075Y010362D01*
X023129Y010230D01*
X023230Y010129D01*
X023362Y010075D01*
X023505Y010075D01*
X023637Y010129D01*
X023737Y010230D01*
X023792Y010362D01*
X023792Y010505D01*
X023753Y010598D01*
X023753Y014551D01*
X025080Y015877D01*
X025113Y015959D01*
X025113Y012542D01*
X024987Y012542D01*
X024878Y012497D01*
X024878Y013519D01*
X024917Y013612D01*
X024917Y013755D01*
X024862Y013887D01*
X024762Y013987D01*
X024630Y014042D01*
X024487Y014042D01*
X024355Y013987D01*
X024254Y013887D01*
X024200Y013755D01*
X024200Y013612D01*
X024238Y013519D01*
X024238Y007176D01*
X024221Y007159D01*
X024160Y007013D01*
X024160Y006854D01*
X024221Y006708D01*
X024333Y006596D01*
X024479Y006535D01*
X024638Y006535D01*
X024784Y006596D01*
X024896Y006708D01*
X024956Y006854D01*
X024956Y007013D01*
X024896Y007159D01*
X024878Y007176D01*
X024878Y007245D01*
X024987Y007200D01*
X025113Y007200D01*
X025113Y006122D01*
X025113Y005995D01*
X025162Y005877D01*
X027911Y003128D01*
X026372Y003128D01*
X026245Y003128D01*
X026127Y003080D01*
X025879Y002831D01*
X025854Y002831D01*
X025708Y002771D01*
X025596Y002659D01*
X025535Y002513D01*
X025535Y002354D01*
X025596Y002208D01*
X025708Y002096D01*
X025854Y002035D01*
X026013Y002035D01*
X026159Y002096D01*
X026271Y002208D01*
X026331Y002354D01*
X026331Y002379D01*
X026441Y002488D01*
X028440Y002488D01*
X028458Y002471D01*
X028604Y002410D01*
X028763Y002410D01*
X028909Y002471D01*
X029021Y002583D01*
X029081Y002729D01*
X029081Y002888D01*
X029021Y003034D01*
X028909Y003146D01*
X028763Y003206D01*
X028738Y003206D01*
X025753Y006191D01*
X025753Y011731D01*
X025849Y011731D01*
X025980Y011785D01*
X026081Y011886D01*
X026120Y011980D01*
X027223Y013083D01*
X027297Y013008D01*
X027198Y012909D01*
X027119Y012718D01*
X027119Y012511D01*
X027198Y012320D01*
X027297Y012221D01*
X027198Y012122D01*
X027119Y011931D01*
X027119Y011724D01*
X027198Y011533D01*
X027297Y011433D01*
X027198Y011334D01*
X027119Y011143D01*
X027119Y010936D01*
X027198Y010745D01*
X027297Y010646D01*
X027198Y010547D01*
X027119Y010356D01*
X027119Y010149D01*
X027198Y009958D01*
X027297Y009859D01*
X027198Y009759D01*
X027119Y009568D01*
X027119Y009361D01*
X027198Y009170D01*
X027297Y009071D01*
X027198Y008972D01*
X027119Y008781D01*
X027119Y008574D01*
X027198Y008383D01*
X027297Y008284D01*
X027198Y008185D01*
X027119Y007994D01*
X027119Y007870D01*
X027005Y007917D01*
X026862Y007917D01*
X026730Y007862D01*
X026629Y007762D01*
X026575Y007630D01*
X026575Y007487D01*
X026613Y007394D01*
X026613Y005622D01*
X026613Y005495D01*
X026662Y005377D01*
X028127Y003912D01*
X028245Y003863D01*
X028372Y003863D01*
X031394Y003863D01*
X031487Y003825D01*
X031630Y003825D01*
X031633Y003826D01*
X029605Y001798D01*
X022438Y001798D01*
X022408Y001828D01*
X022408Y006113D01*
X022456Y006229D01*
X022456Y006388D01*
X022396Y006534D01*
X022284Y006646D01*
X022138Y006706D01*
X021979Y006706D01*
X021833Y006646D01*
X021721Y006534D01*
X021660Y006388D01*
X021660Y006229D01*
X021708Y006113D01*
X021708Y001828D01*
X021678Y001798D01*
X021586Y001798D01*
X021011Y001798D01*
X020086Y002724D01*
X019906Y002798D01*
X019711Y002798D01*
X018201Y002798D01*
X018044Y002863D01*
X017823Y002863D01*
X017619Y002779D01*
X017463Y002623D01*
X017378Y002419D01*
X017378Y002198D01*
X017463Y001994D01*
X017619Y001838D01*
X017751Y001783D01*
X017737Y001783D01*
X017458Y001505D01*
X017458Y001309D01*
X017933Y001309D01*
X017933Y001308D01*
X017934Y001308D01*
X017934Y001309D01*
X018408Y001309D01*
X018408Y001505D01*
X018130Y001783D01*
X018116Y001783D01*
X018201Y001818D01*
X019605Y001818D01*
X020531Y000893D01*
X020711Y000818D01*
X020906Y000818D01*
X021586Y000818D01*
X021961Y000818D01*
X029906Y000818D01*
X030086Y000893D01*
X030224Y001031D02*
X030224Y001031D01*
X030260Y001068D02*
X041310Y001068D01*
X041245Y001226D02*
X030419Y001226D01*
X030578Y001385D02*
X041227Y001385D01*
X041227Y001543D02*
X030736Y001543D01*
X030895Y001702D02*
X041270Y001702D01*
X041336Y001860D02*
X031053Y001860D01*
X031212Y002019D02*
X041468Y002019D01*
X041683Y002177D02*
X031370Y002177D01*
X031529Y002336D02*
X042778Y002336D01*
X042778Y002494D02*
X031687Y002494D01*
X031846Y002653D02*
X039103Y002653D01*
X039160Y002596D02*
X038998Y002758D01*
X038910Y002970D01*
X032163Y002970D01*
X032004Y002812D02*
X038976Y002812D01*
X038910Y002970D02*
X038910Y003198D01*
X038998Y003410D01*
X039160Y003572D01*
X039371Y003659D01*
X039600Y003659D01*
X039811Y003572D01*
X039973Y003410D01*
X040061Y003198D01*
X040061Y002970D01*
X042778Y002970D01*
X042778Y002812D02*
X039995Y002812D01*
X039973Y002758D02*
X040061Y002970D01*
X040061Y003129D02*
X042778Y003129D01*
X042778Y003287D02*
X040024Y003287D01*
X039937Y003446D02*
X042778Y003446D01*
X042778Y003604D02*
X039733Y003604D01*
X039238Y003604D02*
X032797Y003604D01*
X032639Y003446D02*
X039034Y003446D01*
X038947Y003287D02*
X032480Y003287D01*
X032322Y003129D02*
X038910Y003129D01*
X039160Y002596D02*
X039371Y002509D01*
X039600Y002509D01*
X039811Y002596D01*
X039973Y002758D01*
X039868Y002653D02*
X042778Y002653D01*
X042778Y002177D02*
X042434Y002177D01*
X042648Y002019D02*
X042778Y002019D01*
X042778Y003763D02*
X032956Y003763D01*
X033114Y003921D02*
X042778Y003921D01*
X042778Y004080D02*
X033273Y004080D01*
X033431Y004238D02*
X042778Y004238D01*
X042778Y004397D02*
X033590Y004397D01*
X033748Y004556D02*
X042778Y004556D01*
X042778Y004714D02*
X033907Y004714D01*
X034066Y004873D02*
X042778Y004873D01*
X042778Y005031D02*
X034224Y005031D01*
X034383Y005190D02*
X042778Y005190D01*
X042778Y005348D02*
X034541Y005348D01*
X034700Y005507D02*
X042778Y005507D01*
X042778Y005665D02*
X034858Y005665D01*
X035017Y005824D02*
X042778Y005824D01*
X042778Y005982D02*
X035175Y005982D01*
X035334Y006141D02*
X042778Y006141D01*
X042778Y006299D02*
X035492Y006299D01*
X035651Y006458D02*
X042778Y006458D01*
X042778Y006617D02*
X035809Y006617D01*
X035968Y006775D02*
X042778Y006775D01*
X042778Y006934D02*
X036127Y006934D01*
X036285Y007092D02*
X042778Y007092D01*
X042778Y007251D02*
X036444Y007251D01*
X036602Y007409D02*
X042778Y007409D01*
X042778Y007568D02*
X036761Y007568D01*
X036919Y007726D02*
X042778Y007726D01*
X042778Y007885D02*
X037078Y007885D01*
X037236Y008043D02*
X042778Y008043D01*
X042778Y008202D02*
X037395Y008202D01*
X037553Y008361D02*
X042778Y008361D01*
X042778Y008519D02*
X037712Y008519D01*
X037871Y008678D02*
X042778Y008678D01*
X042778Y008836D02*
X038029Y008836D01*
X038188Y008995D02*
X042778Y008995D01*
X042778Y009153D02*
X038346Y009153D01*
X038505Y009312D02*
X042778Y009312D01*
X042778Y009470D02*
X038663Y009470D01*
X038822Y009629D02*
X042778Y009629D01*
X042778Y009787D02*
X038980Y009787D01*
X039139Y009946D02*
X042778Y009946D01*
X042778Y010105D02*
X039297Y010105D01*
X039456Y010263D02*
X042778Y010263D01*
X042778Y010422D02*
X039615Y010422D01*
X039773Y010580D02*
X042778Y010580D01*
X042778Y010739D02*
X039932Y010739D01*
X040090Y010897D02*
X042778Y010897D01*
X042778Y011056D02*
X040249Y011056D01*
X040407Y011214D02*
X042778Y011214D01*
X042778Y011373D02*
X040566Y011373D01*
X040724Y011531D02*
X042778Y011531D01*
X042778Y011690D02*
X040883Y011690D01*
X040836Y011643D02*
X040836Y011643D01*
X041002Y011849D02*
X042778Y011849D01*
X042778Y012007D02*
X041048Y012007D01*
X041048Y012166D02*
X042778Y012166D01*
X042778Y012324D02*
X041048Y012324D01*
X041048Y012483D02*
X042778Y012483D01*
X042778Y012641D02*
X041048Y012641D01*
X041048Y012800D02*
X042778Y012800D01*
X042778Y012958D02*
X041048Y012958D01*
X041048Y013117D02*
X042778Y013117D01*
X042778Y013275D02*
X041048Y013275D01*
X041048Y013434D02*
X042778Y013434D01*
X042778Y013592D02*
X041048Y013592D01*
X041048Y013751D02*
X042778Y013751D01*
X042778Y013910D02*
X041048Y013910D01*
X041048Y014068D02*
X042778Y014068D01*
X042778Y014227D02*
X041048Y014227D01*
X041048Y014385D02*
X042778Y014385D01*
X042778Y014544D02*
X041048Y014544D01*
X041048Y014702D02*
X042778Y014702D01*
X042778Y014861D02*
X041048Y014861D01*
X041048Y015019D02*
X042778Y015019D01*
X042778Y015178D02*
X041048Y015178D01*
X041048Y015336D02*
X042778Y015336D01*
X042778Y015495D02*
X041048Y015495D01*
X041048Y015654D02*
X042778Y015654D01*
X042778Y015812D02*
X041048Y015812D01*
X041048Y015971D02*
X042778Y015971D01*
X042778Y016129D02*
X041048Y016129D01*
X041048Y016288D02*
X042778Y016288D01*
X042778Y016446D02*
X041048Y016446D01*
X041048Y016605D02*
X042778Y016605D01*
X042778Y016763D02*
X041048Y016763D01*
X041048Y016922D02*
X042778Y016922D01*
X042778Y017080D02*
X041048Y017080D01*
X041048Y017239D02*
X042778Y017239D01*
X042778Y017398D02*
X041048Y017398D01*
X041048Y017556D02*
X042778Y017556D01*
X042778Y017715D02*
X041048Y017715D01*
X041048Y017873D02*
X042778Y017873D01*
X042778Y018032D02*
X041048Y018032D01*
X041048Y018190D02*
X042778Y018190D01*
X042778Y018349D02*
X041048Y018349D01*
X041048Y018507D02*
X042778Y018507D01*
X042778Y018666D02*
X041048Y018666D01*
X041048Y018824D02*
X042778Y018824D01*
X042778Y018983D02*
X041048Y018983D01*
X041048Y019141D02*
X042778Y019141D01*
X042778Y019300D02*
X041048Y019300D01*
X041048Y019459D02*
X042778Y019459D01*
X042778Y019617D02*
X041048Y019617D01*
X041048Y019776D02*
X042778Y019776D01*
X042778Y019934D02*
X041048Y019934D01*
X041048Y020093D02*
X042778Y020093D01*
X042778Y020251D02*
X041048Y020251D01*
X041048Y020410D02*
X042778Y020410D01*
X042778Y020568D02*
X041048Y020568D01*
X041048Y020727D02*
X042778Y020727D01*
X042778Y020885D02*
X041048Y020885D01*
X041048Y021044D02*
X042778Y021044D01*
X042778Y021203D02*
X041048Y021203D01*
X041048Y021361D02*
X042778Y021361D01*
X042778Y021520D02*
X041048Y021520D01*
X041048Y021678D02*
X042778Y021678D01*
X042778Y021837D02*
X041048Y021837D01*
X041048Y021995D02*
X042778Y021995D01*
X042778Y022154D02*
X041048Y022154D01*
X041048Y022312D02*
X042778Y022312D01*
X042778Y022471D02*
X041048Y022471D01*
X041048Y022629D02*
X042778Y022629D01*
X042778Y022788D02*
X041048Y022788D01*
X041048Y022947D02*
X042778Y022947D01*
X042778Y023105D02*
X041048Y023105D01*
X041048Y023264D02*
X042778Y023264D01*
X042778Y023422D02*
X041048Y023422D01*
X041048Y023581D02*
X042778Y023581D01*
X042778Y023739D02*
X041048Y023739D01*
X041048Y023898D02*
X042778Y023898D01*
X042778Y024056D02*
X041048Y024056D01*
X041048Y024215D02*
X042778Y024215D01*
X042778Y024373D02*
X041048Y024373D01*
X041048Y024532D02*
X042778Y024532D01*
X042778Y024691D02*
X041048Y024691D01*
X041048Y024849D02*
X042778Y024849D01*
X042778Y025008D02*
X041048Y025008D01*
X041048Y025166D02*
X042778Y025166D01*
X042778Y025325D02*
X041048Y025325D01*
X041048Y025483D02*
X042778Y025483D01*
X042778Y025642D02*
X041048Y025642D01*
X041048Y025800D02*
X042778Y025800D01*
X042778Y025959D02*
X041048Y025959D01*
X041048Y026117D02*
X042778Y026117D01*
X042778Y026276D02*
X041048Y026276D01*
X041048Y026434D02*
X042778Y026434D01*
X042778Y026593D02*
X041048Y026593D01*
X041048Y026752D02*
X042778Y026752D01*
X042778Y026910D02*
X041047Y026910D01*
X040981Y027069D02*
X042778Y027069D01*
X042778Y027227D02*
X040832Y027227D01*
X040674Y027386D02*
X042778Y027386D01*
X042778Y027544D02*
X040515Y027544D01*
X040357Y027703D02*
X042778Y027703D01*
X042778Y027861D02*
X040198Y027861D01*
X040040Y028020D02*
X042778Y028020D01*
X042778Y028178D02*
X039881Y028178D01*
X039723Y028337D02*
X042778Y028337D01*
X042778Y028496D02*
X040612Y028496D01*
X040634Y028508D02*
X040719Y028573D01*
X040794Y028648D01*
X040858Y028732D01*
X040911Y028824D01*
X040952Y028922D01*
X040980Y029025D01*
X040993Y029130D01*
X042778Y029130D01*
X042778Y029288D02*
X040987Y029288D01*
X040993Y029236D02*
X040980Y029342D01*
X040952Y029444D01*
X040911Y029542D01*
X040858Y029634D01*
X040794Y029719D01*
X040719Y029794D01*
X040634Y029858D01*
X040542Y029911D01*
X040444Y029952D01*
X040342Y029979D01*
X040236Y029993D01*
X040222Y029993D01*
X040222Y029222D01*
X040145Y029222D01*
X040145Y029993D01*
X040130Y029993D01*
X040025Y029979D01*
X039922Y029952D01*
X039824Y029911D01*
X039732Y029858D01*
X039648Y029794D01*
X039573Y029719D01*
X039508Y029634D01*
X039455Y029542D01*
X039415Y029444D01*
X039387Y029342D01*
X039373Y029236D01*
X039373Y029221D01*
X040145Y029221D01*
X040145Y029145D01*
X039373Y029145D01*
X039373Y029130D01*
X039073Y029130D01*
X039073Y029288D02*
X039380Y029288D01*
X039373Y029130D02*
X039387Y029025D01*
X039415Y028922D01*
X039455Y028824D01*
X039508Y028732D01*
X039573Y028648D01*
X039648Y028573D01*
X039732Y028508D01*
X039824Y028455D01*
X039922Y028415D01*
X040025Y028387D01*
X040130Y028373D01*
X040145Y028373D01*
X040145Y029145D01*
X040222Y029145D01*
X040222Y029221D01*
X040993Y029221D01*
X040993Y029236D01*
X040993Y029145D02*
X040222Y029145D01*
X040222Y028373D01*
X040236Y028373D01*
X040342Y028387D01*
X040444Y028415D01*
X040542Y028455D01*
X040634Y028508D01*
X040798Y028654D02*
X042778Y028654D01*
X042778Y028813D02*
X040905Y028813D01*
X040965Y028971D02*
X042778Y028971D01*
X042778Y029447D02*
X040951Y029447D01*
X040875Y029605D02*
X042778Y029605D01*
X042778Y029764D02*
X040748Y029764D01*
X040516Y029922D02*
X042778Y029922D01*
X042778Y030081D02*
X000713Y030081D01*
X000713Y030240D02*
X042778Y030240D01*
X042778Y030398D02*
X042334Y030398D01*
X042607Y030557D02*
X042778Y030557D01*
X042764Y030715D02*
X042778Y030715D01*
X041782Y030398D02*
X001709Y030398D01*
X001982Y030557D02*
X041510Y030557D01*
X041353Y030715D02*
X002139Y030715D01*
X002205Y030874D02*
X041287Y030874D01*
X041227Y031032D02*
X002265Y031032D01*
X002265Y031191D02*
X041227Y031191D01*
X041227Y031349D02*
X002264Y031349D01*
X002199Y031508D02*
X041293Y031508D01*
X041366Y031666D02*
X002126Y031666D01*
X001967Y031825D02*
X041525Y031825D01*
X040222Y029922D02*
X040145Y029922D01*
X040145Y029764D02*
X040222Y029764D01*
X040222Y029605D02*
X040145Y029605D01*
X040145Y029447D02*
X040222Y029447D01*
X040222Y029288D02*
X040145Y029288D01*
X040145Y029130D02*
X040222Y029130D01*
X040222Y028971D02*
X040145Y028971D01*
X040145Y028813D02*
X040222Y028813D01*
X040222Y028654D02*
X040145Y028654D01*
X040145Y028496D02*
X040222Y028496D01*
X039755Y028496D02*
X039564Y028496D01*
X039569Y028654D02*
X039406Y028654D01*
X039462Y028813D02*
X039247Y028813D01*
X039402Y028971D02*
X039089Y028971D01*
X039038Y029447D02*
X039416Y029447D01*
X039492Y029605D02*
X038972Y029605D01*
X038862Y029764D02*
X039618Y029764D01*
X039851Y029922D02*
X038703Y029922D01*
X037664Y029922D02*
X000713Y029922D01*
X000713Y029764D02*
X037505Y029764D01*
X037395Y029605D02*
X029839Y029605D01*
X029997Y029447D02*
X037329Y029447D01*
X037293Y029288D02*
X036349Y029288D01*
X036559Y029130D02*
X037293Y029130D01*
X037308Y028971D02*
X036664Y028971D01*
X036728Y028813D02*
X037374Y028813D01*
X037454Y028654D02*
X036728Y028654D01*
X036706Y028496D02*
X037613Y028496D01*
X037901Y028337D02*
X036640Y028337D01*
X036501Y028178D02*
X038495Y028178D01*
X038654Y028020D02*
X036207Y028020D01*
X035909Y028020D02*
X035207Y028020D01*
X034909Y028020D02*
X034418Y028020D01*
X034418Y027861D02*
X038812Y027861D01*
X038971Y027703D02*
X034418Y027703D01*
X034418Y027544D02*
X039129Y027544D01*
X039288Y027386D02*
X034418Y027386D01*
X033698Y027386D02*
X033418Y027386D01*
X033418Y027544D02*
X033698Y027544D01*
X033698Y027703D02*
X033418Y027703D01*
X033418Y027861D02*
X033698Y027861D01*
X033698Y028020D02*
X033418Y028020D01*
X033418Y028107D02*
X033438Y028115D01*
X033558Y028236D01*
X033679Y028115D01*
X033698Y028107D01*
X033698Y024612D01*
X033753Y024479D01*
X033854Y024378D01*
X033987Y024323D01*
X034130Y024323D01*
X034262Y024378D01*
X034364Y024479D01*
X034418Y024612D01*
X034385Y024532D02*
X034898Y024532D01*
X034739Y024373D02*
X034251Y024373D01*
X034422Y024056D02*
X027418Y024056D01*
X027418Y023898D02*
X034264Y023898D01*
X034105Y023739D02*
X027418Y023739D01*
X027418Y023581D02*
X033947Y023581D01*
X033788Y023422D02*
X027418Y023422D01*
X027418Y023264D02*
X033630Y023264D01*
X033471Y023105D02*
X027418Y023105D01*
X027418Y022947D02*
X033312Y022947D01*
X033154Y022788D02*
X027418Y022788D01*
X027418Y022629D02*
X032995Y022629D01*
X033538Y022154D02*
X034698Y022154D01*
X034698Y022312D02*
X033696Y022312D01*
X033855Y022471D02*
X034698Y022471D01*
X034698Y022629D02*
X034014Y022629D01*
X034172Y022788D02*
X034698Y022788D01*
X034698Y022947D02*
X034331Y022947D01*
X034489Y023105D02*
X034740Y023105D01*
X034753Y023137D02*
X034698Y023005D01*
X034698Y021737D01*
X034743Y021628D01*
X033223Y021628D01*
X033130Y021667D01*
X032987Y021667D01*
X032855Y021612D01*
X032754Y021512D01*
X032700Y021380D01*
X032700Y021237D01*
X032701Y021233D01*
X027149Y021233D01*
X027364Y021448D01*
X027418Y021580D01*
X027418Y021724D01*
X027418Y024255D01*
X027364Y024387D01*
X027262Y024489D01*
X027166Y024529D01*
X027128Y024566D01*
X027128Y025870D01*
X027128Y025997D01*
X027080Y026115D01*
X027011Y026183D01*
X027330Y026502D01*
X027378Y026620D01*
X027378Y026747D01*
X027378Y028091D01*
X027438Y028115D01*
X027558Y028236D01*
X027679Y028115D01*
X027925Y028013D01*
X028192Y028013D01*
X028438Y028115D01*
X028558Y028236D01*
X028679Y028115D01*
X028925Y028013D01*
X029192Y028013D01*
X029438Y028115D01*
X029626Y028304D01*
X029728Y028550D01*
X029728Y028811D01*
X029863Y028676D01*
X029863Y025148D01*
X029713Y024998D01*
X029628Y024794D01*
X029628Y024573D01*
X029713Y024369D01*
X029869Y024213D01*
X030073Y024128D01*
X030294Y024128D01*
X030498Y024213D01*
X030608Y024323D01*
X031987Y024323D01*
X032130Y024323D01*
X032262Y024378D01*
X033262Y025378D01*
X033262Y025378D01*
X033364Y025479D01*
X033418Y025612D01*
X033418Y028107D01*
X033501Y028178D02*
X033616Y028178D01*
X034501Y028178D02*
X034616Y028178D01*
X035501Y028178D02*
X035616Y028178D01*
X035768Y029288D02*
X035349Y029288D01*
X034768Y029288D02*
X034349Y029288D01*
X033768Y029288D02*
X033349Y029288D01*
X032768Y029288D02*
X031349Y029288D01*
X031559Y029130D02*
X031670Y029130D01*
X032030Y029130D02*
X032087Y029130D01*
X032087Y028971D02*
X032030Y028971D01*
X032030Y028813D02*
X032087Y028813D01*
X032087Y028655D02*
X032087Y028093D01*
X032105Y028093D01*
X032197Y028108D01*
X032285Y028137D01*
X032368Y028179D01*
X032443Y028233D01*
X032502Y028292D01*
X032679Y028115D01*
X032698Y028107D01*
X032698Y025832D01*
X031909Y025043D01*
X030608Y025043D01*
X030503Y025148D01*
X030503Y028291D01*
X030679Y028115D01*
X030925Y028013D01*
X031192Y028013D01*
X031438Y028115D01*
X031615Y028292D01*
X031674Y028233D01*
X031749Y028179D01*
X031832Y028137D01*
X031920Y028108D01*
X032012Y028093D01*
X032030Y028093D01*
X032030Y028655D01*
X032087Y028655D01*
X032087Y028654D02*
X032030Y028654D01*
X032030Y028496D02*
X032087Y028496D01*
X032087Y028337D02*
X032030Y028337D01*
X032030Y028178D02*
X032087Y028178D01*
X032367Y028178D02*
X032616Y028178D01*
X032698Y028020D02*
X031207Y028020D01*
X030909Y028020D02*
X030503Y028020D01*
X030503Y028178D02*
X030616Y028178D01*
X030503Y027861D02*
X032698Y027861D01*
X032698Y027703D02*
X030503Y027703D01*
X030503Y027544D02*
X032698Y027544D01*
X032698Y027386D02*
X030503Y027386D01*
X030503Y027227D02*
X032698Y027227D01*
X032698Y027069D02*
X030503Y027069D01*
X030503Y026910D02*
X032698Y026910D01*
X032698Y026752D02*
X030503Y026752D01*
X030503Y026593D02*
X032698Y026593D01*
X032698Y026434D02*
X030503Y026434D01*
X030503Y026276D02*
X032698Y026276D01*
X032698Y026117D02*
X030503Y026117D01*
X030503Y025959D02*
X032698Y025959D01*
X032666Y025800D02*
X030503Y025800D01*
X030503Y025642D02*
X032508Y025642D01*
X032349Y025483D02*
X030503Y025483D01*
X030503Y025325D02*
X032191Y025325D01*
X032032Y025166D02*
X030503Y025166D01*
X030183Y024683D02*
X030183Y028808D01*
X029558Y029433D01*
X026808Y029433D01*
X026058Y028683D01*
X025308Y029433D01*
X019808Y029433D01*
X019058Y028683D01*
X018616Y028178D02*
X018367Y028178D01*
X018087Y028178D02*
X018030Y028178D01*
X018030Y028337D02*
X018087Y028337D01*
X018087Y028496D02*
X018030Y028496D01*
X018030Y028654D02*
X018087Y028654D01*
X018087Y028813D02*
X018030Y028813D01*
X018030Y028971D02*
X018087Y028971D01*
X018087Y029130D02*
X018030Y029130D01*
X017670Y029130D02*
X017559Y029130D01*
X017349Y029288D02*
X018768Y029288D01*
X018557Y029130D02*
X018446Y029130D01*
X019369Y029447D02*
X015719Y029447D01*
X015561Y029605D02*
X019528Y029605D01*
X019501Y028178D02*
X019616Y028178D01*
X019909Y028020D02*
X019207Y028020D01*
X018909Y028020D02*
X017207Y028020D01*
X016909Y028020D02*
X016108Y028020D01*
X016108Y028178D02*
X016616Y028178D01*
X016477Y028337D02*
X016108Y028337D01*
X016108Y028496D02*
X016411Y028496D01*
X016388Y028654D02*
X016108Y028654D01*
X016108Y028813D02*
X016388Y028813D01*
X016452Y028971D02*
X016108Y028971D01*
X016036Y029130D02*
X016557Y029130D01*
X016768Y029288D02*
X015878Y029288D01*
X016108Y027861D02*
X020698Y027861D01*
X020698Y027703D02*
X016108Y027703D01*
X016108Y027544D02*
X020698Y027544D01*
X020698Y027386D02*
X016108Y027386D01*
X016108Y027227D02*
X020698Y027227D01*
X020698Y027069D02*
X016108Y027069D01*
X016108Y026910D02*
X020730Y026910D01*
X020856Y026752D02*
X016249Y026752D01*
X016408Y026593D02*
X021015Y026593D01*
X021073Y026434D02*
X016566Y026434D01*
X016408Y025606D02*
X016487Y025573D01*
X016630Y025573D01*
X019966Y025573D01*
X021037Y024502D01*
X021106Y024433D01*
X019949Y023276D01*
X019855Y023237D01*
X019808Y023191D01*
X019762Y023237D01*
X019630Y023292D01*
X019487Y023292D01*
X019355Y023237D01*
X019308Y023191D01*
X019262Y023237D01*
X019130Y023292D01*
X018987Y023292D01*
X018858Y023239D01*
X018858Y023309D01*
X020124Y024575D01*
X020130Y024575D01*
X020262Y024629D01*
X020362Y024730D01*
X020417Y024862D01*
X020417Y025005D01*
X020362Y025137D01*
X020262Y025237D01*
X020130Y025292D01*
X019987Y025292D01*
X019855Y025237D01*
X019754Y025137D01*
X019700Y025005D01*
X019700Y024999D01*
X018304Y023603D01*
X018258Y023493D01*
X018258Y023374D01*
X018258Y022743D01*
X018258Y022739D01*
X018130Y022792D01*
X017987Y022792D01*
X017868Y022743D01*
X017917Y022862D01*
X017917Y023005D01*
X017862Y023137D01*
X017762Y023237D01*
X017630Y023292D01*
X017487Y023292D01*
X017355Y023237D01*
X017308Y023191D01*
X017262Y023237D01*
X017168Y023276D01*
X016128Y024316D01*
X016128Y024895D01*
X016160Y024908D01*
X016334Y025082D01*
X016428Y025310D01*
X016428Y025557D01*
X016408Y025606D01*
X016428Y025483D02*
X020056Y025483D01*
X020214Y025325D02*
X016428Y025325D01*
X016369Y025166D02*
X019784Y025166D01*
X019701Y025008D02*
X016259Y025008D01*
X016128Y024849D02*
X019550Y024849D01*
X019391Y024691D02*
X016128Y024691D01*
X016128Y024532D02*
X019233Y024532D01*
X019074Y024373D02*
X016128Y024373D01*
X016229Y024215D02*
X018916Y024215D01*
X018757Y024056D02*
X016388Y024056D01*
X016546Y023898D02*
X018599Y023898D01*
X018440Y023739D02*
X016705Y023739D01*
X016864Y023581D02*
X018295Y023581D01*
X018258Y023422D02*
X017022Y023422D01*
X017198Y023264D02*
X017418Y023264D01*
X017698Y023264D02*
X018258Y023264D01*
X018258Y023105D02*
X017876Y023105D01*
X017917Y022947D02*
X018258Y022947D01*
X018258Y022788D02*
X018140Y022788D01*
X017977Y022788D02*
X017886Y022788D01*
X017058Y022933D02*
X015808Y024183D01*
X015808Y025433D01*
X014808Y025433D02*
X014808Y024683D01*
X016558Y022933D01*
X016808Y022433D02*
X015808Y022433D01*
X014615Y021203D02*
X013878Y021203D01*
X013878Y021361D02*
X014456Y021361D01*
X014298Y021520D02*
X013878Y021520D01*
X013878Y021678D02*
X014139Y021678D01*
X013981Y021837D02*
X013878Y021837D01*
X013878Y021939D02*
X015550Y020268D01*
X015479Y020239D01*
X015378Y020137D01*
X015323Y020005D01*
X015323Y018880D01*
X015323Y018737D01*
X015378Y018604D01*
X015729Y018253D01*
X015862Y018198D01*
X016005Y018198D01*
X016137Y018253D01*
X016239Y018354D01*
X016293Y018487D01*
X016293Y018630D01*
X016239Y018762D01*
X016043Y018957D01*
X016043Y019774D01*
X016054Y019763D01*
X016138Y019679D01*
X016249Y019633D01*
X017434Y019633D01*
X017700Y019368D01*
X017700Y019362D01*
X017754Y019230D01*
X017855Y019129D01*
X017987Y019075D01*
X018130Y019075D01*
X018262Y019129D01*
X018362Y019230D01*
X018417Y019362D01*
X018417Y019505D01*
X018392Y019564D01*
X018518Y019512D01*
X018661Y019512D01*
X018793Y019567D01*
X018894Y019668D01*
X018948Y019799D01*
X018948Y019942D01*
X018894Y020074D01*
X018793Y020175D01*
X018665Y020228D01*
X018314Y020599D01*
X018313Y020603D01*
X018283Y020633D01*
X018434Y020633D01*
X018825Y020243D01*
X018825Y020237D01*
X018879Y020105D01*
X018980Y020004D01*
X019112Y019950D01*
X019255Y019950D01*
X019387Y020004D01*
X019487Y020105D01*
X019542Y020237D01*
X019542Y020380D01*
X019487Y020512D01*
X019387Y020612D01*
X019255Y020667D01*
X019249Y020667D01*
X019033Y020883D01*
X021306Y020883D01*
X021287Y020865D01*
X020287Y019865D01*
X020238Y019747D01*
X020238Y019620D01*
X020238Y016431D01*
X017623Y016431D01*
X019917Y018715D01*
X020012Y018754D01*
X020112Y018855D01*
X020167Y018987D01*
X020167Y019130D01*
X020112Y019262D01*
X020012Y019362D01*
X019991Y019371D01*
X020012Y019379D01*
X020112Y019480D01*
X020167Y019612D01*
X020167Y019755D01*
X020112Y019887D01*
X020012Y019987D01*
X019880Y020042D01*
X019737Y020042D01*
X019605Y019987D01*
X019504Y019887D01*
X019450Y019755D01*
X019450Y019749D01*
X013809Y014108D01*
X013683Y014108D01*
X013608Y014183D01*
X013608Y014451D01*
X013612Y014450D01*
X013755Y014450D01*
X013887Y014504D01*
X013987Y014605D01*
X014026Y014699D01*
X014865Y015537D01*
X014955Y015627D01*
X015003Y015745D01*
X015003Y017495D01*
X015003Y017622D01*
X014955Y017740D01*
X011753Y020941D01*
X011753Y021143D01*
X011792Y021237D01*
X011792Y021380D01*
X011737Y021512D01*
X011637Y021612D01*
X011505Y021667D01*
X011362Y021667D01*
X011230Y021612D01*
X011129Y021512D01*
X011075Y021380D01*
X011075Y021237D01*
X011113Y021143D01*
X011113Y020872D01*
X011113Y020745D01*
X011162Y020627D01*
X014363Y017426D01*
X014363Y017043D01*
X012832Y017043D01*
X012418Y017457D01*
X012418Y019036D01*
X012364Y019169D01*
X012262Y019270D01*
X011794Y019739D01*
X011661Y019793D01*
X011518Y019793D01*
X011386Y019739D01*
X011284Y019637D01*
X011230Y019505D01*
X011230Y019362D01*
X011284Y019229D01*
X011698Y018816D01*
X011698Y017380D01*
X011698Y017237D01*
X011753Y017104D01*
X012189Y016668D01*
X011987Y016668D01*
X011854Y016614D01*
X011753Y016512D01*
X011534Y016293D01*
X011457Y016293D01*
X010887Y016864D01*
X010755Y016918D01*
X010612Y016918D01*
X009112Y016918D01*
X008979Y016864D01*
X008878Y016762D01*
X008823Y016630D01*
X008823Y016487D01*
X008878Y016354D01*
X008979Y016253D01*
X009112Y016198D01*
X010066Y016198D01*
X010004Y016137D01*
X009950Y016005D01*
X009950Y015862D01*
X009988Y015769D01*
X009988Y013223D01*
X009950Y013130D01*
X009950Y012987D01*
X010004Y012855D01*
X010105Y012754D01*
X010237Y012700D01*
X010380Y012700D01*
X010448Y012728D01*
X010448Y012612D01*
X010503Y012479D01*
X010604Y012378D01*
X010737Y012323D01*
X010880Y012323D01*
X011012Y012378D01*
X011114Y012479D01*
X011168Y012612D01*
X011168Y015284D01*
X011457Y015573D01*
X011612Y015573D01*
X011755Y015573D01*
X011887Y015628D01*
X012207Y015948D01*
X013042Y015948D01*
X013008Y015868D01*
X013008Y014118D01*
X013008Y013999D01*
X013054Y013888D01*
X013304Y013638D01*
X013388Y013554D01*
X013499Y013508D01*
X013780Y013508D01*
X012551Y012285D01*
X012418Y012285D01*
X012418Y014534D01*
X012864Y014979D01*
X012918Y015112D01*
X012918Y015255D01*
X012864Y015387D01*
X012762Y015489D01*
X012630Y015543D01*
X012487Y015543D01*
X012354Y015489D01*
X011753Y014887D01*
X011698Y014755D01*
X011698Y014612D01*
X011698Y012285D01*
X010438Y012285D01*
X009628Y013069D01*
X009628Y015120D01*
X009628Y015247D01*
X009580Y015365D01*
X007636Y017308D01*
X008441Y018113D01*
X009237Y018113D01*
X009331Y018075D01*
X009473Y018075D01*
X009605Y018129D01*
X009706Y018230D01*
X009761Y018362D01*
X009761Y018505D01*
X009706Y018637D01*
X009605Y018737D01*
X009473Y018792D01*
X009418Y018792D01*
X009418Y022034D01*
X011038Y023654D01*
X012633Y022059D01*
X012633Y020499D01*
X012679Y020388D01*
X012763Y020304D01*
X013263Y019804D01*
X013374Y019758D01*
X013493Y019758D01*
X013868Y019758D01*
X013978Y019804D01*
X014063Y019888D01*
X014124Y019950D01*
X014130Y019950D01*
X014262Y020004D01*
X014362Y020105D01*
X014417Y020237D01*
X014417Y020380D01*
X014362Y020512D01*
X014262Y020612D01*
X014130Y020667D01*
X013987Y020667D01*
X013922Y020640D01*
X013890Y020672D01*
X013917Y020737D01*
X013917Y020880D01*
X013878Y020973D01*
X013878Y021939D01*
X013558Y022246D02*
X011183Y024683D01*
X009058Y024683D01*
X008058Y023683D01*
X007983Y024215D02*
X008137Y024215D01*
X007981Y024373D02*
X008296Y024373D01*
X008454Y024532D02*
X007884Y024532D01*
X007725Y024691D02*
X008613Y024691D01*
X008772Y024849D02*
X007567Y024849D01*
X007408Y025008D02*
X012008Y025008D01*
X012008Y025166D02*
X007250Y025166D01*
X006117Y025166D02*
X004806Y025166D01*
X004648Y025008D02*
X005958Y025008D01*
X005369Y024849D02*
X004489Y024849D01*
X004378Y024691D02*
X005189Y024691D01*
X005105Y024532D02*
X004378Y024532D01*
X004378Y024373D02*
X005063Y024373D01*
X005063Y024215D02*
X004378Y024215D01*
X004378Y024056D02*
X005117Y024056D01*
X004889Y023898D02*
X004378Y023898D01*
X004378Y023739D02*
X004730Y023739D01*
X004572Y023581D02*
X004378Y023581D01*
X004378Y023422D02*
X004511Y023422D01*
X004511Y023442D02*
X004511Y023442D01*
X004511Y023264D02*
X004378Y023264D01*
X004378Y023105D02*
X004511Y023105D01*
X004511Y022947D02*
X004378Y022947D01*
X004378Y022788D02*
X004511Y022788D01*
X004511Y022629D02*
X004378Y022629D01*
X004378Y022471D02*
X004511Y022471D01*
X004511Y022312D02*
X004378Y022312D01*
X004378Y022154D02*
X004511Y022154D01*
X004511Y021995D02*
X004323Y021995D01*
X004164Y021837D02*
X004511Y021837D01*
X004511Y021678D02*
X004006Y021678D01*
X003878Y021520D02*
X004511Y021520D01*
X004227Y021361D02*
X003917Y021361D01*
X003903Y021203D02*
X004068Y021203D01*
X003910Y021044D02*
X003801Y021044D01*
X003752Y020885D02*
X000713Y020885D01*
X000713Y020727D02*
X003698Y020727D01*
X003698Y020568D02*
X000713Y020568D01*
X000713Y020410D02*
X003698Y020410D01*
X003698Y020251D02*
X000713Y020251D01*
X000713Y020093D02*
X003698Y020093D01*
X003698Y019934D02*
X000713Y019934D01*
X000713Y019776D02*
X003698Y019776D01*
X003698Y019617D02*
X000713Y019617D01*
X000713Y019459D02*
X003698Y019459D01*
X003698Y019300D02*
X000713Y019300D01*
X000713Y019141D02*
X003698Y019141D01*
X003698Y018983D02*
X000713Y018983D01*
X000713Y018824D02*
X003698Y018824D01*
X003698Y018666D02*
X000713Y018666D01*
X000713Y018507D02*
X003698Y018507D01*
X003698Y018349D02*
X000713Y018349D01*
X000713Y018190D02*
X003698Y018190D01*
X003698Y018032D02*
X000713Y018032D01*
X000713Y017873D02*
X003698Y017873D01*
X003698Y017715D02*
X000713Y017715D01*
X000713Y017556D02*
X003698Y017556D01*
X003698Y017398D02*
X000713Y017398D01*
X000713Y017239D02*
X003698Y017239D01*
X003698Y017080D02*
X000713Y017080D01*
X000713Y016922D02*
X003698Y016922D01*
X003698Y016763D02*
X000713Y016763D01*
X000713Y016605D02*
X003698Y016605D01*
X003698Y016446D02*
X000713Y016446D01*
X000713Y016288D02*
X003698Y016288D01*
X003698Y016129D02*
X000713Y016129D01*
X000713Y015971D02*
X003337Y015971D01*
X003222Y015812D02*
X000713Y015812D01*
X000713Y015654D02*
X003198Y015654D01*
X003198Y015495D02*
X000713Y015495D01*
X000713Y015336D02*
X003198Y015336D01*
X003198Y015178D02*
X000713Y015178D01*
X000713Y015019D02*
X003198Y015019D01*
X003198Y014861D02*
X000713Y014861D01*
X000713Y014702D02*
X003198Y014702D01*
X003198Y014544D02*
X000713Y014544D01*
X000713Y014385D02*
X003198Y014385D01*
X003198Y014227D02*
X000713Y014227D01*
X000713Y014068D02*
X003198Y014068D01*
X003198Y013910D02*
X000713Y013910D01*
X000713Y013751D02*
X003198Y013751D01*
X003198Y013592D02*
X000713Y013592D01*
X000713Y013434D02*
X003198Y013434D01*
X003198Y013275D02*
X000713Y013275D01*
X000713Y013117D02*
X003198Y013117D01*
X003274Y012958D02*
X000713Y012958D01*
X000713Y012800D02*
X003433Y012800D01*
X003591Y012641D02*
X000713Y012641D01*
X000713Y012483D02*
X003750Y012483D01*
X003909Y012324D02*
X000713Y012324D01*
X000713Y012166D02*
X004067Y012166D01*
X004226Y012007D02*
X003174Y012007D01*
X003341Y011849D02*
X004384Y011849D01*
X004543Y011690D02*
X003427Y011690D01*
X003478Y011531D02*
X004704Y011531D01*
X004545Y011373D02*
X003478Y011373D01*
X003443Y011214D02*
X004387Y011214D01*
X004228Y011056D02*
X003377Y011056D01*
X003292Y010897D02*
X004070Y010897D01*
X003911Y010739D02*
X003407Y010739D01*
X003473Y010580D02*
X003791Y010580D01*
X003770Y010422D02*
X003478Y010422D01*
X003463Y010263D02*
X003770Y010263D01*
X003770Y010105D02*
X003397Y010105D01*
X003268Y009946D02*
X003770Y009946D01*
X003770Y009787D02*
X003280Y009787D01*
X003365Y009629D02*
X003770Y009629D01*
X003770Y009470D02*
X003398Y009470D01*
X003386Y009312D02*
X003770Y009312D01*
X003770Y009153D02*
X003328Y009153D01*
X003204Y008995D02*
X003698Y008995D01*
X003540Y008836D02*
X003353Y008836D01*
X003590Y008433D02*
X002808Y008433D01*
X002184Y008678D02*
X000713Y008678D01*
X000713Y008836D02*
X002264Y008836D01*
X002413Y008995D02*
X000713Y008995D01*
X000713Y009153D02*
X002289Y009153D01*
X002230Y009312D02*
X000713Y009312D01*
X000713Y009470D02*
X002218Y009470D01*
X002252Y009629D02*
X000713Y009629D01*
X000713Y009787D02*
X002336Y009787D01*
X002348Y009946D02*
X000713Y009946D01*
X000713Y010105D02*
X002219Y010105D01*
X002154Y010263D02*
X000713Y010263D01*
X000713Y010422D02*
X002138Y010422D01*
X002144Y010580D02*
X000713Y010580D01*
X000713Y010739D02*
X002210Y010739D01*
X002325Y010897D02*
X000713Y010897D01*
X000713Y011056D02*
X002240Y011056D01*
X002174Y011214D02*
X000713Y011214D01*
X000713Y011373D02*
X002138Y011373D01*
X002138Y011531D02*
X000713Y011531D01*
X000713Y011690D02*
X002189Y011690D01*
X002276Y011849D02*
X000713Y011849D01*
X000713Y012007D02*
X002443Y012007D01*
X004090Y010465D02*
X005308Y011683D01*
X005308Y016681D01*
X007434Y018807D01*
X007583Y019167D02*
X005918Y020832D01*
X005918Y021630D01*
X005864Y021762D01*
X005762Y021864D01*
X005630Y021918D01*
X005487Y021918D01*
X005354Y021864D01*
X005253Y021762D01*
X005231Y021708D01*
X005231Y023222D01*
X005489Y023479D01*
X005543Y023612D01*
X005543Y023695D01*
X005560Y023688D01*
X005807Y023688D01*
X006035Y023783D01*
X006183Y023932D01*
X006332Y023783D01*
X006560Y023688D01*
X006807Y023688D01*
X006858Y023710D01*
X007763Y022804D01*
X007874Y022758D01*
X007993Y022758D01*
X008556Y022758D01*
X008614Y022758D01*
X008616Y022758D01*
X008618Y022758D01*
X008671Y022780D01*
X008725Y022802D01*
X008726Y022803D01*
X008728Y022804D01*
X008770Y022846D01*
X009868Y023915D01*
X010281Y023915D01*
X008753Y022387D01*
X008698Y022255D01*
X008698Y022112D01*
X008698Y019167D01*
X007583Y019167D01*
X007451Y019300D02*
X008698Y019300D01*
X008698Y019459D02*
X007292Y019459D01*
X007134Y019617D02*
X008698Y019617D01*
X008698Y019776D02*
X006975Y019776D01*
X006817Y019934D02*
X008698Y019934D01*
X008698Y020093D02*
X006658Y020093D01*
X006500Y020251D02*
X008698Y020251D01*
X008698Y020410D02*
X006341Y020410D01*
X006182Y020568D02*
X008698Y020568D01*
X008698Y020727D02*
X006024Y020727D01*
X005918Y020885D02*
X008698Y020885D01*
X008698Y021044D02*
X005918Y021044D01*
X005918Y021203D02*
X008698Y021203D01*
X008698Y021361D02*
X005918Y021361D01*
X005918Y021520D02*
X008698Y021520D01*
X008698Y021678D02*
X005898Y021678D01*
X005789Y021837D02*
X008698Y021837D01*
X008698Y021995D02*
X005231Y021995D01*
X005231Y021837D02*
X005328Y021837D01*
X005231Y022154D02*
X008698Y022154D01*
X008722Y022312D02*
X005231Y022312D01*
X005231Y022471D02*
X008837Y022471D01*
X008995Y022629D02*
X005231Y022629D01*
X005231Y022788D02*
X007802Y022788D01*
X007621Y022947D02*
X005231Y022947D01*
X005231Y023105D02*
X007462Y023105D01*
X007304Y023264D02*
X005273Y023264D01*
X005431Y023422D02*
X007145Y023422D01*
X006987Y023581D02*
X005530Y023581D01*
X005929Y023739D02*
X006437Y023739D01*
X006217Y023898D02*
X006150Y023898D01*
X004746Y025558D02*
X011433Y025558D01*
X011933Y026058D01*
X011969Y025642D02*
X012008Y025642D01*
X012008Y025483D02*
X011811Y025483D01*
X011705Y025377D02*
X011705Y025377D01*
X011652Y025325D02*
X012008Y025325D01*
X012008Y024849D02*
X011469Y024849D01*
X011623Y024691D02*
X012008Y024691D01*
X012008Y024532D02*
X011778Y024532D01*
X011932Y024373D02*
X012008Y024373D01*
X012858Y024373D02*
X013758Y024373D01*
X013758Y024215D02*
X012951Y024215D01*
X012858Y024308D02*
X012858Y026368D01*
X012813Y026478D01*
X012728Y026563D01*
X012326Y026965D01*
X012563Y027201D01*
X012608Y027311D01*
X012608Y027431D01*
X012608Y028299D01*
X012674Y028233D01*
X012749Y028179D01*
X012832Y028137D01*
X012920Y028108D01*
X013012Y028093D01*
X013030Y028093D01*
X013030Y028655D01*
X013087Y028655D01*
X013087Y028093D01*
X013105Y028093D01*
X013197Y028108D01*
X013285Y028137D01*
X013368Y028179D01*
X013443Y028233D01*
X013502Y028292D01*
X013679Y028115D01*
X013758Y028082D01*
X013758Y023408D01*
X012858Y024308D01*
X012858Y024532D02*
X013758Y024532D01*
X013758Y024691D02*
X012858Y024691D01*
X012858Y024849D02*
X013758Y024849D01*
X013758Y025008D02*
X012858Y025008D01*
X012858Y025166D02*
X013758Y025166D01*
X013758Y025325D02*
X012858Y025325D01*
X012858Y025483D02*
X013758Y025483D01*
X013758Y025642D02*
X012858Y025642D01*
X012858Y025800D02*
X013758Y025800D01*
X013758Y025959D02*
X012858Y025959D01*
X012858Y026117D02*
X013758Y026117D01*
X013758Y026276D02*
X012858Y026276D01*
X012831Y026434D02*
X013758Y026434D01*
X013758Y026593D02*
X012698Y026593D01*
X012539Y026752D02*
X013758Y026752D01*
X013758Y026910D02*
X012381Y026910D01*
X012430Y027069D02*
X013758Y027069D01*
X013758Y027227D02*
X012574Y027227D01*
X012608Y027386D02*
X013758Y027386D01*
X013758Y027544D02*
X012608Y027544D01*
X012608Y027703D02*
X013758Y027703D01*
X013758Y027861D02*
X012608Y027861D01*
X012608Y028020D02*
X013758Y028020D01*
X013616Y028178D02*
X013367Y028178D01*
X013087Y028178D02*
X013030Y028178D01*
X013030Y028337D02*
X013087Y028337D01*
X013087Y028496D02*
X013030Y028496D01*
X013030Y028654D02*
X013087Y028654D01*
X012750Y028178D02*
X012608Y028178D01*
X012608Y028299D02*
X012608Y028299D01*
X012008Y028337D02*
X011640Y028337D01*
X011626Y028304D02*
X011728Y028550D01*
X011728Y028817D01*
X011626Y029063D01*
X011438Y029251D01*
X011192Y029353D01*
X010925Y029353D01*
X010679Y029251D01*
X010558Y029131D01*
X010438Y029251D01*
X010192Y029353D01*
X009925Y029353D01*
X009679Y029251D01*
X009502Y029074D01*
X009443Y029133D01*
X009368Y029188D01*
X009285Y029230D01*
X009197Y029259D01*
X009105Y029273D01*
X009087Y029273D01*
X009087Y028712D01*
X009030Y028712D01*
X009030Y029273D01*
X009012Y029273D01*
X008920Y029259D01*
X008832Y029230D01*
X008749Y029188D01*
X008674Y029133D01*
X008608Y029068D01*
X008554Y028993D01*
X008512Y028910D01*
X008483Y028822D01*
X008468Y028730D01*
X008468Y028712D01*
X009030Y028712D01*
X009030Y028655D01*
X008468Y028655D01*
X008468Y028637D01*
X008483Y028545D01*
X008512Y028457D01*
X008554Y028374D01*
X008608Y028299D01*
X008674Y028233D01*
X008749Y028179D01*
X008832Y028137D01*
X008920Y028108D01*
X009012Y028093D01*
X009030Y028093D01*
X009030Y028655D01*
X009087Y028655D01*
X009087Y028093D01*
X009105Y028093D01*
X009197Y028108D01*
X009285Y028137D01*
X009368Y028179D01*
X009443Y028233D01*
X009502Y028292D01*
X009679Y028115D01*
X009925Y028013D01*
X010192Y028013D01*
X010438Y028115D01*
X010558Y028236D01*
X010679Y028115D01*
X010925Y028013D01*
X011192Y028013D01*
X011438Y028115D01*
X011626Y028304D01*
X011501Y028178D02*
X012008Y028178D01*
X012008Y028020D02*
X011207Y028020D01*
X010909Y028020D02*
X010207Y028020D01*
X009909Y028020D02*
X007207Y028020D01*
X006909Y028020D02*
X006207Y028020D01*
X005909Y028020D02*
X005207Y028020D01*
X004909Y028020D02*
X004378Y028020D01*
X004378Y027861D02*
X012008Y027861D01*
X012008Y027703D02*
X004378Y027703D01*
X004378Y027544D02*
X012008Y027544D01*
X012008Y028496D02*
X011706Y028496D01*
X011728Y028654D02*
X012008Y028654D01*
X012008Y028813D02*
X011728Y028813D01*
X011664Y028971D02*
X012008Y028971D01*
X012080Y029130D02*
X011559Y029130D01*
X011349Y029288D02*
X012239Y029288D01*
X012398Y029447D02*
X000713Y029447D01*
X000713Y029605D02*
X012556Y029605D01*
X010768Y029288D02*
X010349Y029288D01*
X009768Y029288D02*
X007349Y029288D01*
X007559Y029130D02*
X008670Y029130D01*
X008543Y028971D02*
X007664Y028971D01*
X007728Y028813D02*
X008482Y028813D01*
X008468Y028654D02*
X007728Y028654D01*
X007706Y028496D02*
X008499Y028496D01*
X008581Y028337D02*
X007640Y028337D01*
X007501Y028178D02*
X008750Y028178D01*
X009030Y028178D02*
X009087Y028178D01*
X009087Y028337D02*
X009030Y028337D01*
X009030Y028496D02*
X009087Y028496D01*
X009087Y028654D02*
X009030Y028654D01*
X009030Y028813D02*
X009087Y028813D01*
X009087Y028971D02*
X009030Y028971D01*
X009030Y029130D02*
X009087Y029130D01*
X009446Y029130D02*
X009557Y029130D01*
X009616Y028178D02*
X009367Y028178D01*
X010501Y028178D02*
X010616Y028178D01*
X008558Y026558D02*
X004433Y026558D01*
X004058Y026933D01*
X004058Y028683D01*
X003616Y028178D02*
X003367Y028178D01*
X003087Y028178D02*
X003030Y028178D01*
X003030Y028093D02*
X003030Y028655D01*
X002468Y028655D01*
X002468Y028637D01*
X002483Y028545D01*
X002512Y028457D01*
X002554Y028374D01*
X002608Y028299D01*
X002674Y028233D01*
X002749Y028179D01*
X002832Y028137D01*
X002920Y028108D01*
X003012Y028093D01*
X003030Y028093D01*
X003030Y028337D02*
X003087Y028337D01*
X003087Y028496D02*
X003030Y028496D01*
X003030Y028654D02*
X003087Y028654D01*
X003087Y028813D02*
X003030Y028813D01*
X003030Y028971D02*
X003087Y028971D01*
X003087Y029130D02*
X003030Y029130D01*
X002670Y029130D02*
X000713Y029130D01*
X000713Y029288D02*
X003768Y029288D01*
X003557Y029130D02*
X003446Y029130D01*
X004349Y029288D02*
X004768Y029288D01*
X005349Y029288D02*
X005768Y029288D01*
X006349Y029288D02*
X006768Y029288D01*
X006616Y028178D02*
X006501Y028178D01*
X005616Y028178D02*
X005501Y028178D01*
X004616Y028178D02*
X004501Y028178D01*
X003738Y028020D02*
X000713Y028020D01*
X000713Y028178D02*
X002750Y028178D01*
X002581Y028337D02*
X000713Y028337D01*
X000713Y028496D02*
X002499Y028496D01*
X002468Y028654D02*
X000713Y028654D01*
X000713Y028813D02*
X002482Y028813D01*
X002543Y028971D02*
X000713Y028971D01*
X000713Y027861D02*
X003738Y027861D01*
X003738Y027703D02*
X000713Y027703D01*
X000713Y027544D02*
X003738Y027544D01*
X003738Y027386D02*
X000713Y027386D01*
X000713Y027227D02*
X003738Y027227D01*
X003738Y027069D02*
X000713Y027069D01*
X000713Y026910D02*
X003738Y026910D01*
X003788Y026752D02*
X000713Y026752D01*
X000713Y026593D02*
X003946Y026593D01*
X004105Y026434D02*
X000713Y026434D01*
X000713Y026276D02*
X004267Y026276D01*
X004108Y026117D02*
X000713Y026117D01*
X000713Y025959D02*
X003950Y025959D01*
X003791Y025800D02*
X000713Y025800D01*
X000713Y025642D02*
X003633Y025642D01*
X003474Y025483D02*
X000713Y025483D01*
X000713Y025325D02*
X003316Y025325D01*
X003213Y025166D02*
X000713Y025166D01*
X000713Y025008D02*
X003198Y025008D01*
X003198Y024849D02*
X000713Y024849D01*
X000713Y024691D02*
X003198Y024691D01*
X003198Y024532D02*
X000713Y024532D01*
X000713Y024373D02*
X003198Y024373D01*
X003198Y024215D02*
X000713Y024215D01*
X000713Y024056D02*
X003198Y024056D01*
X003198Y023898D02*
X000713Y023898D01*
X000713Y023739D02*
X003198Y023739D01*
X003198Y023581D02*
X000713Y023581D01*
X000713Y023422D02*
X003198Y023422D01*
X003198Y023264D02*
X000713Y023264D01*
X000713Y023105D02*
X003198Y023105D01*
X003198Y022947D02*
X000713Y022947D01*
X000713Y022788D02*
X003229Y022788D01*
X003353Y022629D02*
X000713Y022629D01*
X000713Y022471D02*
X003738Y022471D01*
X003735Y022312D02*
X000713Y022312D01*
X000713Y022154D02*
X003576Y022154D01*
X003418Y021995D02*
X000713Y021995D01*
X000713Y021837D02*
X003276Y021837D01*
X003238Y021678D02*
X000713Y021678D01*
X000713Y021520D02*
X003238Y021520D01*
X003200Y021361D02*
X000713Y021361D01*
X000713Y021203D02*
X003214Y021203D01*
X003315Y021044D02*
X000713Y021044D01*
X003558Y021308D02*
X003558Y021683D01*
X004058Y022183D01*
X004058Y024871D01*
X004746Y025558D01*
X004534Y026910D02*
X005762Y026910D01*
X005700Y027069D02*
X004378Y027069D01*
X004378Y027227D02*
X005714Y027227D01*
X005816Y027386D02*
X004378Y027386D01*
X001157Y030398D02*
X000713Y030398D01*
X000713Y030557D02*
X000885Y030557D01*
X000728Y030715D02*
X000713Y030715D01*
X009850Y023898D02*
X010264Y023898D01*
X010105Y023739D02*
X009688Y023739D01*
X009525Y023581D02*
X009947Y023581D01*
X009788Y023422D02*
X009362Y023422D01*
X009199Y023264D02*
X009630Y023264D01*
X009471Y023105D02*
X009036Y023105D01*
X008873Y022947D02*
X009312Y022947D01*
X009154Y022788D02*
X008690Y022788D01*
X009538Y022154D02*
X012539Y022154D01*
X012633Y021995D02*
X009418Y021995D01*
X009418Y021837D02*
X012633Y021837D01*
X012633Y021678D02*
X009418Y021678D01*
X009418Y021520D02*
X011137Y021520D01*
X011075Y021361D02*
X009418Y021361D01*
X009418Y021203D02*
X011089Y021203D01*
X011113Y021044D02*
X009418Y021044D01*
X009418Y020885D02*
X011113Y020885D01*
X011121Y020727D02*
X009418Y020727D01*
X009418Y020568D02*
X011221Y020568D01*
X011379Y020410D02*
X009418Y020410D01*
X009418Y020251D02*
X011538Y020251D01*
X011696Y020093D02*
X009418Y020093D01*
X009418Y019934D02*
X011855Y019934D01*
X011704Y019776D02*
X012014Y019776D01*
X011915Y019617D02*
X012172Y019617D01*
X012073Y019459D02*
X012331Y019459D01*
X012232Y019300D02*
X012489Y019300D01*
X012375Y019141D02*
X012648Y019141D01*
X012806Y018983D02*
X012418Y018983D01*
X012418Y018824D02*
X012965Y018824D01*
X013123Y018666D02*
X012418Y018666D01*
X012418Y018507D02*
X013282Y018507D01*
X013440Y018349D02*
X012418Y018349D01*
X012418Y018190D02*
X013599Y018190D01*
X013757Y018032D02*
X012418Y018032D01*
X012418Y017873D02*
X013916Y017873D01*
X014075Y017715D02*
X012418Y017715D01*
X012418Y017556D02*
X014233Y017556D01*
X014363Y017398D02*
X012478Y017398D01*
X012637Y017239D02*
X014363Y017239D01*
X014363Y017080D02*
X012795Y017080D01*
X012094Y016763D02*
X010987Y016763D01*
X011146Y016605D02*
X011846Y016605D01*
X011687Y016446D02*
X011305Y016446D01*
X011936Y016922D02*
X008022Y016922D01*
X007864Y017080D02*
X011777Y017080D01*
X011698Y017239D02*
X007705Y017239D01*
X007725Y017398D02*
X011698Y017398D01*
X011698Y017556D02*
X007884Y017556D01*
X008042Y017715D02*
X011698Y017715D01*
X011698Y017873D02*
X008201Y017873D01*
X008359Y018032D02*
X011698Y018032D01*
X011698Y018190D02*
X009666Y018190D01*
X009755Y018349D02*
X011698Y018349D01*
X011698Y018507D02*
X009760Y018507D01*
X009677Y018666D02*
X011698Y018666D01*
X011689Y018824D02*
X009418Y018824D01*
X009418Y018983D02*
X011531Y018983D01*
X011372Y019141D02*
X009418Y019141D01*
X009418Y019300D02*
X011255Y019300D01*
X011230Y019459D02*
X009418Y019459D01*
X009418Y019617D02*
X011276Y019617D01*
X011475Y019776D02*
X009418Y019776D01*
X009402Y018433D02*
X008308Y018433D01*
X007183Y017308D01*
X009308Y015183D01*
X009308Y012933D01*
X010308Y011965D01*
X012683Y011965D01*
X019808Y019058D01*
X020074Y019300D02*
X020238Y019300D01*
X020238Y019141D02*
X020162Y019141D01*
X020165Y018983D02*
X020238Y018983D01*
X020238Y018824D02*
X020082Y018824D01*
X020238Y018666D02*
X019868Y018666D01*
X019708Y018507D02*
X020238Y018507D01*
X020238Y018349D02*
X019549Y018349D01*
X019390Y018190D02*
X020238Y018190D01*
X020238Y018032D02*
X019231Y018032D01*
X019071Y017873D02*
X020238Y017873D01*
X020238Y017715D02*
X018912Y017715D01*
X018753Y017556D02*
X020238Y017556D01*
X020238Y017398D02*
X018594Y017398D01*
X018434Y017239D02*
X020238Y017239D01*
X020238Y017080D02*
X018275Y017080D01*
X018116Y016922D02*
X020238Y016922D01*
X020238Y016763D02*
X017957Y016763D01*
X017797Y016605D02*
X020238Y016605D01*
X020238Y016446D02*
X017638Y016446D01*
X016940Y017239D02*
X015003Y017239D01*
X015003Y017398D02*
X017098Y017398D01*
X017257Y017556D02*
X015003Y017556D01*
X014965Y017715D02*
X017415Y017715D01*
X017574Y017873D02*
X014821Y017873D01*
X014663Y018032D02*
X017732Y018032D01*
X017891Y018190D02*
X014504Y018190D01*
X014346Y018349D02*
X015634Y018349D01*
X015475Y018507D02*
X014187Y018507D01*
X014028Y018666D02*
X015353Y018666D01*
X015323Y018824D02*
X013870Y018824D01*
X013711Y018983D02*
X015323Y018983D01*
X015323Y019141D02*
X013553Y019141D01*
X013394Y019300D02*
X015323Y019300D01*
X015323Y019459D02*
X013236Y019459D01*
X013077Y019617D02*
X015323Y019617D01*
X015323Y019776D02*
X013910Y019776D01*
X014108Y019934D02*
X015323Y019934D01*
X015360Y020093D02*
X014350Y020093D01*
X014417Y020251D02*
X015510Y020251D01*
X015408Y020410D02*
X014405Y020410D01*
X014306Y020568D02*
X015249Y020568D01*
X015091Y020727D02*
X013913Y020727D01*
X013915Y020885D02*
X014932Y020885D01*
X014774Y021044D02*
X013878Y021044D01*
X013558Y020808D02*
X013558Y022246D01*
X012633Y021520D02*
X011729Y021520D01*
X011792Y021361D02*
X012633Y021361D01*
X012633Y021203D02*
X011778Y021203D01*
X011753Y021044D02*
X012633Y021044D01*
X012633Y020885D02*
X011809Y020885D01*
X011967Y020727D02*
X012633Y020727D01*
X012633Y020568D02*
X012126Y020568D01*
X012284Y020410D02*
X012670Y020410D01*
X012816Y020251D02*
X012443Y020251D01*
X012602Y020093D02*
X012975Y020093D01*
X013133Y019934D02*
X012760Y019934D01*
X012919Y019776D02*
X013332Y019776D01*
X012262Y019270D02*
X012262Y019270D01*
X011433Y020808D02*
X014683Y017558D01*
X014683Y015808D01*
X013683Y014808D01*
X013926Y014544D02*
X014244Y014544D01*
X014086Y014385D02*
X013608Y014385D01*
X013608Y014227D02*
X013927Y014227D01*
X014030Y014702D02*
X014403Y014702D01*
X014562Y014861D02*
X014188Y014861D01*
X014347Y015019D02*
X014720Y015019D01*
X014879Y015178D02*
X014505Y015178D01*
X014664Y015336D02*
X015037Y015336D01*
X015196Y015495D02*
X014823Y015495D01*
X014865Y015537D02*
X014865Y015537D01*
X014966Y015654D02*
X015354Y015654D01*
X015513Y015812D02*
X015003Y015812D01*
X015003Y015971D02*
X015671Y015971D01*
X015830Y016129D02*
X015003Y016129D01*
X015003Y016288D02*
X015988Y016288D01*
X016147Y016446D02*
X015003Y016446D01*
X015003Y016605D02*
X016306Y016605D01*
X016464Y016763D02*
X015003Y016763D01*
X015003Y016922D02*
X016623Y016922D01*
X016781Y017080D02*
X015003Y017080D01*
X014363Y016323D02*
X014168Y016323D01*
X014168Y016237D01*
X014114Y016104D01*
X014012Y016003D01*
X013880Y015948D01*
X013873Y015948D01*
X013608Y015684D01*
X013608Y015186D01*
X014363Y015941D01*
X014363Y016323D01*
X014363Y016288D02*
X014168Y016288D01*
X014124Y016129D02*
X014363Y016129D01*
X014363Y015971D02*
X013934Y015971D01*
X013736Y015812D02*
X014235Y015812D01*
X014076Y015654D02*
X013608Y015654D01*
X013608Y015495D02*
X013917Y015495D01*
X013759Y015336D02*
X013608Y015336D01*
X013008Y015336D02*
X012885Y015336D01*
X012918Y015178D02*
X013008Y015178D01*
X013008Y015019D02*
X012880Y015019D01*
X013008Y014861D02*
X012745Y014861D01*
X012586Y014702D02*
X013008Y014702D01*
X013008Y014544D02*
X012428Y014544D01*
X012418Y014385D02*
X013008Y014385D01*
X013008Y014227D02*
X012418Y014227D01*
X012418Y014068D02*
X013008Y014068D01*
X013045Y013910D02*
X012418Y013910D01*
X012418Y013751D02*
X013191Y013751D01*
X013350Y013592D02*
X012418Y013592D01*
X012418Y013434D02*
X013706Y013434D01*
X013546Y013275D02*
X012418Y013275D01*
X012418Y013117D02*
X013387Y013117D01*
X013228Y012958D02*
X012418Y012958D01*
X012418Y012800D02*
X013069Y012800D01*
X012909Y012641D02*
X012418Y012641D01*
X012418Y012483D02*
X012750Y012483D01*
X012591Y012324D02*
X012418Y012324D01*
X011698Y012324D02*
X010882Y012324D01*
X010735Y012324D02*
X010397Y012324D01*
X010502Y012483D02*
X010233Y012483D01*
X010070Y012641D02*
X010448Y012641D01*
X010060Y012800D02*
X009906Y012800D01*
X009961Y012958D02*
X009743Y012958D01*
X009628Y013117D02*
X009950Y013117D01*
X009988Y013275D02*
X009628Y013275D01*
X009628Y013434D02*
X009988Y013434D01*
X009988Y013592D02*
X009628Y013592D01*
X009628Y013751D02*
X009988Y013751D01*
X009988Y013910D02*
X009628Y013910D01*
X009628Y014068D02*
X009988Y014068D01*
X009988Y014227D02*
X009628Y014227D01*
X009628Y014385D02*
X009988Y014385D01*
X009988Y014544D02*
X009628Y014544D01*
X009628Y014702D02*
X009988Y014702D01*
X009988Y014861D02*
X009628Y014861D01*
X009628Y015019D02*
X009988Y015019D01*
X009988Y015178D02*
X009628Y015178D01*
X009591Y015336D02*
X009988Y015336D01*
X009988Y015495D02*
X009449Y015495D01*
X009291Y015654D02*
X009988Y015654D01*
X009970Y015812D02*
X009132Y015812D01*
X008974Y015971D02*
X009950Y015971D01*
X010001Y016129D02*
X008815Y016129D01*
X008945Y016288D02*
X008657Y016288D01*
X008498Y016446D02*
X008840Y016446D01*
X008823Y016605D02*
X008339Y016605D01*
X008181Y016763D02*
X008879Y016763D01*
X010308Y015933D02*
X010308Y013058D01*
X011168Y013117D02*
X011698Y013117D01*
X011698Y013275D02*
X011168Y013275D01*
X011168Y013434D02*
X011698Y013434D01*
X011698Y013592D02*
X011168Y013592D01*
X011168Y013751D02*
X011698Y013751D01*
X011698Y013910D02*
X011168Y013910D01*
X011168Y014068D02*
X011698Y014068D01*
X011698Y014227D02*
X011168Y014227D01*
X011168Y014385D02*
X011698Y014385D01*
X011698Y014544D02*
X011168Y014544D01*
X011168Y014702D02*
X011698Y014702D01*
X011742Y014861D02*
X011168Y014861D01*
X011168Y015019D02*
X011885Y015019D01*
X012044Y015178D02*
X011168Y015178D01*
X011221Y015336D02*
X012202Y015336D01*
X012370Y015495D02*
X011379Y015495D01*
X011913Y015654D02*
X013008Y015654D01*
X013008Y015812D02*
X012071Y015812D01*
X012747Y015495D02*
X013008Y015495D01*
X015058Y013683D02*
X015058Y011683D01*
X014558Y011183D01*
X012308Y011183D01*
X012671Y010683D02*
X012851Y010863D01*
X013075Y010863D01*
X013075Y010737D01*
X013129Y010605D01*
X013230Y010504D01*
X013324Y010466D01*
X013841Y009949D01*
X013879Y009855D01*
X013980Y009754D01*
X014112Y009700D01*
X014255Y009700D01*
X014387Y009754D01*
X014487Y009855D01*
X014542Y009987D01*
X014542Y010130D01*
X014487Y010262D01*
X014387Y010362D01*
X014293Y010401D01*
X013831Y010863D01*
X014622Y010863D01*
X014740Y010912D01*
X014830Y011002D01*
X015240Y011412D01*
X015330Y011502D01*
X015378Y011620D01*
X015378Y013494D01*
X016375Y014491D01*
X016379Y014480D01*
X016480Y014379D01*
X016612Y014325D01*
X016755Y014325D01*
X016887Y014379D01*
X016987Y014480D01*
X017026Y014574D01*
X017566Y015113D01*
X018471Y015113D01*
X018458Y015080D01*
X018458Y014873D01*
X018537Y014682D01*
X018636Y014583D01*
X018537Y014484D01*
X018458Y014293D01*
X018458Y014086D01*
X018537Y013895D01*
X018636Y013796D01*
X018537Y013696D01*
X018458Y013505D01*
X018458Y013298D01*
X018537Y013107D01*
X018636Y013008D01*
X018537Y012909D01*
X018458Y012718D01*
X018458Y012511D01*
X018537Y012320D01*
X018636Y012221D01*
X018537Y012122D01*
X018458Y011931D01*
X018458Y011724D01*
X018537Y011533D01*
X018636Y011433D01*
X018537Y011334D01*
X018458Y011143D01*
X018458Y010936D01*
X018537Y010745D01*
X018636Y010646D01*
X018537Y010547D01*
X018458Y010356D01*
X018458Y010149D01*
X018537Y009958D01*
X018636Y009859D01*
X018537Y009759D01*
X018458Y009568D01*
X018458Y009361D01*
X018537Y009170D01*
X018636Y009071D01*
X018537Y008972D01*
X018458Y008781D01*
X018458Y008574D01*
X018537Y008383D01*
X018683Y008237D01*
X018698Y008231D01*
X018691Y008226D01*
X018642Y008177D01*
X018601Y008121D01*
X018570Y008059D01*
X018549Y007993D01*
X018538Y007925D01*
X018538Y007890D01*
X018538Y007855D01*
X018549Y007787D01*
X018570Y007721D01*
X018601Y007659D01*
X018642Y007603D01*
X018691Y007554D01*
X018747Y007514D01*
X018807Y007483D01*
X012749Y007483D01*
X012725Y007473D01*
X012501Y007473D01*
X012394Y007429D01*
X012313Y007348D01*
X012232Y007267D01*
X012137Y007362D01*
X012005Y007417D01*
X011862Y007417D01*
X011769Y007378D01*
X011278Y007378D01*
X011151Y007378D01*
X011033Y007330D01*
X011000Y007296D01*
X010943Y007240D01*
X009042Y005339D01*
X008949Y005300D01*
X008848Y005199D01*
X008793Y005067D01*
X008793Y004924D01*
X008813Y004878D01*
X007473Y004878D01*
X007380Y004917D01*
X007237Y004917D01*
X007155Y004883D01*
X006986Y005052D01*
X006986Y005052D01*
X006896Y005142D01*
X006828Y005170D01*
X006828Y005296D01*
X006792Y005384D01*
X006724Y005452D01*
X006636Y005488D01*
X006081Y005488D01*
X005992Y005452D01*
X005949Y005408D01*
X005793Y005408D01*
X005793Y004969D01*
X005723Y004969D01*
X005723Y005408D01*
X005507Y005408D01*
X005466Y005397D01*
X005430Y005376D01*
X005400Y005347D01*
X005379Y005310D01*
X005368Y005269D01*
X005368Y004968D01*
X005723Y004968D01*
X005723Y004898D01*
X005368Y004898D01*
X005368Y004597D01*
X005379Y004557D01*
X005400Y004520D01*
X005430Y004490D01*
X005459Y004473D01*
X004272Y004473D01*
X004192Y004553D01*
X004192Y005466D01*
X004384Y005275D01*
X004462Y005196D01*
X004565Y005153D01*
X004571Y005153D01*
X004677Y005153D01*
X004677Y005153D01*
X004769Y005153D01*
X004793Y005129D01*
X004925Y005075D01*
X005067Y005075D01*
X005199Y005129D01*
X005300Y005230D01*
X005355Y005362D01*
X005355Y005505D01*
X005300Y005637D01*
X005199Y005738D01*
X005124Y005768D01*
X005232Y005768D01*
X005241Y005768D01*
X005348Y005813D01*
X005897Y006362D01*
X007136Y006362D01*
X007112Y006304D01*
X007112Y006188D01*
X007112Y005557D01*
X007098Y005543D01*
X007043Y005411D01*
X007043Y005268D01*
X007098Y005136D01*
X007199Y005035D01*
X007331Y004981D01*
X007473Y004981D01*
X007605Y005035D01*
X007706Y005136D01*
X007761Y005268D01*
X007761Y005411D01*
X007706Y005543D01*
X007692Y005557D01*
X007692Y005949D01*
X007793Y005848D01*
X007925Y005793D01*
X008067Y005793D01*
X008161Y005832D01*
X009109Y005832D01*
X009122Y005832D01*
X009240Y005881D01*
X009319Y005961D01*
X010668Y007309D01*
X010762Y007348D01*
X010862Y007449D01*
X010917Y007581D01*
X010917Y007723D01*
X010862Y007855D01*
X010762Y007956D01*
X010630Y008011D01*
X010546Y008011D01*
X011108Y008573D01*
X011561Y008573D01*
X011865Y008877D01*
X012089Y008653D01*
X012288Y008653D01*
X012288Y009163D01*
X012328Y009163D01*
X012328Y008653D01*
X012528Y008653D01*
X012838Y008964D01*
X012838Y009163D01*
X012329Y009163D01*
X012329Y009203D01*
X012838Y009203D01*
X012838Y009403D01*
X012614Y009627D01*
X012918Y009931D01*
X012918Y010436D01*
X012671Y010683D01*
X012726Y010739D02*
X013075Y010739D01*
X013154Y010580D02*
X012774Y010580D01*
X012918Y010422D02*
X013368Y010422D01*
X013526Y010263D02*
X012918Y010263D01*
X012918Y010105D02*
X013685Y010105D01*
X013842Y009946D02*
X012918Y009946D01*
X012775Y009787D02*
X013947Y009787D01*
X014183Y010058D02*
X013433Y010808D01*
X013956Y010739D02*
X018543Y010739D01*
X018570Y010580D02*
X014114Y010580D01*
X014273Y010422D02*
X018485Y010422D01*
X018458Y010263D02*
X014486Y010263D01*
X014542Y010105D02*
X018476Y010105D01*
X018549Y009946D02*
X014525Y009946D01*
X014420Y009787D02*
X018565Y009787D01*
X018483Y009629D02*
X012616Y009629D01*
X012771Y009470D02*
X018458Y009470D01*
X018478Y009312D02*
X012838Y009312D01*
X012838Y009153D02*
X018554Y009153D01*
X018560Y008995D02*
X012838Y008995D01*
X012711Y008836D02*
X018481Y008836D01*
X018458Y008678D02*
X012552Y008678D01*
X012328Y008678D02*
X012288Y008678D01*
X012288Y008836D02*
X012328Y008836D01*
X012328Y008995D02*
X012288Y008995D01*
X012288Y009153D02*
X012328Y009153D01*
X011906Y008836D02*
X011824Y008836D01*
X011665Y008678D02*
X012065Y008678D01*
X011054Y008519D02*
X018480Y008519D01*
X018559Y008361D02*
X010896Y008361D01*
X010737Y008202D02*
X018667Y008202D01*
X018565Y008043D02*
X010579Y008043D01*
X010833Y007885D02*
X018538Y007885D01*
X018538Y007890D02*
X018977Y007890D01*
X018977Y007890D01*
X018538Y007890D01*
X018568Y007726D02*
X010916Y007726D01*
X010912Y007568D02*
X018678Y007568D01*
X019574Y006775D02*
X024193Y006775D01*
X024160Y006934D02*
X019733Y006934D01*
X019891Y007092D02*
X024193Y007092D01*
X024238Y007251D02*
X020050Y007251D01*
X020196Y007409D02*
X024238Y007409D01*
X024238Y007568D02*
X020233Y007568D01*
X020233Y007726D02*
X024238Y007726D01*
X024238Y007885D02*
X020233Y007885D01*
X020233Y008043D02*
X024238Y008043D01*
X024238Y008202D02*
X020233Y008202D01*
X020233Y008361D02*
X024238Y008361D01*
X024238Y008519D02*
X020233Y008519D01*
X020233Y008678D02*
X024238Y008678D01*
X024238Y008836D02*
X020233Y008836D01*
X020233Y008995D02*
X024238Y008995D01*
X024238Y009153D02*
X020233Y009153D01*
X020233Y009312D02*
X024238Y009312D01*
X024238Y009470D02*
X020233Y009470D01*
X020233Y009629D02*
X024238Y009629D01*
X024238Y009787D02*
X020233Y009787D01*
X020233Y009946D02*
X024238Y009946D01*
X024238Y010105D02*
X023577Y010105D01*
X023751Y010263D02*
X024238Y010263D01*
X024238Y010422D02*
X023792Y010422D01*
X023761Y010580D02*
X024238Y010580D01*
X024238Y010739D02*
X023753Y010739D01*
X023753Y010897D02*
X024238Y010897D01*
X024238Y011056D02*
X023753Y011056D01*
X023753Y011214D02*
X024238Y011214D01*
X024238Y011373D02*
X023753Y011373D01*
X023753Y011531D02*
X024238Y011531D01*
X024238Y011690D02*
X023753Y011690D01*
X023753Y011849D02*
X024238Y011849D01*
X024238Y012007D02*
X023753Y012007D01*
X023753Y012166D02*
X024238Y012166D01*
X024238Y012324D02*
X023753Y012324D01*
X023753Y012483D02*
X024238Y012483D01*
X024238Y012641D02*
X023753Y012641D01*
X023753Y012800D02*
X024238Y012800D01*
X024238Y012958D02*
X023753Y012958D01*
X023753Y013117D02*
X024238Y013117D01*
X024238Y013275D02*
X023753Y013275D01*
X023753Y013434D02*
X024238Y013434D01*
X024208Y013592D02*
X023753Y013592D01*
X023753Y013751D02*
X024200Y013751D01*
X024277Y013910D02*
X023753Y013910D01*
X023753Y014068D02*
X025113Y014068D01*
X025113Y013910D02*
X024839Y013910D01*
X024917Y013751D02*
X025113Y013751D01*
X025113Y013592D02*
X024909Y013592D01*
X024878Y013434D02*
X025113Y013434D01*
X025113Y013275D02*
X024878Y013275D01*
X024878Y013117D02*
X025113Y013117D01*
X025113Y012958D02*
X024878Y012958D01*
X024878Y012800D02*
X025113Y012800D01*
X025113Y012641D02*
X024878Y012641D01*
X025058Y012183D02*
X025058Y007558D01*
X025113Y007092D02*
X024924Y007092D01*
X024956Y006934D02*
X025113Y006934D01*
X025113Y006775D02*
X024924Y006775D01*
X024805Y006617D02*
X025113Y006617D01*
X025113Y006458D02*
X022427Y006458D01*
X022456Y006299D02*
X025113Y006299D01*
X025113Y006141D02*
X022420Y006141D01*
X022408Y005982D02*
X025118Y005982D01*
X025215Y005824D02*
X022408Y005824D01*
X022408Y005665D02*
X025374Y005665D01*
X025532Y005507D02*
X022408Y005507D01*
X022408Y005348D02*
X025691Y005348D01*
X025849Y005190D02*
X022408Y005190D01*
X022408Y005031D02*
X026008Y005031D01*
X026167Y004873D02*
X022408Y004873D01*
X022408Y004714D02*
X026325Y004714D01*
X026484Y004556D02*
X022408Y004556D01*
X022408Y004397D02*
X026642Y004397D01*
X026801Y004238D02*
X022408Y004238D01*
X022408Y004080D02*
X026959Y004080D01*
X027118Y003921D02*
X022408Y003921D01*
X022408Y003763D02*
X027276Y003763D01*
X027435Y003604D02*
X022408Y003604D01*
X022408Y003446D02*
X027593Y003446D01*
X027752Y003287D02*
X022408Y003287D01*
X022408Y003129D02*
X027911Y003129D01*
X028499Y003446D02*
X031253Y003446D01*
X031411Y003604D02*
X028340Y003604D01*
X028181Y003763D02*
X031570Y003763D01*
X031558Y004183D02*
X028308Y004183D01*
X026933Y005558D01*
X026933Y007558D01*
X026575Y007568D02*
X025753Y007568D01*
X025753Y007726D02*
X026615Y007726D01*
X026784Y007885D02*
X025753Y007885D01*
X025753Y008043D02*
X027140Y008043D01*
X027119Y007885D02*
X027082Y007885D01*
X027216Y008202D02*
X025753Y008202D01*
X025753Y008361D02*
X027221Y008361D01*
X027142Y008519D02*
X025753Y008519D01*
X025753Y008678D02*
X027119Y008678D01*
X027142Y008836D02*
X025753Y008836D01*
X025753Y008995D02*
X027221Y008995D01*
X027215Y009153D02*
X025753Y009153D01*
X025753Y009312D02*
X027140Y009312D01*
X027119Y009470D02*
X025753Y009470D01*
X025753Y009629D02*
X027144Y009629D01*
X027226Y009787D02*
X025753Y009787D01*
X025753Y009946D02*
X027210Y009946D01*
X027137Y010105D02*
X025753Y010105D01*
X025753Y010263D02*
X027119Y010263D01*
X027146Y010422D02*
X025753Y010422D01*
X025753Y010580D02*
X027232Y010580D01*
X027205Y010739D02*
X025753Y010739D01*
X025753Y010897D02*
X027135Y010897D01*
X027119Y011056D02*
X025753Y011056D01*
X025753Y011214D02*
X027149Y011214D01*
X027237Y011373D02*
X025753Y011373D01*
X025753Y011531D02*
X027199Y011531D01*
X027133Y011690D02*
X025753Y011690D01*
X026043Y011849D02*
X027119Y011849D01*
X027151Y012007D02*
X026147Y012007D01*
X026306Y012166D02*
X027242Y012166D01*
X027196Y012324D02*
X026464Y012324D01*
X026623Y012483D02*
X027131Y012483D01*
X027119Y012641D02*
X026781Y012641D01*
X026940Y012800D02*
X027153Y012800D01*
X027098Y012958D02*
X027248Y012958D01*
X027090Y013402D02*
X027090Y015215D01*
X027433Y015558D01*
X034183Y015558D01*
X035058Y016433D01*
X035058Y019808D01*
X034738Y019643D02*
X034738Y016566D01*
X034051Y015878D01*
X033800Y015878D01*
X033938Y015935D01*
X034126Y016124D01*
X034228Y016370D01*
X034228Y017497D01*
X034126Y017743D01*
X033938Y017931D01*
X033692Y018033D01*
X033425Y018033D01*
X033179Y017931D01*
X032990Y017743D01*
X032888Y017497D01*
X032888Y016370D01*
X032990Y016124D01*
X033179Y015935D01*
X033317Y015878D01*
X027370Y015878D01*
X027252Y015830D01*
X027162Y015740D01*
X026818Y015396D01*
X026770Y015278D01*
X026770Y015151D01*
X026770Y013535D01*
X025753Y012518D01*
X025753Y013732D01*
X025754Y013730D01*
X025855Y013629D01*
X025987Y013575D01*
X026130Y013575D01*
X026262Y013629D01*
X026362Y013730D01*
X026401Y013824D01*
X026580Y014002D01*
X026628Y014120D01*
X026628Y014247D01*
X026628Y017394D01*
X026667Y017487D01*
X026667Y017630D01*
X026612Y017762D01*
X026512Y017862D01*
X026380Y017917D01*
X026237Y017917D01*
X026105Y017862D01*
X026004Y017762D01*
X025950Y017630D01*
X025950Y017487D01*
X025988Y017394D01*
X025988Y014316D01*
X025949Y014276D01*
X025855Y014237D01*
X025754Y014137D01*
X025753Y014134D01*
X025753Y017644D01*
X025792Y017737D01*
X025792Y017880D01*
X025747Y017988D01*
X026370Y017988D01*
X026497Y017988D01*
X026615Y018037D01*
X027151Y018573D01*
X028130Y018573D01*
X028880Y018573D01*
X031005Y018573D01*
X031137Y018628D01*
X031239Y018729D01*
X031293Y018862D01*
X031293Y019005D01*
X031239Y019137D01*
X031137Y019239D01*
X031005Y019293D01*
X028880Y019293D01*
X028130Y019293D01*
X027302Y019293D01*
X027332Y019323D01*
X029130Y019323D01*
X029262Y019378D01*
X029364Y019479D01*
X029418Y019612D01*
X029418Y019755D01*
X029364Y019886D01*
X031909Y019886D01*
X032331Y019464D01*
X032254Y019387D01*
X032200Y019255D01*
X032200Y019112D01*
X032254Y018980D01*
X032355Y018879D01*
X032487Y018825D01*
X032630Y018825D01*
X032723Y018863D01*
X033620Y018863D01*
X033747Y018863D01*
X033865Y018912D01*
X034700Y019747D01*
X034700Y019737D01*
X034738Y019643D01*
X034738Y019617D02*
X034570Y019617D01*
X034411Y019459D02*
X034738Y019459D01*
X034738Y019300D02*
X034253Y019300D01*
X034094Y019141D02*
X034738Y019141D01*
X034738Y018983D02*
X033935Y018983D01*
X033683Y019183D02*
X034808Y020308D01*
X035308Y020308D01*
X035558Y020058D01*
X035558Y016308D01*
X034308Y015058D01*
X028933Y015058D01*
X028558Y014683D01*
X028558Y004683D01*
X028894Y004556D02*
X032363Y004556D01*
X032521Y004714D02*
X028917Y004714D01*
X028878Y004873D02*
X032680Y004873D01*
X032838Y005031D02*
X028878Y005031D01*
X028878Y005190D02*
X032997Y005190D01*
X033155Y005348D02*
X028878Y005348D01*
X028878Y005507D02*
X033314Y005507D01*
X033472Y005665D02*
X028878Y005665D01*
X028878Y005824D02*
X033631Y005824D01*
X033789Y005982D02*
X028878Y005982D01*
X028878Y006141D02*
X033948Y006141D01*
X034107Y006299D02*
X028878Y006299D01*
X028878Y006458D02*
X034265Y006458D01*
X034424Y006617D02*
X028878Y006617D01*
X028878Y006775D02*
X034582Y006775D01*
X034741Y006934D02*
X028878Y006934D01*
X028878Y007092D02*
X034899Y007092D01*
X035058Y007251D02*
X028878Y007251D01*
X028878Y007409D02*
X035216Y007409D01*
X035375Y007568D02*
X028878Y007568D01*
X028878Y007726D02*
X035533Y007726D01*
X035692Y007885D02*
X028878Y007885D01*
X028878Y008043D02*
X035851Y008043D01*
X036009Y008202D02*
X028878Y008202D01*
X028878Y008361D02*
X036168Y008361D01*
X036326Y008519D02*
X028878Y008519D01*
X028878Y008678D02*
X036485Y008678D01*
X036643Y008836D02*
X028878Y008836D01*
X028878Y008995D02*
X036802Y008995D01*
X036960Y009153D02*
X028878Y009153D01*
X028878Y009312D02*
X037119Y009312D01*
X037277Y009470D02*
X028878Y009470D01*
X028878Y009629D02*
X037436Y009629D01*
X037595Y009787D02*
X028878Y009787D01*
X028878Y009946D02*
X037753Y009946D01*
X037912Y010105D02*
X028878Y010105D01*
X028878Y010263D02*
X038070Y010263D01*
X038229Y010422D02*
X028878Y010422D01*
X028878Y010580D02*
X038387Y010580D01*
X038546Y010739D02*
X028878Y010739D01*
X028878Y010897D02*
X038704Y010897D01*
X038863Y011056D02*
X028878Y011056D01*
X028878Y011214D02*
X039021Y011214D01*
X039180Y011373D02*
X028878Y011373D01*
X028878Y011531D02*
X039339Y011531D01*
X039497Y011690D02*
X028878Y011690D01*
X028878Y011849D02*
X039656Y011849D01*
X039580Y012056D02*
X039756Y012129D01*
X039890Y012263D01*
X039962Y012438D01*
X039962Y012628D01*
X039890Y012803D01*
X039756Y012937D01*
X039580Y013010D01*
X039391Y013010D01*
X039215Y012937D01*
X039081Y012803D01*
X039009Y012628D01*
X039009Y012438D01*
X039081Y012263D01*
X039215Y012129D01*
X039391Y012056D01*
X039580Y012056D01*
X039814Y012007D02*
X028878Y012007D01*
X028878Y012166D02*
X039178Y012166D01*
X039056Y012324D02*
X028878Y012324D01*
X028878Y012483D02*
X039009Y012483D01*
X039014Y012641D02*
X028878Y012641D01*
X028878Y012800D02*
X039080Y012800D01*
X039267Y012958D02*
X028878Y012958D01*
X028878Y013117D02*
X040068Y013117D01*
X040068Y013275D02*
X028878Y013275D01*
X028878Y013434D02*
X040068Y013434D01*
X040068Y013592D02*
X028878Y013592D01*
X028878Y013751D02*
X040068Y013751D01*
X040068Y013910D02*
X028878Y013910D01*
X028878Y014068D02*
X040068Y014068D01*
X040068Y014227D02*
X028878Y014227D01*
X028878Y014385D02*
X037339Y014385D01*
X037314Y014403D02*
X037389Y014349D01*
X037472Y014307D01*
X037560Y014278D01*
X037652Y014263D01*
X038478Y014263D01*
X038478Y014773D01*
X038638Y014773D01*
X038638Y014269D01*
X038697Y014278D01*
X038785Y014307D01*
X038868Y014349D01*
X038943Y014403D01*
X039008Y014469D01*
X039063Y014544D01*
X039105Y014627D01*
X039134Y014715D01*
X039143Y014773D01*
X038639Y014773D01*
X038639Y014933D01*
X039143Y014933D01*
X039134Y014992D01*
X039105Y015080D01*
X039063Y015163D01*
X039008Y015238D01*
X038943Y015303D01*
X038868Y015358D01*
X038785Y015400D01*
X038697Y015429D01*
X038638Y015438D01*
X038638Y014934D01*
X038478Y014934D01*
X038478Y015443D01*
X037652Y015443D01*
X037560Y015429D01*
X037472Y015400D01*
X037389Y015358D01*
X037314Y015303D01*
X037248Y015238D01*
X037194Y015163D01*
X037152Y015080D01*
X037123Y014992D01*
X037114Y014933D01*
X038478Y014933D01*
X038478Y014773D01*
X037114Y014773D01*
X037123Y014715D01*
X037152Y014627D01*
X037194Y014544D01*
X037248Y014469D01*
X037314Y014403D01*
X037194Y014544D02*
X028878Y014544D01*
X029030Y014702D02*
X037127Y014702D01*
X037132Y015019D02*
X034722Y015019D01*
X034563Y014861D02*
X038478Y014861D01*
X038478Y015019D02*
X038638Y015019D01*
X038639Y014861D02*
X040068Y014861D01*
X040068Y015019D02*
X039125Y015019D01*
X039052Y015178D02*
X040068Y015178D01*
X040068Y015336D02*
X038897Y015336D01*
X038638Y015336D02*
X038478Y015336D01*
X038478Y015178D02*
X038638Y015178D01*
X038638Y014702D02*
X038478Y014702D01*
X038478Y014544D02*
X038638Y014544D01*
X038638Y014385D02*
X038478Y014385D01*
X038918Y014385D02*
X040068Y014385D01*
X040068Y014544D02*
X039063Y014544D01*
X039130Y014702D02*
X040068Y014702D01*
X040068Y015495D02*
X035198Y015495D01*
X035356Y015654D02*
X040068Y015654D01*
X040068Y015812D02*
X035515Y015812D01*
X035673Y015971D02*
X040068Y015971D01*
X040068Y016129D02*
X035830Y016129D01*
X035878Y016288D02*
X040068Y016288D01*
X040068Y016446D02*
X035878Y016446D01*
X035878Y016605D02*
X040068Y016605D01*
X040068Y016763D02*
X035878Y016763D01*
X035878Y016922D02*
X040068Y016922D01*
X040068Y017080D02*
X038911Y017080D01*
X038943Y017103D02*
X039008Y017169D01*
X039063Y017244D01*
X039105Y017327D01*
X039134Y017415D01*
X039143Y017473D01*
X038639Y017473D01*
X038639Y017633D01*
X039143Y017633D01*
X039134Y017692D01*
X039105Y017780D01*
X039063Y017863D01*
X039008Y017938D01*
X038943Y018003D01*
X038868Y018058D01*
X038785Y018100D01*
X038697Y018129D01*
X038638Y018138D01*
X038638Y017634D01*
X038478Y017634D01*
X038478Y018143D01*
X037652Y018143D01*
X037560Y018129D01*
X037472Y018100D01*
X037389Y018058D01*
X037314Y018003D01*
X037248Y017938D01*
X037194Y017863D01*
X037152Y017780D01*
X037123Y017692D01*
X037114Y017633D01*
X038478Y017633D01*
X038478Y017473D01*
X038638Y017473D01*
X038638Y016969D01*
X038697Y016978D01*
X038785Y017007D01*
X038868Y017049D01*
X038943Y017103D01*
X039059Y017239D02*
X040068Y017239D01*
X040068Y017398D02*
X039128Y017398D01*
X039126Y017715D02*
X040068Y017715D01*
X040068Y017873D02*
X039055Y017873D01*
X038904Y018032D02*
X040068Y018032D01*
X040068Y018190D02*
X035878Y018190D01*
X035878Y018032D02*
X037353Y018032D01*
X037201Y017873D02*
X035878Y017873D01*
X035878Y017715D02*
X037130Y017715D01*
X037114Y017473D02*
X037123Y017415D01*
X037152Y017327D01*
X037194Y017244D01*
X037248Y017169D01*
X037314Y017103D01*
X037389Y017049D01*
X037472Y017007D01*
X037560Y016978D01*
X037652Y016963D01*
X038478Y016963D01*
X038478Y017473D01*
X037114Y017473D01*
X037129Y017398D02*
X035878Y017398D01*
X035878Y017556D02*
X038478Y017556D01*
X038478Y017398D02*
X038638Y017398D01*
X038639Y017556D02*
X040068Y017556D01*
X040068Y018349D02*
X035878Y018349D01*
X035878Y018507D02*
X040068Y018507D01*
X040068Y018666D02*
X039082Y018666D01*
X039032Y018615D02*
X039220Y018804D01*
X039322Y019050D01*
X039322Y019317D01*
X039220Y019563D01*
X039043Y019740D01*
X039102Y019799D01*
X039157Y019874D01*
X039199Y019957D01*
X039228Y020045D01*
X039242Y020137D01*
X039242Y020155D01*
X038681Y020155D01*
X038681Y020212D01*
X039242Y020212D01*
X039242Y020230D01*
X039228Y020321D01*
X039199Y020410D01*
X039239Y020251D02*
X040068Y020251D01*
X040068Y020093D02*
X039235Y020093D01*
X039187Y019934D02*
X040068Y019934D01*
X040068Y019776D02*
X039079Y019776D01*
X039166Y019617D02*
X040068Y019617D01*
X040068Y019459D02*
X039263Y019459D01*
X039322Y019300D02*
X040068Y019300D01*
X040068Y019141D02*
X039322Y019141D01*
X039294Y018983D02*
X040068Y018983D01*
X040068Y018824D02*
X039229Y018824D01*
X039032Y018615D02*
X038785Y018513D01*
X038519Y018513D01*
X038273Y018615D01*
X038084Y018804D01*
X037982Y019050D01*
X037982Y019317D01*
X038084Y019563D01*
X038261Y019740D01*
X038202Y019799D01*
X038148Y019874D01*
X038105Y019957D01*
X038077Y020045D01*
X038062Y020137D01*
X038062Y020155D01*
X038624Y020155D01*
X038624Y020212D01*
X038062Y020212D01*
X038062Y020230D01*
X038077Y020321D01*
X038105Y020410D01*
X038066Y020251D02*
X035818Y020251D01*
X035878Y020093D02*
X038069Y020093D01*
X038117Y019934D02*
X035878Y019934D01*
X035878Y019776D02*
X038225Y019776D01*
X038138Y019617D02*
X035878Y019617D01*
X035878Y019459D02*
X038041Y019459D01*
X037982Y019300D02*
X035878Y019300D01*
X035878Y019141D02*
X037982Y019141D01*
X038010Y018983D02*
X035878Y018983D01*
X035878Y018824D02*
X038076Y018824D01*
X038222Y018666D02*
X035878Y018666D01*
X034738Y018666D02*
X031175Y018666D01*
X031278Y018824D02*
X034738Y018824D01*
X034738Y018507D02*
X027085Y018507D01*
X026926Y018349D02*
X034738Y018349D01*
X034738Y018190D02*
X026768Y018190D01*
X026602Y018032D02*
X033421Y018032D01*
X033696Y018032D02*
X034738Y018032D01*
X034738Y017873D02*
X033996Y017873D01*
X034138Y017715D02*
X034738Y017715D01*
X034738Y017556D02*
X034204Y017556D01*
X034228Y017398D02*
X034738Y017398D01*
X034738Y017239D02*
X034228Y017239D01*
X034228Y017080D02*
X034738Y017080D01*
X034738Y016922D02*
X034228Y016922D01*
X034228Y016763D02*
X034738Y016763D01*
X034738Y016605D02*
X034228Y016605D01*
X034228Y016446D02*
X034619Y016446D01*
X034460Y016288D02*
X034194Y016288D01*
X034129Y016129D02*
X034302Y016129D01*
X034143Y015971D02*
X033973Y015971D01*
X033144Y015971D02*
X031312Y015971D01*
X031285Y015957D02*
X031368Y015999D01*
X031443Y016053D01*
X031508Y016119D01*
X031563Y016194D01*
X031605Y016277D01*
X031634Y016365D01*
X031648Y016457D01*
X031648Y016853D01*
X031139Y016853D01*
X031139Y017013D01*
X031648Y017013D01*
X031648Y017410D01*
X031634Y017502D01*
X031605Y017590D01*
X031563Y017673D01*
X031508Y017748D01*
X031443Y017813D01*
X031368Y017868D01*
X031285Y017910D01*
X031197Y017939D01*
X031138Y017948D01*
X031138Y017014D01*
X030978Y017014D01*
X030978Y017948D01*
X030920Y017939D01*
X030832Y017910D01*
X030749Y017868D01*
X030674Y017813D01*
X030608Y017748D01*
X030554Y017673D01*
X030512Y017590D01*
X030483Y017502D01*
X030468Y017410D01*
X030468Y017013D01*
X030978Y017013D01*
X030978Y016853D01*
X030468Y016853D01*
X030468Y016457D01*
X030483Y016365D01*
X030512Y016277D01*
X030554Y016194D01*
X030608Y016119D01*
X030674Y016053D01*
X030749Y015999D01*
X030832Y015957D01*
X030920Y015928D01*
X030978Y015919D01*
X030978Y016853D01*
X031138Y016853D01*
X031138Y015919D01*
X031197Y015928D01*
X031285Y015957D01*
X031138Y015971D02*
X030978Y015971D01*
X030978Y016129D02*
X031138Y016129D01*
X031138Y016288D02*
X030978Y016288D01*
X030978Y016446D02*
X031138Y016446D01*
X031138Y016605D02*
X030978Y016605D01*
X030978Y016763D02*
X031138Y016763D01*
X031139Y016922D02*
X032888Y016922D01*
X032888Y017080D02*
X031648Y017080D01*
X031648Y017239D02*
X032888Y017239D01*
X032888Y017398D02*
X031648Y017398D01*
X031616Y017556D02*
X032913Y017556D01*
X032979Y017715D02*
X031532Y017715D01*
X031357Y017873D02*
X033121Y017873D01*
X032888Y016763D02*
X031648Y016763D01*
X031648Y016605D02*
X032888Y016605D01*
X032888Y016446D02*
X031647Y016446D01*
X031609Y016288D02*
X032922Y016288D01*
X032988Y016129D02*
X031516Y016129D01*
X030804Y015971D02*
X026628Y015971D01*
X026628Y016129D02*
X030601Y016129D01*
X030508Y016288D02*
X026628Y016288D01*
X026628Y016446D02*
X030470Y016446D01*
X030468Y016605D02*
X026628Y016605D01*
X026628Y016763D02*
X030468Y016763D01*
X030468Y017080D02*
X026628Y017080D01*
X026628Y016922D02*
X030978Y016922D01*
X030978Y017080D02*
X031138Y017080D01*
X031138Y017239D02*
X030978Y017239D01*
X030978Y017398D02*
X031138Y017398D01*
X031138Y017556D02*
X030978Y017556D01*
X030978Y017715D02*
X031138Y017715D01*
X031138Y017873D02*
X030978Y017873D01*
X030759Y017873D02*
X026486Y017873D01*
X026632Y017715D02*
X030584Y017715D01*
X030501Y017556D02*
X026667Y017556D01*
X026630Y017398D02*
X030468Y017398D01*
X030468Y017239D02*
X026628Y017239D01*
X026308Y017558D02*
X026308Y014183D01*
X026058Y013933D01*
X025944Y013592D02*
X025753Y013592D01*
X025753Y013434D02*
X026669Y013434D01*
X026770Y013592D02*
X026173Y013592D01*
X026371Y013751D02*
X026770Y013751D01*
X026770Y013910D02*
X026487Y013910D01*
X026607Y014068D02*
X026770Y014068D01*
X026770Y014227D02*
X026628Y014227D01*
X026628Y014385D02*
X026770Y014385D01*
X026770Y014544D02*
X026628Y014544D01*
X026628Y014702D02*
X026770Y014702D01*
X026770Y014861D02*
X026628Y014861D01*
X026628Y015019D02*
X026770Y015019D01*
X026770Y015178D02*
X026628Y015178D01*
X026628Y015336D02*
X026794Y015336D01*
X026917Y015495D02*
X026628Y015495D01*
X026628Y015654D02*
X027076Y015654D01*
X027235Y015812D02*
X026628Y015812D01*
X025988Y015812D02*
X025753Y015812D01*
X025753Y015654D02*
X025988Y015654D01*
X025988Y015495D02*
X025753Y015495D01*
X025753Y015336D02*
X025988Y015336D01*
X025988Y015178D02*
X025753Y015178D01*
X025753Y015019D02*
X025988Y015019D01*
X025988Y014861D02*
X025753Y014861D01*
X025753Y014702D02*
X025988Y014702D01*
X025988Y014544D02*
X025753Y014544D01*
X025753Y014385D02*
X025988Y014385D01*
X025844Y014227D02*
X025753Y014227D01*
X025113Y014227D02*
X023753Y014227D01*
X023753Y014385D02*
X025113Y014385D01*
X025113Y014544D02*
X023753Y014544D01*
X023905Y014702D02*
X025113Y014702D01*
X025113Y014861D02*
X024063Y014861D01*
X024222Y015019D02*
X025113Y015019D01*
X025113Y015178D02*
X024380Y015178D01*
X024539Y015336D02*
X025113Y015336D01*
X025113Y015495D02*
X024698Y015495D01*
X024856Y015654D02*
X025113Y015654D01*
X025113Y015812D02*
X025015Y015812D01*
X024808Y016058D02*
X023433Y014683D01*
X023433Y010433D01*
X023290Y010105D02*
X020233Y010105D01*
X020233Y010263D02*
X023116Y010263D01*
X023075Y010422D02*
X020233Y010422D01*
X020233Y010580D02*
X023106Y010580D01*
X023113Y010739D02*
X020233Y010739D01*
X020233Y010897D02*
X023113Y010897D01*
X023113Y011056D02*
X020233Y011056D01*
X020233Y011214D02*
X023113Y011214D01*
X023113Y011373D02*
X020233Y011373D01*
X020233Y011531D02*
X023113Y011531D01*
X023113Y011690D02*
X020233Y011690D01*
X020233Y011849D02*
X023113Y011849D01*
X023113Y012007D02*
X020233Y012007D01*
X020233Y012166D02*
X023113Y012166D01*
X023113Y012324D02*
X020233Y012324D01*
X020233Y012483D02*
X022564Y012483D01*
X022460Y012641D02*
X020233Y012641D01*
X020349Y012800D02*
X022302Y012800D01*
X022143Y012958D02*
X020508Y012958D01*
X020666Y013117D02*
X022015Y013117D01*
X021988Y013275D02*
X020825Y013275D01*
X020983Y013434D02*
X021988Y013434D01*
X021988Y013592D02*
X021142Y013592D01*
X021300Y013751D02*
X021988Y013751D01*
X021969Y013910D02*
X021459Y013910D01*
X021617Y014068D02*
X021950Y014068D01*
X022003Y014227D02*
X021776Y014227D01*
X021934Y014385D02*
X022214Y014385D01*
X022093Y014544D02*
X022372Y014544D01*
X022251Y014702D02*
X022531Y014702D01*
X022410Y014861D02*
X022690Y014861D01*
X022738Y015019D02*
X022569Y015019D01*
X022727Y015178D02*
X022738Y015178D01*
X023058Y014777D02*
X023058Y017933D01*
X023433Y018308D01*
X026433Y018308D01*
X027058Y018933D01*
X027309Y019300D02*
X032218Y019300D01*
X032200Y019141D02*
X031234Y019141D01*
X031293Y018983D02*
X032253Y018983D01*
X032558Y019183D02*
X033683Y019183D01*
X032326Y019459D02*
X029343Y019459D01*
X029418Y019617D02*
X032178Y019617D01*
X032019Y019776D02*
X029410Y019776D01*
X027276Y021361D02*
X032700Y021361D01*
X032762Y021520D02*
X027393Y021520D01*
X027418Y021678D02*
X034723Y021678D01*
X034698Y021837D02*
X033162Y021837D01*
X033379Y021995D02*
X034698Y021995D01*
X035058Y021308D02*
X035558Y021808D01*
X035894Y021678D02*
X036629Y021678D01*
X036470Y021520D02*
X035779Y021520D01*
X035762Y021503D02*
X035864Y021604D01*
X035918Y021737D01*
X035918Y023505D01*
X035864Y023637D01*
X035762Y023739D01*
X035630Y023793D01*
X035487Y023793D01*
X035354Y023739D01*
X035253Y023637D01*
X035198Y023505D01*
X035198Y023265D01*
X035130Y023293D01*
X034987Y023293D01*
X034854Y023239D01*
X034753Y023137D01*
X034648Y023264D02*
X034915Y023264D01*
X034806Y023422D02*
X035198Y023422D01*
X035230Y023581D02*
X034965Y023581D01*
X035123Y023739D02*
X035356Y023739D01*
X035282Y023898D02*
X036573Y023898D01*
X036573Y024056D02*
X035440Y024056D01*
X035599Y024215D02*
X036573Y024215D01*
X036573Y024373D02*
X035758Y024373D01*
X035916Y024532D02*
X036573Y024532D01*
X036573Y024691D02*
X036075Y024691D01*
X036233Y024849D02*
X036573Y024849D01*
X036626Y025008D02*
X036392Y025008D01*
X036550Y025166D02*
X036856Y025166D01*
X037010Y025166D02*
X037982Y025166D01*
X037985Y025325D02*
X036709Y025325D01*
X036867Y025483D02*
X038051Y025483D01*
X038163Y025642D02*
X037026Y025642D01*
X037184Y025800D02*
X038088Y025800D01*
X038114Y026593D02*
X035418Y026593D01*
X035418Y026434D02*
X036800Y026434D01*
X036642Y026276D02*
X035418Y026276D01*
X035418Y026117D02*
X036483Y026117D01*
X036325Y025959D02*
X035418Y025959D01*
X035418Y025800D02*
X036166Y025800D01*
X036008Y025642D02*
X035379Y025642D01*
X035418Y026752D02*
X038273Y026752D01*
X038000Y025008D02*
X037241Y025008D01*
X037293Y024849D02*
X038065Y024849D01*
X038197Y024691D02*
X037293Y024691D01*
X037293Y024532D02*
X038071Y024532D01*
X038006Y024373D02*
X037293Y024373D01*
X037293Y024215D02*
X037982Y024215D01*
X037982Y024056D02*
X037293Y024056D01*
X037293Y023898D02*
X038045Y023898D01*
X038149Y023739D02*
X037293Y023739D01*
X037293Y023581D02*
X038102Y023581D01*
X038026Y023422D02*
X037293Y023422D01*
X037293Y023264D02*
X037982Y023264D01*
X037982Y023105D02*
X037293Y023105D01*
X037293Y022947D02*
X038025Y022947D01*
X038100Y022788D02*
X037293Y022788D01*
X037293Y022629D02*
X038151Y022629D01*
X037469Y022471D02*
X037293Y022471D01*
X036573Y022471D02*
X035918Y022471D01*
X035918Y022629D02*
X036573Y022629D01*
X036573Y022788D02*
X035918Y022788D01*
X035918Y022947D02*
X036573Y022947D01*
X036573Y023105D02*
X035918Y023105D01*
X035918Y023264D02*
X036573Y023264D01*
X036573Y023422D02*
X035918Y023422D01*
X035887Y023581D02*
X036573Y023581D01*
X036573Y023739D02*
X035761Y023739D01*
X034581Y024215D02*
X030500Y024215D01*
X029867Y024215D02*
X027418Y024215D01*
X027369Y024373D02*
X029711Y024373D01*
X029645Y024532D02*
X027162Y024532D01*
X027128Y024691D02*
X029628Y024691D01*
X029651Y024849D02*
X028608Y024849D01*
X028614Y024854D02*
X029364Y025604D01*
X029418Y025737D01*
X029418Y025880D01*
X029418Y027005D01*
X029364Y027137D01*
X029262Y027239D01*
X029130Y027293D01*
X028987Y027293D01*
X028854Y027239D01*
X028753Y027137D01*
X028698Y027005D01*
X028698Y025957D01*
X028376Y025635D01*
X028418Y025737D01*
X028418Y027193D01*
X028364Y027325D01*
X028262Y027426D01*
X028130Y027481D01*
X027987Y027481D01*
X027854Y027426D01*
X027753Y027325D01*
X027698Y027193D01*
X027698Y025737D01*
X027753Y025604D01*
X027854Y025503D01*
X027987Y025448D01*
X028130Y025448D01*
X028231Y025490D01*
X028159Y025418D01*
X027487Y025418D01*
X027354Y025364D01*
X027253Y025262D01*
X027198Y025130D01*
X027198Y024987D01*
X027253Y024854D01*
X027354Y024753D01*
X027487Y024698D01*
X028380Y024698D01*
X028512Y024753D01*
X028614Y024854D01*
X028767Y025008D02*
X029723Y025008D01*
X029863Y025166D02*
X028925Y025166D01*
X029084Y025325D02*
X029863Y025325D01*
X029863Y025483D02*
X029242Y025483D01*
X029379Y025642D02*
X029863Y025642D01*
X029863Y025800D02*
X029418Y025800D01*
X029418Y025959D02*
X029863Y025959D01*
X029863Y026117D02*
X029418Y026117D01*
X029418Y026276D02*
X029863Y026276D01*
X029863Y026434D02*
X029418Y026434D01*
X029418Y026593D02*
X029863Y026593D01*
X029863Y026752D02*
X029418Y026752D01*
X029418Y026910D02*
X029863Y026910D01*
X029863Y027069D02*
X029392Y027069D01*
X029274Y027227D02*
X029863Y027227D01*
X029863Y027386D02*
X028303Y027386D01*
X028404Y027227D02*
X028843Y027227D01*
X028725Y027069D02*
X028418Y027069D01*
X028418Y026910D02*
X028698Y026910D01*
X028698Y026752D02*
X028418Y026752D01*
X028418Y026593D02*
X028698Y026593D01*
X028698Y026434D02*
X028418Y026434D01*
X028418Y026276D02*
X028698Y026276D01*
X028698Y026117D02*
X028418Y026117D01*
X028418Y025959D02*
X028698Y025959D01*
X028541Y025800D02*
X028418Y025800D01*
X028383Y025642D02*
X028379Y025642D01*
X028224Y025483D02*
X028214Y025483D01*
X027903Y025483D02*
X027128Y025483D01*
X027128Y025325D02*
X027316Y025325D01*
X027213Y025166D02*
X027128Y025166D01*
X027128Y025008D02*
X027198Y025008D01*
X027259Y024849D02*
X027128Y024849D01*
X026808Y024433D02*
X026808Y025933D01*
X026558Y026183D01*
X024558Y026183D01*
X023808Y025433D01*
X023058Y024683D01*
X021308Y024683D01*
X020058Y025933D01*
X020172Y026276D02*
X021073Y026276D01*
X021073Y026117D02*
X020372Y026117D01*
X020485Y025959D02*
X021073Y025959D01*
X021073Y025800D02*
X020644Y025800D01*
X020803Y025642D02*
X021073Y025642D01*
X021073Y025483D02*
X020961Y025483D01*
X020532Y025008D02*
X020416Y025008D01*
X020412Y024849D02*
X020690Y024849D01*
X020849Y024691D02*
X020323Y024691D01*
X020081Y024532D02*
X021007Y024532D01*
X021046Y024373D02*
X019923Y024373D01*
X019764Y024215D02*
X020887Y024215D01*
X020729Y024056D02*
X019606Y024056D01*
X019447Y023898D02*
X020570Y023898D01*
X020412Y023739D02*
X019288Y023739D01*
X019130Y023581D02*
X020253Y023581D01*
X020095Y023422D02*
X018971Y023422D01*
X018918Y023264D02*
X018858Y023264D01*
X019198Y023264D02*
X019418Y023264D01*
X019698Y023264D02*
X019918Y023264D01*
X020058Y022933D02*
X021558Y024433D01*
X023808Y024433D01*
X023198Y025276D02*
X022926Y025003D01*
X022418Y025003D01*
X022418Y028107D01*
X022438Y028115D01*
X022626Y028304D01*
X022728Y028550D01*
X022728Y028817D01*
X022626Y029063D01*
X022576Y029113D01*
X023541Y029113D01*
X023490Y029063D01*
X023388Y028817D01*
X023388Y028550D01*
X023490Y028304D01*
X023679Y028115D01*
X023925Y028013D01*
X024192Y028013D01*
X024438Y028115D01*
X024615Y028292D01*
X024674Y028233D01*
X024749Y028179D01*
X024832Y028137D01*
X024920Y028108D01*
X025012Y028093D01*
X025030Y028093D01*
X025030Y028655D01*
X025087Y028655D01*
X025087Y028093D01*
X025105Y028093D01*
X025197Y028108D01*
X025285Y028137D01*
X025368Y028179D01*
X025443Y028233D01*
X025502Y028292D01*
X025679Y028115D01*
X025925Y028013D01*
X026192Y028013D01*
X026438Y028115D01*
X026558Y028236D01*
X026679Y028115D01*
X026738Y028091D01*
X026738Y026816D01*
X026426Y026503D01*
X024622Y026503D01*
X024495Y026503D01*
X024377Y026455D01*
X023966Y026043D01*
X023556Y026043D01*
X023198Y025686D01*
X023198Y025276D01*
X023198Y025325D02*
X022418Y025325D01*
X022418Y025483D02*
X023198Y025483D01*
X023198Y025642D02*
X022418Y025642D01*
X022418Y025800D02*
X023313Y025800D01*
X023471Y025959D02*
X022418Y025959D01*
X022418Y026117D02*
X024040Y026117D01*
X024198Y026276D02*
X022418Y026276D01*
X022418Y026434D02*
X024357Y026434D01*
X025829Y025453D02*
X026338Y025453D01*
X026338Y025653D01*
X026128Y025863D01*
X026426Y025863D01*
X026488Y025801D01*
X026488Y024370D01*
X026537Y024252D01*
X026627Y024162D01*
X026698Y024091D01*
X026698Y021801D01*
X026378Y021481D01*
X026323Y021349D01*
X026323Y021233D01*
X024791Y021233D01*
X024792Y021237D01*
X024792Y021380D01*
X024737Y021512D01*
X024637Y021612D01*
X024505Y021667D01*
X024362Y021667D01*
X024230Y021612D01*
X024226Y021608D01*
X023308Y021608D01*
X023158Y021758D01*
X023849Y021758D01*
X023854Y021753D01*
X023987Y021698D01*
X024130Y021698D01*
X024262Y021753D01*
X026012Y023503D01*
X026012Y023503D01*
X026114Y023604D01*
X026168Y023737D01*
X026168Y023931D01*
X026418Y024181D01*
X026418Y024686D01*
X026114Y024990D01*
X026338Y025214D01*
X026338Y025413D01*
X025829Y025413D01*
X025829Y025453D01*
X026191Y025800D02*
X026488Y025800D01*
X026488Y025642D02*
X026338Y025642D01*
X026338Y025483D02*
X026488Y025483D01*
X026488Y025325D02*
X026338Y025325D01*
X026291Y025166D02*
X026488Y025166D01*
X026488Y025008D02*
X026132Y025008D01*
X026255Y024849D02*
X026488Y024849D01*
X026488Y024691D02*
X026414Y024691D01*
X026418Y024532D02*
X026488Y024532D01*
X026488Y024373D02*
X026418Y024373D01*
X026418Y024215D02*
X026574Y024215D01*
X026698Y024056D02*
X026294Y024056D01*
X026168Y023898D02*
X026698Y023898D01*
X026698Y023739D02*
X026168Y023739D01*
X026090Y023581D02*
X026698Y023581D01*
X026698Y023422D02*
X025931Y023422D01*
X025773Y023264D02*
X026698Y023264D01*
X026698Y023105D02*
X025614Y023105D01*
X025456Y022947D02*
X026698Y022947D01*
X026698Y022788D02*
X025297Y022788D01*
X025139Y022629D02*
X026698Y022629D01*
X026698Y022471D02*
X024980Y022471D01*
X024821Y022312D02*
X026698Y022312D01*
X026698Y022154D02*
X024663Y022154D01*
X024504Y021995D02*
X026698Y021995D01*
X026698Y021837D02*
X024346Y021837D01*
X024729Y021520D02*
X026417Y021520D01*
X026329Y021361D02*
X024792Y021361D01*
X023238Y021678D02*
X026575Y021678D01*
X027418Y021837D02*
X029329Y021837D01*
X029122Y021995D02*
X027418Y021995D01*
X027418Y022154D02*
X029073Y022154D01*
X029097Y022312D02*
X027418Y022312D01*
X027418Y022471D02*
X029212Y022471D01*
X027058Y024183D02*
X026808Y024433D01*
X027128Y025642D02*
X027738Y025642D01*
X027698Y025800D02*
X027128Y025800D01*
X027128Y025959D02*
X027698Y025959D01*
X027698Y026117D02*
X027077Y026117D01*
X027104Y026276D02*
X027698Y026276D01*
X027698Y026434D02*
X027262Y026434D01*
X027367Y026593D02*
X027698Y026593D01*
X027698Y026752D02*
X027378Y026752D01*
X027378Y026910D02*
X027698Y026910D01*
X027698Y027069D02*
X027378Y027069D01*
X027378Y027227D02*
X027713Y027227D01*
X027814Y027386D02*
X027378Y027386D01*
X027378Y027544D02*
X029863Y027544D01*
X029863Y027703D02*
X027378Y027703D01*
X027378Y027861D02*
X029863Y027861D01*
X029863Y028020D02*
X029207Y028020D01*
X028909Y028020D02*
X028207Y028020D01*
X027909Y028020D02*
X027378Y028020D01*
X027501Y028178D02*
X027616Y028178D01*
X027058Y028683D02*
X027058Y026683D01*
X026558Y026183D01*
X026515Y026593D02*
X022418Y026593D01*
X022418Y026752D02*
X026674Y026752D01*
X026738Y026910D02*
X022418Y026910D01*
X022418Y027069D02*
X026738Y027069D01*
X026738Y027227D02*
X022418Y027227D01*
X022418Y027386D02*
X026738Y027386D01*
X026738Y027544D02*
X022418Y027544D01*
X022418Y027703D02*
X026738Y027703D01*
X026738Y027861D02*
X022418Y027861D01*
X022418Y028020D02*
X023909Y028020D01*
X024207Y028020D02*
X025909Y028020D01*
X026207Y028020D02*
X026738Y028020D01*
X026616Y028178D02*
X026501Y028178D01*
X025616Y028178D02*
X025367Y028178D01*
X025087Y028178D02*
X025030Y028178D01*
X025030Y028337D02*
X025087Y028337D01*
X025087Y028496D02*
X025030Y028496D01*
X025030Y028654D02*
X025087Y028654D01*
X024750Y028178D02*
X024501Y028178D01*
X023616Y028178D02*
X022501Y028178D01*
X022640Y028337D02*
X023477Y028337D01*
X023411Y028496D02*
X022706Y028496D01*
X022728Y028654D02*
X023388Y028654D01*
X023388Y028813D02*
X022728Y028813D01*
X022664Y028971D02*
X023452Y028971D01*
X025589Y029605D02*
X026528Y029605D01*
X026369Y029447D02*
X025747Y029447D01*
X028501Y028178D02*
X028616Y028178D01*
X029501Y028178D02*
X029863Y028178D01*
X029863Y028337D02*
X029640Y028337D01*
X029706Y028496D02*
X029863Y028496D01*
X029863Y028654D02*
X029728Y028654D01*
X030315Y029130D02*
X030557Y029130D01*
X030768Y029288D02*
X030156Y029288D01*
X031501Y028178D02*
X031750Y028178D01*
X032446Y029130D02*
X032557Y029130D01*
X033418Y027227D02*
X033698Y027227D01*
X033698Y027069D02*
X033418Y027069D01*
X033418Y026910D02*
X033698Y026910D01*
X033698Y026752D02*
X033418Y026752D01*
X033418Y026593D02*
X033698Y026593D01*
X033698Y026434D02*
X033418Y026434D01*
X033418Y026276D02*
X033698Y026276D01*
X033698Y026117D02*
X033418Y026117D01*
X033418Y025959D02*
X033698Y025959D01*
X033698Y025800D02*
X033418Y025800D01*
X033418Y025642D02*
X033698Y025642D01*
X033698Y025483D02*
X033365Y025483D01*
X033209Y025325D02*
X033698Y025325D01*
X033698Y025166D02*
X033050Y025166D01*
X032892Y025008D02*
X033698Y025008D01*
X033698Y024849D02*
X032733Y024849D01*
X032575Y024691D02*
X033698Y024691D01*
X033731Y024532D02*
X032416Y024532D01*
X032251Y024373D02*
X033866Y024373D01*
X035918Y022312D02*
X036573Y022312D01*
X036573Y022154D02*
X035918Y022154D01*
X035918Y021995D02*
X036622Y021995D01*
X036788Y021837D02*
X035918Y021837D01*
X035762Y021503D02*
X035666Y021463D01*
X035058Y021308D02*
X033058Y021308D01*
X038478Y018032D02*
X038638Y018032D01*
X038638Y017873D02*
X038478Y017873D01*
X038478Y017715D02*
X038638Y017715D01*
X038638Y017239D02*
X038478Y017239D01*
X038478Y017080D02*
X038638Y017080D01*
X037346Y017080D02*
X035878Y017080D01*
X035878Y017239D02*
X037198Y017239D01*
X037360Y015336D02*
X035039Y015336D01*
X034880Y015178D02*
X037205Y015178D01*
X039704Y012958D02*
X040068Y012958D01*
X040068Y012800D02*
X039891Y012800D01*
X039957Y012641D02*
X040068Y012641D01*
X040068Y012483D02*
X039962Y012483D01*
X039915Y012324D02*
X040068Y012324D01*
X039973Y012166D02*
X039793Y012166D01*
X032204Y004397D02*
X031852Y004397D01*
X031917Y004238D02*
X032046Y004238D01*
X031094Y003287D02*
X028657Y003287D01*
X028926Y003129D02*
X030936Y003129D01*
X030777Y002970D02*
X029047Y002970D01*
X029081Y002812D02*
X030619Y002812D01*
X030460Y002653D02*
X029050Y002653D01*
X028932Y002494D02*
X030302Y002494D01*
X030143Y002336D02*
X026324Y002336D01*
X026240Y002177D02*
X029984Y002177D01*
X029826Y002019D02*
X022408Y002019D01*
X022408Y002177D02*
X025626Y002177D01*
X025543Y002336D02*
X022408Y002336D01*
X022408Y002494D02*
X025535Y002494D01*
X025593Y002653D02*
X022408Y002653D01*
X022408Y002812D02*
X025806Y002812D01*
X026018Y002970D02*
X022408Y002970D01*
X021708Y002970D02*
X013229Y002970D01*
X013374Y003129D02*
X021708Y003129D01*
X021708Y003287D02*
X013418Y003287D01*
X013418Y003446D02*
X021708Y003446D01*
X021708Y003604D02*
X013418Y003604D01*
X013418Y003763D02*
X021708Y003763D01*
X021708Y003921D02*
X013418Y003921D01*
X013418Y004080D02*
X021708Y004080D01*
X021708Y004238D02*
X013418Y004238D01*
X013418Y004397D02*
X021708Y004397D01*
X021708Y004556D02*
X013418Y004556D01*
X013418Y004714D02*
X021708Y004714D01*
X021708Y004873D02*
X013418Y004873D01*
X013418Y005031D02*
X021708Y005031D01*
X021708Y005190D02*
X013440Y005190D01*
X013456Y005348D02*
X021708Y005348D01*
X021708Y005507D02*
X013407Y005507D01*
X013237Y005665D02*
X021708Y005665D01*
X021708Y005824D02*
X012598Y005824D01*
X012598Y005982D02*
X021708Y005982D01*
X021697Y006141D02*
X012598Y006141D01*
X012598Y006299D02*
X021660Y006299D01*
X021689Y006458D02*
X012743Y006458D01*
X012880Y005665D02*
X012598Y005665D01*
X012598Y005507D02*
X012710Y005507D01*
X012660Y005348D02*
X012598Y005348D01*
X012598Y005190D02*
X012677Y005190D01*
X012698Y005031D02*
X012598Y005031D01*
X012598Y004873D02*
X012698Y004873D01*
X012698Y004714D02*
X012598Y004714D01*
X012598Y004556D02*
X012698Y004556D01*
X012698Y004397D02*
X012598Y004397D01*
X012598Y004238D02*
X012698Y004238D01*
X012698Y004080D02*
X012598Y004080D01*
X012598Y003921D02*
X012698Y003921D01*
X012698Y003763D02*
X012590Y003763D01*
X012483Y003604D02*
X012698Y003604D01*
X012687Y003446D02*
X012325Y003446D01*
X012166Y003287D02*
X012528Y003287D01*
X012370Y003129D02*
X012007Y003129D01*
X011992Y003113D02*
X011992Y003113D01*
X012211Y002970D02*
X011602Y002970D01*
X011632Y002812D02*
X012052Y002812D01*
X012595Y002336D02*
X017378Y002336D01*
X017387Y002177D02*
X012436Y002177D01*
X012278Y002019D02*
X017453Y002019D01*
X017597Y001860D02*
X002156Y001860D01*
X002222Y001702D02*
X017655Y001702D01*
X017496Y001543D02*
X002265Y001543D01*
X002265Y001385D02*
X017458Y001385D01*
X017458Y001308D02*
X017458Y001112D01*
X017737Y000833D01*
X017933Y000833D01*
X017933Y001308D01*
X017458Y001308D01*
X017458Y001226D02*
X002247Y001226D01*
X002181Y001068D02*
X017502Y001068D01*
X017661Y000909D02*
X002084Y000909D01*
X002023Y002019D02*
X006535Y002019D01*
X006432Y002177D02*
X001809Y002177D01*
X002358Y002549D02*
X002424Y002483D01*
X002499Y002429D01*
X002582Y002387D01*
X002670Y002358D01*
X002762Y002343D01*
X002780Y002343D01*
X002780Y002905D01*
X002218Y002905D01*
X002218Y002887D01*
X002233Y002795D01*
X002262Y002707D01*
X002304Y002624D01*
X002358Y002549D01*
X002413Y002494D02*
X000713Y002494D01*
X000713Y002336D02*
X006410Y002336D01*
X006455Y002494D02*
X003204Y002494D01*
X003193Y002483D02*
X003258Y002549D01*
X003313Y002624D01*
X003355Y002707D01*
X003384Y002795D01*
X003398Y002887D01*
X003398Y002905D01*
X002837Y002905D01*
X002837Y002343D01*
X002855Y002343D01*
X002947Y002358D01*
X003035Y002387D01*
X003118Y002429D01*
X003193Y002483D01*
X003328Y002653D02*
X006600Y002653D01*
X007727Y003604D02*
X003397Y003604D01*
X003463Y003763D02*
X003694Y003763D01*
X003535Y003921D02*
X003478Y003921D01*
X003393Y004397D02*
X003292Y004397D01*
X003393Y004556D02*
X003057Y004556D01*
X003393Y004714D02*
X000713Y004714D01*
X000713Y004556D02*
X002560Y004556D01*
X002324Y004397D02*
X000713Y004397D01*
X000713Y004238D02*
X002210Y004238D01*
X002144Y004080D02*
X000713Y004080D01*
X000713Y003921D02*
X002138Y003921D01*
X002154Y003763D02*
X000713Y003763D01*
X000713Y003604D02*
X002219Y003604D01*
X002349Y003446D02*
X000713Y003446D01*
X000713Y003287D02*
X002336Y003287D01*
X002251Y003129D02*
X000713Y003129D01*
X000713Y002970D02*
X002218Y002970D01*
X002230Y002812D02*
X000713Y002812D01*
X000713Y002653D02*
X002289Y002653D01*
X002780Y002653D02*
X002837Y002653D01*
X002837Y002812D02*
X002780Y002812D01*
X002780Y002494D02*
X002837Y002494D01*
X003386Y002812D02*
X008985Y002812D01*
X009014Y002970D02*
X003398Y002970D01*
X003365Y003129D02*
X008203Y003129D01*
X008044Y003287D02*
X003281Y003287D01*
X003268Y003446D02*
X007886Y003446D01*
X007308Y004558D02*
X010683Y004558D01*
X010933Y004808D01*
X010933Y004808D01*
X009686Y005982D02*
X009341Y005982D01*
X009500Y006141D02*
X009845Y006141D01*
X010003Y006299D02*
X009658Y006299D01*
X009817Y006458D02*
X010162Y006458D01*
X010320Y006617D02*
X009975Y006617D01*
X010134Y006775D02*
X010479Y006775D01*
X010637Y006934D02*
X010292Y006934D01*
X010451Y007092D02*
X010796Y007092D01*
X010954Y007251D02*
X010609Y007251D01*
X010823Y007409D02*
X011843Y007409D01*
X012024Y007409D02*
X012374Y007409D01*
X011933Y007058D02*
X011215Y007058D01*
X009152Y004996D01*
X008793Y005031D02*
X007595Y005031D01*
X007728Y005190D02*
X008844Y005190D01*
X009052Y005348D02*
X007761Y005348D01*
X007721Y005507D02*
X009211Y005507D01*
X009369Y005665D02*
X007692Y005665D01*
X007692Y005824D02*
X007851Y005824D01*
X008141Y005824D02*
X009528Y005824D01*
X009122Y005832D02*
X009122Y005832D01*
X009058Y006152D02*
X010558Y007652D01*
X009292Y008995D02*
X006054Y008995D01*
X006077Y009017D02*
X006113Y009106D01*
X006113Y009126D01*
X006237Y009075D01*
X006380Y009075D01*
X006512Y009129D01*
X006612Y009230D01*
X006667Y009362D01*
X006667Y009505D01*
X006628Y009598D01*
X006628Y009801D01*
X007691Y010863D01*
X010698Y010863D01*
X010698Y010859D01*
X010688Y010848D01*
X010575Y010735D01*
X010502Y010705D01*
X010412Y010615D01*
X010363Y010497D01*
X010363Y010066D01*
X007988Y007691D01*
X007692Y007691D01*
X007599Y007730D01*
X007456Y007730D01*
X007374Y007696D01*
X006464Y008606D01*
X006425Y008699D01*
X006324Y008800D01*
X006192Y008855D01*
X006050Y008855D01*
X006034Y008848D01*
X006001Y008848D01*
X005894Y008804D01*
X005871Y008781D01*
X005848Y008804D01*
X005848Y008913D01*
X005921Y008913D01*
X006009Y008950D01*
X006077Y009017D01*
X005971Y008836D02*
X005848Y008836D01*
X006237Y008836D02*
X009134Y008836D01*
X008975Y008678D02*
X006434Y008678D01*
X006550Y008519D02*
X008817Y008519D01*
X008658Y008361D02*
X006709Y008361D01*
X006867Y008202D02*
X008499Y008202D01*
X008341Y008043D02*
X007026Y008043D01*
X007184Y007885D02*
X008182Y007885D01*
X008024Y007726D02*
X007606Y007726D01*
X007448Y007726D02*
X007343Y007726D01*
X007246Y007371D02*
X007527Y007371D01*
X008121Y007371D01*
X010683Y009933D01*
X010683Y010433D01*
X010363Y010422D02*
X007249Y010422D01*
X007408Y010580D02*
X010398Y010580D01*
X010579Y010739D02*
X007566Y010739D01*
X007091Y010263D02*
X010363Y010263D01*
X010363Y010105D02*
X006932Y010105D01*
X006774Y009946D02*
X010243Y009946D01*
X010085Y009787D02*
X006628Y009787D01*
X006628Y009629D02*
X009926Y009629D01*
X009768Y009470D02*
X006667Y009470D01*
X006646Y009312D02*
X009609Y009312D01*
X009451Y009153D02*
X006536Y009153D01*
X006308Y009433D02*
X006308Y009933D01*
X007558Y011183D01*
X011308Y011183D01*
X011115Y012483D02*
X011698Y012483D01*
X011698Y012641D02*
X011168Y012641D01*
X011168Y012800D02*
X011698Y012800D01*
X011698Y012958D02*
X011168Y012958D01*
X013277Y011715D02*
X013433Y011558D01*
X013277Y011715D02*
X007340Y011715D01*
X005608Y009983D01*
X005558Y009983D01*
X005196Y010453D02*
X005128Y010425D01*
X005128Y010551D01*
X005660Y011082D01*
X005781Y011082D01*
X005931Y010932D01*
X006054Y010881D01*
X005626Y010453D01*
X005196Y010453D01*
X005158Y010580D02*
X005753Y010580D01*
X005911Y010739D02*
X005316Y010739D01*
X005475Y010897D02*
X006014Y010897D01*
X005807Y011056D02*
X005633Y011056D01*
X005527Y011402D02*
X004808Y010683D01*
X004808Y009683D01*
X005058Y009433D01*
X005558Y009433D01*
X005063Y008995D02*
X004410Y008995D01*
X004410Y009153D02*
X004898Y009153D01*
X004727Y009312D02*
X004410Y009312D01*
X004410Y009470D02*
X004569Y009470D01*
X004488Y009629D02*
X004410Y009629D01*
X004410Y009787D02*
X004488Y009787D01*
X004488Y009946D02*
X004410Y009946D01*
X004410Y010105D02*
X004488Y010105D01*
X004488Y010263D02*
X004410Y010263D01*
X004090Y010465D02*
X004090Y008933D01*
X003590Y008433D01*
X003811Y008202D02*
X004075Y008202D01*
X004103Y008043D02*
X003366Y008043D01*
X003207Y007885D02*
X004224Y007885D01*
X004066Y007726D02*
X000713Y007726D01*
X000713Y007568D02*
X003908Y007568D01*
X003749Y007409D02*
X000713Y007409D01*
X000713Y007251D02*
X002428Y007251D01*
X002270Y007092D02*
X000713Y007092D01*
X000713Y006934D02*
X002187Y006934D01*
X002138Y006775D02*
X000713Y006775D01*
X000713Y006617D02*
X002138Y006617D01*
X002176Y006458D02*
X000713Y006458D01*
X000713Y006299D02*
X002245Y006299D01*
X002318Y006141D02*
X000713Y006141D01*
X000713Y005982D02*
X002207Y005982D01*
X002141Y005824D02*
X000713Y005824D01*
X000713Y005665D02*
X002138Y005665D01*
X002156Y005507D02*
X000713Y005507D01*
X000713Y005348D02*
X002222Y005348D01*
X002355Y005190D02*
X000713Y005190D01*
X000713Y005031D02*
X002632Y005031D01*
X002984Y005031D02*
X003393Y005031D01*
X003393Y004873D02*
X000713Y004873D01*
X003262Y005190D02*
X003393Y005190D01*
X004192Y005190D02*
X004478Y005190D01*
X004384Y005275D02*
X004384Y005275D01*
X004310Y005348D02*
X004192Y005348D01*
X004192Y005031D02*
X005368Y005031D01*
X005368Y004873D02*
X004192Y004873D01*
X004192Y004714D02*
X005368Y004714D01*
X005380Y004556D02*
X004192Y004556D01*
X005259Y005190D02*
X005368Y005190D01*
X005349Y005348D02*
X005402Y005348D01*
X005354Y005507D02*
X007083Y005507D01*
X007112Y005665D02*
X005271Y005665D01*
X005359Y005824D02*
X007112Y005824D01*
X007112Y005982D02*
X005517Y005982D01*
X005676Y006141D02*
X007112Y006141D01*
X007112Y006299D02*
X005835Y006299D01*
X005793Y005348D02*
X005723Y005348D01*
X005723Y005190D02*
X005793Y005190D01*
X005793Y005031D02*
X005723Y005031D01*
X006358Y004933D02*
X006421Y004871D01*
X006715Y004871D01*
X007027Y004558D01*
X007308Y004558D01*
X007209Y005031D02*
X007007Y005031D01*
X007076Y005190D02*
X006828Y005190D01*
X006807Y005348D02*
X007043Y005348D01*
X007996Y006152D02*
X009058Y006152D01*
X007246Y007371D02*
X006121Y008496D01*
X004677Y008836D02*
X004396Y008836D01*
X004286Y008678D02*
X004518Y008678D01*
X004306Y008519D02*
X004128Y008519D01*
X004119Y008361D02*
X003969Y008361D01*
X003591Y007251D02*
X003188Y007251D01*
X003347Y007092D02*
X003435Y007092D01*
X002409Y007885D02*
X000713Y007885D01*
X000713Y008043D02*
X002251Y008043D01*
X002179Y008202D02*
X000713Y008202D01*
X000713Y008361D02*
X002138Y008361D01*
X002138Y008519D02*
X000713Y008519D01*
X005527Y011402D02*
X006246Y011402D01*
X014558Y011965D02*
X014558Y013183D01*
X015378Y013117D02*
X018533Y013117D01*
X018586Y012958D02*
X015378Y012958D01*
X015378Y012800D02*
X018492Y012800D01*
X018458Y012641D02*
X015378Y012641D01*
X015378Y012483D02*
X018469Y012483D01*
X018535Y012324D02*
X015378Y012324D01*
X015378Y012166D02*
X018581Y012166D01*
X018489Y012007D02*
X015378Y012007D01*
X015378Y011849D02*
X018458Y011849D01*
X018472Y011690D02*
X015378Y011690D01*
X015342Y011531D02*
X018538Y011531D01*
X018576Y011373D02*
X015200Y011373D01*
X015042Y011214D02*
X018487Y011214D01*
X018458Y011056D02*
X014883Y011056D01*
X014830Y011002D02*
X014830Y011002D01*
X014704Y010897D02*
X018474Y010897D01*
X018467Y013275D02*
X015378Y013275D01*
X015378Y013434D02*
X018458Y013434D01*
X018494Y013592D02*
X015477Y013592D01*
X015635Y013751D02*
X018591Y013751D01*
X018531Y013910D02*
X015794Y013910D01*
X015952Y014068D02*
X018465Y014068D01*
X018458Y014227D02*
X016111Y014227D01*
X016269Y014385D02*
X016474Y014385D01*
X016683Y014683D02*
X017433Y015433D01*
X019933Y015433D01*
X020558Y016058D01*
X020558Y019683D01*
X021558Y020683D01*
X022308Y020683D01*
X022027Y020308D02*
X021058Y019340D01*
X021058Y016183D01*
X019064Y014189D01*
X018978Y014189D01*
X019498Y014170D02*
X021240Y015912D01*
X021330Y016002D01*
X021378Y016120D01*
X021378Y017868D01*
X021487Y017823D01*
X022362Y017823D01*
X022505Y017823D01*
X022637Y017878D01*
X022738Y017979D01*
X022738Y017870D01*
X022738Y016810D01*
X022630Y016855D01*
X022487Y016855D01*
X022355Y016800D01*
X022308Y016753D01*
X022262Y016800D01*
X022130Y016855D01*
X021987Y016855D01*
X021855Y016800D01*
X021754Y016699D01*
X021700Y016567D01*
X021700Y016425D01*
X021754Y016293D01*
X021758Y016289D01*
X021758Y015558D01*
X019496Y013296D01*
X019498Y013298D01*
X019498Y013505D01*
X019418Y013696D01*
X019319Y013796D01*
X019418Y013895D01*
X019498Y014086D01*
X019498Y014170D01*
X019554Y014227D02*
X020427Y014227D01*
X020269Y014068D02*
X019490Y014068D01*
X019425Y013910D02*
X020110Y013910D01*
X019952Y013751D02*
X019364Y013751D01*
X019462Y013592D02*
X019793Y013592D01*
X019635Y013434D02*
X019498Y013434D01*
X019713Y014385D02*
X020586Y014385D01*
X020745Y014544D02*
X019871Y014544D01*
X020030Y014702D02*
X020903Y014702D01*
X021062Y014861D02*
X020188Y014861D01*
X020347Y015019D02*
X021220Y015019D01*
X021379Y015178D02*
X020505Y015178D01*
X020664Y015336D02*
X021537Y015336D01*
X021696Y015495D02*
X020823Y015495D01*
X020981Y015654D02*
X021758Y015654D01*
X021758Y015812D02*
X021140Y015812D01*
X021240Y015912D02*
X021240Y015912D01*
X021298Y015971D02*
X021758Y015971D01*
X021758Y016129D02*
X021378Y016129D01*
X021378Y016288D02*
X021758Y016288D01*
X021700Y016446D02*
X021378Y016446D01*
X021378Y016605D02*
X021715Y016605D01*
X021819Y016763D02*
X021378Y016763D01*
X021378Y016922D02*
X022738Y016922D01*
X022738Y017080D02*
X021378Y017080D01*
X021378Y017239D02*
X022738Y017239D01*
X022738Y017398D02*
X021378Y017398D01*
X021378Y017556D02*
X022738Y017556D01*
X022738Y017715D02*
X021378Y017715D01*
X022625Y017873D02*
X022738Y017873D01*
X022319Y016763D02*
X022298Y016763D01*
X023058Y014777D02*
X022308Y014027D01*
X022308Y013246D01*
X022808Y012746D01*
X023053Y012483D02*
X023113Y012483D01*
X024558Y013683D02*
X024558Y006933D01*
X024312Y006617D02*
X022313Y006617D01*
X021804Y006617D02*
X019416Y006617D01*
X018169Y002812D02*
X021708Y002812D01*
X021708Y002653D02*
X020157Y002653D01*
X020315Y002494D02*
X021708Y002494D01*
X021708Y002336D02*
X020474Y002336D01*
X020632Y002177D02*
X021708Y002177D01*
X021708Y002019D02*
X020791Y002019D01*
X020949Y001860D02*
X021708Y001860D01*
X022408Y001860D02*
X029667Y001860D01*
X028683Y002808D02*
X026308Y002808D01*
X025933Y002433D01*
X027706Y004238D02*
X027801Y004238D01*
X027864Y004080D02*
X027959Y004080D01*
X028023Y003921D02*
X028118Y003921D01*
X027642Y004397D02*
X027547Y004397D01*
X027484Y004556D02*
X027389Y004556D01*
X027325Y004714D02*
X027230Y004714D01*
X027167Y004873D02*
X027072Y004873D01*
X027008Y005031D02*
X026913Y005031D01*
X026849Y005190D02*
X026755Y005190D01*
X026691Y005348D02*
X026596Y005348D01*
X026613Y005507D02*
X026438Y005507D01*
X026279Y005665D02*
X026613Y005665D01*
X026613Y005824D02*
X026120Y005824D01*
X025962Y005982D02*
X026613Y005982D01*
X026613Y006141D02*
X025803Y006141D01*
X025753Y006299D02*
X026613Y006299D01*
X026613Y006458D02*
X025753Y006458D01*
X025753Y006617D02*
X026613Y006617D01*
X026613Y006775D02*
X025753Y006775D01*
X025753Y006934D02*
X026613Y006934D01*
X026613Y007092D02*
X025753Y007092D01*
X025753Y007251D02*
X026613Y007251D01*
X026607Y007409D02*
X025753Y007409D01*
X025433Y006058D02*
X028683Y002808D01*
X025433Y006058D02*
X025433Y017808D01*
X025783Y017715D02*
X025985Y017715D01*
X025950Y017556D02*
X025753Y017556D01*
X025753Y017398D02*
X025987Y017398D01*
X025988Y017239D02*
X025753Y017239D01*
X025753Y017080D02*
X025988Y017080D01*
X025988Y016922D02*
X025753Y016922D01*
X025753Y016763D02*
X025988Y016763D01*
X025988Y016605D02*
X025753Y016605D01*
X025753Y016446D02*
X025988Y016446D01*
X025988Y016288D02*
X025753Y016288D01*
X025753Y016129D02*
X025988Y016129D01*
X025988Y015971D02*
X025753Y015971D01*
X024808Y016058D02*
X024808Y017871D01*
X025792Y017873D02*
X026131Y017873D01*
X021149Y020727D02*
X019189Y020727D01*
X019431Y020568D02*
X020991Y020568D01*
X020832Y020410D02*
X019530Y020410D01*
X019542Y020251D02*
X020674Y020251D01*
X020515Y020093D02*
X019475Y020093D01*
X019552Y019934D02*
X018948Y019934D01*
X018938Y019776D02*
X019458Y019776D01*
X019318Y019617D02*
X018843Y019617D01*
X019159Y019459D02*
X018417Y019459D01*
X018391Y019300D02*
X019001Y019300D01*
X018842Y019141D02*
X018274Y019141D01*
X018525Y018824D02*
X016176Y018824D01*
X016279Y018666D02*
X018367Y018666D01*
X018208Y018507D02*
X016293Y018507D01*
X016233Y018349D02*
X018050Y018349D01*
X017843Y019141D02*
X016043Y019141D01*
X016043Y018983D02*
X018684Y018983D01*
X017725Y019300D02*
X016043Y019300D01*
X016043Y019459D02*
X017609Y019459D01*
X017450Y019617D02*
X016043Y019617D01*
X016054Y019763D02*
X016054Y019763D01*
X018344Y020568D02*
X018499Y020568D01*
X018493Y020410D02*
X018658Y020410D01*
X018643Y020251D02*
X018816Y020251D01*
X018875Y020093D02*
X018892Y020093D01*
X020065Y019934D02*
X020357Y019934D01*
X020250Y019776D02*
X020158Y019776D01*
X020167Y019617D02*
X020238Y019617D01*
X020238Y019459D02*
X020091Y019459D01*
X018458Y015019D02*
X017472Y015019D01*
X017313Y014861D02*
X018463Y014861D01*
X018528Y014702D02*
X017155Y014702D01*
X017014Y014544D02*
X018597Y014544D01*
X018496Y014385D02*
X016893Y014385D01*
X011433Y020808D02*
X011433Y021308D01*
X012380Y022312D02*
X009696Y022312D01*
X009855Y022471D02*
X012222Y022471D01*
X012063Y022629D02*
X010014Y022629D01*
X010172Y022788D02*
X011904Y022788D01*
X011746Y022947D02*
X010331Y022947D01*
X010489Y023105D02*
X011587Y023105D01*
X011429Y023264D02*
X010648Y023264D01*
X010806Y023422D02*
X011270Y023422D01*
X011112Y023581D02*
X010965Y023581D01*
X013110Y024056D02*
X013758Y024056D01*
X013758Y023898D02*
X013268Y023898D01*
X013427Y023739D02*
X013758Y023739D01*
X013758Y023581D02*
X013585Y023581D01*
X013744Y023422D02*
X013758Y023422D01*
X017501Y028178D02*
X017750Y028178D01*
X020207Y028020D02*
X020698Y028020D01*
X020616Y028178D02*
X020501Y028178D01*
X020373Y025166D02*
X020333Y025166D01*
X022418Y025166D02*
X023089Y025166D01*
X022930Y025008D02*
X022418Y025008D01*
X027090Y013402D02*
X025777Y012090D01*
X025753Y012641D02*
X025876Y012641D01*
X025753Y012800D02*
X026035Y012800D01*
X026193Y012958D02*
X025753Y012958D01*
X025753Y013117D02*
X026352Y013117D01*
X026510Y013275D02*
X025753Y013275D01*
X017698Y002812D02*
X013071Y002812D01*
X012912Y002653D02*
X017493Y002653D01*
X017410Y002494D02*
X012754Y002494D01*
X017934Y001308D02*
X017934Y000833D01*
X018130Y000833D01*
X018408Y001112D01*
X018408Y001308D01*
X017934Y001308D01*
X017933Y001226D02*
X017934Y001226D01*
X017933Y001068D02*
X017934Y001068D01*
X017933Y000909D02*
X017934Y000909D01*
X018206Y000909D02*
X020515Y000909D01*
X020356Y001068D02*
X018364Y001068D01*
X018408Y001226D02*
X020198Y001226D01*
X020039Y001385D02*
X018408Y001385D01*
X018370Y001543D02*
X019881Y001543D01*
X019722Y001702D02*
X018212Y001702D01*
X001058Y002177D02*
X000713Y002177D01*
X000713Y002019D02*
X000843Y002019D01*
X040993Y029130D02*
X040993Y029145D01*
D22*
X036933Y024808D03*
X035058Y025808D03*
X035058Y026933D03*
X033058Y025683D03*
X034058Y024683D03*
X035558Y023433D03*
X035058Y022933D03*
X035058Y021808D03*
X035558Y021808D03*
X036933Y022183D03*
X035058Y019808D03*
X033058Y021308D03*
X032558Y019746D03*
X032558Y019183D03*
X030933Y018933D03*
X029058Y019683D03*
X028808Y018933D03*
X028058Y018933D03*
X026683Y020308D03*
X026683Y021277D03*
X024808Y020308D03*
X024433Y021308D03*
X024058Y022058D03*
X023558Y023183D03*
X024308Y023558D03*
X022308Y023183D03*
X021965Y022840D03*
X022058Y024058D03*
X022058Y025027D03*
X021433Y025308D03*
X020058Y024933D03*
X019121Y025090D03*
X020058Y025933D03*
X020058Y022933D03*
X019558Y022933D03*
X019058Y022933D03*
X018058Y022433D03*
X017558Y022933D03*
X017058Y022933D03*
X016808Y022433D03*
X016808Y021683D03*
X016340Y021715D03*
X015808Y022433D03*
X013558Y020808D03*
X013621Y020433D03*
X014058Y020308D03*
X013933Y019683D03*
X012558Y018683D03*
X011433Y018558D03*
X011590Y019433D03*
X009402Y018433D03*
X009058Y018807D03*
X007183Y019808D03*
X006308Y021683D03*
X005558Y021558D03*
X004433Y021058D03*
X003558Y021308D03*
X003558Y022933D03*
X005183Y023683D03*
X003058Y025558D03*
X006058Y027121D03*
X008058Y028683D03*
X010058Y026840D03*
X009308Y026058D03*
X008558Y026558D03*
X008558Y024808D03*
X008058Y023683D03*
X010808Y023933D03*
X011933Y026058D03*
X012683Y026683D03*
X014433Y026683D03*
X011808Y028683D03*
X011433Y021308D03*
X015683Y019933D03*
X016090Y019652D03*
X016433Y018808D03*
X015933Y018558D03*
X014183Y017433D03*
X014308Y016683D03*
X013808Y016308D03*
X013808Y015683D03*
X013683Y014808D03*
X013683Y014308D03*
X012558Y014433D03*
X012558Y015183D03*
X012433Y015933D03*
X011246Y017058D03*
X010308Y015933D03*
X009183Y016558D03*
X007183Y017308D03*
X004871Y015871D03*
X003558Y015683D03*
X004058Y014183D03*
X002402Y012277D03*
X004808Y011933D03*
X005433Y010558D03*
X006308Y009433D03*
X006558Y008933D03*
X006121Y008496D03*
X005090Y008246D03*
X004433Y008183D03*
X005027Y007777D03*
X004652Y006683D03*
X005027Y006433D03*
X004433Y006058D03*
X004996Y005433D03*
X004433Y004621D03*
X006777Y003121D03*
X007308Y004558D03*
X007402Y005340D03*
X007996Y006152D03*
X009152Y004996D03*
X010933Y004808D03*
X011933Y007058D03*
X010558Y007652D03*
X009027Y009027D03*
X008558Y010433D03*
X010808Y012683D03*
X010308Y013058D03*
X011558Y014183D03*
X012058Y012308D03*
X013433Y011558D03*
X013433Y010808D03*
X014183Y010058D03*
X014558Y011965D03*
X014558Y013183D03*
X016683Y014683D03*
X020121Y014496D03*
X020171Y016071D03*
X022058Y016496D03*
X022558Y016496D03*
X021683Y017371D03*
X021558Y018183D03*
X022558Y019058D03*
X023558Y018683D03*
X024808Y017871D03*
X025433Y017808D03*
X026308Y017558D03*
X023933Y014433D03*
X024558Y013683D03*
X026058Y013933D03*
X026652Y013933D03*
X025777Y012090D03*
X025058Y012183D03*
X022808Y012746D03*
X022308Y014027D03*
X023433Y010433D03*
X025058Y007558D03*
X026933Y007558D03*
X028558Y004683D03*
X031558Y004183D03*
X031058Y008933D03*
X034402Y017933D03*
X029433Y022183D03*
X027058Y024183D03*
X027558Y025058D03*
X027558Y025683D03*
X028058Y025808D03*
X029058Y026933D03*
X029683Y026933D03*
X028058Y027121D03*
X027558Y027152D03*
X022308Y020683D03*
X022558Y020308D03*
X022027Y020308D03*
X019808Y019683D03*
X019808Y019058D03*
X018590Y019871D03*
X018058Y019433D03*
X019183Y020308D03*
X007527Y007371D03*
X002808Y007433D03*
D23*
X017933Y002308D02*
X019808Y002308D01*
X020808Y001308D01*
X021683Y001308D01*
X022058Y001308D01*
X029808Y001308D01*
X040558Y012058D01*
X040558Y026808D01*
X038183Y029183D01*
X038183Y029183D01*
X038183Y029183D01*
D24*
X024558Y006933D03*
X022058Y006308D03*
X025933Y002433D03*
X028683Y002808D03*
X013058Y005308D03*
X006808Y002308D03*
D25*
X021683Y001308D02*
X022058Y001683D01*
X022308Y001433D01*
X022058Y001308D02*
X022058Y006308D01*
D26*
X013058Y005308D02*
X013058Y003308D01*
X012058Y002308D01*
X006808Y002308D01*
X004808Y011933D02*
X003558Y013183D01*
X003558Y015683D01*
X004871Y015871D02*
X004871Y023371D01*
X005183Y023683D01*
X003558Y022933D02*
X003558Y025058D01*
X004558Y026058D01*
X009308Y026058D01*
X010808Y023933D02*
X009058Y022183D01*
X009058Y018807D01*
X007434Y018807D01*
X005558Y020683D01*
X005558Y021558D01*
X004433Y021058D02*
X004058Y020683D01*
X004058Y014183D01*
X009183Y016558D02*
X010683Y016558D01*
X011308Y015933D01*
X011683Y015933D01*
X012058Y016308D01*
X013808Y016308D01*
X014308Y016683D02*
X012683Y016683D01*
X012058Y017308D01*
X012058Y018965D01*
X011590Y019433D01*
X015683Y019933D02*
X015683Y018808D01*
X015933Y018558D01*
X017446Y016071D02*
X015058Y013683D01*
X012558Y015183D02*
X012058Y014683D01*
X012058Y012308D01*
X010808Y012683D02*
X010808Y015433D01*
X011308Y015933D01*
X017446Y016071D02*
X020171Y016071D01*
X021558Y018183D02*
X022433Y018183D01*
X023558Y019308D01*
X026277Y019308D01*
X027215Y020246D01*
X032058Y020246D01*
X032558Y019746D01*
X030933Y018933D02*
X028808Y018933D01*
X028058Y018933D01*
X027058Y018933D01*
X027183Y019683D02*
X026183Y018683D01*
X023558Y018683D01*
X022558Y019058D02*
X022558Y020308D01*
X024808Y020308D01*
X026683Y020308D01*
X027183Y019683D02*
X029058Y019683D01*
X027058Y021652D02*
X026683Y021277D01*
X027058Y021652D02*
X027058Y024183D01*
X027558Y025058D02*
X028308Y025058D01*
X029058Y025808D01*
X029058Y026933D01*
X028058Y027121D02*
X028058Y025808D01*
X030183Y024683D02*
X032058Y024683D01*
X033058Y025683D01*
X033058Y028683D01*
X034058Y028683D02*
X034058Y024683D01*
X035058Y025808D02*
X035058Y026933D01*
X037058Y026183D02*
X038527Y026183D01*
X038652Y026183D01*
X037058Y026183D02*
X033058Y022183D01*
X029433Y022183D01*
X025808Y023808D02*
X024058Y022058D01*
X022308Y023183D02*
X022058Y023433D01*
X022058Y024058D01*
X022058Y025027D02*
X022058Y028683D01*
X021058Y028683D02*
X021058Y027058D01*
X021433Y026683D01*
X021433Y025308D01*
X020058Y025933D02*
X016558Y025933D01*
X015808Y026683D01*
X014433Y026683D01*
X025808Y024433D02*
X025808Y023808D01*
X035058Y022933D02*
X035058Y021808D01*
X035558Y021808D02*
X035558Y023433D01*
X036933Y022183D02*
X036933Y024808D01*
D27*
X037558Y022183D02*
X038527Y022183D01*
X038652Y022183D01*
X037558Y022183D02*
X036308Y020933D01*
X023058Y020933D01*
X022558Y021433D01*
X017808Y021433D01*
X017215Y022027D01*
X016652Y022027D01*
X016340Y021715D01*
X016808Y021683D02*
X017308Y021183D01*
X022308Y021183D01*
X022808Y020683D01*
X036558Y020683D01*
X037058Y021183D01*
X038527Y021183D01*
X038652Y021183D01*
X024808Y023558D02*
X023558Y022308D01*
X019683Y022308D01*
X019058Y022933D01*
X019558Y022933D02*
X019871Y022621D01*
X019965Y022527D01*
X019558Y022933D02*
X019558Y022933D01*
X019183Y022058D02*
X018558Y022683D01*
X018558Y023433D01*
X020058Y024933D01*
X021965Y022840D02*
X023215Y022840D01*
X023558Y023183D01*
X024058Y023121D02*
X024058Y023308D01*
X024308Y023558D01*
X024808Y023558D02*
X024808Y024433D01*
X024058Y023121D02*
X023465Y022527D01*
X024058Y022058D02*
X019183Y022058D01*
X018808Y021683D02*
X018058Y022433D01*
X018808Y021683D02*
X022808Y021683D01*
X023183Y021308D01*
X024433Y021308D01*
X019808Y019683D02*
X013933Y013808D01*
X013558Y013808D01*
X013308Y014058D01*
X013308Y015808D01*
X013808Y016308D01*
X017558Y019933D02*
X018058Y019433D01*
X018590Y019871D02*
X018058Y020433D01*
X016308Y020433D01*
X012558Y024183D01*
X012558Y026308D01*
X012027Y026840D01*
X010058Y026840D01*
X010465Y026558D02*
X011933Y026558D01*
X012308Y026183D01*
X012308Y023933D01*
X016308Y019933D01*
X017558Y019933D01*
X018558Y020933D02*
X016308Y020933D01*
X014058Y023183D01*
X014058Y028683D01*
X012808Y029433D02*
X012308Y028933D01*
X012308Y027371D01*
X012058Y027121D01*
X006058Y027121D01*
X008558Y026558D02*
X009621Y026558D01*
X009777Y026402D01*
X010308Y026402D01*
X010465Y026558D01*
X011058Y024433D02*
X009558Y024433D01*
X008433Y023308D01*
X007996Y023308D01*
X007683Y023621D01*
X007683Y024308D01*
X007058Y024933D01*
X006308Y024933D01*
X005683Y024308D01*
X006683Y024308D02*
X007933Y023058D01*
X008558Y023058D01*
X009746Y024215D01*
X010902Y024215D01*
X012933Y022183D01*
X012933Y020558D01*
X013433Y020058D01*
X013808Y020058D01*
X014058Y020308D01*
X013621Y020433D02*
X013433Y020433D01*
X013183Y020683D01*
X013183Y022308D01*
X011058Y024433D01*
X015808Y026683D02*
X015808Y028933D01*
X015308Y029433D01*
X012808Y029433D01*
X018558Y020933D02*
X019183Y020308D01*
X022058Y016496D02*
X022058Y015433D01*
X019558Y012933D01*
X019558Y007683D01*
X019058Y007183D01*
X012808Y007183D01*
X012683Y006808D02*
X019183Y006808D01*
X019933Y007558D01*
X019933Y012808D01*
X022558Y015433D01*
X022558Y016496D01*
X009058Y018807D02*
X009058Y018807D01*
X007434Y018807D02*
X007432Y018807D01*
X005558Y009383D02*
X005558Y009383D01*
D28*
X005558Y009433D01*
X005508Y009383D01*
X005558Y009383D02*
X005558Y008683D01*
X005715Y008527D01*
X005715Y007777D01*
X005402Y007746D02*
X005402Y008402D01*
X005215Y008590D01*
X004840Y008590D01*
X004433Y008183D01*
X004996Y008246D02*
X003683Y006933D01*
X003683Y004183D01*
X003933Y003933D01*
X007808Y003933D01*
X008465Y003277D01*
X011746Y003277D01*
X012308Y003840D01*
X012308Y006433D01*
X012683Y006808D01*
X012558Y007183D02*
X012808Y007183D01*
X012558Y007183D02*
X011933Y006558D01*
X011933Y003871D01*
X011683Y003621D01*
X008558Y003621D01*
X007996Y004183D01*
X004152Y004183D01*
X003902Y004433D01*
X003902Y006652D01*
X004652Y006683D02*
X004715Y006683D01*
X005121Y006840D02*
X007965Y006840D01*
X011308Y010183D01*
X010933Y010683D02*
X011808Y010683D01*
X012308Y011183D01*
X012308Y010183D02*
X011808Y009683D01*
X011090Y009683D01*
X008058Y006652D01*
X005777Y006652D01*
X005183Y006058D01*
X004433Y006058D01*
X004996Y008246D02*
X005090Y008246D01*
X006058Y008558D02*
X006121Y008496D01*
X007621Y006465D02*
X007402Y006246D01*
X007402Y005340D01*
X007621Y006465D02*
X008590Y006465D01*
X011308Y009183D01*
X010683Y010433D02*
X010933Y010683D01*
X019965Y022527D02*
X023465Y022527D01*
X024308Y023558D02*
X024308Y024933D01*
X024808Y025433D01*
X019965Y022527D02*
X019746Y022746D01*
D29*
X017558Y022933D02*
X017308Y022683D01*
X016808Y022683D01*
X016558Y022933D01*
X005715Y007777D02*
X004933Y006996D01*
X004496Y006996D01*
X004308Y006808D01*
X004308Y006590D01*
X004558Y006340D01*
X004933Y006340D01*
X005027Y006433D01*
X004965Y006683D02*
X004715Y006683D01*
X004965Y006683D02*
X005121Y006840D01*
X004902Y007246D02*
X004496Y007246D01*
X004090Y006840D01*
X004090Y005965D01*
X004621Y005433D01*
X004996Y005433D01*
X003902Y006652D02*
X003902Y006902D01*
X004777Y007777D01*
X005027Y007777D01*
X005402Y007746D02*
X004902Y007246D01*
M02*
