%
M48
M72
T01C0.0157
T02C0.0236
T03C0.0276
T04C0.0320
T05C0.0354
T06C0.0394
T07C0.0400
T08C0.0433
T09C0.0472
T10C0.0591
T11C0.0700
T12C0.1102
%
T01
X4433Y4621
X4996Y5433
X4433Y6058
X5027Y6433
X4652Y6683
X5027Y7777
X5090Y8246
X4433Y8183
X6121Y8496
X6558Y8933
X6308Y9433
X5433Y10558
X4808Y11933
X2402Y12277
X4058Y14183
X3558Y15683
X4871Y15871
X7183Y17308
X9058Y18807
X9402Y18433
X11246Y17058
X10308Y15933
X9183Y16558
X11433Y18558
X12558Y18683
X11590Y19433
X13621Y20433
X13558Y20808
X14058Y20308
X13933Y19683
X15683Y19933
X16090Y19652
X16433Y18808
X15933Y18558
X14183Y17433
X14308Y16683
X13808Y16308
X13808Y15683
X13683Y14808
X13683Y14308
X12558Y14433
X12558Y15183
X12433Y15933
X11558Y14183
X10308Y13058
X10808Y12683
X12058Y12308
X13433Y11558
X13433Y10808
X14183Y10058
X14558Y11965
X14558Y13183
X16683Y14683
X20121Y14496
X20171Y16071
X22058Y16496
X22558Y16496
X21683Y17371
X21558Y18183
X22558Y19058
X23558Y18683
X24808Y17871
X25433Y17808
X26308Y17558
X28058Y18933
X28808Y18933
X29058Y19683
X30933Y18933
X32558Y19183
X32558Y19746
X33058Y21308
X35058Y21808
X35558Y21808
X36933Y22183
X35558Y23433
X35058Y22933
X34058Y24683
X33058Y25683
X35058Y25808
X35058Y26933
X36933Y24808
X35058Y19808
X34402Y17933
X29433Y22183
X26683Y21277
X26683Y20308
X24808Y20308
X24433Y21308
X24058Y22058
X23558Y23183
X24308Y23558
X22308Y23183
X21965Y22840
X22058Y24058
X22058Y25027
X21433Y25308
X20058Y24933
X19121Y25090
X20058Y25933
X20058Y22933
X19558Y22933
X19058Y22933
X18058Y22433
X17558Y22933
X17058Y22933
X16808Y22433
X16808Y21683
X16340Y21715
X15808Y22433
X18590Y19871
X18058Y19433
X19183Y20308
X19808Y19683
X19808Y19058
X22027Y20308
X22308Y20683
X22558Y20308
X27058Y24183
X27558Y25058
X27558Y25683
X28058Y25808
X29058Y26933
X29683Y26933
X28058Y27121
X27558Y27152
X14433Y26683
X12683Y26683
X11933Y26058
X10058Y26840
X9308Y26058
X8558Y26558
X8558Y24808
X8058Y23683
X6308Y21683
X5558Y21558
X4433Y21058
X3558Y21308
X3558Y22933
X5183Y23683
X3058Y25558
X6058Y27121
X8058Y28683
X11808Y28683
X10808Y23933
X11433Y21308
X7183Y19808
X8558Y10433
X9027Y9027
X10558Y7652
X11933Y7058
X9152Y4996
X7996Y6152
X7402Y5340
X7308Y4558
X6777Y3121
X10933Y4808
X7527Y7371
X2808Y7433
X22308Y14027
X22808Y12746
X24558Y13683
X23933Y14433
X26058Y13933
X26652Y13933
X25777Y12090
X25058Y12183
X23433Y10433
X25058Y7558
X26933Y7558
X28558Y4683
X31558Y4183
X31058Y8933
T02
X24558Y6933
X22058Y6308
X25933Y2433
X28683Y2808
X13058Y5308
X6808Y2308
T03
X6246Y11402
X18978Y11040
X18978Y10252
X18978Y9465
X18978Y8677
X18978Y7890
X18978Y11827
X18978Y12614
X18978Y13402
X18978Y14189
X18978Y14977
X27639Y14977
X27639Y14189
X27639Y13402
X27639Y12614
X27639Y11827
X27639Y11040
X27639Y10252
X27639Y9465
X27639Y8677
X27639Y7890
X30183Y24683
T04
X17933Y2308
X17933Y1308
T05
X11175Y2808
X9442Y2808
X6683Y24308
X5683Y24308
X14808Y25433
X15808Y25433
T06
X39486Y12533
T07
X25808Y24433
X24808Y24433
X23808Y24433
X23808Y25433
X24808Y25433
X25808Y25433
X12308Y11183
X11308Y11183
X11308Y10183
X12308Y10183
X12308Y9183
X11308Y9183
T08
X2808Y9433
X2808Y8433
X2808Y6683
X2808Y5683
X2808Y3933
X2808Y2933
X2808Y10433
X2808Y11433
X3058Y28683
X4058Y28683
X5058Y28683
X6058Y28683
X7058Y28683
X9058Y28683
X10058Y28683
X11058Y28683
X13058Y28683
X14058Y28683
X15058Y28683
X17058Y28683
X18058Y28683
X19058Y28683
X20058Y28683
X21058Y28683
X22058Y28683
X24058Y28683
X25058Y28683
X26058Y28683
X27058Y28683
X28058Y28683
X29058Y28683
X31058Y28683
X32058Y28683
X33058Y28683
X34058Y28683
X35058Y28683
X36058Y28683
X38652Y26183
X38652Y25183
X38652Y24183
X38652Y23183
X38652Y22183
X38652Y21183
X38652Y20183
X38652Y19183
T09
X38183Y29183
X40183Y29183
T10
X39486Y3084
T11
X38558Y14853
X38558Y17553
X33558Y16933
X31058Y16933
T12
X1433Y1433
X1433Y31183
X42058Y31183
X42058Y1433
M30
