%
M48
M72
T01C0.0157
T02C0.0236
T03C0.0276
T04C0.0320
T05C0.0354
T06C0.0394
T07C0.0400
T08C0.0433
T09C0.0472
T10C0.0591
T11C0.0700
T12C0.1102
%
T01
X4305Y4618
X4993Y5430
X4430Y6055
X5024Y6430
X4649Y6680
X5024Y7774
X5086Y8243
X4430Y8180
X6118Y8493
X6555Y8930
X6305Y9430
X5430Y10555
X4805Y11930
X2774Y12274
X4055Y14180
X3555Y15680
X4868Y15868
X7180Y17305
X9055Y18804
X9399Y18430
X11243Y17055
X10305Y15930
X9180Y16555
X11430Y18555
X12555Y18680
X11586Y19430
X13618Y20430
X13555Y20805
X14055Y20305
X13930Y19680
X15680Y19930
X16086Y19649
X16430Y18805
X15930Y18555
X14180Y17430
X14305Y16680
X13805Y16305
X13805Y15680
X13680Y14805
X13680Y14305
X12555Y14430
X12555Y15180
X12430Y15930
X11555Y14180
X10305Y13055
X10805Y12680
X12055Y12305
X13430Y11555
X13430Y10805
X14180Y10055
X14555Y11961
X14555Y13180
X16680Y14680
X20118Y14493
X20167Y16068
X22055Y16493
X22555Y16493
X21680Y17368
X21555Y18180
X22555Y19055
X23555Y18680
X24805Y17867
X25430Y17805
X26305Y17555
X28440Y18929
X29055Y19680
X26680Y20305
X26680Y21274
X24805Y20305
X24430Y21305
X24055Y22055
X23555Y23180
X24305Y23555
X22305Y23180
X21961Y22836
X22055Y24055
X22055Y25024
X21430Y25305
X20055Y24930
X19118Y25086
X20055Y25930
X20055Y22930
X19555Y22930
X19055Y22930
X18055Y22430
X17555Y22930
X17055Y22930
X16805Y22430
X16805Y21680
X16336Y21711
X15805Y22430
X18586Y19867
X18055Y19430
X19180Y20305
X19805Y19680
X19805Y19055
X22024Y20305
X22305Y20680
X22555Y20305
X27055Y24180
X27555Y25055
X27555Y25680
X28055Y25805
X29055Y26930
X29680Y27180
X28055Y27118
X27552Y27678
X33055Y25680
X34055Y24680
X35055Y25805
X35055Y26930
X36930Y24805
X35555Y23430
X35055Y22930
X35055Y21805
X35555Y21805
X36930Y22180
X35055Y19805
X33055Y21305
X32555Y19742
X32555Y19180
X34399Y17930
X29430Y22180
X23930Y14430
X24555Y13680
X26055Y13930
X26649Y13930
X25774Y12086
X25055Y12180
X22805Y12742
X22305Y14024
X23430Y10430
X25055Y7555
X26930Y7555
X28555Y4680
X31555Y4180
X31055Y8930
X11930Y7055
X10555Y7649
X9024Y9024
X8555Y10430
X7524Y7368
X7993Y6149
X7399Y5336
X7305Y4555
X6774Y3118
X9149Y4992
X10930Y4805
X2805Y7555
X7180Y19805
X6180Y21555
X5555Y21555
X4430Y21055
X3555Y21305
X3555Y22930
X5180Y23555
X3055Y25430
X6055Y27117
X8055Y28680
X10055Y26836
X9305Y26055
X8555Y26555
X8180Y24555
X8055Y23680
X10805Y23930
X11930Y26055
X12930Y26805
X14430Y26680
X11805Y28680
X11430Y21305
T02
X24555Y6930
X22055Y6305
X25930Y2430
X28680Y2805
X13055Y5305
X6805Y2305
T03
X18974Y7887
X18974Y8674
X18974Y9461
X18974Y10249
X18974Y11036
X18974Y11824
X18974Y12611
X18974Y13399
X18974Y14186
X18974Y14973
X27636Y14973
X27636Y14186
X27636Y13399
X27636Y12611
X27636Y11824
X27636Y11036
X27636Y10249
X27636Y9461
X27636Y8674
X27636Y7887
X30180Y24680
T04
X17930Y2305
X17930Y1305
T05
X11171Y2805
X9439Y2805
X6680Y24305
X5680Y24305
X14805Y25430
X15805Y25430
T06
X39482Y12529
T07
X25805Y24430
X24805Y24430
X24805Y25430
X25805Y25430
X23805Y25430
X23805Y24430
X12305Y11180
X12305Y10180
X12305Y9180
X11305Y9180
X11305Y10180
X11305Y11180
T08
X2805Y11430
X2805Y10430
X2805Y9430
X2805Y8430
X2805Y6680
X2805Y5680
X2805Y3930
X2805Y2930
X3055Y28680
X4055Y28680
X5055Y28680
X6055Y28680
X7055Y28680
X9055Y28680
X10055Y28680
X11055Y28680
X13055Y28680
X14055Y28680
X15055Y28680
X17055Y28680
X18055Y28680
X19055Y28680
X20055Y28680
X21055Y28680
X22055Y28680
X24055Y28680
X25055Y28680
X26055Y28680
X27055Y28680
X28055Y28680
X29055Y28680
X31055Y28680
X32055Y28680
X33055Y28680
X34055Y28680
X35055Y28680
X36055Y28680
X38649Y26180
X38649Y25180
X38649Y24180
X38649Y23180
X38649Y22180
X38649Y21180
X38649Y20180
X38649Y19180
T09
X38180Y29180
X40180Y29180
T10
X39482Y3081
T11
X38555Y14850
X38555Y17550
X33555Y16930
X31055Y16930
T12
X1430Y1430
X1430Y31180
X42055Y31180
X42055Y1430
M30
