%
M48
M72
T01C0.0157
T02C0.0236
T03C0.0276
T04C0.0354
T05C0.0394
T06C0.0400
T07C0.0470
T08C0.0591
T09C0.0700
T10C0.1102
%
T01
X5900Y3244
X6431Y4681
X6525Y5463
X7119Y6275
X8275Y5119
X10056Y4931
X12275Y3588
X11056Y7181
X9681Y7775
X8150Y9150
X7681Y10556
X5681Y9056
X5244Y8619
X5431Y9556
X4556Y10681
X3931Y12056
X2650Y12400
X3181Y14306
X2681Y15806
X3994Y15994
X6306Y17431
X8306Y16681
X9431Y16056
X10369Y17181
X10556Y18681
X10713Y19556
X11681Y18806
X13056Y19806
X13181Y20431
X12744Y20556
X12681Y20931
X10556Y21431
X9931Y24056
X7681Y24931
X7181Y23806
X4306Y23806
X2681Y23056
X2681Y21431
X3556Y21181
X4681Y21681
X5431Y21806
X6306Y19931
X8181Y18930
X8525Y18556
X11556Y16056
X11681Y15306
X11681Y14556
X10681Y14306
X9431Y13181
X9931Y12806
X11181Y12431
X12556Y11681
X12556Y10931
X13306Y10181
X15306Y12056
X13681Y12306
X13681Y13306
X14181Y13806
X12806Y14431
X12806Y14931
X12931Y15806
X12931Y16431
X13431Y16806
X14181Y16431
X14181Y17181
X13306Y17556
X15056Y18681
X15556Y18931
X15213Y19775
X14806Y20056
X15463Y21838
X15931Y21806
X15931Y22556
X16181Y23056
X16681Y23056
X17181Y22556
X18181Y23056
X18681Y23056
X19181Y23056
X21088Y22963
X21431Y23306
X21181Y24181
X21181Y25150
X20556Y25431
X19181Y25056
X18244Y25213
X19181Y26056
X22681Y23306
X23431Y23681
X23181Y22181
X23556Y21431
X23931Y20431
X25806Y20431
X25806Y21400
X28181Y22306
X28931Y20431
X28181Y19806
X27931Y19056
X27181Y19056
X29931Y20369
X31681Y20369
X33181Y19056
X34931Y19056
X34681Y22056
X34181Y22056
X34181Y23056
X34681Y23556
X36056Y22806
X36056Y24931
X34181Y25931
X33181Y24806
X32181Y25806
X34181Y27056
X28806Y27056
X28181Y27056
X27181Y27244
X26681Y27275
X27181Y25931
X26681Y25806
X26681Y25181
X26181Y24306
X21431Y20806
X21681Y20431
X21150Y20431
X21681Y19181
X22681Y18806
X20806Y17494
X20681Y18306
X18931Y19181
X18931Y19806
X18306Y20431
X17713Y19994
X17181Y19556
X14931Y22556
X11056Y26181
X11806Y26806
X10931Y28306
X9181Y26963
X8431Y26181
X7681Y26681
X7181Y28306
X5181Y27244
X2181Y25681
X13556Y26806
X21181Y16619
X21681Y16619
X20181Y15181
X21431Y14306
X19294Y16194
X25806Y13869
X28431Y13931
X29056Y15556
X29119Y16431
X27681Y15931
X30619Y15556
X34056Y13931
X32806Y12744
X31181Y12588
X30681Y10306
X30320Y7695
X30431Y6711
X28056Y6181
X26681Y7181
X23056Y6556
X22556Y5681
X20431Y5056
X19056Y5681
X19806Y3056
X23806Y3056
X26931Y3806
X6650Y7494
X4150Y7900
X4213Y8369
X3556Y8306
X1931Y7556
X3775Y6806
X4150Y6556
X3556Y6181
X4119Y5556
X3556Y4744
T02
X5931Y2431
T03
X18101Y8013
X18101Y8800
X18101Y9588
X18101Y10375
X18101Y11163
X18101Y11950
X18101Y12737
X18101Y13525
X18101Y14312
X18101Y15100
X26762Y15100
X26762Y14312
X26762Y13525
X26762Y12737
X26762Y11950
X26762Y11163
X26762Y10375
X26762Y9588
X26762Y8800
X26762Y8013
X5369Y11525
X29306Y24806
T04
X14931Y25556
X13931Y25556
X6181Y28306
X5181Y28306
X4181Y28306
X3181Y28306
X2181Y28306
X4806Y24431
X5806Y24431
X8565Y2931
X10298Y2931
T05
X1931Y3056
X1931Y4056
X1931Y5806
X1931Y6806
X1931Y8556
X1931Y9556
X1931Y10556
X1931Y11556
X8181Y28306
X9181Y28306
X10181Y28306
X12181Y28306
X13181Y28306
X14181Y28306
X16181Y28306
X17181Y28306
X18181Y28306
X19181Y28306
X20181Y28306
X21181Y28306
X23181Y28306
X24181Y28306
X25181Y28306
X26181Y28306
X27181Y28306
X28181Y28306
X30181Y28306
X31181Y28306
X32181Y28306
X33181Y28306
X34181Y28306
X35181Y28306
X37650Y26306
X37650Y25306
X37650Y24306
X37650Y23306
X37650Y22306
X37650Y21306
X37650Y20306
X37650Y19306
X38609Y12656
T06
X24931Y24556
X23931Y24556
X22931Y24556
X22931Y25556
X23931Y25556
X24931Y25556
X11431Y11306
X10431Y11306
X10431Y10306
X10431Y9306
X11431Y9306
X11431Y10306
X12291Y5336
X14071Y5336
X15291Y5336
X17071Y5336
X17071Y2776
X15291Y2776
X14071Y2776
X12291Y2776
T07
X37244Y28931
X39244Y28931
T08
X38609Y3207
T09
X37681Y14976
X37681Y17676
X32681Y17056
X30181Y17056
T10
X1556Y1556
X1556Y30056
X41181Y30056
X41181Y1556
M30
